<svg xmlns="http://www.w3.org/2000/svg" viewBox="0 0 14 12.251">
  <g>
    <path fill="currentColor" fill-rule="evenodd"
      d="M7.25468948.2570354C7.41882861.09248081 7.64169854 0 7.87412028 0c.23242174 0 .45529167.09248081.6194308.2570354l5.24941352 5.24941352C13.90751919 5.67058805 14 5.89345798 14 6.12587972c0 .23242174-.09248081.45529167-.2570354.6194308l-5.24941352 5.24941352c-.34210219.34210218-.89675941.34210218-1.2388616 0-.34210218-.34210219-.34210218-.89675941 0-1.2388616l4.63173253-4.62998272L7.25468948 1.495897c-.16455459-.16413913-.2570354-.38700906-.2570354-.6194308 0-.23242174.09248081-.45529167.2570354-.6194308z" />
    <path fill="currentColor" fill-rule="evenodd"
      d="M0 6.12587972c0-.48319517.39170708-.87490225.87490225-.87490225h11.3737293c.48319517 0 .87490225.39170708.87490225.87490225s-.39170708.87490225-.87490225.87490225H.87490225C.39170708 7.00078197 0 6.6090749 0 6.12587972z" />
  </g>
</svg>