<?xml version="1.0" encoding="UTF-8"?>
<svg width="100px" height="100px" viewBox="0 0 100 100" version="1.1" xmlns="http://www.w3.org/2000/svg" xmlns:xlink="http://www.w3.org/1999/xlink">
    <title>binance-coin-logo-svg-vector</title>
    <g id="User-Interface" stroke="none" stroke-width="1" fill="none" fill-rule="evenodd">
        <g id="Deposit-Pool" transform="translate(-1557.000000, -410.000000)" fill="#FFFFFF" fill-rule="nonzero">
            <g id="binance-coin-logo-svg-vector" transform="translate(1557.000000, 410.000000)">
                <path d="M30.5791083,42.0208739 L49.99905,22.6014322 L69.4289917,42.0308739 L80.7289578,30.7309078 L49.99905,0 L19.2796422,30.7209078 L30.5791083,42.0208739 M0,49.9983 L11.3003161,38.6979839 L22.5998822,49.9976 L11.2996661,61.2978161 L0,49.9983 Z M30.5791083,57.9788261 L49.99905,77.3982678 L69.4284917,57.9693261 L80.7344578,69.2632922 L80.7289578,69.2692922 L49.99905,99.9997 L19.2786422,69.2797922 L19.2626422,69.2637922 L30.5791083,57.9788261 M77.4001178,50.0045 L88.7004339,38.7042339 L100,50.0038 L88.6997339,61.3041161 L77.4001178,50.0045 Z" id="Shape"></path>
                <polyline id="Path" points="61.4605156 49.99385 61.4655156 49.99385 49.99905 38.5273844 41.5250754 47.001359 41.5245754 47.001359 40.5510783 47.9753561 38.5430844 49.98385 38.5270844 49.99935 38.5430844 50.01585 49.99905 61.4723156 61.4655156 50.00585 61.4710156 49.99935 61.4605156 49.99385"></polyline>
            </g>
        </g>
    </g>
</svg>