<svg viewBox="0 0 14 14" fill="none" xmlns="http://www.w3.org/2000/svg">
  <path
    d="M0.958313 2.62492V11.3749C0.958313 12.2954 1.70451 13.0416 2.62498 13.0416H11.375C12.2955 13.0416 13.0416 12.2954 13.0416 11.3749V2.62492C13.0416 1.70444 12.2955 0.958252 11.375 0.958252H2.62498C1.70451 0.958252 0.958313 1.70444 0.958313 2.62492Z"
    stroke="currentColor" stroke-width="1.5" stroke-linecap="round" stroke-linejoin="round" />
  <path
    d="M4.08333 3.66667C4.08333 3.89679 3.89679 4.08333 3.66667 4.08333C3.43655 4.08333 3.25 3.89679 3.25 3.66667C3.25 3.43655 3.43655 3.25 3.66667 3.25C3.89679 3.25 4.08333 3.43655 4.08333 3.66667Z"
    stroke="currentColor" stroke-linecap="round" stroke-linejoin="round" />
  <path
    d="M4.08333 6.99992C4.08333 7.23004 3.89679 7.41658 3.66667 7.41658C3.43655 7.41658 3.25 7.23004 3.25 6.99992C3.25 6.7698 3.43655 6.58325 3.66667 6.58325C3.89679 6.58325 4.08333 6.7698 4.08333 6.99992Z"
    stroke="currentColor" stroke-linecap="round" stroke-linejoin="round" />
  <path
    d="M7.41665 3.66667C7.41665 3.89679 7.2301 4.08333 6.99998 4.08333C6.76986 4.08333 6.58331 3.89679 6.58331 3.66667C6.58331 3.43655 6.76986 3.25 6.99998 3.25C7.2301 3.25 7.41665 3.43655 7.41665 3.66667Z"
    stroke="currentColor" stroke-linecap="round" stroke-linejoin="round" />
  <path
    d="M7.41665 6.99992C7.41665 7.23004 7.2301 7.41658 6.99998 7.41658C6.76986 7.41658 6.58331 7.23004 6.58331 6.99992C6.58331 6.7698 6.76986 6.58325 6.99998 6.58325C7.2301 6.58325 7.41665 6.7698 7.41665 6.99992Z"
    stroke="currentColor" stroke-linecap="round" stroke-linejoin="round" />
  <path
    d="M10.75 3.66667C10.75 3.89679 10.5635 4.08333 10.3334 4.08333C10.1032 4.08333 9.91669 3.89679 9.91669 3.66667C9.91669 3.43655 10.1032 3.25 10.3334 3.25C10.5635 3.25 10.75 3.43655 10.75 3.66667Z"
    stroke="currentColor" stroke-linecap="round" stroke-linejoin="round" />
  <path
    d="M10.75 6.99992C10.75 7.23004 10.5635 7.41658 10.3334 7.41658C10.1032 7.41658 9.91669 7.23004 9.91669 6.99992C9.91669 6.7698 10.1032 6.58325 10.3334 6.58325C10.5635 6.58325 10.75 6.7698 10.75 6.99992Z"
    stroke="currentColor" stroke-linecap="round" stroke-linejoin="round" />
  <path d="M3.45831 10.5417H10.5416" stroke="currentColor" stroke-width="1.5" stroke-linecap="round"
    stroke-linejoin="round" />
</svg>