<svg fill="none" xmlns="http://www.w3.org/2000/svg">
  <path
    d="M6.66663 7.33325V3.66659M20.6666 3.66659V8.99992C20.6666 9.57643 20.0394 10.1041 19 10.5113M20.6666 3.66659C20.6666 4.95525 17.5326 5.99992 13.6666 5.99992C9.80063 5.99992 6.66663 4.95525 6.66663 3.66659M20.6666 3.66659C20.6666 2.37792 17.5326 1.33325 13.6666 1.33325C9.80063 1.33325 6.66663 2.37792 6.66663 3.66659"
    stroke="currentColor" stroke-width="1.5" stroke-linecap="round" stroke-linejoin="round" />
  <path
    d="M15.3334 13.0001V18.3334C15.3334 19.6221 12.1994 20.6667 8.33337 20.6667C4.46738 20.6667 1.33337 19.6221 1.33337 18.3334V13.0001M15.3334 13.0001C15.3334 14.2887 12.1994 15.3334 8.33337 15.3334C4.46738 15.3334 1.33337 14.2887 1.33337 13.0001M15.3334 13.0001C15.3334 11.7114 12.1994 10.6667 8.33337 10.6667C4.46738 10.6667 1.33337 11.7114 1.33337 13.0001"
    stroke="currentColor" stroke-width="1.5" stroke-linecap="round" stroke-linejoin="round" />
</svg>