<svg viewBox="0 0 14 12" fill="none" xmlns="http://www.w3.org/2000/svg">
  <path
    d="M1.92867 2.15315L1.11407 8.18114C1.02053 8.87337 1.36857 9.55049 1.98591 9.87731L4.50004 11.2083L5.33337 9.12499C5.33337 9.12499 5.88025 9.54166 7.00004 9.54166C8.11983 9.54166 8.66671 9.12499 8.66671 9.12499L9.50004 11.2083L12.0142 9.87731C12.6315 9.55049 12.9796 8.87337 12.886 8.18114L12.0714 2.15315C12.0279 1.83115 11.8012 1.56381 11.4906 1.46826L9.29171 0.791687V1.20835C9.29171 1.66859 8.91861 2.04169 8.45837 2.04169H5.54171C5.08147 2.04169 4.70837 1.66859 4.70837 1.20835V0.791687L2.50943 1.46826C2.19888 1.56381 1.97218 1.83115 1.92867 2.15315Z"
    stroke="currentColor" stroke-width="1.5" stroke-linecap="round" stroke-linejoin="round" />
  <path
    d="M5.74996 5.99998C5.74996 6.2301 5.56341 6.41665 5.33329 6.41665C5.10317 6.41665 4.91663 6.2301 4.91663 5.99998C4.91663 5.76986 5.10317 5.58331 5.33329 5.58331C5.56341 5.58331 5.74996 5.76986 5.74996 5.99998Z"
    stroke="currentColor" stroke-linecap="round" stroke-linejoin="round" />
  <path
    d="M9.08333 5.99998C9.08333 6.2301 8.89679 6.41665 8.66667 6.41665C8.43655 6.41665 8.25 6.2301 8.25 5.99998C8.25 5.76986 8.43655 5.58331 8.66667 5.58331C8.89679 5.58331 9.08333 5.76986 9.08333 5.99998Z"
    stroke="currentColor" stroke-linecap="round" stroke-linejoin="round" />
</svg>