<svg xmlns="http://www.w3.org/2000/svg" viewBox="0 0 15 15">
  <path id="Path"
    d="M-1.668,4.167V2.5A.834.834,0,0,0-2.5,1.666H-4.168A.832.832,0,0,1-5,.833.832.832,0,0,1-4.168,0H-2.5A2.5,2.5,0,0,1,0,2.5V4.167A.832.832,0,0,1-.832,5,.835.835,0,0,1-1.668,4.167Z"
    transform="translate(15)" fill="currentColor" />
  <path id="Path-2" data-name="Path"
    d="M0,.83V2.5A2.5,2.5,0,0,1-2.5,5H-4.168A.832.832,0,0,1-5,4.167a.832.832,0,0,1,.832-.833H-2.5A.834.834,0,0,0-1.668,2.5V.833A.832.832,0,0,1-.835,0,.832.832,0,0,1,0,.83Z"
    transform="translate(15 10)" fill="currentColor" />
  <path id="Path-3" data-name="Path"
    d="M-.833,1.668H-2.5a.832.832,0,0,0-.833.832V4.168A.832.832,0,0,1-4.167,5,.832.832,0,0,1-5,4.168V2.5A2.5,2.5,0,0,1-2.5,0H-.833A.832.832,0,0,1,0,.832.831.831,0,0,1-.833,1.668Z"
    transform="translate(5)" fill="currentColor" />
  <path id="Path-4" data-name="Path"
    d="M-.83,5H-2.5A2.5,2.5,0,0,1-5,2.5V.832A.832.832,0,0,1-4.167,0a.832.832,0,0,1,.833.832V2.5a.834.834,0,0,0,.833.832H-.833A.832.832,0,0,1,0,4.165.826.826,0,0,1-.83,5Z"
    transform="translate(5 10)" fill="currentColor" />
  <path id="Path-5" data-name="Path"
    d="M-.995,2h-.011A1,1,0,0,1-2,1a1,1,0,0,1,.995-1h.011A1,1,0,0,1,0,1,1,1,0,0,1-.995,2" transform="translate(11 6)"
    fill="currentColor" />
  <path id="Path-6" data-name="Path"
    d="M-.995,2h-.011A1,1,0,0,1-2,1a1,1,0,0,1,.995-1h.011A1,1,0,0,1,0,1,1,1,0,0,1-.995,2" transform="translate(6 6)"
    fill="currentColor" />
  <path id="Path-7" data-name="Path"
    d="M-.245,1.114A4.5,4.5,0,0,1-3,2a4.541,4.541,0,0,1-2.7-.844l-.006,0-.042-.032a.554.554,0,0,1,0-.927,1.052,1.052,0,0,1,1.212,0L-4.5.224-5.1.688-4.5.22A2.508,2.508,0,0,0-3,.688,2.506,2.506,0,0,0-1.469.2,1.052,1.052,0,0,1-.257.187a.554.554,0,0,1,.012.927Z"
    transform="translate(11 10)" fill="currentColor" />
</svg>