<svg viewBox="0 0 25 24" fill="none" xmlns="http://www.w3.org/2000/svg">
  <g clip-path="url(#clip0_522_41199)">
    <path
      d="M12.5 24C11.5 24 10.6667 23.6771 10 23.0312C9.33333 22.3854 9 21.6042 9 20.6875C9 20.1667 9.10417 19.6979 9.3125 19.2812C9.52083 18.8646 9.88542 18.4062 10.4063 17.9063C10.9479 17.4062 11.375 16.9375 11.6875 16.5C12.0208 16.0417 12.1875 15.6458 12.1875 15.3125V14.1875C11.7292 14.0833 11.3229 13.875 10.9688 13.5625C10.6354 13.2292 10.4167 12.8333 10.3125 12.375H9.1875C8.83333 12.375 8.41666 12.5417 7.9375 12.875C7.45833 13.2083 7 13.6146 6.5625 14.0938C6.125 14.5729 5.6875 14.927 5.25 15.1562C4.83333 15.3854 4.35417 15.5 3.8125 15.5C2.875 15.5 2.08333 15.1667 1.4375 14.5C0.8125 13.8334 0.5 13 0.5 12C0.5 11 0.8125 10.1667 1.4375 9.5C2.08333 8.83333 2.875 8.5 3.8125 8.5C4.6875 8.5 5.4375 8.8125 6.0625 9.4375C6.6875 10.0625 7.25 10.5937 7.75 11.0313C8.25 11.4687 8.72917 11.6875 9.1875 11.6875H10.3125C10.4167 11.2083 10.6354 10.8125 10.9688 10.5C11.3229 10.1667 11.7292 9.95833 12.1875 9.87499V8.75C12.1875 8.20834 11.7708 7.52083 10.9375 6.6875L10.2812 6.03125C9.42709 5.17709 9 4.27084 9 3.3125C9 2.375 9.33333 1.59374 10 0.968749C10.6875 0.322916 11.5208 0 12.5 0C13.5 0 14.3334 0.322916 15 0.968749C15.6667 1.61459 16 2.39584 16 3.3125C16 4.375 15.4791 5.375 14.4375 6.3125C13.3958 7.27084 12.875 8.08333 12.875 8.75V9.87499C13.3542 9.95833 13.75 10.1667 14.0625 10.5C14.3959 10.8125 14.6042 11.2083 14.6875 11.6875H15.8125C16.5208 11.6875 17.3334 11.1562 18.25 10.0938C19.1875 9.03125 20.1667 8.5 21.1875 8.5C22.125 8.5 22.9063 8.84375 23.5312 9.53125C24.1771 10.1979 24.5 11.0208 24.5 12C24.5 13 24.1771 13.8334 23.5312 14.5C22.8854 15.1667 22.1042 15.5 21.1875 15.5C20.3125 15.5 19.5729 15.1979 18.9687 14.5938C18.3646 13.9896 17.8021 13.4688 17.2813 13.0313C16.7604 12.5938 16.2709 12.375 15.8125 12.375H14.6875C14.5208 13.375 13.9167 13.9792 12.875 14.1875V15.3125C12.875 15.9374 13.3958 16.7396 14.4375 17.7187C15.4791 18.6979 16 19.6874 16 20.6875C16 21.625 15.6562 22.4063 14.9688 23.0312C14.302 23.6771 13.4792 24 12.5 24Z"
      fill="currentColor" />
  </g>
  <defs>
    <clipPath id="clip0_522_41199">
      <rect width="24" height="24" fill="white" transform="translate(0.5)" />
    </clipPath>
  </defs>
</svg>