<svg viewBox="0 0 14 12" fill="none" xmlns="http://www.w3.org/2000/svg">
  <path
    d="M4.75838 11.2084C9.31828 11.2084 11.812 7.20034 11.812 3.72503C11.812 3.53076 11.9497 3.35854 12.1267 3.27839C12.7336 3.00352 13.5208 2.2496 12.7079 0.981982C12.1693 1.27154 11.7266 1.42977 11.1336 1.62048C10.195 0.561691 8.62465 0.510652 7.62618 1.50642C6.98212 2.14857 6.70919 3.1058 6.90898 4.01929C4.91546 3.91356 2.58161 2.44647 1.32296 0.803343C0.665161 2.00535 1.00093 3.54275 2.09022 4.3151C1.69555 4.3026 1.3097 4.18959 0.965096 3.98595V4.01929C0.965096 5.27129 1.79716 6.34935 2.9537 6.59725C2.58897 6.70297 2.20607 6.7186 1.83447 6.64256C2.15944 7.71384 3.56649 8.91585 4.62731 8.93721C3.7491 9.66893 2.66472 10.0663 1.54843 10.0653C1.35109 10.0647 1.15424 10.0522 0.958374 10.0272C2.09234 10.7991 3.41137 11.2084 4.75838 11.2063V11.2084Z"
    stroke="currentColor" stroke-width="1.5" stroke-linecap="round" stroke-linejoin="round" />
</svg>