<?xml version="1.0" encoding="UTF-8"?>
<svg width="31px" height="35px" viewBox="0 0 31 35" version="1.1" xmlns="http://www.w3.org/2000/svg" xmlns:xlink="http://www.w3.org/1999/xlink">
    <title>pendrive-usb-svgrepo-com</title>
    <g id="Page-1" stroke="none" stroke-width="1" fill="none" fill-rule="evenodd">
        <g id="Portfolio" transform="translate(-818.000000, -696.000000)" fill="#0052FF" fill-rule="nonzero">
            <g id="pendrive-usb-svgrepo-com" transform="translate(818.000000, 696.000000)">
                <path d="M30.0418676,15.2332677 L16.6551951,15.2332677 L16.6551951,10.4104331 C16.6551951,8.28149606 14.5282771,8.46751969 14.5282771,8.46751969 L14.5282771,0.971456693 C14.5282771,0.434055118 14.1001754,0 13.5701447,0 L3.08505042,0 C2.55501973,0 2.12691802,0.434055118 2.12691802,0.971456693 L2.12691802,8.46751969 C2.12691802,8.46751969 0,8.26082677 0,10.4104331 L0,33.0570866 C0,34.1318898 0.862998685,35 1.9162648,35 L14.7389303,35 C15.7989917,35 16.6551951,34.125 16.6551951,33.0570866 L16.6551951,32.1269685 L30.0418676,32.1269685 C30.5718983,32.1269685 31,31.6929134 31,31.1555118 L31,16.2047244 C31,15.6673228 30.5718983,15.2332677 30.0418676,15.2332677 Z M4.04318281,1.94291339 L12.6120123,1.94291339 L12.6120123,8.46751969 L4.04318281,8.46751969 L4.04318281,1.94291339 Z M14.7389303,33.0570866 L1.9162648,33.0570866 L1.9162648,10.4104331 L14.7389303,10.4104331 L14.7389303,15.2332677 L11.246164,15.2332677 C6.65256466,15.2332677 2.91516879,19.0226378 2.91516879,23.6801181 C2.91516879,28.3375984 6.65256466,32.1269685 11.246164,32.1269685 L14.7389303,32.1269685 L14.7389303,33.0570866 Z M29.0837352,19.9183071 L26.5219202,19.9183071 C25.9918895,19.9183071 25.5637878,20.3523622 25.5637878,20.8897638 C25.5637878,21.4271654 25.9918895,21.8612205 26.5219202,21.8612205 L29.0837352,21.8612205 L29.0837352,23.8041339 L28.438185,23.8041339 C27.9081543,23.8041339 27.4800526,24.238189 27.4800526,24.7755906 C27.4800526,25.3129921 27.9081543,25.7470472 28.438185,25.7470472 L29.0837352,25.7470472 L29.0837352,30.1771654 L11.246164,30.1771654 C7.71262604,30.1771654 4.83143358,27.2627953 4.83143358,23.6732283 C4.83143358,20.0836614 7.70583078,17.1692913 11.246164,17.1692913 L29.0837352,17.1692913 L29.0837352,19.9183071 Z" id="Shape"></path>
                <path d="M10.5,19 C8.02193646,19 6,21.0151286 6,23.5 C6,25.9848714 8.02193646,28 10.5,28 C12.9780635,28 15,25.9780635 15,23.5 C15,21.0219365 12.9780635,19 10.5,19 Z M10.5068079,26.0801815 C9.08396369,26.0801815 7.92662632,24.9228442 7.92662632,23.5 C7.92662632,22.0771558 9.08396369,20.9198185 10.5068079,20.9198185 C11.929652,20.9198185 13.0869894,22.0771558 13.0869894,23.5 C13.0869894,24.9228442 11.929652,26.0801815 10.5068079,26.0801815 Z" id="Shape"></path>
                <path d="M6,4 C5.44680851,4 5,4.37649402 5,4.84262948 L5,6.15737052 C5,6.62350598 5.44680851,7 6,7 C6.55319149,7 7,6.62350598 7,6.15737052 L7,4.84262948 C7,4.37649402 6.55319149,4 6,4 Z" id="Path"></path>
                <path d="M10.5,4 C9.94680851,4 9.5,4.37649402 9.5,4.84262948 L9.5,6.15737052 C9.5,6.62350598 9.94680851,7 10.5,7 C11.0531915,7 11.5,6.62350598 11.5,6.15737052 L11.5,4.84262948 C11.5,4.37649402 11.0531915,4 10.5,4 Z" id="Path"></path>
            </g>
        </g>
    </g>
</svg>