<svg viewBox="0 0 16 16" fill="none" xmlns="http://www.w3.org/2000/svg">
    <path
        d="M1.62117 10.9627L2.72197 11.1351C3.53458 11.2623 4.11491 12.0066 4.05506 12.8451L3.97396 13.9816C3.95034 14.3127 4.12672 14.6244 4.41885 14.7686L5.23303 15.1697C5.52516 15.3139 5.87399 15.2599 6.11257 15.0352L6.93069 14.262C7.53385 13.6917 8.46457 13.6917 9.06852 14.262L9.88664 15.0352C10.1252 15.2608 10.4733 15.3139 10.7662 15.1697L11.5819 14.7678C11.8733 14.6244 12.0489 14.3135 12.0253 13.9833L11.9441 12.8451C11.8843 12.0066 12.4646 11.2623 13.2772 11.1351L14.378 10.9627C14.6985 10.9128 14.9568 10.6671 15.0292 10.3433L15.23 9.44276C15.3025 9.11896 15.1741 8.78307 14.9064 8.5962L13.9875 7.95262C13.3095 7.47738 13.1024 6.54947 13.5119 5.82051L14.067 4.83299C14.2284 4.54543 14.2017 4.18538 13.9993 3.92602L13.4363 3.2035C13.2339 2.94413 12.8969 2.83701 12.5867 2.93447L11.5221 3.26794C10.7355 3.51441 9.89688 3.1012 9.59451 2.31908L9.18663 1.26148C9.06694 0.952178 8.77481 0.749197 8.44961 0.750002L7.54724 0.752419C7.22204 0.753224 6.93069 0.957817 6.81258 1.26793L6.41494 2.31344C6.11572 3.1004 5.27319 3.51683 4.4842 3.26874L3.37553 2.92078C3.0645 2.82251 2.72591 2.93044 2.52355 3.19142L1.96448 3.91474C1.76212 4.17652 1.73771 4.53738 1.90228 4.82493L2.47 5.81487C2.88812 6.54464 2.68339 7.48141 2.00149 7.95906L1.0936 8.59539C0.825885 8.78307 0.697536 9.11896 0.769978 9.44195L0.970768 10.3425C1.04242 10.6671 1.30069 10.9128 1.62117 10.9627Z"
        stroke="currentColor" stroke-width="1.5" stroke-linecap="round" stroke-linejoin="round" />
    <path
        d="M9.59107 6.40893C10.4696 7.28751 10.4696 8.71249 9.59107 9.59107C8.71249 10.4696 7.28751 10.4696 6.40893 9.59107C5.53036 8.71249 5.53036 7.28751 6.40893 6.40893C7.28751 5.53036 8.71249 5.53036 9.59107 6.40893Z"
        stroke="currentColor" stroke-width="1.5" stroke-linecap="round" stroke-linejoin="round" />
</svg>