<svg viewBox="0 0 10 10" fill="none" xmlns="http://www.w3.org/2000/svg">
  <path
    d="M4.1446 0.720574L0.379604 4.46857C0.0966043 4.75057 0.0966043 5.24957 0.379604 5.53257L4.1446 9.28057C4.4386 9.57257 4.9136 9.57157 5.2056 9.27757C5.4976 8.98357 5.4976 8.50957 5.2036 8.21657L2.7266 5.74957L9.0816 5.74957C9.4966 5.74957 9.8316 5.41357 9.8316 4.99957C9.8316 4.58557 9.4966 4.24957 9.0816 4.24957L2.7266 4.24957L5.2036 1.78357C5.3506 1.63657 5.4236 1.44457 5.4236 1.25157C5.4236 1.06057 5.3506 0.868574 5.2056 0.722574C4.9136 0.429574 4.4386 0.428574 4.1446 0.720574Z"
    fill="currentColor" />
</svg>