<svg viewBox="0 0 18 20" fill="none" xmlns="http://www.w3.org/2000/svg">
  <path opacity="0.4"
    d="M13.191 0H4.81C1.77 0 0 1.78 0 4.83V15.16C0 18.26 1.77 20 4.81 20H13.191C16.28 20 18 18.26 18 15.16V4.83C18 1.78 16.28 0 13.191 0Z"
    fill="currentColor" />
  <path fill-rule="evenodd" clip-rule="evenodd"
    d="M5.08002 4.64999V4.65999C4.64902 4.65999 4.30002 5.00999 4.30002 5.43999C4.30002 5.86999 4.64902 6.21999 5.08002 6.21999H8.06902C8.50002 6.21999 8.85002 5.86999 8.85002 5.42899C8.85002 4.99999 8.50002 4.64999 8.06902 4.64999H5.08002ZM12.92 10.74H5.08002C4.64902 10.74 4.30002 10.39 4.30002 9.95999C4.30002 9.52999 4.64902 9.17899 5.08002 9.17899H12.92C13.35 9.17899 13.7 9.52999 13.7 9.95999C13.7 10.39 13.35 10.74 12.92 10.74ZM12.92 15.31H5.08002C4.78002 15.35 4.49002 15.2 4.33002 14.95C4.17002 14.69 4.17002 14.36 4.33002 14.11C4.49002 13.85 4.78002 13.71 5.08002 13.74H12.92C13.319 13.78 13.62 14.12 13.62 14.53C13.62 14.929 13.319 15.27 12.92 15.31Z"
    fill="currentColor" />
</svg>