<svg viewBox="0 0 16 16" fill="none" xmlns="http://www.w3.org/2000/svg">
  <path
    d="M14.25 11.7499C13.2352 12.2904 12.23 12.25 11 12.25C6.99594 12.25 3.75 9.00407 3.75 5.00001C3.75 3.77001 3.70951 2.76474 4.25 1.74994C1.96125 2.96891 0.75 5.2259 0.75 7.99998C0.75 12.004 3.99594 15.25 8 15.25C10.7741 15.25 13.031 14.0387 14.25 11.7499Z"
    stroke="currentColor" stroke-width="1.5" stroke-linecap="round" stroke-linejoin="round" />
  <path
    d="M12 0.75C12 2.95914 10.9591 5 8.75 5C10.9591 5 12 7.04086 12 9.25C12 7.04086 13.0409 5 15.25 5C13.0409 5 12 2.95914 12 0.75Z"
    stroke="currentColor" stroke-width="1.5" stroke-linecap="round" stroke-linejoin="round" />
</svg>