<svg xmlns="http://www.w3.org/2000/svg" viewBox="0 0 20 20">
  <g>
    <ellipse cx="10" cy="10" fill="rgb(240,240,240)" rx="10" ry="10" />
    <g>
      <path fill="rgb(216,0,39)" fill-rule="evenodd"
        d="M9.56523438 10H20c0-.90257813-.1203125-1.77695313-.34449219-2.60871094H9.56523438V10z" />
      <path fill="rgb(216,0,39)" fill-rule="evenodd"
        d="M9.56523438 4.78261719h8.96703125c-.61214844-.99890625-1.39484375-1.88183594-2.30742188-2.60871094H9.56523438v2.60871094z" />
      <path fill="rgb(216,0,39)" fill-rule="evenodd"
        d="M10 20c2.35347656 0 4.51664062-.8134375 6.22484375-2.17390625H3.77515625C5.48335937 19.1865625 7.64652344 20 10 20z" />
      <path fill="rgb(216,0,39)" fill-rule="evenodd"
        d="M1.46773437 15.21738281h17.06453125c.49144532-.80191406.87257813-1.67847656 1.1232422-2.60871094H.34449218c.25066406.93023438.63179687 1.80679688 1.12324218 2.60871094z" />
    </g>
    <path fill="rgb(0,82,180)" fill-rule="evenodd"
      d="M5.54347992 1.5616455h-.91129303C6.18300629.57305909 8.0245285 0 10 0v10H0c0-.42230225.02648163-.8383789.07730103-1.2468872l.5077362-.36895753L1.43265533 9l-.3237915-.99645996.84765625-.6157837H.90879058l-.28386687-.87377929c.0982437-.2642212.20753479-.52313232.32702636-.77630615l.48070526.3493042-.25765228-.79302979c.07726288-.14459228.15789032-.28704834.241951-.4272461l.53956603-.3920288H1.6645279c.5390625-.81152344 1.19320679-1.539917 1.93953705-2.16156006l-.2796936.86077881.8476181-.6157837.8476181.6157837-.32378387-.99639893.84765625-.61584472zm3.06307983 1.61224366l-.3237915-.99645996.84765625-.6157837H8.082695L7.75894166.56518556l-.32374573.99645996H6.3874588l.84765625.61578369-.3237915.99645996.8476181-.6157837.8476181.6157837zM4.69581604 5.09051514l.3237915.99645996-.8476181-.6157837-.8476181.6157837.3237915-.99645996-.84765625-.6157837h1.04773712l.32374573-.99645996.32375336.99645997h1.04772949l-.84765625.61578369zm3.58695221 0l.3237915.99645996-.8476181-.6157837-.8476181.6157837.3237915-.99645996-.84765625-.6157837h1.04773712l.32374573-.99645996.32375336.99645997H9.1304245l-.84765625.61578369zM4.17198945 8.3842163L5.01960754 9l-.32379151-.99645996.84765625-.6157837h-1.0477295l-.32375335-.99645995-.32374573.99645996H2.8005066l.84765625.61578369L3.32437134 9l.8476181-.6157837zm3.5869522 0L8.60655975 9l-.3237915-.99645996.84765625-.6157837H8.082695l-.32375335-.99645995-.32374573.99645996H6.3874588l.84765625.61578369L6.91132355 9l.8476181-.6157837z" />
  </g>
</svg>