<svg width="20" height="18" viewBox="0 0 20 18" fill="none" xmlns="http://www.w3.org/2000/svg">
<path fill-rule="evenodd" clip-rule="evenodd" d="M19.9964 5.37513H15.7618C13.7911 5.37859 12.1947 6.93514 12.1911 8.85657C12.1884 10.7823 13.7867 12.3458 15.7618 12.3484H20V12.6543C20 16.0136 17.9636 18 14.5173 18H5.48356C2.03644 18 0 16.0136 0 12.6543V5.33786C0 1.97862 2.03644 0 5.48356 0H14.5138C17.96 0 19.9964 1.97862 19.9964 5.33786V5.37513ZM4.7403 5.36742H10.3803H10.3839H10.391C10.8132 5.36569 11.1545 5.03029 11.1527 4.61775C11.151 4.20608 10.8061 3.87327 10.3839 3.87501H4.7403C4.32074 3.87674 3.9803 4.20868 3.97852 4.61862C3.97674 5.03029 4.31808 5.36569 4.7403 5.36742Z" fill="#8D8D94"/>
<path opacity="0.4" d="M14.0374 9.29657C14.2465 10.2478 15.0805 10.917 16.0326 10.8996H19.2825C19.6787 10.8996 20 10.5715 20 10.166V7.63439C19.9991 7.22973 19.6787 6.90077 19.2825 6.8999H15.9561C14.8731 6.90338 13.9983 7.80235 14 8.91018C14 9.03985 14.0128 9.16951 14.0374 9.29657Z" fill="#8D8D94"/>
<circle cx="16" cy="8.8999" r="1" fill="#8D8D94"/>
</svg>
