<svg  viewBox="0 0 14 14" fill="none" xmlns="http://www.w3.org/2000/svg">
<path d="M13.0417 5.3335C13.0417 7.60761 11.875 9.7085 10.75 9.7085C9.62499 9.7085 8.45834 7.60761 8.45834 5.3335C8.45834 3.05938 9.62499 0.958496 10.75 0.958496C11.875 0.958496 13.0417 3.05938 13.0417 5.3335Z" stroke="currentColor" stroke-width="1.5"/>
<path d="M10.75 9.7085C10.75 9.7085 3.66668 8.25016 2.83334 8.04183C2.00001 7.8335 0.958344 6.74128 0.958344 5.3335C0.958344 3.92571 2.00001 2.8335 2.83334 2.62516C3.66668 2.41683 10.75 0.958496 10.75 0.958496" stroke="currentColor" stroke-width="1.5"/>
<path d="M2.625 8.25V11.375C2.625 12.2955 3.37119 13.0417 4.29167 13.0417H4.70833C5.62881 13.0417 6.375 12.2955 6.375 11.375V9.08333" stroke="currentColor" stroke-width="1.5"/>
</svg>
