<svg viewBox="0 0 21 22" fill="none" xmlns="http://www.w3.org/2000/svg">
  <path
    d="M18.3333 15.3333H20.3333V17.3333H0.333332V15.3333H2.33333V8.33331C2.33333 6.21158 3.17619 4.17675 4.67648 2.67646C6.17677 1.17617 8.2116 0.333313 10.3333 0.333313C12.4551 0.333313 14.4899 1.17617 15.9902 2.67646C17.4905 4.17675 18.3333 6.21158 18.3333 8.33331V15.3333ZM16.3333 15.3333V8.33331C16.3333 6.74201 15.7012 5.21589 14.576 4.09067C13.4508 2.96545 11.9246 2.33331 10.3333 2.33331C8.74203 2.33331 7.21591 2.96545 6.09069 4.09067C4.96547 5.21589 4.33333 6.74201 4.33333 8.33331V15.3333H16.3333ZM7.33333 19.3333H13.3333V21.3333H7.33333V19.3333Z"
    fill="currentColor" />
</svg>