<svg viewBox="0 0 16 16" fill="none" xmlns="http://www.w3.org/2000/svg">
  <path
    d="M4.75 5.25V2.5M15.25 2.5V6.5C15.25 6.93238 14.7796 7.32814 14 7.63351M15.25 2.5C15.25 3.4665 12.8995 4.25 10 4.25C7.10051 4.25 4.75 3.4665 4.75 2.5M15.25 2.5C15.25 1.5335 12.8995 0.75 10 0.75C7.10051 0.75 4.75 1.5335 4.75 2.5"
    stroke="currentColor" stroke-width="1.5" stroke-linecap="round" stroke-linejoin="round" />
  <path
    d="M11.25 9.5V13.5C11.25 14.4665 8.89949 15.25 6 15.25C3.10051 15.25 0.75 14.4665 0.75 13.5V9.5M11.25 9.5C11.25 10.4665 8.89949 11.25 6 11.25C3.10051 11.25 0.75 10.4665 0.75 9.5M11.25 9.5C11.25 8.5335 8.89949 7.75 6 7.75C3.10051 7.75 0.75 8.5335 0.75 9.5"
    stroke="currentColor" stroke-width="1.5" stroke-linecap="round" stroke-linejoin="round" />
</svg>