<svg viewBox="0 0 16 14" fill="none" xmlns="http://www.w3.org/2000/svg">
  <path
    d="M1.91455 2.38375L0.937033 9.61734C0.82478 10.448 1.24243 11.2606 1.98324 11.6528L5.00019 13.25L6.00019 10.75C6.00019 10.75 6.65644 11.25 8.00019 11.25C9.34394 11.25 10.0002 10.75 10.0002 10.75L11.0002 13.25L14.0171 11.6528C14.758 11.2606 15.1756 10.448 15.0634 9.61734L14.0858 2.38375C14.0336 1.99736 13.7616 1.67655 13.3889 1.56189L10.7502 0.75V1.25C10.7502 1.80228 10.3025 2.25 9.75019 2.25H6.25019C5.69791 2.25 5.25019 1.80228 5.25019 1.25V0.75L2.61146 1.56189C2.2388 1.67655 1.96676 1.99736 1.91455 2.38375Z"
    stroke="currentColor" stroke-width="1.5" stroke-linecap="round" stroke-linejoin="round" />
  <path
    d="M6.5 7C6.5 7.27614 6.27614 7.5 6 7.5C5.72386 7.5 5.5 7.27614 5.5 7C5.5 6.72386 5.72386 6.5 6 6.5C6.27614 6.5 6.5 6.72386 6.5 7Z"
    stroke="currentColor" stroke-linecap="round" stroke-linejoin="round" />
  <path
    d="M10.5 7C10.5 7.27614 10.2761 7.5 10 7.5C9.72386 7.5 9.5 7.27614 9.5 7C9.5 6.72386 9.72386 6.5 10 6.5C10.2761 6.5 10.5 6.72386 10.5 7Z"
    stroke="currentColor" stroke-linecap="round" stroke-linejoin="round" />
</svg>