<svg  viewBox="0 0 14 14" fill="none" xmlns="http://www.w3.org/2000/svg">
<path d="M13.0417 7.00001C13.0417 10.3367 10.3368 13.0417 7.00004 13.0417C3.66332 13.0417 0.958374 10.3367 0.958374 7.00001C0.958374 3.66329 3.66332 0.958344 7.00004 0.958344C10.3368 0.958344 13.0417 3.66329 13.0417 7.00001Z" stroke="currentColor" stroke-width="1.5" stroke-linecap="round" stroke-linejoin="round"/>
<path d="M8.875 4.29166H6.47917C5.73128 4.29166 5.125 4.89794 5.125 5.64582C5.125 6.39371 5.73128 6.99999 6.47917 6.99999H7.52083C8.26872 6.99999 8.875 7.60627 8.875 8.35416C8.875 9.10204 8.26872 9.70832 7.52083 9.70832H5.125" stroke="currentColor" stroke-width="1.5" stroke-linecap="round" stroke-linejoin="round"/>
<path d="M7 3.45834V3.87501" stroke="currentColor" stroke-width="1.5" stroke-linecap="round" stroke-linejoin="round"/>
<path d="M7 10.125V10.5417" stroke="currentColor" stroke-width="1.5" stroke-linecap="round" stroke-linejoin="round"/>
</svg>
