<svg xmlns="http://www.w3.org/2000/svg" viewBox="0 0 20 20">
  <g>
    <path fill="none" d="M0 0h20v20H0V0z" />
    <path fill="currentColor" fill-rule="evenodd"
      d="M19.01583862 10C18.23165894 5.7333374 14.49331665 2.5 10 2.5 5.50665283 2.5 1.76748657 5.7333374.98416138 10 1.76834106 14.2666626 5.50665283 17.5 10 17.5c4.49331665 0 8.23248291-3.2333374 9.01583862-7.5zm-1.70169067 0C16.53485107 13.41223145 13.50009155 15.83258057 10 15.83331299 6.49987793 15.83258057 3.46514893 13.41223145 2.68582153 10 3.46798706 6.59057617 6.50201416 4.17376709 10 4.17376709c3.49798584 0 6.53201294 2.41680908 7.31414795 5.82623291zM10 13.75c-2.07107544 0-3.75-1.67892456-3.75-3.75S7.92892456 6.25 10 6.25s3.75 1.67892456 3.75 3.75-1.67892456 3.75-3.75 3.75zM12.08331299 10c0 1.15057373-.93273926 2.08331299-2.08331299 2.08331299-1.15060425 0-2.0833435-.93273926-2.0833435-2.08331299 0-1.15060425.93273925-2.0833435 2.0833435-2.0833435 1.15057373 0 2.08331299.93273925 2.08331299 2.0833435z" />
  </g>
</svg>