<svg viewBox="0 0 16 16" fill="none" xmlns="http://www.w3.org/2000/svg">
  <path
    d="M13.4995 6.25C13.4995 6.66421 13.8353 7 14.2495 7C14.6637 7 14.9995 6.66421 14.9995 6.25H13.4995ZM0.999512 6.25C0.999512 6.66421 1.3353 7 1.74951 7C2.16373 7 2.49951 6.66421 2.49951 6.25H0.999512ZM3.74951 1.5H12.2495V0H3.74951V1.5ZM13.4995 2.75V6.25H14.9995V2.75H13.4995ZM2.49951 6.25V2.75H0.999512V6.25H2.49951ZM12.2495 1.5C12.9399 1.5 13.4995 2.05964 13.4995 2.75H14.9995C14.9995 1.23122 13.7683 0 12.2495 0V1.5ZM3.74951 0C2.23073 0 0.999512 1.23122 0.999512 2.75H2.49951C2.49951 2.05964 3.05916 1.5 3.74951 1.5V0Z"
    fill="currentColor" />
  <path
    d="M15 12.75C15 12.3358 14.6642 12 14.25 12C13.8358 12 13.5 12.3358 13.5 12.75H15ZM2.5 12.75C2.5 12.3358 2.16421 12 1.75 12C1.33579 12 1 12.3358 1 12.75H2.5ZM3.75 16H12.25V14.5H3.75V16ZM15 13.25V12.75H13.5V13.25H15ZM1 12.75V13.25H2.5V12.75H1ZM12.25 16C13.7688 16 15 14.7688 15 13.25H13.5C13.5 13.9404 12.9404 14.5 12.25 14.5V16ZM3.75 14.5C3.05964 14.5 2.5 13.9404 2.5 13.25H1C1 14.7688 2.23122 16 3.75 16V14.5Z"
    fill="currentColor" />
  <path
    d="M0.75 8.5C0.335786 8.5 0 8.83579 0 9.25C0 9.66421 0.335786 10 0.75 10V8.5ZM15.25 10C15.6642 10 16 9.66421 16 9.25C16 8.83579 15.6642 8.5 15.25 8.5V10ZM0.75 10H15.25V8.5H0.75V10Z"
    fill="currentColor" />
</svg>