<svg viewBox="0 0 24 24" fill="none" xmlns="http://www.w3.org/2000/svg">
<path d="M12 24C11 24 10.1667 23.6771 9.5 23.0312C8.83333 22.3854 8.5 21.6042 8.5 20.6875C8.5 20.1667 8.60417 19.6979 8.8125 19.2812C9.02083 18.8646 9.38542 18.4062 9.90625 17.9063C10.4479 17.4062 10.875 16.9375 11.1875 16.5C11.5208 16.0417 11.6875 15.6458 11.6875 15.3125V14.1875C11.2292 14.0833 10.8229 13.875 10.4688 13.5625C10.1354 13.2292 9.91667 12.8333 9.8125 12.375H8.6875C8.33333 12.375 7.91666 12.5417 7.4375 12.875C6.95833 13.2083 6.5 13.6146 6.0625 14.0938C5.625 14.5729 5.1875 14.927 4.75 15.1562C4.33333 15.3854 3.85417 15.5 3.3125 15.5C2.375 15.5 1.58333 15.1667 0.9375 14.5C0.3125 13.8334 0 13 0 12C0 11 0.3125 10.1667 0.9375 9.5C1.58333 8.83333 2.375 8.5 3.3125 8.5C4.1875 8.5 4.9375 8.8125 5.5625 9.4375C6.1875 10.0625 6.75 10.5937 7.25 11.0313C7.75 11.4687 8.22917 11.6875 8.6875 11.6875H9.8125C9.91667 11.2083 10.1354 10.8125 10.4688 10.5C10.8229 10.1667 11.2292 9.95833 11.6875 9.87499V8.75C11.6875 8.20834 11.2708 7.52083 10.4375 6.6875L9.78125 6.03125C8.92709 5.17709 8.5 4.27084 8.5 3.3125C8.5 2.375 8.83333 1.59374 9.5 0.968749C10.1875 0.322916 11.0208 0 12 0C13 0 13.8334 0.322916 14.5 0.968749C15.1667 1.61459 15.5 2.39584 15.5 3.3125C15.5 4.375 14.9791 5.375 13.9375 6.3125C12.8958 7.27084 12.375 8.08333 12.375 8.75V9.87499C12.8542 9.95833 13.25 10.1667 13.5625 10.5C13.8959 10.8125 14.1042 11.2083 14.1875 11.6875H15.3125C16.0208 11.6875 16.8334 11.1562 17.75 10.0938C18.6875 9.03125 19.6667 8.5 20.6875 8.5C21.625 8.5 22.4063 8.84375 23.0312 9.53125C23.6771 10.1979 24 11.0208 24 12C24 13 23.6771 13.8334 23.0312 14.5C22.3854 15.1667 21.6042 15.5 20.6875 15.5C19.8125 15.5 19.0729 15.1979 18.4687 14.5938C17.8646 13.9896 17.3021 13.4688 16.7813 13.0313C16.2604 12.5938 15.7709 12.375 15.3125 12.375H14.1875C14.0208 13.375 13.4167 13.9792 12.375 14.1875V15.3125C12.375 15.9374 12.8958 16.7396 13.9375 17.7187C14.9791 18.6979 15.5 19.6874 15.5 20.6875C15.5 21.625 15.1562 22.4063 14.4688 23.0312C13.802 23.6771 12.9792 24 12 24Z" fill="currentColor"/>
</svg>
