<svg viewBox="0 0 14 14" fill="none" xmlns="http://www.w3.org/2000/svg">
<path d="M13.0417 8.25016C13.0417 10.8965 10.3367 13.0418 7.00001 13.0418C3.66329 13.0418 0.958344 10.8965 0.958344 8.25016C0.958344 5.6038 3.66329 3.4585 7.00001 3.4585C10.3367 3.4585 13.0417 5.6038 13.0417 8.25016Z" stroke="currentColor" stroke-width="1.5" stroke-linecap="round" stroke-linejoin="round"/>
<path d="M7 3.25016L8.66667 0.958496L10.75 1.5835" stroke="currentColor" stroke-width="1.5" stroke-linecap="round" stroke-linejoin="round"/>
<path d="M9.08333 7.00016C9.08333 7.23028 8.89679 7.41683 8.66667 7.41683C8.43655 7.41683 8.25 7.23028 8.25 7.00016C8.25 6.77004 8.43655 6.5835 8.66667 6.5835C8.89679 6.5835 9.08333 6.77004 9.08333 7.00016Z" stroke="currentColor" stroke-linecap="round" stroke-linejoin="round"/>
<path d="M5.74999 7.00016C5.74999 7.23028 5.56344 7.41683 5.33332 7.41683C5.1032 7.41683 4.91666 7.23028 4.91666 7.00016C4.91666 6.77004 5.1032 6.5835 5.33332 6.5835C5.56344 6.5835 5.74999 6.77004 5.74999 7.00016Z" stroke="currentColor" stroke-linecap="round" stroke-linejoin="round"/>
<path d="M4.29166 9.2915C4.29166 9.2915 5.19443 10.5415 6.99999 10.5415C8.80555 10.5415 9.70832 9.2915 9.70832 9.2915" stroke="currentColor" stroke-width="1.5" stroke-linecap="round" stroke-linejoin="round"/>
<path d="M13.0417 2.00016C13.0417 2.57546 12.5753 3.04183 12 3.04183C11.4247 3.04183 10.9583 2.57546 10.9583 2.00016C10.9583 1.42487 11.4247 0.958496 12 0.958496C12.5753 0.958496 13.0417 1.42487 13.0417 2.00016Z" stroke="currentColor" stroke-width="1.5" stroke-linecap="round" stroke-linejoin="round"/>
<path d="M3.48826 3.92765C3.22182 3.63916 2.84035 3.4585 2.41668 3.4585C1.61126 3.4585 0.958344 4.11141 0.958344 4.91683C0.958344 5.33233 1.13211 5.70725 1.41093 5.97287" stroke="currentColor" stroke-width="1.5" stroke-linecap="round" stroke-linejoin="round"/>
</svg>
