<svg viewBox="0 0 177 176" fill="none" xmlns="http://www.w3.org/2000/svg">
  <path d="M55.1666 0.121094H49.106V6.1817H55.1666V0.121094Z" fill="black" />
  <path d="M61.2271 0.121094H55.1665V6.1817H61.2271V0.121094Z" fill="black" />
  <path d="M67.2877 0.121094H61.2271V6.1817H67.2877V0.121094Z" fill="black" />
  <path d="M97.5909 0.121094H91.5303V6.1817H97.5909V0.121094Z" fill="black" />
  <path d="M103.651 0.121094H97.5908V6.1817H103.651V0.121094Z" fill="black" />
  <path d="M109.712 0.121094H103.651V6.1817H109.712V0.121094Z" fill="black" />
  <path d="M67.2877 6.18164H61.2271V12.2422H67.2877V6.18164Z" fill="black" />
  <path d="M73.3482 6.18164H67.2876V12.2422H73.3482V6.18164Z" fill="black" />
  <path d="M79.4088 6.18164H73.3481V12.2422H79.4088V6.18164Z" fill="black" />
  <path d="M85.4698 6.18164H79.4092V12.2422H85.4698V6.18164Z" fill="black" />
  <path d="M91.5303 6.18164H85.4697V12.2422H91.5303V6.18164Z" fill="black" />
  <path d="M103.651 6.18164H97.5908V12.2422H103.651V6.18164Z" fill="black" />
  <path d="M109.712 6.18164H103.651V12.2422H109.712V6.18164Z" fill="black" />
  <path d="M127.894 6.18164H121.833V12.2422H127.894V6.18164Z" fill="black" />
  <path d="M55.1666 12.2422H49.106V18.3028H55.1666V12.2422Z" fill="black" />
  <path d="M67.2877 12.2422H61.2271V18.3028H67.2877V12.2422Z" fill="black" />
  <path d="M73.3482 12.2422H67.2876V18.3028H73.3482V12.2422Z" fill="black" />
  <path d="M91.5303 12.2422H85.4697V18.3028H91.5303V12.2422Z" fill="black" />
  <path d="M97.5909 12.2422H91.5303V18.3028H97.5909V12.2422Z" fill="black" />
  <path d="M103.651 12.2422H97.5908V18.3028H103.651V12.2422Z" fill="black" />
  <path d="M109.712 12.2422H103.651V18.3028H109.712V12.2422Z" fill="black" />
  <path d="M127.894 12.2422H121.833V18.3028H127.894V12.2422Z" fill="black" />
  <path d="M61.2271 18.3027H55.1665V24.3633H61.2271V18.3027Z" fill="black" />
  <path d="M67.2877 18.3027H61.2271V24.3633H67.2877V18.3027Z" fill="black" />
  <path d="M79.4088 18.3027H73.3481V24.3633H79.4088V18.3027Z" fill="black" />
  <path d="M91.5303 18.3027H85.4697V24.3633H91.5303V18.3027Z" fill="black" />
  <path d="M109.712 18.3027H103.651V24.3633H109.712V18.3027Z" fill="black" />
  <path d="M121.833 18.3027H115.772V24.3633H121.833V18.3027Z" fill="black" />
  <path d="M61.2271 24.3633H55.1665V30.4239H61.2271V24.3633Z" fill="black" />
  <path d="M67.2877 24.3633H61.2271V30.4239H67.2877V24.3633Z" fill="black" />
  <path d="M73.3482 24.3633H67.2876V30.4239H73.3482V24.3633Z" fill="black" />
  <path d="M85.4698 24.3633H79.4092V30.4239H85.4698V24.3633Z" fill="black" />
  <path d="M91.5303 24.3633H85.4697V30.4239H91.5303V24.3633Z" fill="black" />
  <path d="M97.5909 24.3633H91.5303V30.4239H97.5909V24.3633Z" fill="black" />
  <path d="M115.773 24.3633H109.712V30.4239H115.773V24.3633Z" fill="black" />
  <path d="M55.1666 30.4238H49.106V36.4844H55.1666V30.4238Z" fill="black" />
  <path d="M67.2877 30.4238H61.2271V36.4844H67.2877V30.4238Z" fill="black" />
  <path d="M73.3487 30.4238H67.2881V36.4844H73.3487V30.4238Z" fill="black" />
  <path d="M79.4092 30.4238H73.3486V36.4844H79.4092V30.4238Z" fill="black" />
  <path d="M97.5909 30.4238H91.5303V36.4844H97.5909V30.4238Z" fill="black" />
  <path d="M109.712 30.4238H103.651V36.4844H109.712V30.4238Z" fill="black" />
  <path d="M115.773 30.4238H109.712V36.4844H115.773V30.4238Z" fill="black" />
  <path d="M55.1666 36.4844H49.106V42.545H55.1666V36.4844Z" fill="black" />
  <path d="M67.2877 36.4844H61.2271V42.545H67.2877V36.4844Z" fill="black" />
  <path d="M79.4092 36.4844H73.3486V42.545H79.4092V36.4844Z" fill="black" />
  <path d="M91.5303 36.4844H85.4697V42.545H91.5303V36.4844Z" fill="black" />
  <path d="M103.651 36.4844H97.5908V42.545H103.651V36.4844Z" fill="black" />
  <path d="M115.773 36.4844H109.712V42.545H115.773V36.4844Z" fill="black" />
  <path d="M127.894 36.4844H121.833V42.545H127.894V36.4844Z" fill="black" />
  <path d="M61.2271 42.5449H55.1665V48.6055H61.2271V42.5449Z" fill="black" />
  <path d="M73.3487 42.5449H67.2881V48.6055H73.3487V42.5449Z" fill="black" />
  <path d="M79.4092 42.5449H73.3486V48.6055H79.4092V42.5449Z" fill="black" />
  <path d="M91.5303 42.5449H85.4697V48.6055H91.5303V42.5449Z" fill="black" />
  <path d="M97.5909 42.5449H91.5303V48.6055H97.5909V42.5449Z" fill="black" />
  <path d="M103.651 42.5449H97.5908V48.6055H103.651V42.5449Z" fill="black" />
  <path d="M121.833 42.5449H115.772V48.6055H121.833V42.5449Z" fill="black" />
  <path d="M127.894 42.5449H121.833V48.6055H127.894V42.5449Z" fill="black" />
  <path d="M6.6817 48.6055H0.621094V54.6661H6.6817V48.6055Z" fill="black" />
  <path d="M18.8028 48.6055H12.7422V54.6661H18.8028V48.6055Z" fill="black" />
  <path d="M43.045 48.6055H36.9844V54.6661H43.045V48.6055Z" fill="black" />
  <path d="M49.106 48.6055H43.0454V54.6661H49.106V48.6055Z" fill="black" />
  <path d="M85.4698 48.6055H79.4092V54.6661H85.4698V48.6055Z" fill="black" />
  <path d="M91.5303 48.6055H85.4697V54.6661H91.5303V48.6055Z" fill="black" />
  <path d="M127.894 48.6055H121.833V54.6661H127.894V48.6055Z" fill="black" />
  <path d="M146.076 48.6055H140.015V54.6661H146.076V48.6055Z" fill="black" />
  <path d="M164.257 48.6055H158.197V54.6661H164.257V48.6055Z" fill="black" />
  <path d="M176.379 48.6055H170.318V54.6661H176.379V48.6055Z" fill="black" />
  <path d="M6.6817 54.666H0.621094V60.7266H6.6817V54.666Z" fill="black" />
  <path d="M12.7422 54.666H6.68164V60.7266H12.7422V54.666Z" fill="black" />
  <path d="M18.8028 54.666H12.7422V60.7266H18.8028V54.666Z" fill="black" />
  <path d="M24.8633 54.666H18.8027V60.7266H24.8633V54.666Z" fill="black" />
  <path d="M36.9844 54.666H30.9238V60.7266H36.9844V54.666Z" fill="black" />
  <path d="M49.106 54.666H43.0454V60.7266H49.106V54.666Z" fill="black" />
  <path d="M61.2271 54.666H55.1665V60.7266H61.2271V54.666Z" fill="black" />
  <path d="M85.4698 54.666H79.4092V60.7266H85.4698V54.666Z" fill="black" />
  <path d="M91.5303 54.666H85.4697V60.7266H91.5303V54.666Z" fill="black" />
  <path d="M121.833 54.666H115.772V60.7266H121.833V54.666Z" fill="black" />
  <path d="M127.894 54.666H121.833V60.7266H127.894V54.666Z" fill="black" />
  <path d="M140.015 54.666H133.954V60.7266H140.015V54.666Z" fill="black" />
  <path d="M146.076 54.666H140.015V60.7266H146.076V54.666Z" fill="black" />
  <path d="M170.318 54.666H164.257V60.7266H170.318V54.666Z" fill="black" />
  <path d="M176.379 54.666H170.318V60.7266H176.379V54.666Z" fill="black" />
  <path d="M12.7422 60.7266H6.68164V66.7872H12.7422V60.7266Z" fill="black" />
  <path d="M18.8028 60.7266H12.7422V66.7872H18.8028V60.7266Z" fill="black" />
  <path d="M24.8633 60.7266H18.8027V66.7872H24.8633V60.7266Z" fill="black" />
  <path d="M30.9239 60.7266H24.8633V66.7872H30.9239V60.7266Z" fill="black" />
  <path d="M43.045 60.7266H36.9844V66.7872H43.045V60.7266Z" fill="black" />
  <path d="M49.106 60.7266H43.0454V66.7872H49.106V60.7266Z" fill="black" />
  <path d="M73.3487 60.7266H67.2881V66.7872H73.3487V60.7266Z" fill="black" />
  <path d="M79.4092 60.7266H73.3486V66.7872H79.4092V60.7266Z" fill="black" />
  <path d="M97.5909 60.7266H91.5303V66.7872H97.5909V60.7266Z" fill="black" />
  <path d="M115.773 60.7266H109.712V66.7872H115.773V60.7266Z" fill="black" />
  <path d="M121.833 60.7266H115.772V66.7872H121.833V60.7266Z" fill="black" />
  <path d="M146.076 60.7266H140.015V66.7872H146.076V60.7266Z" fill="black" />
  <path d="M158.197 60.7266H152.136V66.7872H158.197V60.7266Z" fill="black" />
  <path d="M164.257 60.7266H158.197V66.7872H164.257V60.7266Z" fill="black" />
  <path d="M176.379 60.7266H170.318V66.7872H176.379V60.7266Z" fill="black" />
  <path d="M6.6817 66.7871H0.621094V72.8477H6.6817V66.7871Z" fill="black" />
  <path d="M30.9239 66.7871H24.8633V72.8477H30.9239V66.7871Z" fill="black" />
  <path d="M49.106 66.7871H43.0454V72.8477H49.106V66.7871Z" fill="black" />
  <path d="M55.1666 66.7871H49.106V72.8477H55.1666V66.7871Z" fill="black" />
  <path d="M61.2271 66.7871H55.1665V72.8477H61.2271V66.7871Z" fill="black" />
  <path d="M67.2877 66.7871H61.2271V72.8477H67.2877V66.7871Z" fill="black" />
  <path d="M73.3487 66.7871H67.2881V72.8477H73.3487V66.7871Z" fill="black" />
  <path d="M79.4092 66.7871H73.3486V72.8477H79.4092V66.7871Z" fill="black" />
  <path d="M85.4698 66.7871H79.4092V72.8477H85.4698V66.7871Z" fill="black" />
  <path d="M115.773 66.7871H109.712V72.8477H115.773V66.7871Z" fill="black" />
  <path d="M133.954 66.7871H127.894V72.8477H133.954V66.7871Z" fill="black" />
  <path d="M146.076 66.7871H140.015V72.8477H146.076V66.7871Z" fill="black" />
  <path d="M152.136 66.7871H146.076V72.8477H152.136V66.7871Z" fill="black" />
  <path d="M158.197 66.7871H152.136V72.8477H158.197V66.7871Z" fill="black" />
  <path d="M30.9239 72.8477H24.8633V78.9083H30.9239V72.8477Z" fill="black" />
  <path d="M36.9844 72.8477H30.9238V78.9083H36.9844V72.8477Z" fill="black" />
  <path d="M43.045 72.8477H36.9844V78.9083H43.045V72.8477Z" fill="black" />
  <path d="M49.106 72.8477H43.0454V78.9083H49.106V72.8477Z" fill="black" />
  <path d="M61.2271 72.8477H55.1665V78.9083H61.2271V72.8477Z" fill="black" />
  <path d="M67.2877 72.8477H61.2271V78.9083H67.2877V72.8477Z" fill="black" />
  <path d="M85.4698 72.8477H79.4092V78.9083H85.4698V72.8477Z" fill="black" />
  <path d="M97.5909 72.8477H91.5303V78.9083H97.5909V72.8477Z" fill="black" />
  <path d="M103.651 72.8477H97.5908V78.9083H103.651V72.8477Z" fill="black" />
  <path d="M127.894 72.8477H121.833V78.9083H127.894V72.8477Z" fill="black" />
  <path d="M140.015 72.8477H133.954V78.9083H140.015V72.8477Z" fill="black" />
  <path d="M146.076 72.8477H140.015V78.9083H146.076V72.8477Z" fill="black" />
  <path d="M176.379 72.8477H170.318V78.9083H176.379V72.8477Z" fill="black" />
  <path d="M24.8633 78.9082H18.8027V84.9688H24.8633V78.9082Z" fill="black" />
  <path d="M30.9239 78.9082H24.8633V84.9688H30.9239V78.9082Z" fill="black" />
  <path d="M61.2271 78.9082H55.1665V84.9688H61.2271V78.9082Z" fill="black" />
  <path d="M73.3487 78.9082H67.2881V84.9688H73.3487V78.9082Z" fill="black" />
  <path d="M103.651 78.9082H97.5908V84.9688H103.651V78.9082Z" fill="black" />
  <path d="M109.712 78.9082H103.651V84.9688H109.712V78.9082Z" fill="black" />
  <path d="M121.833 78.9082H115.772V84.9688H121.833V78.9082Z" fill="black" />
  <path d="M127.894 78.9082H121.833V84.9688H127.894V78.9082Z" fill="black" />
  <path d="M140.015 78.9082H133.954V84.9688H140.015V78.9082Z" fill="black" />
  <path d="M170.318 78.9082H164.257V84.9688H170.318V78.9082Z" fill="black" />
  <path d="M176.379 78.9082H170.318V84.9688H176.379V78.9082Z" fill="black" />
  <path d="M6.6817 84.9688H0.621094V91.0293H6.6817V84.9688Z" fill="black" />
  <path d="M12.7422 84.9688H6.68164V91.0293H12.7422V84.9688Z" fill="black" />
  <path d="M30.9239 84.9688H24.8633V91.0293H30.9239V84.9688Z" fill="black" />
  <path d="M43.045 84.9688H36.9844V91.0293H43.045V84.9688Z" fill="black" />
  <path d="M61.2271 84.9688H55.1665V91.0293H61.2271V84.9688Z" fill="black" />
  <path d="M79.4092 84.9688H73.3486V91.0293H79.4092V84.9688Z" fill="black" />
  <path d="M85.4698 84.9688H79.4092V91.0293H85.4698V84.9688Z" fill="black" />
  <path d="M91.5303 84.9688H85.4697V91.0293H91.5303V84.9688Z" fill="black" />
  <path d="M103.651 84.9688H97.5908V91.0293H103.651V84.9688Z" fill="black" />
  <path d="M121.833 84.9688H115.772V91.0293H121.833V84.9688Z" fill="black" />
  <path d="M127.894 84.9688H121.833V91.0293H127.894V84.9688Z" fill="black" />
  <path d="M140.015 84.9688H133.954V91.0293H140.015V84.9688Z" fill="black" />
  <path d="M176.379 84.9688H170.318V91.0293H176.379V84.9688Z" fill="black" />
  <path d="M24.8633 91.0293H18.8027V97.0899H24.8633V91.0293Z" fill="black" />
  <path d="M36.9844 91.0293H30.9238V97.0899H36.9844V91.0293Z" fill="black" />
  <path d="M55.1666 91.0293H49.106V97.0899H55.1666V91.0293Z" fill="black" />
  <path d="M91.5303 91.0293H85.4697V97.0899H91.5303V91.0293Z" fill="black" />
  <path d="M97.5909 91.0293H91.5303V97.0899H97.5909V91.0293Z" fill="black" />
  <path d="M103.651 91.0293H97.5908V97.0899H103.651V91.0293Z" fill="black" />
  <path d="M115.773 91.0293H109.712V97.0899H115.773V91.0293Z" fill="black" />
  <path d="M127.894 91.0293H121.833V97.0899H127.894V91.0293Z" fill="black" />
  <path d="M133.954 91.0293H127.894V97.0899H133.954V91.0293Z" fill="black" />
  <path d="M146.076 91.0293H140.015V97.0899H146.076V91.0293Z" fill="black" />
  <path d="M6.6817 97.0898H0.621094V103.15H6.6817V97.0898Z" fill="black" />
  <path d="M12.7422 97.0898H6.68164V103.15H12.7422V97.0898Z" fill="black" />
  <path d="M18.8028 97.0898H12.7422V103.15H18.8028V97.0898Z" fill="black" />
  <path d="M30.9239 97.0898H24.8633V103.15H30.9239V97.0898Z" fill="black" />
  <path d="M36.9844 97.0898H30.9238V103.15H36.9844V97.0898Z" fill="black" />
  <path d="M43.045 97.0898H36.9844V103.15H43.045V97.0898Z" fill="black" />
  <path d="M49.106 97.0898H43.0454V103.15H49.106V97.0898Z" fill="black" />
  <path d="M61.2271 97.0898H55.1665V103.15H61.2271V97.0898Z" fill="black" />
  <path d="M67.2877 97.0898H61.2271V103.15H67.2877V97.0898Z" fill="black" />
  <path d="M73.3487 97.0898H67.2881V103.15H73.3487V97.0898Z" fill="black" />
  <path d="M79.4092 97.0898H73.3486V103.15H79.4092V97.0898Z" fill="black" />
  <path d="M85.4698 97.0898H79.4092V103.15H85.4698V97.0898Z" fill="black" />
  <path d="M91.5303 97.0898H85.4697V103.15H91.5303V97.0898Z" fill="black" />
  <path d="M103.651 97.0898H97.5908V103.15H103.651V97.0898Z" fill="black" />
  <path d="M127.894 97.0898H121.833V103.15H127.894V97.0898Z" fill="black" />
  <path d="M140.015 97.0898H133.954V103.15H140.015V97.0898Z" fill="black" />
  <path d="M176.379 97.0898H170.318V103.15H176.379V97.0898Z" fill="black" />
  <path d="M12.7422 103.152H6.68164V109.213H12.7422V103.152Z" fill="black" />
  <path d="M30.9239 103.152H24.8633V109.213H30.9239V103.152Z" fill="black" />
  <path d="M49.106 103.152H43.0454V109.213H49.106V103.152Z" fill="black" />
  <path d="M55.1666 103.152H49.106V109.213H55.1666V103.152Z" fill="black" />
  <path d="M61.2271 103.152H55.1665V109.213H61.2271V103.152Z" fill="black" />
  <path d="M73.3487 103.152H67.2881V109.213H73.3487V103.152Z" fill="black" />
  <path d="M85.4698 103.152H79.4092V109.213H85.4698V103.152Z" fill="black" />
  <path d="M91.5303 103.152H85.4697V109.213H91.5303V103.152Z" fill="black" />
  <path d="M109.712 103.152H103.651V109.213H109.712V103.152Z" fill="black" />
  <path d="M121.833 103.152H115.772V109.213H121.833V103.152Z" fill="black" />
  <path d="M127.894 103.152H121.833V109.213H127.894V103.152Z" fill="black" />
  <path d="M140.015 103.152H133.954V109.213H140.015V103.152Z" fill="black" />
  <path d="M146.076 103.152H140.015V109.213H146.076V103.152Z" fill="black" />
  <path d="M164.257 103.152H158.197V109.213H164.257V103.152Z" fill="black" />
  <path d="M170.318 103.152H164.257V109.213H170.318V103.152Z" fill="black" />
  <path d="M176.379 103.152H170.318V109.213H176.379V103.152Z" fill="black" />
  <path d="M6.6817 109.213H0.621094V115.273H6.6817V109.213Z" fill="black" />
  <path d="M12.7422 109.213H6.68164V115.273H12.7422V109.213Z" fill="black" />
  <path d="M30.9239 109.213H24.8633V115.273H30.9239V109.213Z" fill="black" />
  <path d="M36.9844 109.213H30.9238V115.273H36.9844V109.213Z" fill="black" />
  <path d="M43.045 109.213H36.9844V115.273H43.045V109.213Z" fill="black" />
  <path d="M49.106 109.213H43.0454V115.273H49.106V109.213Z" fill="black" />
  <path d="M61.2271 109.213H55.1665V115.273H61.2271V109.213Z" fill="black" />
  <path d="M67.2877 109.213H61.2271V115.273H67.2877V109.213Z" fill="black" />
  <path d="M73.3487 109.213H67.2881V115.273H73.3487V109.213Z" fill="black" />
  <path d="M97.5909 109.213H91.5303V115.273H97.5909V109.213Z" fill="black" />
  <path d="M103.651 109.213H97.5908V115.273H103.651V109.213Z" fill="black" />
  <path d="M109.712 109.213H103.651V115.273H109.712V109.213Z" fill="black" />
  <path d="M121.833 109.213H115.772V115.273H121.833V109.213Z" fill="black" />
  <path d="M158.197 109.213H152.136V115.273H158.197V109.213Z" fill="black" />
  <path d="M176.379 109.213H170.318V115.273H176.379V109.213Z" fill="black" />
  <path d="M30.9239 115.273H24.8633V121.334H30.9239V115.273Z" fill="black" />
  <path d="M36.9844 115.273H30.9238V121.334H36.9844V115.273Z" fill="black" />
  <path d="M61.2271 115.273H55.1665V121.334H61.2271V115.273Z" fill="black" />
  <path d="M67.2877 115.273H61.2271V121.334H67.2877V115.273Z" fill="black" />
  <path d="M79.4092 115.273H73.3486V121.334H79.4092V115.273Z" fill="black" />
  <path d="M85.4698 115.273H79.4092V121.334H85.4698V115.273Z" fill="black" />
  <path d="M103.651 115.273H97.5908V121.334H103.651V115.273Z" fill="black" />
  <path d="M115.773 115.273H109.712V121.334H115.773V115.273Z" fill="black" />
  <path d="M133.954 115.273H127.894V121.334H133.954V115.273Z" fill="black" />
  <path d="M146.076 115.273H140.015V121.334H146.076V115.273Z" fill="black" />
  <path d="M6.6817 121.334H0.621094V127.395H6.6817V121.334Z" fill="black" />
  <path d="M12.7422 121.334H6.68164V127.395H12.7422V121.334Z" fill="black" />
  <path d="M24.8633 121.334H18.8027V127.395H24.8633V121.334Z" fill="black" />
  <path d="M30.9239 121.334H24.8633V127.395H30.9239V121.334Z" fill="black" />
  <path d="M43.045 121.334H36.9844V127.395H43.045V121.334Z" fill="black" />
  <path d="M49.106 121.334H43.0454V127.395H49.106V121.334Z" fill="black" />
  <path d="M67.2877 121.334H61.2271V127.395H67.2877V121.334Z" fill="black" />
  <path d="M73.3487 121.334H67.2881V127.395H73.3487V121.334Z" fill="black" />
  <path d="M85.4698 121.334H79.4092V127.395H85.4698V121.334Z" fill="black" />
  <path d="M97.5909 121.334H91.5303V127.395H97.5909V121.334Z" fill="black" />
  <path d="M115.773 121.334H109.712V127.395H115.773V121.334Z" fill="black" />
  <path d="M127.894 121.334H121.833V127.395H127.894V121.334Z" fill="black" />
  <path d="M133.954 121.334H127.894V127.395H133.954V121.334Z" fill="black" />
  <path d="M140.015 121.334H133.954V127.395H140.015V121.334Z" fill="black" />
  <path d="M146.076 121.334H140.015V127.395H146.076V121.334Z" fill="black" />
  <path d="M152.136 121.334H146.076V127.395H152.136V121.334Z" fill="black" />
  <path d="M158.197 121.334H152.136V127.395H158.197V121.334Z" fill="black" />
  <path d="M170.318 121.334H164.257V127.395H170.318V121.334Z" fill="black" />
  <path d="M55.1666 127.395H49.106V133.455H55.1666V127.395Z" fill="black" />
  <path d="M61.2271 127.395H55.1665V133.455H61.2271V127.395Z" fill="black" />
  <path d="M67.2877 127.395H61.2271V133.455H67.2877V127.395Z" fill="black" />
  <path d="M73.3487 127.395H67.2881V133.455H73.3487V127.395Z" fill="black" />
  <path d="M79.4092 127.395H73.3486V133.455H79.4092V127.395Z" fill="black" />
  <path d="M97.5909 127.395H91.5303V133.455H97.5909V127.395Z" fill="black" />
  <path d="M109.712 127.395H103.651V133.455H109.712V127.395Z" fill="black" />
  <path d="M121.833 127.395H115.772V133.455H121.833V127.395Z" fill="black" />
  <path d="M127.894 127.395H121.833V133.455H127.894V127.395Z" fill="black" />
  <path d="M152.136 127.395H146.076V133.455H152.136V127.395Z" fill="black" />
  <path d="M158.197 127.395H152.136V133.455H158.197V127.395Z" fill="black" />
  <path d="M164.257 127.395H158.197V133.455H164.257V127.395Z" fill="black" />
  <path d="M176.379 127.395H170.318V133.455H176.379V127.395Z" fill="black" />
  <path d="M55.1666 133.455H49.106V139.516H55.1666V133.455Z" fill="black" />
  <path d="M61.2271 133.455H55.1665V139.516H61.2271V133.455Z" fill="black" />
  <path d="M67.2877 133.455H61.2271V139.516H67.2877V133.455Z" fill="black" />
  <path d="M73.3487 133.455H67.2881V139.516H73.3487V133.455Z" fill="black" />
  <path d="M79.4092 133.455H73.3486V139.516H79.4092V133.455Z" fill="black" />
  <path d="M85.4698 133.455H79.4092V139.516H85.4698V133.455Z" fill="black" />
  <path d="M91.5303 133.455H85.4697V139.516H91.5303V133.455Z" fill="black" />
  <path d="M97.5909 133.455H91.5303V139.516H97.5909V133.455Z" fill="black" />
  <path d="M127.894 133.455H121.833V139.516H127.894V133.455Z" fill="black" />
  <path d="M140.015 133.455H133.954V139.516H140.015V133.455Z" fill="black" />
  <path d="M152.136 133.455H146.076V139.516H152.136V133.455Z" fill="black" />
  <path d="M176.379 133.455H170.318V139.516H176.379V133.455Z" fill="black" />
  <path d="M67.2877 139.516H61.2271V145.576H67.2877V139.516Z" fill="black" />
  <path d="M73.3487 139.516H67.2881V145.576H73.3487V139.516Z" fill="black" />
  <path d="M79.4092 139.516H73.3486V145.576H79.4092V139.516Z" fill="black" />
  <path d="M91.5303 139.516H85.4697V145.576H91.5303V139.516Z" fill="black" />
  <path d="M97.5909 139.516H91.5303V145.576H97.5909V139.516Z" fill="black" />
  <path d="M115.773 139.516H109.712V145.576H115.773V139.516Z" fill="black" />
  <path d="M121.833 139.516H115.772V145.576H121.833V139.516Z" fill="black" />
  <path d="M127.894 139.516H121.833V145.576H127.894V139.516Z" fill="black" />
  <path d="M152.136 139.516H146.076V145.576H152.136V139.516Z" fill="black" />
  <path d="M61.2271 145.576H55.1665V151.637H61.2271V145.576Z" fill="black" />
  <path d="M67.2877 145.576H61.2271V151.637H67.2877V145.576Z" fill="black" />
  <path d="M73.3487 145.576H67.2881V151.637H73.3487V145.576Z" fill="black" />
  <path d="M79.4092 145.576H73.3486V151.637H79.4092V145.576Z" fill="black" />
  <path d="M85.4698 145.576H79.4092V151.637H85.4698V145.576Z" fill="black" />
  <path d="M91.5303 145.576H85.4697V151.637H91.5303V145.576Z" fill="black" />
  <path d="M97.5909 145.576H91.5303V151.637H97.5909V145.576Z" fill="black" />
  <path d="M115.773 145.576H109.712V151.637H115.773V145.576Z" fill="black" />
  <path d="M121.833 145.576H115.772V151.637H121.833V145.576Z" fill="black" />
  <path d="M127.894 145.576H121.833V151.637H127.894V145.576Z" fill="black" />
  <path d="M133.954 145.576H127.894V151.637H133.954V145.576Z" fill="black" />
  <path d="M140.015 145.576H133.954V151.637H140.015V145.576Z" fill="black" />
  <path d="M146.076 145.576H140.015V151.637H146.076V145.576Z" fill="black" />
  <path d="M152.136 145.576H146.076V151.637H152.136V145.576Z" fill="black" />
  <path d="M158.197 145.576H152.136V151.637H158.197V145.576Z" fill="black" />
  <path d="M170.318 145.576H164.257V151.637H170.318V145.576Z" fill="black" />
  <path d="M176.379 145.576H170.318V151.637H176.379V145.576Z" fill="black" />
  <path d="M61.2271 151.637H55.1665V157.697H61.2271V151.637Z" fill="black" />
  <path d="M67.2877 151.637H61.2271V157.697H67.2877V151.637Z" fill="black" />
  <path d="M73.3487 151.637H67.2881V157.697H73.3487V151.637Z" fill="black" />
  <path d="M79.4092 151.637H73.3486V157.697H79.4092V151.637Z" fill="black" />
  <path d="M85.4698 151.637H79.4092V157.697H85.4698V151.637Z" fill="black" />
  <path d="M91.5303 151.637H85.4697V157.697H91.5303V151.637Z" fill="black" />
  <path d="M97.5909 151.637H91.5303V157.697H97.5909V151.637Z" fill="black" />
  <path d="M115.773 151.637H109.712V157.697H115.773V151.637Z" fill="black" />
  <path d="M127.894 151.637H121.833V157.697H127.894V151.637Z" fill="black" />
  <path d="M133.954 151.637H127.894V157.697H133.954V151.637Z" fill="black" />
  <path d="M146.076 151.637H140.015V157.697H146.076V151.637Z" fill="black" />
  <path d="M152.136 151.637H146.076V157.697H152.136V151.637Z" fill="black" />
  <path d="M158.197 151.637H152.136V157.697H158.197V151.637Z" fill="black" />
  <path d="M164.257 151.637H158.197V157.697H164.257V151.637Z" fill="black" />
  <path d="M176.379 151.637H170.318V157.697H176.379V151.637Z" fill="black" />
  <path d="M55.1666 157.697H49.106V163.758H55.1666V157.697Z" fill="black" />
  <path d="M61.2271 157.697H55.1665V163.758H61.2271V157.697Z" fill="black" />
  <path d="M67.2877 157.697H61.2271V163.758H67.2877V157.697Z" fill="black" />
  <path d="M97.5909 157.697H91.5303V163.758H97.5909V157.697Z" fill="black" />
  <path d="M115.773 157.697H109.712V163.758H115.773V157.697Z" fill="black" />
  <path d="M121.833 157.697H115.772V163.758H121.833V157.697Z" fill="black" />
  <path d="M127.894 157.697H121.833V163.758H127.894V157.697Z" fill="black" />
  <path d="M133.954 157.697H127.894V163.758H133.954V157.697Z" fill="black" />
  <path d="M152.136 157.697H146.076V163.758H152.136V157.697Z" fill="black" />
  <path d="M170.318 157.697H164.257V163.758H170.318V157.697Z" fill="black" />
  <path d="M176.379 157.697H170.318V163.758H176.379V157.697Z" fill="black" />
  <path d="M61.2271 163.758H55.1665V169.818H61.2271V163.758Z" fill="black" />
  <path d="M73.3487 163.758H67.2881V169.818H73.3487V163.758Z" fill="black" />
  <path d="M79.4092 163.758H73.3486V169.818H79.4092V163.758Z" fill="black" />
  <path d="M91.5303 163.758H85.4697V169.818H91.5303V163.758Z" fill="black" />
  <path d="M103.651 163.758H97.5908V169.818H103.651V163.758Z" fill="black" />
  <path d="M121.833 163.758H115.772V169.818H121.833V163.758Z" fill="black" />
  <path d="M127.894 163.758H121.833V169.818H127.894V163.758Z" fill="black" />
  <path d="M133.954 163.758H127.894V169.818H133.954V163.758Z" fill="black" />
  <path d="M140.015 163.758H133.954V169.818H140.015V163.758Z" fill="black" />
  <path d="M146.076 163.758H140.015V169.818H146.076V163.758Z" fill="black" />
  <path d="M152.136 163.758H146.076V169.818H152.136V163.758Z" fill="black" />
  <path d="M158.197 163.758H152.136V169.818H158.197V163.758Z" fill="black" />
  <path d="M55.1666 169.818H49.106V175.879H55.1666V169.818Z" fill="black" />
  <path d="M61.2271 169.818H55.1665V175.879H61.2271V169.818Z" fill="black" />
  <path d="M67.2877 169.818H61.2271V175.879H67.2877V169.818Z" fill="black" />
  <path d="M79.4092 169.818H73.3486V175.879H79.4092V169.818Z" fill="black" />
  <path d="M91.5303 169.818H85.4697V175.879H91.5303V169.818Z" fill="black" />
  <path d="M97.5909 169.818H91.5303V175.879H97.5909V169.818Z" fill="black" />
  <path d="M115.773 169.818H109.712V175.879H115.773V169.818Z" fill="black" />
  <path d="M127.894 169.818H121.833V175.879H127.894V169.818Z" fill="black" />
  <path d="M152.136 169.818H146.076V175.879H152.136V169.818Z" fill="black" />
  <path d="M176.379 169.818H170.318V175.879H176.379V169.818Z" fill="black" />
  <path
    d="M36.6817 0.121094H6.98473H0.621094V6.48473V36.1817V42.5453H6.98473H36.6817H43.0453V36.1817V6.48473V0.121094H36.6817ZM36.6817 36.1817H6.98473V6.48473H36.6817V36.1817Z"
    fill="black" />
  <path
    d="M170.015 0.121094H140.318H133.955V6.48473V36.1817V42.5453H140.318H170.015H176.379V36.1817V6.48473V0.121094H170.015ZM170.015 36.1817H140.318V6.48473H170.015V36.1817Z"
    fill="black" />
  <path
    d="M36.6817 133.455H6.98473H0.621094V139.819V169.516V175.879H6.98473H36.6817H43.0453V169.516V139.819V133.455H36.6817ZM36.6817 169.516H6.98473V139.819H36.6817V169.516Z"
    fill="black" />
  <path d="M30.924 12.2422H12.7422V30.424H30.924V12.2422Z" fill="black" />
  <path d="M164.257 12.2422H146.076V30.424H164.257V12.2422Z" fill="black" />
  <path d="M30.924 145.576H12.7422V163.758H30.924V145.576Z" fill="black" />
</svg>