<svg viewBox="0 0 343 152" fill="none" xmlns="http://www.w3.org/2000/svg">
<path d="M152 76C152 34.0264 117.974 0 76 0C34.0264 0 0 34.0264 0 76C0 117.974 34.0264 152 76 152C117.974 152 152 117.974 152 76ZM33.44 76C33.44 52.4948 52.4948 33.44 76 33.44C99.5052 33.44 118.56 52.4948 118.56 76C118.56 99.5052 99.5052 118.56 76 118.56C52.4948 118.56 33.44 99.5052 33.44 76Z" fill="#0077FF"/>
<path d="M76 0C93.2348 0 109.958 5.85794 123.425 16.6127C136.893 27.3675 146.305 42.3804 150.117 59.1882C153.93 75.996 151.916 93.6005 144.407 109.113C136.898 124.626 124.339 137.126 108.791 144.562C93.2426 151.998 75.6288 153.929 58.8391 150.037C42.0494 146.146 27.0811 136.663 16.3899 123.145C5.69871 109.627 -0.0803717 92.8764 0.000843827 75.6419C0.0820594 58.4073 6.01874 41.7121 16.8369 28.2955L42.8686 49.2855C36.8105 56.7988 33.486 66.1481 33.4405 75.7994C33.395 85.4508 36.6313 94.831 42.6183 102.401C48.6054 109.971 56.9877 115.282 66.3899 117.461C75.7921 119.64 85.6559 118.559 94.3628 114.395C103.07 110.231 110.103 103.231 114.308 94.5435C118.513 85.8563 119.641 75.9978 117.506 66.5854C115.371 57.173 110.1 48.7658 102.558 42.7431C95.0163 36.7205 85.6515 33.44 76 33.44V0Z" fill="#E0E1E4"/>
<path d="M76 0C93.2348 0 109.958 5.85794 123.425 16.6127C136.893 27.3675 146.305 42.3804 150.117 59.1882C153.93 75.996 151.916 93.6005 144.407 109.113C136.898 124.626 124.339 137.126 108.791 144.562L94.3628 114.395C103.07 110.231 110.103 103.231 114.308 94.5435C118.513 85.8563 119.641 75.9978 117.506 66.5854C115.371 57.173 110.1 48.7658 102.558 42.7431C95.0163 36.7205 85.6515 33.44 76 33.44V0Z" fill="#EFF0F3"/>
<path d="M76 0C87.429 0 98.7109 2.57768 109.006 7.54117C119.301 12.5047 128.344 19.7262 135.462 28.6681L109.299 49.4941C105.313 44.4866 100.248 40.4426 94.4833 37.6631C88.7181 34.8835 82.4003 33.44 76 33.44V0Z" fill="#EFF0F3"/>
<rect x="192" y="32" width="8" height="8" rx="4" fill="#0077FF"/>
<path d="M212.979 41V39.8864L216.425 36.3168C216.793 35.929 217.096 35.5893 217.335 35.2976C217.576 35.0026 217.757 34.7225 217.876 34.4574C217.996 34.1922 218.055 33.9105 218.055 33.6122C218.055 33.2741 217.976 32.9825 217.817 32.7372C217.658 32.4886 217.441 32.2981 217.165 32.1655C216.89 32.0296 216.58 31.9616 216.236 31.9616C215.871 31.9616 215.553 32.0362 215.281 32.1854C215.009 32.3345 214.801 32.545 214.655 32.8168C214.509 33.0885 214.436 33.4067 214.436 33.7713H212.969C212.969 33.1515 213.112 32.6096 213.397 32.1456C213.682 31.6816 214.073 31.322 214.57 31.0668C215.067 30.8082 215.633 30.679 216.266 30.679C216.905 30.679 217.469 30.8066 217.956 31.0618C218.446 31.3137 218.829 31.6584 219.104 32.0959C219.379 32.5301 219.517 33.0206 219.517 33.5675C219.517 33.9453 219.446 34.3149 219.303 34.6761C219.164 35.0374 218.92 35.4401 218.572 35.8842C218.224 36.325 217.741 36.8603 217.121 37.4901L215.097 39.608V39.6825H219.681V41H212.979ZM224.97 41.169C224.185 41.1657 223.513 40.9586 222.957 40.5476C222.4 40.1366 221.974 39.5384 221.679 38.7528C221.384 37.9673 221.236 37.0211 221.236 35.9141C221.236 34.8104 221.384 33.8674 221.679 33.0852C221.977 32.303 222.405 31.7064 222.962 31.2955C223.522 30.8845 224.191 30.679 224.97 30.679C225.749 30.679 226.417 30.8861 226.974 31.3004C227.53 31.7114 227.956 32.308 228.251 33.0902C228.55 33.8691 228.699 34.8104 228.699 35.9141C228.699 37.0244 228.551 37.9723 228.256 38.7578C227.961 39.54 227.535 40.1383 226.979 40.5526C226.422 40.9635 225.752 41.169 224.97 41.169ZM224.97 39.8416C225.659 39.8416 226.198 39.5052 226.586 38.8324C226.977 38.1596 227.172 37.1868 227.172 35.9141C227.172 35.0689 227.083 34.3546 226.904 33.7713C226.728 33.1847 226.475 32.7405 226.143 32.4389C225.815 32.134 225.424 31.9815 224.97 31.9815C224.284 31.9815 223.745 32.3196 223.354 32.9957C222.963 33.6719 222.766 34.6446 222.763 35.9141C222.763 36.7625 222.851 37.4801 223.026 38.0668C223.205 38.6501 223.459 39.0926 223.787 39.3942C224.115 39.6925 224.509 39.8416 224.97 39.8416ZM235.637 39.0909V38.554C235.637 38.1695 235.717 37.8182 235.876 37.5C236.038 37.1785 236.273 36.9216 236.582 36.7294C236.893 36.5339 237.269 36.4361 237.71 36.4361C238.161 36.4361 238.539 36.5322 238.844 36.7244C239.149 36.9167 239.379 37.1735 239.535 37.495C239.694 37.8165 239.773 38.1695 239.773 38.554V39.0909C239.773 39.4754 239.694 39.8284 239.535 40.1499C239.376 40.468 239.142 40.7249 238.834 40.9205C238.529 41.1127 238.154 41.2088 237.71 41.2088C237.263 41.2088 236.885 41.1127 236.577 40.9205C236.268 40.7249 236.035 40.468 235.876 40.1499C235.717 39.8284 235.637 39.4754 235.637 39.0909ZM236.795 38.554V39.0909C236.795 39.3759 236.863 39.6345 236.999 39.8665C237.135 40.0985 237.372 40.2145 237.71 40.2145C238.045 40.2145 238.279 40.0985 238.411 39.8665C238.544 39.6345 238.61 39.3759 238.61 39.0909V38.554C238.61 38.2689 238.545 38.0104 238.416 37.7784C238.29 37.5464 238.055 37.4304 237.71 37.4304C237.379 37.4304 237.143 37.5464 237.004 37.7784C236.865 38.0104 236.795 38.2689 236.795 38.554ZM230.516 33.2642V32.7273C230.516 32.3428 230.596 31.9898 230.755 31.6683C230.917 31.3468 231.153 31.09 231.461 30.8977C231.772 30.7055 232.149 30.6094 232.589 30.6094C233.04 30.6094 233.418 30.7055 233.723 30.8977C234.028 31.09 234.258 31.3468 234.414 31.6683C234.57 31.9898 234.648 32.3428 234.648 32.7273V33.2642C234.648 33.6487 234.568 34.0017 234.409 34.3232C234.253 34.6413 234.021 34.8982 233.713 35.0938C233.408 35.286 233.034 35.3821 232.589 35.3821C232.139 35.3821 231.759 35.286 231.451 35.0938C231.146 34.8982 230.914 34.6413 230.755 34.3232C230.596 34.0017 230.516 33.6487 230.516 33.2642ZM231.68 32.7273V33.2642C231.68 33.5492 231.746 33.8078 231.879 34.0398C232.014 34.2718 232.251 34.3878 232.589 34.3878C232.921 34.3878 233.153 34.2718 233.286 34.0398C233.421 33.8078 233.489 33.5492 233.489 33.2642V32.7273C233.489 32.4422 233.425 32.1837 233.295 31.9517C233.166 31.7197 232.931 31.6037 232.589 31.6037C232.258 31.6037 232.023 31.7197 231.884 31.9517C231.748 32.1837 231.68 32.4422 231.68 32.7273ZM230.989 41L237.989 30.8182H239.177L232.177 41H230.989Z" fill="#121315"/>
<path d="M245.827 41V30.8182H249.387C250.096 30.8182 250.681 30.9408 251.142 31.1861C251.603 31.428 251.946 31.7545 252.171 32.1655C252.396 32.5732 252.509 33.0256 252.509 33.5227C252.509 33.9602 252.431 34.3215 252.275 34.6065C252.123 34.8916 251.921 35.117 251.669 35.2827C251.42 35.4484 251.15 35.571 250.859 35.6506V35.75C251.17 35.7699 251.483 35.8793 251.798 36.0781C252.113 36.277 252.376 36.562 252.589 36.9332C252.801 37.3045 252.907 37.7585 252.907 38.2955C252.907 38.8059 252.791 39.2649 252.559 39.6726C252.327 40.0803 251.961 40.4034 251.46 40.642C250.96 40.8807 250.308 41 249.506 41H245.827ZM247.06 39.9062H249.506C250.312 39.9062 250.883 39.7505 251.221 39.4389C251.563 39.1241 251.734 38.7429 251.734 38.2955C251.734 37.9508 251.646 37.6326 251.47 37.3409C251.294 37.0459 251.044 36.8106 250.719 36.6349C250.394 36.456 250.01 36.3665 249.566 36.3665H247.06V39.9062ZM247.06 35.2926H249.347C249.718 35.2926 250.053 35.2197 250.351 35.0739C250.653 34.928 250.892 34.7225 251.067 34.4574C251.246 34.1922 251.336 33.8807 251.336 33.5227C251.336 33.0753 251.18 32.6958 250.868 32.3842C250.557 32.0694 250.063 31.9119 249.387 31.9119H247.06V35.2926ZM254.236 31.9119V30.8182H261.872V31.9119H258.671V41H257.438V31.9119H254.236ZM271.404 34H270.172C270.099 33.6454 269.971 33.3338 269.789 33.0653C269.61 32.7969 269.391 32.5715 269.132 32.3892C268.877 32.2036 268.594 32.0644 268.282 31.9716C267.971 31.8788 267.646 31.8324 267.308 31.8324C266.691 31.8324 266.133 31.9882 265.632 32.2997C265.135 32.6113 264.739 33.0703 264.444 33.6768C264.153 34.2834 264.007 35.0275 264.007 35.9091C264.007 36.7907 264.153 37.5348 264.444 38.1413C264.739 38.7479 265.135 39.2069 265.632 39.5185C266.133 39.83 266.691 39.9858 267.308 39.9858C267.646 39.9858 267.971 39.9394 268.282 39.8466C268.594 39.7538 268.877 39.6162 269.132 39.4339C269.391 39.2483 269.61 39.0213 269.789 38.7528C269.971 38.4811 270.099 38.1695 270.172 37.8182H271.404C271.312 38.3385 271.143 38.8042 270.897 39.2152C270.652 39.6262 270.347 39.9759 269.983 40.2642C269.618 40.5492 269.209 40.7663 268.755 40.9155C268.304 41.0646 267.822 41.1392 267.308 41.1392C266.44 41.1392 265.667 40.9271 264.991 40.5028C264.315 40.0786 263.783 39.4754 263.395 38.6932C263.007 37.911 262.814 36.983 262.814 35.9091C262.814 34.8352 263.007 33.9072 263.395 33.125C263.783 32.3428 264.315 31.7396 264.991 31.3153C265.667 30.8911 266.44 30.679 267.308 30.679C267.822 30.679 268.304 30.7536 268.755 30.9027C269.209 31.0518 269.618 31.2706 269.983 31.5589C270.347 31.844 270.652 32.192 270.897 32.603C271.143 33.0107 271.312 33.4763 271.404 34Z" fill="#8D8D94"/>
<rect x="192" y="72" width="8" height="8" rx="4" fill="#EFF0F3"/>
<path d="M212.766 79.0114V77.7685L217.165 70.8182H218.145V72.6477H217.523L214.376 77.6293V77.7088H220.407V79.0114H212.766ZM217.593 81V78.6335L217.603 78.0668V70.8182H219.06V81H217.593ZM225.44 81.1392C224.727 81.1392 224.098 81.0166 223.551 80.7713C223.007 80.526 222.581 80.188 222.273 79.7571C221.965 79.3262 221.812 78.8357 221.816 78.2855C221.812 77.8546 221.9 77.4586 222.079 77.0973C222.261 76.7327 222.508 76.4295 222.82 76.1875C223.131 75.9422 223.479 75.7865 223.864 75.7202V75.6605C223.357 75.5379 222.951 75.2661 222.646 74.8452C222.341 74.4242 222.19 73.9403 222.193 73.3935C222.19 72.8731 222.328 72.4091 222.606 72.0014C222.888 71.5904 223.274 71.2673 223.764 71.032C224.255 70.7966 224.813 70.679 225.44 70.679C226.06 70.679 226.613 70.7983 227.1 71.0369C227.591 71.2723 227.977 71.5954 228.259 72.0064C228.541 72.4141 228.683 72.8764 228.686 73.3935C228.683 73.9403 228.527 74.4242 228.219 74.8452C227.911 75.2661 227.51 75.5379 227.016 75.6605V75.7202C227.397 75.7865 227.74 75.9422 228.045 76.1875C228.353 76.4295 228.599 76.7327 228.781 77.0973C228.966 77.4586 229.061 77.8546 229.064 78.2855C229.061 78.8357 228.905 79.3262 228.597 79.7571C228.289 80.188 227.861 80.526 227.314 80.7713C226.771 81.0166 226.146 81.1392 225.44 81.1392ZM225.44 79.8814C225.861 79.8814 226.225 79.8118 226.534 79.6726C226.842 79.5301 227.081 79.3329 227.25 79.081C227.419 78.8258 227.505 78.5275 227.508 78.1861C227.505 77.8314 227.412 77.5182 227.23 77.2464C227.051 76.9747 226.807 76.7609 226.499 76.6051C226.191 76.4493 225.838 76.3714 225.44 76.3714C225.039 76.3714 224.683 76.4493 224.371 76.6051C224.059 76.7609 223.814 76.9747 223.635 77.2464C223.456 77.5182 223.368 77.8314 223.372 78.1861C223.368 78.5275 223.45 78.8258 223.615 79.081C223.784 79.3329 224.025 79.5301 224.336 79.6726C224.648 79.8118 225.016 79.8814 225.44 79.8814ZM225.44 75.1435C225.778 75.1435 226.078 75.0755 226.34 74.9396C226.602 74.8037 226.807 74.6148 226.956 74.3729C227.109 74.1309 227.187 73.8475 227.19 73.5227C227.187 73.2045 227.11 72.9261 226.961 72.6875C226.815 72.4489 226.612 72.2649 226.35 72.1357C226.088 72.0031 225.785 71.9368 225.44 71.9368C225.089 71.9368 224.78 72.0031 224.515 72.1357C224.253 72.2649 224.05 72.4489 223.904 72.6875C223.758 72.9261 223.687 73.2045 223.69 73.5227C223.687 73.8475 223.76 74.1309 223.909 74.3729C224.058 74.6148 224.263 74.8037 224.525 74.9396C224.79 75.0755 225.095 75.1435 225.44 75.1435ZM236.02 79.0909V78.554C236.02 78.1695 236.099 77.8182 236.259 77.5C236.421 77.1785 236.656 76.9216 236.964 76.7294C237.276 76.5339 237.652 76.4361 238.093 76.4361C238.544 76.4361 238.922 76.5322 239.227 76.7244C239.531 76.9167 239.762 77.1735 239.918 77.495C240.077 77.8165 240.156 78.1695 240.156 78.554V79.0909C240.156 79.4754 240.077 79.8284 239.918 80.1499C239.759 80.468 239.525 80.7249 239.217 80.9205C238.912 81.1127 238.537 81.2088 238.093 81.2088C237.646 81.2088 237.268 81.1127 236.96 80.9205C236.651 80.7249 236.418 80.468 236.259 80.1499C236.099 79.8284 236.02 79.4754 236.02 79.0909ZM237.178 78.554V79.0909C237.178 79.3759 237.246 79.6345 237.382 79.8665C237.518 80.0985 237.755 80.2145 238.093 80.2145C238.428 80.2145 238.661 80.0985 238.794 79.8665C238.927 79.6345 238.993 79.3759 238.993 79.0909V78.554C238.993 78.2689 238.928 78.0104 238.799 77.7784C238.673 77.5464 238.438 77.4304 238.093 77.4304C237.762 77.4304 237.526 77.5464 237.387 77.7784C237.248 78.0104 237.178 78.2689 237.178 78.554ZM230.899 73.2642V72.7273C230.899 72.3428 230.979 71.9898 231.138 71.6683C231.3 71.3468 231.536 71.09 231.844 70.8977C232.155 70.7055 232.531 70.6094 232.972 70.6094C233.423 70.6094 233.801 70.7055 234.106 70.8977C234.411 71.09 234.641 71.3468 234.797 71.6683C234.953 71.9898 235.031 72.3428 235.031 72.7273V73.2642C235.031 73.6487 234.951 74.0017 234.792 74.3232C234.636 74.6413 234.404 74.8982 234.096 75.0938C233.791 75.286 233.416 75.3821 232.972 75.3821C232.522 75.3821 232.142 75.286 231.834 75.0938C231.529 74.8982 231.297 74.6413 231.138 74.3232C230.979 74.0017 230.899 73.6487 230.899 73.2642ZM232.063 72.7273V73.2642C232.063 73.5492 232.129 73.8078 232.261 74.0398C232.397 74.2718 232.634 74.3878 232.972 74.3878C233.304 74.3878 233.536 74.2718 233.668 74.0398C233.804 73.8078 233.872 73.5492 233.872 73.2642V72.7273C233.872 72.4422 233.808 72.1837 233.678 71.9517C233.549 71.7197 233.314 71.6037 232.972 71.6037C232.641 71.6037 232.406 71.7197 232.266 71.9517C232.13 72.1837 232.063 72.4422 232.063 72.7273ZM231.371 81L238.371 70.8182H239.56L232.56 81H231.371Z" fill="#121315"/>
<path d="M252.892 70.8182H254.125V77.5597C254.125 78.2557 253.961 78.8771 253.633 79.424C253.308 79.9676 252.849 80.3968 252.256 80.7116C251.662 81.0232 250.966 81.179 250.167 81.179C249.369 81.179 248.673 81.0232 248.079 80.7116C247.486 80.3968 247.025 79.9676 246.697 79.424C246.372 78.8771 246.21 78.2557 246.21 77.5597V70.8182H247.443V77.4602C247.443 77.9574 247.552 78.3999 247.771 78.7876C247.99 79.1721 248.301 79.4754 248.706 79.6974C249.113 79.9162 249.601 80.0256 250.167 80.0256C250.734 80.0256 251.221 79.9162 251.629 79.6974C252.037 79.4754 252.348 79.1721 252.564 78.7876C252.783 78.3999 252.892 77.9574 252.892 77.4602V70.8182ZM262.015 73.3636C261.956 72.8598 261.714 72.4688 261.289 72.1903C260.865 71.9119 260.345 71.7727 259.728 71.7727C259.278 71.7727 258.883 71.8456 258.545 71.9915C258.21 72.1373 257.948 72.3378 257.76 72.593C257.574 72.8482 257.481 73.1383 257.481 73.4631C257.481 73.7348 257.546 73.9685 257.675 74.1641C257.808 74.3563 257.977 74.517 258.182 74.6463C258.388 74.7723 258.603 74.8767 258.828 74.9595C259.054 75.0391 259.261 75.1037 259.45 75.1534L260.484 75.4318C260.749 75.5014 261.044 75.5975 261.369 75.7202C261.697 75.8428 262.01 76.0102 262.309 76.2223C262.61 76.4311 262.859 76.6996 263.054 77.0277C263.25 77.3558 263.348 77.7585 263.348 78.2358C263.348 78.786 263.203 79.2831 262.915 79.7273C262.63 80.1714 262.212 80.5244 261.662 80.7862C261.115 81.0481 260.451 81.179 259.669 81.179C258.939 81.179 258.308 81.0613 257.774 80.826C257.244 80.5907 256.827 80.2625 256.522 79.8416C256.22 79.4207 256.049 78.9318 256.01 78.375H257.282C257.315 78.7595 257.445 79.0777 257.67 79.3295C257.899 79.5781 258.187 79.7637 258.535 79.8864C258.886 80.0057 259.264 80.0653 259.669 80.0653C260.139 80.0653 260.562 79.9891 260.936 79.8366C261.311 79.6809 261.608 79.4654 261.826 79.1903C262.045 78.9119 262.154 78.5871 262.154 78.2159C262.154 77.8778 262.06 77.6027 261.871 77.3906C261.682 77.1785 261.434 77.0062 261.125 76.8736C260.817 76.741 260.484 76.625 260.126 76.5256L258.873 76.1676C258.078 75.9389 257.448 75.6125 256.984 75.1882C256.52 74.764 256.288 74.2088 256.288 73.5227C256.288 72.9527 256.442 72.4555 256.75 72.0312C257.062 71.6037 257.479 71.2723 258.003 71.0369C258.53 70.7983 259.118 70.679 259.768 70.679C260.424 70.679 261.008 70.7966 261.518 71.032C262.028 71.264 262.433 71.5821 262.731 71.9865C263.033 72.3909 263.192 72.8499 263.208 73.3636H262.015ZM268.377 81H265.235V70.8182H268.516C269.504 70.8182 270.349 71.022 271.052 71.4297C271.754 71.834 272.293 72.4157 272.667 73.1747C273.042 73.9304 273.229 74.8352 273.229 75.8892C273.229 76.9498 273.04 77.8629 272.662 78.6286C272.284 79.3909 271.734 79.9775 271.012 80.3885C270.289 80.7962 269.411 81 268.377 81ZM266.468 79.9062H268.297C269.139 79.9062 269.837 79.7438 270.39 79.419C270.944 79.0942 271.356 78.6319 271.628 78.032C271.9 77.4321 272.036 76.7178 272.036 75.8892C272.036 75.0672 271.902 74.3596 271.633 73.7663C271.365 73.1697 270.964 72.7124 270.43 72.3942C269.896 72.0727 269.232 71.9119 268.436 71.9119H266.468V79.9062Z" fill="#8D8D94"/>
<rect x="192" y="112" width="8" height="8" rx="4" fill="#E0E1E4"/>
<path d="M216.524 121.139C215.841 121.139 215.232 121.022 214.695 120.786C214.161 120.551 213.738 120.224 213.427 119.807C213.119 119.386 212.953 118.899 212.93 118.345H214.491C214.511 118.647 214.612 118.909 214.794 119.131C214.98 119.349 215.222 119.518 215.52 119.638C215.818 119.757 216.15 119.817 216.514 119.817C216.915 119.817 217.27 119.747 217.578 119.608C217.89 119.469 218.133 119.275 218.309 119.026C218.485 118.774 218.572 118.484 218.572 118.156C218.572 117.815 218.485 117.515 218.309 117.256C218.137 116.995 217.883 116.789 217.548 116.64C217.217 116.491 216.816 116.416 216.345 116.416H215.485V115.163H216.345C216.723 115.163 217.054 115.095 217.339 114.96C217.628 114.824 217.853 114.635 218.016 114.393C218.178 114.147 218.259 113.861 218.259 113.533C218.259 113.218 218.188 112.944 218.045 112.712C217.906 112.477 217.707 112.293 217.449 112.161C217.194 112.028 216.892 111.962 216.544 111.962C216.213 111.962 215.903 112.023 215.614 112.146C215.329 112.265 215.097 112.437 214.918 112.663C214.739 112.885 214.643 113.152 214.63 113.463H213.143C213.16 112.913 213.322 112.429 213.631 112.011C213.942 111.594 214.353 111.267 214.864 111.032C215.374 110.797 215.941 110.679 216.564 110.679C217.217 110.679 217.78 110.807 218.254 111.062C218.732 111.314 219.099 111.65 219.358 112.071C219.62 112.492 219.749 112.953 219.746 113.453C219.749 114.023 219.59 114.507 219.268 114.905C218.95 115.303 218.526 115.569 217.996 115.705V115.785C218.672 115.888 219.196 116.156 219.567 116.59C219.941 117.024 220.127 117.563 220.124 118.206C220.127 118.766 219.971 119.268 219.656 119.712C219.345 120.156 218.919 120.506 218.379 120.761C217.838 121.013 217.22 121.139 216.524 121.139ZM221.863 121V119.886L225.308 116.317C225.676 115.929 225.979 115.589 226.218 115.298C226.46 115.003 226.641 114.723 226.76 114.457C226.879 114.192 226.939 113.911 226.939 113.612C226.939 113.274 226.859 112.982 226.7 112.737C226.541 112.489 226.324 112.298 226.049 112.165C225.774 112.03 225.464 111.962 225.119 111.962C224.755 111.962 224.436 112.036 224.165 112.185C223.893 112.335 223.684 112.545 223.538 112.817C223.392 113.089 223.32 113.407 223.32 113.771H221.853C221.853 113.152 221.995 112.61 222.28 112.146C222.565 111.682 222.957 111.322 223.454 111.067C223.951 110.808 224.516 110.679 225.149 110.679C225.789 110.679 226.352 110.807 226.839 111.062C227.33 111.314 227.713 111.658 227.988 112.096C228.263 112.53 228.4 113.021 228.4 113.567C228.4 113.945 228.329 114.315 228.187 114.676C228.047 115.037 227.804 115.44 227.456 115.884C227.108 116.325 226.624 116.86 226.004 117.49L223.981 119.608V119.683H228.565V121H221.863ZM235.623 119.091V118.554C235.623 118.17 235.703 117.818 235.862 117.5C236.024 117.179 236.26 116.922 236.568 116.729C236.88 116.534 237.256 116.436 237.697 116.436C238.147 116.436 238.525 116.532 238.83 116.724C239.135 116.917 239.365 117.174 239.521 117.495C239.68 117.817 239.76 118.17 239.76 118.554V119.091C239.76 119.475 239.68 119.828 239.521 120.15C239.362 120.468 239.128 120.725 238.82 120.92C238.515 121.113 238.141 121.209 237.697 121.209C237.249 121.209 236.871 121.113 236.563 120.92C236.255 120.725 236.021 120.468 235.862 120.15C235.703 119.828 235.623 119.475 235.623 119.091ZM236.782 118.554V119.091C236.782 119.376 236.85 119.634 236.986 119.866C237.122 120.098 237.358 120.214 237.697 120.214C238.031 120.214 238.265 120.098 238.398 119.866C238.53 119.634 238.596 119.376 238.596 119.091V118.554C238.596 118.269 238.532 118.01 238.403 117.778C238.277 117.546 238.041 117.43 237.697 117.43C237.365 117.43 237.13 117.546 236.991 117.778C236.851 118.01 236.782 118.269 236.782 118.554ZM230.503 113.264V112.727C230.503 112.343 230.582 111.99 230.741 111.668C230.904 111.347 231.139 111.09 231.447 110.898C231.759 110.705 232.135 110.609 232.576 110.609C233.027 110.609 233.404 110.705 233.709 110.898C234.014 111.09 234.245 111.347 234.4 111.668C234.556 111.99 234.634 112.343 234.634 112.727V113.264C234.634 113.649 234.555 114.002 234.395 114.323C234.24 114.641 234.008 114.898 233.699 115.094C233.394 115.286 233.02 115.382 232.576 115.382C232.125 115.382 231.746 115.286 231.437 115.094C231.132 114.898 230.9 114.641 230.741 114.323C230.582 114.002 230.503 113.649 230.503 113.264ZM231.666 112.727V113.264C231.666 113.549 231.732 113.808 231.865 114.04C232.001 114.272 232.238 114.388 232.576 114.388C232.907 114.388 233.139 114.272 233.272 114.04C233.408 113.808 233.476 113.549 233.476 113.264V112.727C233.476 112.442 233.411 112.184 233.282 111.952C233.153 111.72 232.917 111.604 232.576 111.604C232.244 111.604 232.009 111.72 231.87 111.952C231.734 112.184 231.666 112.442 231.666 112.727ZM230.975 121L237.975 110.818H239.163L232.163 121H230.975Z" fill="#121315"/>
<path d="M245.814 121V110.818H251.919V111.912H247.047V115.352H251.461V116.446H247.047V121H245.814ZM253.334 111.912V110.818H260.97V111.912H257.768V121H256.535V111.912H253.334ZM262.176 111.912V110.818H269.812V111.912H266.611V121H265.378V111.912H262.176Z" fill="#8D8D94"/>
</svg>
