<svg  viewBox="0 0 22 22" fill="none" xmlns="http://www.w3.org/2000/svg">
<path d="M2.49494 14.9503L3.96267 15.1801C5.04615 15.3498 5.81992 16.3422 5.74013 17.4602L5.63199 18.9756C5.60049 19.417 5.83566 19.8326 6.22517 20.0248L7.31075 20.5597C7.70026 20.7519 8.16536 20.68 8.48347 20.3803L9.5743 19.3493C10.3785 18.5889 11.6195 18.5889 12.4247 19.3493L13.5156 20.3803C13.8337 20.681 14.2977 20.7519 14.6883 20.5597L15.776 20.0238C16.1644 19.8326 16.3985 19.418 16.367 18.9777L16.2589 17.4602C16.1791 16.3422 16.9529 15.3498 18.0364 15.1801L19.5041 14.9503C19.9314 14.8837 20.2758 14.5562 20.3723 14.1244L20.6401 12.9237C20.7367 12.492 20.5655 12.0441 20.2086 11.795L18.9834 10.9369C18.0794 10.3032 17.8033 9.066 18.3492 8.09405L19.0894 6.77736C19.3046 6.39395 19.2689 5.91388 18.9991 5.56806L18.2484 4.60471C17.9786 4.25889 17.5293 4.11605 17.1156 4.246L15.6962 4.69062C14.6473 5.01926 13.5292 4.46831 13.1261 3.42548L12.5822 2.01535C12.4226 1.60294 12.0331 1.3323 11.5995 1.33338L10.3964 1.3366C9.96276 1.33767 9.5743 1.61046 9.41682 2.02394L8.88663 3.41796C8.48767 4.46724 7.36429 5.02248 6.31231 4.6917L4.83408 4.22774C4.41937 4.09672 3.96792 4.24063 3.6981 4.5886L2.95268 5.55303C2.68286 5.90207 2.65032 6.38321 2.86974 6.76662L3.62671 8.08653C4.1842 9.05956 3.91123 10.3086 3.00203 10.9455L1.79151 11.7939C1.43455 12.0441 1.26342 12.492 1.36001 12.9226L1.62773 14.1234C1.72327 14.5562 2.06763 14.8837 2.49494 14.9503Z" stroke="currentColor" stroke-width="1.5" stroke-linecap="round" stroke-linejoin="round"/>
<path d="M13.1214 8.87858C14.2929 10.05 14.2929 11.95 13.1214 13.1214C11.95 14.2929 10.05 14.2929 8.87858 13.1214C7.70714 11.95 7.70714 10.05 8.87858 8.87858C10.05 7.70714 11.95 7.70714 13.1214 8.87858Z" stroke="currentColor" stroke-width="1.5" stroke-linecap="round" stroke-linejoin="round"/>
</svg>
