<svg viewBox="0 0 22 22" fill="none" xmlns="http://www.w3.org/2000/svg">
<path d="M20.6667 4.3335C20.6667 5.99035 19.3235 7.3335 17.6667 7.3335C16.0098 7.3335 14.6667 5.99035 14.6667 4.3335C14.6667 2.67664 16.0098 1.3335 17.6667 1.3335C19.3235 1.3335 20.6667 2.67664 20.6667 4.3335Z" stroke="currentColor" stroke-width="1.5" stroke-linecap="round" stroke-linejoin="round"/>
<path d="M7.33331 11C7.33331 12.6569 5.99017 14 4.33331 14C2.67646 14 1.33331 12.6569 1.33331 11C1.33331 9.34315 2.67646 8 4.33331 8C5.99017 8 7.33331 9.34315 7.33331 11Z" stroke="currentColor" stroke-width="1.5" stroke-linecap="round" stroke-linejoin="round"/>
<path d="M20.6667 17.6665C20.6667 19.3234 19.3235 20.6665 17.6667 20.6665C16.0098 20.6665 14.6667 19.3234 14.6667 17.6665C14.6667 16.0096 16.0098 14.6665 17.6667 14.6665C19.3235 14.6665 20.6667 16.0096 20.6667 17.6665Z" stroke="currentColor" stroke-width="1.5" stroke-linecap="round" stroke-linejoin="round"/>
<path d="M14.3333 16.3333L7 13" stroke="currentColor" stroke-width="1.5" stroke-linecap="round" stroke-linejoin="round"/>
<path d="M14.3333 6.3335L7 9.66683" stroke="currentColor" stroke-width="1.5" stroke-linecap="round" stroke-linejoin="round"/>
</svg>
