<svg viewBox="0 0 21 18" fill="none" xmlns="http://www.w3.org/2000/svg">
<path d="M15.8 9.82938C17.0124 9.82938 18.1102 9.89827 18.7855 10.0265C18.796 10.0265 19.4139 10.1536 19.6199 10.2356C19.9172 10.3639 20.1688 10.5955 20.3291 10.8853C20.4438 11.1169 20.5 11.3616 20.5 11.617C20.4895 11.883 20.3174 12.3831 20.2367 12.5802C19.7346 13.8797 18.0868 16.3633 17.0815 17.3158C16.9211 17.4774 16.7269 17.652 16.6812 17.6983C16.4284 17.8955 16.1206 18 15.7894 18C15.491 18 15.1937 17.9074 14.9538 17.7209C14.8292 17.6318 14.6473 17.4545 14.5641 17.3715L14.5196 17.3265C13.478 16.3526 11.9121 13.926 11.4089 12.6955C11.3982 12.6955 11.1475 12.0816 11.0968 11.7113L11.0882 11.617V11.5706C11.0882 11.0361 11.3855 10.5373 11.8665 10.2819C12.1298 10.1429 12.8952 10.0147 12.9069 10.0028C13.5927 9.89827 14.6449 9.82938 15.8 9.82938ZM5.20553 9.89053C5.68478 9.89053 6.07926 10.2561 6.13317 10.7277L6.13945 10.8383L6.39575 15.4171C6.39575 16.0846 5.86325 16.625 5.20553 16.625C4.58892 16.625 4.08133 16.15 4.02029 15.5406L4.01414 15.4171L4.27161 10.8383C4.27161 10.3146 4.68942 9.89053 5.20553 9.89053ZM5.21173 0C5.50783 0 5.80509 0.0926435 6.04618 0.277931C6.15004 0.352907 6.29368 0.488661 6.38681 0.579934L6.48037 0.673447C7.52079 1.64858 9.08785 4.07394 9.59109 5.30444C9.60075 5.30444 9.85232 5.91922 9.9032 6.28974L9.91177 6.38409V6.43041C9.91177 6.96371 9.61333 7.46255 9.1335 7.71792C8.87017 7.85807 8.10478 7.98516 8.09308 7.99704C7.40727 8.10156 6.35514 8.17045 5.20003 8.17045C3.98757 8.17045 2.88981 8.10156 2.21453 7.97328C2.20282 7.97328 1.58606 7.84619 1.38009 7.76424C1.08282 7.63715 0.831202 7.40436 0.670868 7.11455C0.556176 6.88294 0.5 6.63827 0.5 6.38409C0.510533 6.11685 0.682571 5.618 0.762153 5.42083C1.26539 4.12026 2.91204 1.6367 3.91852 0.685325C4.07886 0.522605 4.27313 0.348007 4.31877 0.301685C4.57039 0.104521 4.87936 0 5.21173 0ZM15.7947 1.375C16.4113 1.375 16.9179 1.84999 16.9788 2.45938L16.9849 2.58295L16.7286 7.16178C16.7286 7.68559 16.3108 8.10962 15.7947 8.10962C15.3155 8.10962 14.921 7.744 14.8671 7.27238L14.8608 7.16178L14.6033 2.58295C14.6033 1.91543 15.137 1.375 15.7947 1.375Z" fill="currentColor"/>
</svg>
