<svg  viewBox="0 0 14 12" fill="none" xmlns="http://www.w3.org/2000/svg">
<path d="M4.75835 11.2082C9.31825 11.2082 11.812 7.20009 11.812 3.72479C11.812 3.53052 11.9497 3.3583 12.1267 3.27815C12.7336 3.00328 13.5207 2.24936 12.7079 0.981737C12.1693 1.2713 11.7266 1.42952 11.1336 1.62023C10.195 0.561447 8.62462 0.510408 7.62615 1.50618C6.98209 2.14833 6.70916 3.10556 6.90895 4.01904C4.91543 3.91332 2.58158 2.44622 1.32293 0.803098C0.66513 2.00511 1.0009 3.54251 2.09019 4.31486C1.69551 4.30236 1.30967 4.18934 0.965066 3.98571V4.01904C0.965066 5.27105 1.79713 6.3491 2.95367 6.597C2.58894 6.70273 2.20604 6.71835 1.83444 6.64231C2.15941 7.7136 3.56646 8.91561 4.62728 8.93696C3.74907 9.66868 2.66469 10.0661 1.5484 10.065C1.35106 10.0645 1.15421 10.052 0.958344 10.027C2.09231 10.7988 3.41134 11.2082 4.75835 11.2061V11.2082Z" stroke="currentColor" stroke-width="1.5" stroke-linecap="round" stroke-linejoin="round"/>
</svg>
