<svg width="22" height="22" viewBox="0 0 22 22" fill="none" xmlns="http://www.w3.org/2000/svg">
<path d="M20.9167 6V18C20.9167 19.4728 19.7228 20.6667 18.25 20.6667H4.25C2.77724 20.6667 1.58333 19.4728 1.58333 18V4" stroke="currentColor" stroke-width="2" stroke-linecap="round" stroke-linejoin="round"/>
<path d="M17.25 12.3333C17.25 12.7015 16.9515 13 16.5833 13C16.2151 13 15.9167 12.7015 15.9167 12.3333C15.9167 11.9651 16.2151 11.6667 16.5833 11.6667C16.9515 11.6667 17.25 11.9651 17.25 12.3333Z" stroke="currentColor" stroke-width="2" stroke-linecap="round" stroke-linejoin="round"/>
<path d="M18.25 6.00001H3.91666C2.628 6.00001 1.58333 4.95534 1.58333 3.66668C1.58333 2.37801 2.628 1.33334 3.91666 1.33334H15.5833C17.0561 1.33334 18.25 2.52725 18.25 4.00001V6.00001ZM18.25 6.00001H20.9167" stroke="currentColor" stroke-width="2" stroke-linecap="round" stroke-linejoin="round"/>
</svg>
