<svg viewBox="0 0 24 24" fill="none" xmlns="http://www.w3.org/2000/svg">
  <circle cx="12" cy="12" r="12" fill="currentColor" />
  <path fill-rule="evenodd" clip-rule="evenodd"
    d="M15.9104 7.95841C15.3097 6.46587 13.8832 6.39124 12.1564 6.68975L11.5558 4.6002L10.2795 4.97333L10.8801 6.98826C10.7584 7.01849 10.6244 7.06097 10.4831 7.10578L10.4831 7.10578C10.2756 7.17157 10.0523 7.24237 9.829 7.28676L9.22837 5.19721L7.95204 5.57035L8.55267 7.6599C8.40251 7.69721 8.27112 7.73453 8.13973 7.77184C8.00835 7.80915 7.87696 7.84647 7.72681 7.88378L6 8.48079L6.37539 9.82408C6.37539 9.82408 7.35141 9.52557 7.27633 9.52557C7.80188 9.37632 8.02712 9.6002 8.17728 9.89871L8.85298 12.2868H9.00314L8.85298 12.3614L9.829 15.7196C9.829 15.8689 9.829 16.1674 9.45361 16.3166L8.55267 16.6151L8.70283 18.1823L10.3546 17.7345L11.2555 17.5106L11.8561 19.6002L13.1325 19.2271L12.5318 17.1375C12.9072 17.0629 13.2075 16.9883 13.5829 16.839L14.1836 18.9286L15.4599 18.5554L14.8593 16.4659C16.9615 15.7196 18.3129 14.7495 17.9375 12.6599C17.6372 11.0181 16.6611 10.4957 15.3097 10.5703C16.0605 9.82408 16.3608 9.07781 15.9104 7.95841ZM15.4601 13.0331C15.8572 14.4145 13.7456 15.0422 12.6225 15.376C12.4716 15.4208 12.3385 15.4604 12.2317 15.4958L11.4059 12.6599C11.5243 12.6305 11.6725 12.5869 11.8419 12.5371L11.8419 12.5371C12.9612 12.2078 15.0036 11.6071 15.4601 13.0331ZM11.2398 11.3311C12.1375 11.0775 14.0725 10.531 13.6582 9.22701C13.3186 7.87681 11.443 8.48091 10.5325 8.77415C10.4365 8.80506 10.3513 8.83252 10.2797 8.85387L11.0305 11.3912C11.0908 11.3732 11.1614 11.3533 11.2398 11.3311Z"
    fill="white" />
</svg>