<svg viewBox="0 0 24 24" fill="none" xmlns="http://www.w3.org/2000/svg">
  <path
    d="M23.6406 14.9029C22.0379 21.3315 15.5268 25.2438 9.09738 23.6407C2.67068 22.0381 -1.24167 15.5265 0.361725 9.09837C1.96371 2.66903 8.47487 -1.24361 14.9023 0.359081C21.3312 1.96177 25.2433 8.47405 23.6404 14.903L23.6406 14.9029H23.6406Z"
    fill="currentColor" />
  <path fill-rule="evenodd" clip-rule="evenodd"
    d="M17.293 10.2903C17.5318 8.6934 16.316 7.83498 14.6535 7.26233L15.1929 5.09914L13.8761 4.77103L13.351 6.87726C13.0049 6.79093 12.6493 6.70957 12.296 6.62892L12.8248 4.50878L11.5089 4.18066L10.9692 6.34315C10.6828 6.27793 10.4014 6.21347 10.1284 6.14555L10.1299 6.13874L8.31404 5.68528L7.96376 7.09171C7.96376 7.09171 8.94071 7.31565 8.92012 7.32944C9.45335 7.46252 9.54978 7.81551 9.53377 8.09529L8.91942 10.5597C8.95614 10.569 9.00377 10.5825 9.05632 10.6036L9.01805 10.5941L9.01802 10.5941C8.98554 10.5859 8.95179 10.5775 8.91713 10.5692L8.05602 14.0214C7.99085 14.1834 7.82545 14.4266 7.45264 14.3342C7.46583 14.3534 6.49556 14.0954 6.49556 14.0954L5.8418 15.6027L7.5554 16.0299C7.74305 16.077 7.92848 16.1253 8.11203 16.1731L8.11204 16.1731C8.24032 16.2066 8.36768 16.2398 8.49423 16.2721L7.94933 18.4601L9.2646 18.7883L9.80423 16.6235C10.1635 16.721 10.5123 16.811 10.8536 16.8958L10.3158 19.0504L11.6327 19.3785L12.1775 17.1946C14.4229 17.6196 16.1113 17.4482 16.822 15.4172C17.3946 13.7821 16.7935 12.8389 15.6122 12.2238C16.4726 12.0254 17.1207 11.4595 17.2935 10.2905L17.2931 10.2902L17.293 10.2903ZM14.2844 14.5091C13.911 16.0093 11.5628 15.3891 10.4883 15.1053C10.3917 15.0798 10.3054 15.057 10.2317 15.0387L10.9548 12.14C11.0446 12.1624 11.1542 12.187 11.2785 12.2149L11.2786 12.2149C12.3899 12.4643 14.6669 12.9753 14.2845 14.5091H14.2844ZM11.5011 10.8696C12.3968 11.1086 14.3509 11.6301 14.6912 10.2666H14.6913C15.0388 8.87208 13.1398 8.45164 12.2123 8.2463C12.108 8.2232 12.0159 8.20282 11.9407 8.18408L11.2852 10.8131C11.3471 10.8285 11.4197 10.8479 11.5011 10.8696Z"
    fill="white" />
</svg>