<svg viewBox="0 0 24 24" fill="none" xmlns="http://www.w3.org/2000/svg">
  <path fill-rule="evenodd" clip-rule="evenodd"
    d="M0 12C0 5.37258 5.37256 0 11.9999 0H12.0697C15.243 0.0092338 18.2827 1.27871 20.5201 3.52915C22.7574 5.77959 24.0092 8.82665 23.9999 12C23.9999 18.6274 18.6273 24 11.9999 24C5.37256 24 0 18.6274 0 12ZM10.9543 16.6199L12.2037 12.4069L14.1504 11.8548L14.5572 10.4601L12.6396 11.0412L14.6734 4.12599V4.01558C14.6704 3.92617 14.632 3.84163 14.5666 3.78059C14.5012 3.71955 14.4142 3.68702 14.3248 3.69015H11.7388C11.5374 3.68394 11.3576 3.81577 11.303 4.00976L8.89139 12.2035L6.97372 12.7846L6.53789 14.1211L8.45556 13.54L6.74128 19.3802H16.9688C17.1709 19.3886 17.3519 19.2559 17.4047 19.0606L17.9858 17.0558V16.9454C17.9828 16.856 17.9443 16.7714 17.8789 16.7104C17.8135 16.6493 17.7265 16.6168 17.6371 16.6199H10.9543Z"
    fill="currentColor" />
</svg>