<svg viewBox="0 0 24 24" fill="none" xmlns="http://www.w3.org/2000/svg">
  <circle cx="12" cy="12" r="12" fill="currentColor" />
  <path
    d="M9.84528 5.79011C11.1909 5.28681 12.7053 5.28566 14.0762 5.69933C15.8607 6.25319 17.3672 7.59991 18.1543 9.29021C18.3714 9.77167 18.5794 10.2738 18.6001 10.8093C17.597 10.2279 16.4973 9.85096 15.3953 9.50738C13.6326 8.87194 11.7872 8.43069 10.1188 7.55739C9.73037 7.32528 9.23512 7.08742 9.12941 6.60366C9.08689 6.18539 9.52929 5.95213 9.84528 5.79011Z"
    fill="white" />
  <path
    d="M5.78322 9.85802C6.17276 8.80087 6.81164 7.81955 7.67919 7.09218C7.89982 8.90658 8.67199 10.6601 9.94747 11.9792C11.4769 13.5684 13.6555 14.544 15.8721 14.5072C16.7523 14.5348 17.6129 14.3314 18.4713 14.1671C17.6267 17.2191 14.2818 19.2449 11.1827 18.7577C9.31203 18.5187 7.58497 17.411 6.54276 15.8471C5.36726 14.1188 5.0708 11.8241 5.78322 9.85802Z"
    fill="#E0E1E4" />
</svg>