<svg viewBox="0 0 24 24" fill="none" xmlns="http://www.w3.org/2000/svg">
  <path
    d="M23.6383 14.9029C22.0356 21.3315 15.5244 25.2438 9.09503 23.6407C2.66833 22.0381 -1.24401 15.5265 0.359382 9.09837C1.96137 2.66903 8.47253 -1.24361 14.8999 0.359081C21.3289 1.96177 25.241 8.47405 23.6381 14.903L23.6382 14.9029H23.6383Z"
    fill="currentColor" />
  <path
    d="M17.9001 5.0001H20.3217L15.2822 9.98986C13.4572 11.7959 10.4983 11.7959 8.67194 9.98986L3.63047 5.0001H6.05401L9.88273 8.79053C11.0435 9.93453 12.9077 9.93453 14.0685 8.79053L17.9001 5.0001Z"
    fill="white" />
  <path
    d="M6.02322 18.8749H3.6L8.67223 13.8543C10.4972 12.0483 13.4562 12.0483 15.2825 13.8543L20.3547 18.8749H17.9331L14.0717 15.0537C12.911 13.9097 11.0467 13.9097 9.88596 15.0537L6.02322 18.8749Z"
    fill="white" />
</svg>