<svg width="40" height="40" viewBox="0 0 40 40" fill="none" xmlns="http://www.w3.org/2000/svg">
<circle cx="20" cy="20" r="20" fill="#8DC351"/>
<path fill-rule="evenodd" clip-rule="evenodd" d="M26.5173 13.264C25.5162 10.7764 23.1387 10.6521 20.2607 11.1496L19.2597 7.66699L17.1325 8.28888L18.1335 11.6471C17.9307 11.6975 17.7074 11.7683 17.4719 11.843L17.4719 11.843L17.4719 11.843C17.126 11.9526 16.7539 12.0706 16.3817 12.1446L15.3806 8.66202L13.2534 9.28391L14.2544 12.7665C14.0042 12.8287 13.7852 12.8909 13.5662 12.9531L13.5662 12.9531C13.3472 13.0153 13.1283 13.0774 12.878 13.1396L10 14.1347L10.6257 16.3735C10.6257 16.3735 12.2524 15.8759 12.1272 15.8759C13.0031 15.6272 13.3785 16.0003 13.6288 16.4978L14.755 20.4779H15.0052L14.755 20.6023L16.3817 26.1993C16.3817 26.4481 16.3817 26.9456 15.756 27.1944L14.2544 27.6919L14.5047 30.3038L17.2576 29.5575L18.7592 29.1844L19.7602 32.667L21.8874 32.0451L20.8864 28.5625C21.512 28.4381 22.0126 28.3138 22.6382 28.065L23.6393 31.5476L25.7665 30.9257L24.7654 27.4431C28.2691 26.1993 30.5215 24.5824 29.8958 21.0998C29.3953 18.3635 27.7686 17.4929 25.5162 17.6172C26.7675 16.3735 27.2681 15.1297 26.5173 13.264ZM25.7649 21.7223C26.4267 24.0247 22.9074 25.0707 21.0356 25.6271C20.784 25.7019 20.5622 25.7678 20.3843 25.8267L19.0078 21.1004C19.2052 21.0513 19.4522 20.9787 19.7345 20.8956C21.6001 20.3469 25.0041 19.3456 25.7649 21.7223ZM18.733 18.8852C20.2291 18.4626 23.4541 17.5516 22.7637 15.3783C22.1977 13.128 19.0717 14.1348 17.5542 14.6236C17.3942 14.6751 17.2521 14.7209 17.1328 14.7565L18.3841 18.9853C18.4847 18.9553 18.6022 18.9221 18.733 18.8852Z" fill="white"/>
</svg>
