<svg width="40" height="40" viewBox="0 0 40 40" fill="none" xmlns="http://www.w3.org/2000/svg">
<circle cx="20" cy="20" r="20" fill="#988430"/>
<circle cx="20" cy="20" r="19.3594" fill="#7A6A2A"/>
<circle cx="19.9983" cy="20.0003" r="18.9515" fill="#BA9F33"/>
<path fill-rule="evenodd" clip-rule="evenodd" d="M8.74256 17.8638C8.62928 17.7603 8.5096 17.6566 8.39952 17.5532C8.28944 17.4497 8.17637 17.346 8.06309 17.2426L7.72645 16.9226C7.67141 16.8675 7.61317 16.8191 7.55813 16.7638C7.50309 16.7154 7.43845 16.6604 7.38341 16.6117C6.93669 16.1878 6.48741 15.764 6.04688 15.3398C6.5032 15.7573 6.94992 16.1718 7.40624 16.5955L7.56474 16.7542C7.61978 16.8091 7.67802 16.8577 7.73306 16.9128L8.06949 17.2234C8.18277 17.3268 8.29285 17.4305 8.40613 17.5434C8.51941 17.6562 8.62949 17.7601 8.74277 17.8634L8.74256 17.8638ZM2.81641 17.7998C2.81641 17.7998 4.44094 17.9679 5.2339 18.0812C5.96841 18.1849 8.26622 18.5375 8.26622 18.5375L2.81641 17.7998ZM2.81662 17.7995C3.27294 17.8383 3.72926 17.8867 4.18558 17.9354C4.41854 17.958 4.6419 17.9838 4.86526 18.0064L5.20809 18.0454C5.32137 18.0614 5.43145 18.0777 5.54473 18.0939L6.90409 18.3106L7.58355 18.4239C7.80691 18.4627 8.03027 18.505 8.26323 18.5438C8.03987 18.5212 7.80691 18.4887 7.58355 18.4563L6.90409 18.3593L5.54473 18.1587C5.43145 18.1425 5.32137 18.1197 5.20809 18.1037L4.86505 18.0642C4.64169 18.0416 4.40873 18.0092 4.18537 17.9831C3.72905 17.9283 3.27273 17.8699 2.81641 17.7988L2.81662 17.7995ZM8.1057 18.9609C8.1057 18.9609 6.37108 19.4013 5.78527 19.5696C5.20927 19.7281 3.46484 20.2589 3.46484 20.2589L8.10548 18.9612L8.1057 18.9609Z" fill="#CFB66C"/>
<path fill-rule="evenodd" clip-rule="evenodd" d="M8.10419 18.9609C7.71912 19.0742 7.33619 19.1843 6.94558 19.288L5.78696 19.5986C5.4019 19.7119 5.01896 19.822 4.63496 19.9352L4.05896 20.0937C3.86803 20.1488 3.6739 20.1972 3.47656 20.2525C3.66728 20.1885 3.86163 20.123 4.05256 20.0679L4.62856 19.8836C5.01363 19.7637 5.39656 19.6504 5.78056 19.5308C6.17203 19.4337 6.55731 19.33 6.94878 19.2361C7.32083 19.1423 7.71251 19.0486 8.10419 18.9612V18.9612V18.9609ZM3.70703 21.327C3.89775 21.2557 6.0985 20.23 6.60986 19.9904C6.86586 19.8706 7.60996 19.6064 7.60996 19.6064L3.70703 21.327Z" fill="#CFB66C"/>
<path fill-rule="evenodd" clip-rule="evenodd" d="M3.70334 21.3272C3.87145 21.2632 4.03017 21.1849 4.19187 21.1104L4.67081 20.8871L5.63209 20.4244C5.95209 20.2723 6.26313 20.1044 6.59315 19.9614C6.76147 19.8904 6.92979 19.8321 7.0979 19.7771L7.3539 19.6963C7.44115 19.6736 7.52222 19.6476 7.6099 19.625C7.2899 19.7771 6.95305 19.9066 6.63262 20.0553C6.31262 20.214 5.98537 20.3435 5.65513 20.4858L4.67785 20.9161C4.34974 21.049 4.02974 21.1913 3.70312 21.3272V21.3272H3.70334ZM3.91406 22.2228C3.91406 22.2228 5.90745 21.0546 6.59353 20.6791C6.95278 20.4786 8.1146 19.9023 8.1146 19.9023L3.91406 22.2228Z" fill="#CFB66C"/>
<path fill-rule="evenodd" clip-rule="evenodd" d="M3.92188 22.2233C4.2583 22.0162 4.60134 21.8058 4.94438 21.5923L5.45638 21.2814C5.6311 21.178 5.79942 21.0809 5.97756 20.9774C6.15228 20.8738 6.3206 20.7703 6.49852 20.6732C6.58321 20.6209 6.67196 20.5755 6.7639 20.5373L7.03569 20.4014C7.39494 20.2267 7.7542 20.0486 8.13286 19.8965C7.78982 20.1134 7.43697 20.298 7.08433 20.4887C6.90961 20.5858 6.73148 20.6732 6.55676 20.7703C6.38204 20.8674 6.21372 20.971 6.03558 21.0649C5.86086 21.1684 5.69254 21.2654 5.51462 21.3593L4.98705 21.6473L3.9223 22.2233V22.2233H3.92188ZM8.10607 20.1582C8.10607 20.1582 6.8666 21.1097 6.46532 21.4139C6.06404 21.7181 4.88281 22.5725 4.88281 22.5725L8.10607 20.1582V20.1582Z" fill="#CFB66C"/>
<path fill-rule="evenodd" clip-rule="evenodd" d="M15.2163 27.8323L14.582 26.6316L14.9509 25.13L17.5819 24.1139L16.4621 21.8163L17.0155 19.4958L18.0545 17.418L21.2649 16.9132L23.624 14.6641L28.7179 15.0491L29.7178 20.4957L27.7923 27.3533L26.6953 30.9036L22.2486 31.072L20.184 29.6416L17.7665 28.6316L15.2163 27.8323V27.8323Z" fill="#E2CC85"/>
<path fill-rule="evenodd" clip-rule="evenodd" d="M23.0141 27.7923C23.0141 27.7923 22.399 28.0739 21.3501 28.0091C21.0465 27.6014 18.9204 27.4105 18.9204 27.4105C18.9204 27.4105 18.655 27.3296 18.1857 27.5237C17.7134 27.7157 17.2667 27.6921 16.8492 27.7955C16.4317 27.899 16.0172 27.3554 15.6972 27.2421C15.3772 27.1225 14.9528 26.8345 14.9528 26.8345L14.0568 26.747L12.2576 25.9865L9.39913 23.1387L8.62239 24.3547L8.38281 25.8595L9.24703 27.6428L11.5739 29.7625L16.111 30.9145L18.8003 30.1221L22.1693 28.6981L23.0141 27.7921V27.7923Z" fill="#F1D789"/>
<path fill-rule="evenodd" clip-rule="evenodd" d="M6.89596 17.728L7.47196 15.9838L8.15825 14.8574L10.3684 14.6729L9.70492 16.6082L7.85724 19.8963L8.62417 22.8316L7.26503 23.511L6.84732 22.8704L6.51089 21.4012L6.48828 19.7506L6.89596 17.728V17.728Z" fill="#F4ECB4"/>
<path fill-rule="evenodd" clip-rule="evenodd" d="M9.37391 27.6736L8.95002 27.0814C8.95002 27.0814 8.83674 26.7998 8.90159 26.5539C8.96559 26.3047 8.95642 26.2885 8.9242 26.1946C8.89199 26.1007 8.61999 25.7771 8.6362 25.4987C8.6522 25.2171 8.61359 25.1232 8.82052 24.9001C9.03727 24.6834 8.97263 24.3079 8.97263 24.3079L9.25423 24.4826L9.31823 24.3855C9.31823 24.3855 9.4217 24.4664 9.4217 24.5927C9.44431 24.418 9.35044 23.6088 9.56399 23.4245C9.77754 23.2402 10.1562 24.2885 10.1562 24.2885L9.92324 22.7674L9.32442 21.2077L8.25967 19.7837L8.19567 18.214V18.0781C8.19567 18.0781 7.70692 18.8291 7.57103 19.4221C7.47396 19.8298 7.70692 20.325 7.6585 20.9108C7.61946 21.4934 7.57103 21.4479 7.71332 21.6788C7.85562 21.9096 8.20207 22.3843 8.06618 22.7273C7.9465 23.0219 7.5386 22.8148 7.5386 22.8148C7.5386 22.8148 7.45775 23.0541 7.34767 23.1416C7.30884 22.9993 7.26682 22.9086 7.18916 22.8216C7.18255 22.8766 7.16655 22.9511 7.16655 22.9511C7.16655 22.9511 7.0953 22.7277 7.02404 22.4461C6.92719 22.0709 6.82351 21.5757 6.72964 21.3103C6.69082 21.4624 6.59375 21.9252 6.59375 21.9252L6.64879 22.6373L6.91418 23.6146L7.17018 24.2546L7.41935 25.0377L7.63588 25.5638L7.8106 25.9651L7.96271 26.8681L8.69722 27.6446L9.0889 27.8196L9.37348 27.6739V27.6739L9.37391 27.6736Z" fill="#F3E19D"/>
<path fill-rule="evenodd" clip-rule="evenodd" d="M7.28241 16.304C7.28241 16.304 6.75484 17.2 6.60294 18.1032C6.45105 19.0065 6.31494 19.9609 6.41094 21.1906C6.50801 22.4303 6.69254 23.1906 6.84145 23.7344C7.09745 24.6374 7.76049 25.8931 7.76049 25.8931L7.7831 25.8445C7.67166 25.6332 7.58271 25.4108 7.51772 25.181C7.43025 24.838 7.39782 24.4303 7.31697 24.2457C7.24572 24.0614 7.12604 23.9027 7.0678 23.6761C7.01276 23.4594 7.0038 23.1164 6.83484 22.8608C6.76358 22.7571 6.67612 22.4853 6.6503 22.2135C6.61788 21.8056 6.66652 21.3493 6.62769 20.9741C6.55644 20.3494 6.50801 19.9255 6.57265 19.5985C6.63729 19.2714 6.97414 18.343 7.18129 17.6051C7.31718 17.1326 7.23612 16.7345 7.48529 16.3234C7.73446 15.9157 7.88678 15.5565 7.94161 15.3073C8.00561 15.0807 7.28156 16.304 7.28156 16.304V16.304H7.28241Z" fill="#F2E8B0"/>
<path fill-rule="evenodd" clip-rule="evenodd" d="M9.78604 15.9453C9.78604 15.9453 9.51425 16.0264 9.38476 16.1687C9.25527 16.3046 9.20023 16.4178 9.02551 16.6476C8.85079 16.8774 8.84097 17.0651 8.69847 17.3531C8.55617 17.6347 8.24215 18.0586 8.20332 18.2107C8.16449 18.3628 8.09985 19.0747 8.019 19.4113C7.94775 19.748 8.09985 20.1623 8.09985 20.1623L8.28417 20.1232C8.28417 20.1232 8.28417 20.3628 8.46871 20.5247C8.65303 20.6832 8.68545 19.9873 8.68545 19.9873L9.37473 17.6605L10.4135 16.955L10.5267 16.3854L9.78561 15.9453V15.9453H9.78604Z" fill="#F5EEC0"/>
<path fill-rule="evenodd" clip-rule="evenodd" d="M10.2881 16.9995C10.2881 16.9995 9.79934 17.0317 9.55998 17.2067C9.46291 17.2777 9.42408 17.336 9.32062 17.4234C9.12968 17.5819 8.93534 17.7276 8.84168 17.9354C8.738 18.1424 8.62472 18.4564 8.54707 19.0486C8.51464 19.2978 8.51464 19.5275 8.49203 19.7283C8.4596 20.0001 8.41118 20.2168 8.43699 20.3683C8.46942 20.6789 8.78984 20.8408 8.82099 21.1934L9.48446 20.857L10.1091 18.3941L11.436 17.5621L10.6851 16.7207L10.2872 16.998V16.998L10.2881 16.9995Z" fill="#E6DB9D"/>
<path fill-rule="evenodd" clip-rule="evenodd" d="M6.78928 33.5847C6.79205 33.5604 6.79482 33.5361 6.7976 33.5111C6.89445 32.6791 6.91088 32.0485 6.98192 31.6536C7.08538 31.0939 7.15664 30.8856 7.14042 30.6761C7.11781 30.3397 7.092 30.0937 7.12442 29.8348C7.17285 29.4917 7.50949 29.084 7.49989 28.8024C7.49328 28.5791 7.38 28.4336 7.28293 28.2977C7.18586 28.1618 7.10821 28.0485 7.10821 28.0485C7.10821 28.0485 7.77168 27.5922 7.76528 25.7539C7.77882 25.7577 7.79186 25.7632 7.8041 25.7701L8.13093 26.6988L8.35429 26.9705L9.21189 28.5693L10.3155 29.6406L11.9464 30.7376L12.9691 31.8505L13.0726 34.8182L11.736 36.5528L11.5172 36.9492C9.77823 36.0762 8.18362 34.9414 6.78906 33.5845L6.78928 33.5847Z" fill="#E5CB7A"/>
<path fill-rule="evenodd" clip-rule="evenodd" d="M10.8711 36.4239C10.8711 36.4239 10.8937 36.0551 11.1979 35.8155C11.2466 35.8963 11.2788 35.9742 11.2692 36.0322C11.3242 35.9354 11.7093 35.3139 12.5799 35.152C13.4505 34.9935 13.6609 34.3593 13.6609 34.3593L15.5085 32.6797L17.6218 30.7347L20.1914 29.8317L21.3923 29.5371C21.3923 29.5371 21.4149 29.6245 21.3697 29.8187C21.5928 29.8027 22.0879 29.6894 22.6025 29.5081C22.8097 29.4272 23.004 29.3948 23.1075 29.5017C23.2596 29.644 23.2822 29.9806 23.2918 30.1811C23.541 30.1261 23.829 29.8867 24.0598 29.9093C24.4289 29.9482 24.7557 30.3819 25.1311 30.3819C25.6263 30.3819 25.8494 30.0777 26.1959 29.8381C26.403 29.6958 26.7006 29.5181 26.869 29.398C27.2702 29.1034 31.5162 27.8057 31.5162 27.8057L33.0049 27.9027L33.2444 29.5015L33.1164 33.6807C33.1006 33.6958 33.0849 33.7116 33.0689 33.7267L26.3002 37.2619L16.9178 38.7002C14.8161 38.3568 12.788 37.6592 10.9197 36.637L10.8717 36.4237V36.4237L10.8711 36.4239Z" fill="#D8C173"/>
<path fill-rule="evenodd" clip-rule="evenodd" d="M7.35938 34.1169C7.49271 33.8381 7.6126 33.6049 7.63372 33.5215C7.65036 33.6896 7.68087 34.0584 7.74231 34.4506C7.61331 34.3409 7.48567 34.2296 7.35938 34.1167V34.1169Z" fill="#F1D789"/>
<path fill-rule="evenodd" clip-rule="evenodd" d="M14.2124 38.0492L15.4259 37.7117L15.5293 37.7441C15.5293 37.7441 15.5844 37.7765 15.5844 37.8864C15.7365 37.7991 15.866 37.8151 15.9598 37.7571C16.0083 37.8606 16.0567 38.2036 16.2705 38.2456C16.4936 38.2943 16.7332 38.1486 16.976 37.9643C17.2153 37.7733 17.488 37.5337 17.6942 37.4367C17.7699 37.5759 17.837 37.7196 17.895 37.867C18.1668 37.6502 18.6393 36.77 19.3124 36.786C19.5069 36.3263 19.8319 35.9336 20.2472 35.6566C20.8718 35.2327 21.2633 35.2003 21.7521 35.2391C21.9462 34.987 22.1854 34.773 22.4576 34.6081C22.5384 34.6405 22.7618 34.7764 23.0402 34.6469C23.3218 34.5176 23.6388 34.0159 24.0563 33.9512C24.2812 33.9203 24.51 33.9683 24.7035 34.0871C24.7035 34.0871 25.9195 32.8799 26.7586 32.4786C26.7261 32.3815 26.6615 32.0159 27.6452 31.2067C27.7002 31.2553 27.6614 31.3912 27.7002 31.3987C27.7162 31.3987 27.9562 31.2952 28.26 31.0621C28.6355 30.7807 29.0852 30.4861 29.357 30.4052C29.869 30.2531 30.4121 30.5637 30.4121 30.5637C30.4583 30.5313 30.5098 30.5072 30.5642 30.4925C30.6935 30.4699 30.7874 30.4536 30.8586 30.4285C30.8522 30.5968 30.9461 30.8848 30.8586 31.134C30.9599 31.1909 31.0673 31.2365 31.1786 31.2699C31.1238 31.3895 31.0039 31.6937 30.8034 31.8395C30.9715 31.9203 30.9941 32.0142 31.2337 32.0955C31.1366 32.2313 30.9777 32.4645 30.9068 32.6075C30.8356 32.7596 30.5798 33.3906 30.4665 33.63C30.3468 33.8695 30.1851 34.3096 30.1073 34.398C30.0294 34.4863 29.748 34.8607 29.5313 35.045C29.7233 34.9737 30.5088 34.7344 30.842 34.6437C30.7428 34.7892 30.24 35.5352 29.7565 36.2527C25.0742 39.0591 19.4106 39.7148 14.2109 38.0524L14.2124 38.0492Z" fill="#E0CD81"/>
<path fill-rule="evenodd" clip-rule="evenodd" d="M10.3659 16.9132C10.3659 16.9132 10.0845 16.9132 10.0295 16.9521C9.97444 16.9909 10.3111 17.072 10.4145 17.1108C10.518 17.1496 10.7414 17.3275 10.7996 17.47C10.8546 17.6059 12.8222 18.3987 12.8222 18.3987L14.2138 18.3274L14.6936 17.6646L13.7809 16.8652L14.4209 14.9785L13.5732 15.1144L11.5343 16.3304L10.5116 16.7221L10.3659 16.9132V16.9132Z" fill="#DFC57C"/>
<path fill-rule="evenodd" clip-rule="evenodd" d="M13.4261 17.5375C13.4671 17.6038 13.5403 17.6432 13.6181 17.641C13.9061 17.641 14.1713 17.7122 14.2814 17.8577C14.4659 18.0909 14.9773 18.8352 14.9773 18.8352L16.2005 19.2753L16.2795 17.8349L14.9429 16.9062L13.4219 17.466V17.5373H13.4253L13.4261 17.5375Z" fill="#E5CC7C"/>
<path fill-rule="evenodd" clip-rule="evenodd" d="M13.1817 18.0713C13.1817 18.0713 13.4049 18.0875 13.6865 17.9839C13.9681 17.8802 14.4308 17.657 14.6316 17.7445C14.9129 17.8642 14.8547 18.2396 15.1591 18.5765C15.3434 18.7836 15.6801 18.7772 15.871 19.0006C16.062 19.224 16.7188 19.1203 16.7188 19.1203L16.968 20.4643L15.9681 21.746L15.641 23.3381H14.2889L13.0537 22.8481L12.4453 21.3761L12.7495 19.8874L13.1817 18.0713V18.0713Z" fill="#D2C281"/>
<path fill-rule="evenodd" clip-rule="evenodd" d="M15.801 18.1353C15.8346 18.1456 15.8694 18.1511 15.9045 18.1515C15.8657 18.1839 15.7846 18.255 15.817 18.4395C15.8495 18.624 15.9529 18.857 15.8657 18.9993C15.9353 19.0755 15.9873 19.1661 16.0178 19.2647C16.0728 19.4234 16.089 19.5689 16.4481 19.5917C16.3963 19.6236 16.3485 19.6617 16.3058 19.705C16.3058 19.705 16.555 19.9218 16.6813 20.1223C16.8105 20.1167 17.1536 20.0101 17.1536 20.0101L17.2248 20.0587L17.3769 19.9947C17.3769 19.9947 17.2346 19.9397 17.3381 19.5934C17.4352 19.2892 17.5226 19.3054 17.5301 19.2828C17.5376 19.2602 17.6014 18.9398 17.6014 18.8103C17.6498 18.6422 17.6886 18.1308 17.6886 18.1308L17.5851 17.0014L17.0027 16.6486L16.5291 16.1914L16.0824 17.0328L15.7882 17.3261L15.7656 18.0542L15.801 18.1353V18.1353Z" fill="#E2C270"/>
<path fill-rule="evenodd" clip-rule="evenodd" d="M17.2031 17.1905C17.2031 17.1905 17.3066 17.4849 17.3456 17.7115C17.3594 17.6675 17.367 17.6217 17.3682 17.5756C17.3682 17.5756 17.4491 18.0223 17.4651 18.2069C17.4975 18.2002 17.5291 18.1906 17.5364 18.2229C17.5436 18.2551 17.6174 18.6145 17.6004 18.8151C17.7351 18.5927 17.9216 18.4063 18.1439 18.2715C18.2734 18.1904 18.4255 18.1032 18.5842 18.0966C18.8334 18.0902 19.0145 18.2553 19.3124 18.2553C20.0306 18.2553 20.6813 17.7277 21.1602 17.566C21.5129 17.4461 21.8171 17.3589 22.0306 17.1645C22.1343 17.0773 22.3189 16.8831 22.487 16.5949C22.7103 16.2109 22.9433 15.8766 23.1765 15.8346C23.071 15.854 22.9636 15.8616 22.8565 15.8572C22.8565 15.8572 22.9277 15.7859 23.0485 15.6889C23.1692 15.5918 23.3138 15.4721 23.5208 15.4721C23.8898 15.4721 24.0742 15.527 24.2813 15.527C24.4885 15.5206 24.6081 15.4721 24.6081 15.4721C24.6081 15.4721 24.8251 15.6242 25.3136 15.6242C25.8024 15.6306 26.1292 15.6727 26.385 15.6955C26.6408 15.7183 27.4982 15.6242 27.7441 15.6315C27.9045 15.6377 28.062 15.6762 28.2071 15.7448L27.4141 13.4408L24.5657 10.9512L22.8699 12.1518L20.2613 14.7602L17.7371 15.6955L17.2095 16.2877V17.1905H17.2031Z" fill="#CCB360"/>
<path fill-rule="evenodd" clip-rule="evenodd" d="M22.8656 15.8702C22.8656 15.8702 22.9369 15.7992 23.0564 15.7021C23.1758 15.6051 23.322 15.4852 23.5289 15.4852C23.8978 15.4852 24.0823 15.5402 24.2894 15.5402C24.4966 15.5338 24.6163 15.4852 24.6163 15.4852C24.6163 15.4852 24.8334 15.6371 25.3218 15.6371C25.8105 15.6435 26.1373 15.6855 26.3931 15.7081C26.6489 15.7307 27.5063 15.6371 27.7523 15.6441C27.9126 15.6501 28.07 15.6887 28.215 15.7574L27.8557 14.7184L27.4384 13.9257L26.2474 12.6214C26.2474 12.6214 24.8181 11.78 24.8072 11.7736C24.8008 11.7672 24.312 11.6377 24.312 11.6377L23.0175 12.4208L21.8429 15.4598L21.8203 16.0998L22.5806 16.459C22.7716 16.139 22.9821 15.883 23.1795 15.8506C23.0013 15.87 22.8654 15.87 22.8654 15.87V15.87L22.8656 15.8702Z" fill="#D5B457"/>
<path fill-rule="evenodd" clip-rule="evenodd" d="M22.8478 16.0876C22.7345 16.094 22.6408 16.0714 22.6148 15.9905C22.5178 15.7188 22.4401 15.6799 22.3588 15.6799C22.2775 15.6799 22.1679 15.8547 22.1028 15.8707C22.0378 15.8867 21.9605 15.6701 21.9605 15.6701L21.8893 15.6377C21.8893 15.6377 21.4718 15.9095 21.1774 16.2299C20.883 16.5503 20.4006 17.0941 20.1839 17.191C19.9671 17.2878 19.2226 17.3205 18.9679 17.3755C18.7132 17.4305 18.4307 17.6151 18.3919 17.6571C18.3531 17.6991 18.5054 17.7444 18.528 17.7864C18.5506 17.8252 18.2786 17.809 18.256 17.8504C18.24 17.8828 18.32 18.0671 18.3597 18.161C18.4291 18.1265 18.5053 18.1077 18.5828 18.106C18.832 18.0996 19.0133 18.2647 19.3109 18.2647C20.0294 18.2647 20.6799 17.7371 21.1588 17.5752C21.5117 17.4555 21.8159 17.368 22.0294 17.1739C22.1329 17.0867 22.3174 16.8923 22.4858 16.6043C22.6086 16.407 22.7285 16.2224 22.8484 16.0865V16.0865L22.8478 16.0876Z" fill="#D2B257"/>
<path fill-rule="evenodd" clip-rule="evenodd" d="M12.5439 32.1036C12.5439 32.1036 12.4799 31.864 11.8868 31.246C11.7185 31.0713 11.615 30.926 11.5018 30.8221C11.2202 30.5565 11.055 30.4854 10.8545 30.3333C10.4144 30.0065 9.93546 30.0065 9.5666 29.6052C9.19775 29.204 8.76788 28.4372 8.46922 27.6537C8.17482 26.8705 8.09375 26.6213 8.09375 26.5987C8.09375 26.5761 8.17482 26.424 8.27828 26.4466C8.38175 26.4692 8.38175 26.6698 8.40778 26.7184C8.45933 26.7978 8.51779 26.8725 8.5825 26.9416C8.7346 27.1165 8.95135 27.3256 9.06143 27.6374C9.03882 27.3721 8.94815 27.0777 8.94815 27.0777C8.94815 27.0777 9.51775 27.4369 10.0031 27.8122C10.4918 28.1876 10.6924 28.3171 10.8351 28.5565C10.9778 28.7958 11.314 29.4271 11.4751 29.6116C11.6362 29.7962 13.8431 30.4918 13.8431 30.4918L14.8929 31.2746L15.4141 32.417L15.0062 33.057L14.223 33.2253L12.9511 32.6557L12.5439 32.1034V32.1034V32.1036Z" fill="#D2B159"/>
<path fill-rule="evenodd" clip-rule="evenodd" d="M9.71875 28.1687C9.71875 28.1687 9.98414 28.5926 10.6314 28.9939C11.214 29.3468 12.1362 29.6672 12.9584 29.8581C13.4308 29.9714 13.9033 30.0587 14.3272 30.0653C15.4696 30.0813 16.2559 29.7547 17.2302 29.6478C17.7578 29.5927 18.405 29.5507 19.0781 29.3918C19.9421 29.1846 20.4535 28.9515 21.1494 28.6238C21.6541 28.3908 22.117 28.2161 22.4923 27.9927C23.0199 27.6821 23.4049 27.3359 23.8517 27.2324C23.7966 27.3845 23.7384 27.6563 23.2983 27.9379C23.5312 27.9313 23.8517 27.9153 23.8517 27.9153C23.8517 27.9153 23.541 28.0996 22.9941 28.5139C22.6574 28.7699 22.2109 29.2032 21.7546 29.4912C21.46 29.6757 21.1396 29.8112 20.9292 29.9217C20.4172 30.2033 20.2107 30.3456 19.8743 30.6897C19.994 30.6833 20.0038 30.6897 20.0038 30.6897C20.0038 30.6897 19.5797 30.7447 19.2757 30.9064C19.2117 30.9064 19.1007 30.8838 18.9066 30.9389C18.7545 30.9873 18.5537 31.0976 18.3468 31.1556C18.0522 31.2431 17.9553 31.2043 17.9553 31.2043L18.0038 31.3013C18.0038 31.3013 17.6198 31.2947 17.4918 31.3077C17.5144 31.3141 17.508 31.3239 17.508 31.3239C17.4855 31.3277 17.4638 31.3354 17.444 31.3466C17.3824 31.3865 17.3146 31.4159 17.2434 31.4338C17.2046 31.4402 17.1722 31.4402 17.1235 31.45C17.1398 31.4888 17.2661 31.706 17.3243 31.834C17.2759 31.8664 16.5476 32.4166 16.5476 32.4166C16.5701 32.4522 16.5886 32.4902 16.6026 32.5299C16.6252 32.601 16.635 32.7046 16.6576 32.7531C16.7125 32.8501 16.7449 32.8663 16.7449 32.8663C16.7449 32.8663 16.6576 32.8826 16.5053 32.9214C16.376 32.9538 16.2173 33.0086 15.9933 33.0411C15.9246 33.05 15.8554 33.0554 15.7862 33.0573C15.8186 33.1285 15.9609 33.4003 15.6987 33.7141C15.4365 34.0279 15.3557 34.0736 15.2748 34.2741C15.2341 34.2434 15.1908 34.2162 15.1453 34.1931C15.0581 34.1542 14.9382 34.0962 14.8961 34.0183C14.8716 34.1221 14.8392 34.2238 14.7991 34.3226C14.7182 34.5393 14.5985 34.7531 14.5759 34.9148C14.4885 34.8177 14.3268 34.6268 14.1034 34.6656C13.88 34.7044 13.7021 35.0086 13.6633 35.0961C13.6633 35.0411 13.6245 34.999 13.6149 35.0637C13.6082 35.1349 13.4854 35.879 12.7993 36.4811C12.7929 36.329 12.7929 35.9923 12.7767 35.8824C12.7127 35.9464 12.6344 36.041 12.1682 36.2417C11.7119 36.4422 11.7842 36.643 11.7842 36.643C11.7842 36.643 11.7454 36.323 11.9914 35.9859C12.2406 35.6495 12.3927 35.4908 12.3927 35.465C12.3886 35.4387 12.3774 35.414 12.3602 35.3937C12.3278 35.3613 12.2632 35.3224 12.2632 35.2966C12.302 35.2806 12.6871 35.0961 12.6645 34.714C12.6418 34.3712 12.4964 34.1931 12.3927 34.067C12.3767 34.0508 12.545 33.9311 12.5222 33.8923C12.506 33.8696 12.299 33.7173 12.273 33.6363C12.2791 33.5879 12.29 33.5402 12.3054 33.494C12.328 33.4227 12.3442 33.3741 12.3378 33.3256C12.3216 33.2448 12.2342 33.0214 12.2084 32.9988C12.231 33.0052 12.3927 32.9988 12.3927 32.9988C12.3927 32.9988 12.2634 32.7917 12.2406 32.6946C12.2177 32.5975 12.1693 32.3418 12.1435 32.2933C12.1985 32.2997 12.3344 32.3093 12.3344 32.2933C12.341 32.2447 12.2148 32.1638 12.2704 32.1013C12.3093 32.1077 12.3837 32.1402 12.4548 32.2308C12.4159 32.1271 12.3513 31.9266 12.2152 31.8458C12.2792 31.8231 12.4968 31.7647 12.6877 31.878C12.8786 31.9912 12.9437 32.1498 12.9437 32.1498C12.9437 32.1498 13.057 32.2372 13.2319 32.3667C13.4325 32.5252 13.688 32.7507 14.0959 32.9103C14.1834 32.9589 14.4065 32.9589 14.5685 32.9265C14.639 32.9097 14.7066 32.8825 14.769 32.8456C14.7915 32.8324 14.8154 32.8215 14.8402 32.8132C14.8055 32.7434 14.7654 32.6763 14.7206 32.6125C14.7756 32.6125 14.8402 32.6191 14.8402 32.6191C14.8402 32.6191 14.8791 32.5316 14.7044 32.3631C14.7432 32.3243 14.7918 32.2991 14.7918 32.2336C14.7368 32.2272 14.6397 32.1463 14.6171 32.1139C14.6493 32.0913 14.698 32.0168 14.753 31.9942C14.7044 31.9554 14.5847 31.7935 14.5296 31.7775C14.5822 31.758 14.6331 31.7341 14.6817 31.7062C14.6817 31.7062 14.41 31.635 14.3225 31.5767C14.235 31.5127 14.1057 31.402 14.0281 31.3696C13.947 31.3372 13.8047 31.3212 13.7465 31.2563C13.8013 31.2725 13.8888 31.2563 13.9536 31.2563C14.0021 31.2563 14.0249 31.2627 14.0409 31.2627C14.0345 31.2401 14.0345 31.1915 14.1608 31.1755C14.2215 31.1663 14.2805 31.1477 14.3355 31.1204C14.3355 31.1204 14.2156 31.114 14.0795 30.9845C13.9434 30.855 13.8303 30.7516 13.7527 30.7354C13.6718 30.7191 13.5197 30.7904 13.4258 30.7838C13.2964 30.7678 13.2413 30.7029 13.2413 30.7029C13.2413 30.7029 12.811 30.7418 11.8564 30.1594C11.031 29.6544 10.6717 29.2079 10.6717 29.2079C10.5945 29.1799 10.5198 29.1452 10.4486 29.1042C10.138 28.9425 9.70744 28.6059 9.72046 28.1655V28.1655L9.71875 28.1687Z" fill="#C2A44D"/>
<path fill-rule="evenodd" clip-rule="evenodd" d="M21.6257 8.74388C21.7006 8.7682 21.7671 8.81307 21.8177 8.87337C21.9698 9.04809 22.0669 9.37812 21.7206 9.73097C21.8565 9.7794 21.9126 9.79497 22.0313 9.7794C21.9116 9.92191 21.6398 10.2261 21.6236 10.4915C21.6074 10.7083 21.7433 10.7731 21.7433 10.7731C21.7433 10.7731 21.5361 11.0125 21.5265 11.4131C21.6243 11.3028 21.7314 11.201 21.8465 11.1089C22.0861 10.918 22.4161 10.7012 22.6395 10.5653C22.6364 10.6223 22.6441 10.6793 22.6621 10.7334C22.6621 10.7334 23.0794 10.3904 23.4301 10.5427C23.5886 10.614 23.5173 10.8371 23.5173 10.8371C23.5173 10.8371 23.7343 10.7563 23.8864 10.9084C24.0385 11.0605 24.2535 11.4528 24.3638 11.6049C24.4123 11.6761 24.5386 11.812 24.6678 12.0224C24.8445 12.3169 24.9919 12.6279 25.1082 12.951C25.1146 12.7827 25.1566 12.5207 25.6357 12.6856C26.1147 12.854 26.6582 13.2068 27.1146 13.9016C27.5709 14.5965 27.6839 15.3809 27.9137 15.6796C28.1467 15.9676 28.3862 16.4465 28.4025 16.6472C28.4187 16.848 28.3312 17.495 28.8101 19.2459C28.946 18.7023 29.1532 17.495 29.1532 17.495L29.2665 16.4303L29.3959 13.1358L25.9557 10.2777L23.2665 8.32617L21.5156 8.49449L21.6255 8.74367V8.74367L21.6257 8.74388Z" fill="#CAA13E"/>
<path fill-rule="evenodd" clip-rule="evenodd" d="M28.0174 13.6476C28.0174 13.6476 27.9687 13.3276 27.1598 12.7836C26.3506 12.2464 25.7196 12.2464 25.1372 11.7901C24.6904 11.4309 24.2245 10.6055 23.9212 10.3337C23.6266 10.0651 23.5781 9.28835 23.5781 9.28835L24.5716 8.45635L26.0492 6.32067L27.2982 4.94531L27.8968 5.77731L28.7288 6.75459L29.1916 8.71577L29.3599 11.5864L28.0159 13.6478L28.0174 13.6476Z" fill="#B59544"/>
<path fill-rule="evenodd" clip-rule="evenodd" d="M29.0179 17.0878C29.0423 16.6524 28.9886 16.2162 28.8591 15.7999C28.6458 15.1364 28.1797 13.9584 27.9631 13.5172C27.8757 13.0285 27.9405 12.9896 28.0344 12.9346C28.1283 12.8796 28.4811 12.6786 28.6744 11.9735C28.8677 11.2685 29.4673 11.2454 29.4673 11.2454L29.8362 10.9736L30.3962 12.3748L30.8847 13.6403L31.0368 14.608L31.1501 15.4332L30.8847 17.1776L29.5742 18.362L29.0176 17.0878V17.0878H29.0179Z" fill="#C89D3A"/>
<path fill-rule="evenodd" clip-rule="evenodd" d="M10.7266 36.5313V36.4954C10.7538 36.4784 10.7778 36.4567 10.7976 36.4314C10.8202 36.399 10.8366 36.3602 10.8526 36.3506C10.8851 36.3343 11.0372 36.2866 11.118 36.3019C11.1989 36.3173 11.4126 36.4054 11.5259 36.399C11.7589 36.3926 12.0307 36.2145 12.4612 36.2955C13.1084 36.4152 13.2605 36.8553 13.636 37.1045C13.892 37.2794 14.157 37.2015 14.1958 37.2015H14.283C14.2993 37.2015 14.4189 37.0657 14.4838 37.0723C14.6133 37.0787 14.6261 37.1855 14.7069 37.1919C14.8979 37.2146 15.2669 37.0949 15.4515 37.1435C15.5625 37.1783 15.6495 37.2652 15.6844 37.3763C15.7233 37.4959 15.6908 37.6481 15.597 37.7355C15.3964 37.9198 15.2055 38.0948 15.1667 38.2475C15.2161 38.2852 15.2635 38.3253 15.3087 38.3678C13.7075 37.9599 12.1669 37.343 10.7266 36.5332V36.5313Z" fill="#CEB052"/>
<path fill-rule="evenodd" clip-rule="evenodd" d="M27.9609 30.0646C27.9609 30.0646 28.4657 29.3915 28.6406 29.0581C28.8153 28.7144 28.0872 24.3624 28.0872 24.3624L29.5501 19.5697L29.511 18.0098C29.511 18.0098 29.5823 16.5696 29.7506 15.9449C29.9513 16.3042 30.576 16.7379 30.7119 16.9677C30.7759 16.5273 30.9933 15.5987 30.961 14.6084C31.0807 14.7927 31.3687 16.6472 31.3687 16.6472L31.6567 17.8963L32.0322 19.2232L32.4497 20.6246L32.6989 21.5923L32.8412 21.8253L32.961 22.2329L33.0743 22.6733L33.4012 23.7056L33.5932 24.5534L33.7453 26.0906C33.7783 26.2083 33.8022 26.3285 33.8165 26.4499C33.8229 26.6182 33.7939 26.7153 33.7939 26.7445C33.7939 26.7737 33.8489 27.1134 33.8263 27.3691C33.7939 27.6251 33.7939 27.8255 33.5932 28.0091C33.3924 28.1928 33.2663 29.2906 33.2663 29.2906L32.9071 29.0513C32.9071 29.0513 32.9783 28.7242 32.81 28.4266C32.6417 28.129 32.3149 28.0674 32.1303 28.116C31.946 28.1549 31.5772 28.2129 31.4573 28.3166C31.344 28.42 31.0658 28.7405 30.81 28.8862C30.49 29.0782 29.9686 29.0933 29.6904 29.1579C29.4088 29.2219 29.0982 29.4139 28.7712 29.6369C28.5148 29.8029 28.244 29.9457 27.9622 30.0635V30.0635L27.9609 30.0646Z" fill="#CCA847"/>
<path fill-rule="evenodd" clip-rule="evenodd" d="M27.9609 37.1361C27.9609 37.1361 27.9823 37.15 28.0234 37.1726C30.3227 36.0954 32.3828 34.5684 34.0821 32.6819C34.0636 32.027 34.0394 31.3556 34.013 31.1069C33.9582 30.5793 33.997 30.0421 33.9808 29.7315C33.9646 29.4209 33.7898 28.1554 33.709 27.8286C33.6215 27.5018 33.453 27.3398 33.4274 27.3398C33.4048 27.3465 33.2687 27.9549 33.2687 28.1078C33.2687 28.2608 33.2362 28.629 33.2362 28.7229C33.2136 28.7163 33.204 28.6589 33.204 28.6354C33.1716 28.7163 33.1328 28.8588 33.1166 28.875C33.1004 28.8912 33.1392 28.7391 33.1166 28.7067C33.094 28.6742 33.0526 28.6905 33.0615 28.6096C33.0654 28.5617 33.0729 28.5141 33.0841 28.4673C33.0841 28.4673 32.9871 28.6096 32.916 28.9721C32.8448 29.3313 32.8448 29.3411 32.819 29.3733C32.7964 29.4124 32.6669 29.5417 32.6602 29.5903C32.6538 29.6776 32.7801 29.765 32.7897 29.8134C32.7961 29.8945 32.6765 30.2698 32.6376 30.4534C32.5988 30.6371 32.615 30.997 32.5736 31.1816C32.5412 31.3499 32.5096 31.4469 32.3989 31.518C32.4798 31.5342 32.5574 31.5568 32.5574 31.5568C32.5574 31.5568 32.6707 32.0357 32.3827 32.4436C32.2792 32.5859 32.2534 32.6508 32.1433 32.7803C31.9264 33.0196 31.7581 33.2923 31.7418 33.4696C31.7306 33.4172 31.7231 33.3642 31.7192 33.3108C31.7192 33.3108 31.3828 33.7025 31.2403 33.9259C31.056 34.2139 30.8002 34.1977 30.7283 34.2689C30.6564 34.3402 30.6408 34.4694 30.6643 34.5731C30.6003 34.5891 30.48 34.612 30.3989 34.8611C30.3601 34.9904 30.263 35.1171 30.1109 35.2042C29.9588 35.2912 29.7743 35.3174 29.6804 35.3401C29.7613 35.3627 29.7937 35.3627 29.8325 35.3885C29.7841 35.4693 29.5607 35.5956 29.3116 35.7576C29.0624 35.9097 28.9425 36.1328 28.881 36.2785C28.817 36.4144 28.7225 36.5019 28.5704 36.5181C28.6344 36.5569 28.7292 36.6474 28.7776 36.6766C28.7063 36.6928 28.5856 36.6928 28.3699 36.8773C28.1433 37.0651 28.0657 37.1201 27.962 37.1363V37.1363L27.9609 37.1361Z" fill="#C39D3C"/>
<path fill-rule="evenodd" clip-rule="evenodd" d="M23.4581 38.6355C23.582 38.5487 23.7162 38.4775 23.8577 38.4237C24.3624 38.2232 24.8964 38.1843 25.1067 38.1197C25.3075 38.0557 25.466 37.9674 25.7152 37.9189C25.7086 37.9757 25.703 38.029 25.697 38.0794C24.9624 38.3103 24.2144 38.496 23.457 38.6355H23.4581Z" fill="#D2BA6B"/>
<path fill-rule="evenodd" clip-rule="evenodd" d="M32.7694 25.3593C32.7694 25.3593 32.6659 25.9191 32.4814 26.272C32.2969 26.6248 32.0974 27.1134 32.0974 27.1134C32.0986 27.0033 32.1116 26.8936 32.1362 26.7863C31.9033 26.9222 31.3369 27.2493 31.1762 27.3948C31.0241 27.5307 30.7683 27.7702 30.7037 27.8835C30.8558 27.437 31.0143 27.0357 31.0403 26.8512C30.8074 27.0195 29.7198 27.9159 29.1536 28.5081L27.3898 29.9353C27.1862 30.0452 26.9766 30.1433 26.7619 30.2293C26.4579 30.3586 26.0987 30.4687 25.8333 30.5724C25.9045 30.3814 26.0176 30.2129 26.1763 30.0512C26.3447 29.8927 26.8494 29.3457 26.9271 29.0912C26.9983 28.8258 27.0145 28.6673 26.9207 28.4439C26.8332 28.4665 26.6327 28.4764 26.4968 28.5152C26.3609 28.554 26.2152 28.6995 26.2152 28.6995C26.2152 28.6995 26.3186 28.1073 26.542 27.5475C26.3737 27.5539 26.0857 27.6023 26.0857 27.6023C26.0857 27.6023 26.4869 26.9293 27.1737 26.4601C26.9634 26.5049 26.7576 26.5687 26.5588 26.6509C26.1576 26.8192 25.7175 27.0684 25.3906 27.2043C25.5749 26.9483 26.8695 25.1008 27.6398 23.379C28.4078 21.6606 28.6947 21.2205 28.8631 20.2982C28.9503 19.8419 28.9271 19.1676 28.9503 18.5636C28.9729 17.9648 29.0474 17.4276 28.9989 17.0684C29.1995 17.3175 29.9504 18.0198 29.9762 19.5895C29.9988 21.159 29.2579 23.2789 28.4714 24.4211C28.6634 24.4761 29.1609 24.541 29.672 23.6531C30.1832 22.7652 30.177 22.5173 30.3615 22.1483C30.3841 22.3328 30.3775 22.3974 30.3775 22.3974C30.3775 22.3974 31.122 21.4946 31.4747 20.3586C31.5459 20.8473 31.7563 21.2779 31.426 22.1743C31.1316 22.9832 30.7466 23.1808 30.7466 23.1808C30.7466 23.1808 30.9375 23.1484 31.2189 22.98C31.2675 23.0997 31.2579 23.236 31.3388 23.2843C31.4196 23.3325 31.5297 23.4137 31.5459 23.4914C31.6332 23.3619 31.7691 23.1968 31.8113 23.0739C31.7789 23.3299 31.7563 24.4493 31.8753 25.0189C32.1247 24.9963 32.3803 24.98 32.555 24.5301C32.4353 24.9704 32.4353 25.2356 32.5162 25.6111C32.6489 25.5206 32.7685 25.3587 32.7685 25.3587V25.3587L32.7694 25.3593Z" fill="#C0993A"/>
<path fill-rule="evenodd" clip-rule="evenodd" d="M24.3601 7.52125C24.3601 7.52125 24.1109 7.62472 23.687 7.62472C23.3182 7.62472 23.4216 7.48242 22.8456 7.48242C21.959 7.48242 18.8618 7.99442 18.3181 7.98717C17.9652 7.98077 19.5089 8.13928 19.5089 8.13928L23.4541 8.19432L24.2468 8.13032L24.5414 7.53085L24.3601 7.52125Z" fill="#A88F33"/>
<path fill-rule="evenodd" clip-rule="evenodd" d="M14.1319 15.233C14.1319 15.233 13.6269 15.6181 13.4134 15.9127C13.1998 16.2073 13.0865 16.4013 12.8438 16.6408C12.9007 16.643 12.9577 16.6354 13.0121 16.6182C13.0121 16.6182 13.0121 16.6822 12.9732 16.6991C13.0412 16.6915 13.1089 16.715 13.1576 16.7631C13.0863 16.8019 12.8922 16.9962 13.0443 17.226C13.1576 17.4007 13.3971 17.4167 13.3971 17.4167C13.3971 17.4167 13.3421 17.5754 13.5719 17.5592C14.067 17.5366 14.6204 17.3197 14.876 17.3747C15.132 17.4387 15.2775 17.4622 15.4586 17.7762C15.6506 18.0868 15.8178 18.1354 15.8178 18.1354C15.8178 18.1354 15.9311 17.8472 15.9053 17.4169C15.9982 17.185 16.0497 16.9386 16.0574 16.6888L15.8891 15.4494L15.1546 14.5205L14.2031 15.0481L14.1319 15.2324V15.233Z" fill="#E3C571"/>
<path fill-rule="evenodd" clip-rule="evenodd" d="M15.0313 15.0483C15.0313 15.0483 15.1025 15.2166 15.4003 15.2326C15.3679 15.3039 15.3679 15.3137 15.3777 15.3685C15.3841 15.4236 15.3937 15.5044 15.3937 15.5044C15.4265 15.4886 15.4561 15.4669 15.4812 15.4404C15.4974 15.5117 15.465 15.6248 15.4812 15.7058C15.4912 15.7551 15.5074 15.8029 15.5296 15.8481C15.5343 15.837 15.5397 15.8263 15.5458 15.8159C15.5522 15.7997 15.6098 15.9906 15.7692 16.1359C15.769 16.1136 15.7745 16.0915 15.7852 16.0719C15.7876 16.1125 15.801 16.1516 15.824 16.1852C15.8121 16.1795 15.8012 16.1719 15.7918 16.1626C15.7918 16.1626 15.8078 16.6746 15.8953 16.9393C15.9099 16.9222 15.9229 16.9038 15.9341 16.8843C15.9341 16.8683 15.9277 17.0268 15.9115 17.1403C15.8889 17.2536 15.9051 17.4121 15.9051 17.4121C15.9634 17.3661 16.0275 17.328 16.0958 17.2988C16.1929 17.2597 16.3518 17.1401 16.4486 16.8747C16.5048 16.7244 16.5481 16.5696 16.5781 16.412C16.6094 16.4722 16.631 16.537 16.6421 16.604C16.6487 16.6848 16.8009 16.6428 16.8009 16.6428L16.8333 16.2899L17.0253 15.4906L17.2 14.9954L18.0414 13.6849L19.5616 12.5141L20.8885 12.8184L22.0081 11.2973L20.0794 10.1387L18.2541 10.3296L16.5975 12.624L15.2708 14.7051L15.0312 15.0481V15.0481L15.0313 15.0483Z" fill="#D8B65B"/>
<path fill-rule="evenodd" clip-rule="evenodd" d="M24.5945 11.7288C24.5945 11.7288 24.4812 11.7514 24.1544 11.9208C23.8275 12.0902 23.601 12.1439 23.4747 12.3931C23.3484 12.6423 23.3388 12.8398 23.3388 12.8398C23.3388 12.8398 23.5621 12.7428 23.6916 12.7103C23.8275 12.6781 23.9796 12.6877 23.9634 12.7428C23.9479 12.7805 23.9262 12.8155 23.8994 12.8462C23.8994 12.8462 24.1554 12.8398 24.1486 12.9661C24.1418 13.0924 24.1002 13.2315 24.0517 13.293C24.0031 13.357 23.8026 13.4517 23.78 13.5261C23.7249 13.6782 23.8026 13.6846 23.7733 13.8075C23.7507 13.9274 23.6441 14.1604 23.2944 14.5681C22.9352 14.9759 22.7824 15.2639 22.7824 15.2639C22.7824 15.2639 22.6077 14.9371 22.517 14.6555C22.453 14.6877 22.1093 14.8787 22.1093 14.8787L21.3132 12.1053L21.3292 11.9208C21.3292 11.9208 21.4004 11.8335 21.4166 11.6716C21.297 11.6328 21.2808 11.6004 21.122 11.4485C20.9633 11.2966 20.834 11.1118 20.5689 10.9855C20.53 10.9143 20.4814 10.8174 20.2873 10.7784C20.0931 10.7394 19.9766 10.7074 19.9766 10.7074C19.9766 10.7074 20.0801 10.6683 20.1288 10.5875C20.0089 10.6037 19.912 10.6425 19.6498 10.6361C19.3844 10.6295 19.3552 10.6199 19.2097 10.6425C19.0642 10.6651 18.8897 10.73 18.8246 10.5066C18.7534 10.4516 18.6013 10.5002 18.4718 10.6909C18.3423 10.8817 18.2971 11.034 18.0479 11.1084C18.0304 11.2183 17.9919 11.3237 17.9346 11.419C17.8634 11.5389 17.7501 11.6586 17.598 11.8365C17.3584 12.1181 17.3972 12.5809 17.0154 12.9337C16.6303 13.2863 17.0794 11.9562 17.0794 11.9562L17.6942 10.4842L19.445 8.77221L22.1635 8.58789L22.4289 9.99589L23.7558 10.4522L24.594 11.7305V11.7305L24.5945 11.7288Z" fill="#D3AE4D"/>
<path fill-rule="evenodd" clip-rule="evenodd" d="M25.0215 12.0382L23.8791 10.3911L23.0797 9.77601C23.0797 9.77601 22.5101 8.72769 22.4713 8.69526C22.4389 8.67265 21.9017 8.61441 21.5586 8.5918L21.6226 8.7503C21.6975 8.77462 21.764 8.81949 21.8146 8.8798C21.9667 9.05452 22.0638 9.38454 21.7176 9.7374C21.8535 9.78582 21.9096 9.8014 22.0282 9.78582C21.9085 9.92833 21.6367 10.2325 21.6205 10.4979C21.6043 10.7147 21.7402 10.7793 21.7402 10.7793C21.7402 10.7793 21.533 11.0189 21.5234 11.4193C21.6213 11.309 21.7283 11.2072 21.8434 11.1151C22.083 10.9231 22.413 10.7072 22.6364 10.5713C22.6334 10.6283 22.641 10.6854 22.659 10.7396C22.659 10.7396 23.0763 10.3966 23.427 10.5487C23.5855 10.62 23.5143 10.8433 23.5143 10.8433C23.5143 10.8433 23.7312 10.7625 23.8833 10.9146C24.0354 11.0667 24.2522 11.4581 24.3623 11.6105C24.4107 11.6817 24.537 11.8176 24.6663 12.0277C24.8429 12.3223 24.9904 12.6334 25.1066 12.9566C25.113 12.8271 25.139 12.646 25.3626 12.646L25.0227 12.0376L25.0215 12.0382Z" fill="#CAA13E"/>
<path fill-rule="evenodd" clip-rule="evenodd" d="M7.89531 16.7181C7.89531 16.7181 7.81446 16.5173 7.89531 16.1259C7.97616 15.7344 8.10246 15.5499 8.14448 14.9739C8.18651 14.3979 8.56198 13.6794 8.56198 13.6794L9.6007 13.207L10.3354 13.4076L10.5522 14.3915L9.62331 14.9035C9.62331 14.9035 9.57488 15.1202 9.3127 15.2949C9.05051 15.4696 8.68806 15.6055 8.6008 15.7837C8.54864 15.8927 8.51058 16.008 8.48752 16.1267C8.48752 16.1267 8.22214 16.0717 8.06363 16.2464C7.89531 16.4245 7.90171 16.583 7.89531 16.7189V16.7181Z" fill="#F4EFC8"/>
<path fill-rule="evenodd" clip-rule="evenodd" d="M9.99418 16.4558C9.99418 16.4558 9.90671 16.5108 9.84207 16.6478C9.77807 16.5443 9.62511 15.9293 9.61871 15.3759C9.61231 14.8225 9.57925 14.6853 9.70725 14.4946C9.83525 14.3039 10.3372 14.1029 10.266 13.7595C10.1947 13.4326 9.8969 13.2967 9.53125 13.3906C9.27525 13.4546 9.08474 13.999 8.81935 14.2708C8.61861 14.478 8.37925 14.4455 8.31461 14.5588C8.22714 14.7109 8.30799 14.863 8.28218 14.9601C8.27557 14.9925 8.19471 15.1673 8.04901 15.3776C7.75461 15.8015 7.25626 16.4003 7.19141 16.9375C7.21402 16.6333 7.19802 16.6269 7.27887 16.2902L7.23023 16.2094L7.55023 15.1609L7.75738 14.2969L8.22031 12.85L9.03567 11.3712L9.82863 10.4844L10.6538 10.5394L10.7509 11.7789L11.2234 14.1059L12.2169 15.3292L10.6246 16.4007L9.99354 16.4558V16.4558H9.99418Z" fill="#EBCC73"/>
<path fill-rule="evenodd" clip-rule="evenodd" d="M10.491 16.8966C10.491 16.8966 10.3551 16.929 10.3065 16.9032C10.2578 16.8774 10.2096 16.8481 10.2256 16.8157C10.2416 16.7833 10.3291 16.7284 10.3291 16.7024C10.3328 16.6535 10.297 16.6105 10.2482 16.6054C10.1738 16.5958 10.1512 16.6442 10.1512 16.6442C10.1512 16.6442 10.0799 16.5894 10.0219 16.5802C10.0562 16.576 10.0908 16.5738 10.1254 16.5736C10.0359 16.5331 9.94105 16.5058 9.84375 16.4927C9.9246 16.4443 10.0833 16.3018 10.1868 16.3018C10.2903 16.3018 10.3551 16.2858 10.3389 16.2307C10.3227 16.1757 10.2418 16.0948 10.1546 16.0624C10.1868 16.0236 10.2096 15.9654 10.132 15.8064C10.0509 15.6479 10.0833 15.541 10.1094 15.5024C10.132 15.4538 10.2128 15.3665 10.2516 15.3115C10.2905 15.2564 10.3229 15.182 10.3875 15.1432C10.42 15.1206 10.5234 15.0792 10.6271 15.0397C10.7404 15.0009 10.8343 14.9522 10.8989 15.0009C10.9702 15.0493 10.9377 15.1142 10.9377 15.1142C10.9377 15.1142 11.1611 15.0331 11.3616 15.1368C11.5624 15.2336 12.0511 15.2953 12.0511 15.2953L12.2263 15.6481L11.0676 16.6416L10.5887 16.8812L10.4916 16.8972V16.8972L10.491 16.8966Z" fill="#E5C66B"/>
<path fill-rule="evenodd" clip-rule="evenodd" d="M12.0987 15.2714C12.0987 15.2714 11.7395 15.5109 11.6586 15.5982C11.707 15.6048 11.7879 15.6372 11.7555 15.6857C11.7166 15.7341 11.4837 15.9024 11.3542 16.0611C11.2183 16.2196 11.0888 16.4204 11.0436 16.5174C10.9951 16.6047 10.6261 16.8605 10.5 16.8927C10.7654 16.8927 11.2994 16.5659 11.4999 16.5659C11.4935 16.6629 11.5549 16.773 11.6682 16.7826C11.7815 16.7922 12.1083 16.8539 12.5484 16.5821C12.9885 16.3167 12.843 16.1191 13.0274 15.9899C13.3802 15.7567 13.5225 15.5495 13.7166 15.4203C13.9108 15.291 14.0113 15.2615 14.0113 15.2615C14.0113 15.2615 14.0177 15.1645 14.0753 15.1743C14.1074 15.178 14.1348 15.1992 14.1465 15.2293C14.1465 15.2293 14.4831 14.9898 14.9145 14.9251C14.9044 14.9206 14.8964 14.9126 14.8919 14.9025C14.8919 14.9025 14.9241 14.8863 14.9307 14.8701C14.9307 14.8701 14.9533 14.8377 14.9695 14.8539C14.9858 14.8701 15.0084 14.9898 15.0408 15.0384C15.1121 15.006 15.2479 14.7018 15.2479 14.7018L15.575 13.7665V12.9121L15.319 12.9607L13.399 13.7761L12.2338 14.9834L12.0979 15.2714H12.0987Z" fill="#E6BD62"/>
<path fill-rule="evenodd" clip-rule="evenodd" d="M17.6253 11.081C17.7292 11.0558 17.8287 11.0154 17.9208 10.9611C17.882 11.0648 17.882 11.1781 17.7136 11.4241C17.5453 11.67 17.5389 11.7057 17.403 11.9612C17.2671 12.2266 17.2509 12.6085 17.1214 12.7766C17.1795 12.7484 17.2417 12.7299 17.3057 12.7218C17.3057 12.7218 17.1765 12.835 17.1214 12.9547C17.0664 13.0744 16.9693 13.3236 16.73 13.4759C16.4906 13.6282 16.1862 13.7251 15.8593 14.0843C15.5323 14.437 15.1959 14.8837 15.0273 15.0443C15.1148 14.8922 15.2345 14.588 15.2669 14.3875C15.2993 14.1869 15.2603 13.9472 15.3153 13.682C15.3704 13.4168 15.3704 13.2257 15.6353 12.7627C15.9003 12.2998 16.3539 10.6915 16.3539 10.6915L17.3311 10.3809L17.6257 11.08V11.08L17.6253 11.081Z" fill="#B6933F"/>
<path fill-rule="evenodd" clip-rule="evenodd" d="M16.9208 10.4887C16.9208 10.4887 16.6264 10.9126 16.5455 11.288C16.4647 11.6635 16.5389 11.6311 16.4905 11.8156C16.4615 11.9281 16.4615 12.0461 16.4905 12.1586C16.5924 11.9944 16.732 11.8568 16.8977 11.7572C17.1761 11.589 17.4027 11.4692 17.5377 11.3269C17.6736 11.1748 17.7869 10.9256 18.0813 10.7346C17.9616 10.7184 17.7933 10.6634 17.7613 10.6706C17.8812 10.5348 18.2402 10.3276 18.6027 10.0784C18.9619 9.82243 18.9393 9.71918 19.5219 9.46361C19.331 9.49603 19.2403 9.44739 19.0816 9.46361C19.1456 9.32771 19.3696 9.26286 19.5936 9.03971C19.8176 8.81657 19.4513 8.48633 19.4513 8.48633L17.7447 9.51865L16.9195 10.4895L16.9208 10.4887Z" fill="#C49937"/>
<path fill-rule="evenodd" clip-rule="evenodd" d="M12.2891 9.71858L12.3279 9.40797L12.8166 8.62482L13.328 7.24946V5.36914L13.2892 4.28178L13.37 3.56967L13.4315 3.34333L13.4963 3.25586L13.9136 3.47261L14.4898 4.25575L14.5448 5.76722L13.9848 8.15229L12.3861 9.89671L12.2891 9.71858V9.71858Z" fill="#DFC068"/>
<path fill-rule="evenodd" clip-rule="evenodd" d="M13.5621 3.16818C13.5621 3.16818 13.3061 3.17479 13.2515 4.23954C13.1969 5.30428 13.1705 5.86407 13.1316 6.39164C13.0928 6.91922 13.0024 7.23943 12.9569 7.55026C12.9115 7.86108 12.8857 8.28476 12.7402 8.54375C12.6762 8.66343 12.5394 9.0389 12.219 9.3205C11.8597 9.63111 11.323 9.84807 11.2417 9.86428C11.0992 9.8965 10.3775 9.96775 10.0831 10.1297C9.97964 10.1847 9.8015 10.2494 9.60417 10.4339C9.21249 10.7865 8.69153 11.4176 8.31606 12.1781C7.74006 13.3141 7.16406 16.5211 7.16406 16.5211L7.29356 16.3044C7.29356 16.3044 7.30977 16.0164 7.59777 15.5114C7.87937 15.0067 7.79852 14.4403 8.18998 13.4726C8.34209 13.1038 8.53302 12.6248 8.76598 12.2169C9.13505 11.5535 9.58156 10.9839 10.0315 10.6732C10.766 10.1685 11.5752 10.0584 11.5752 10.0584L12.4458 9.48242C12.4458 9.48242 12.5979 9.18802 12.7986 8.85138C13.08 8.37906 13.4386 7.85148 13.5169 7.08455C13.6368 5.94855 13.3486 5.20423 13.3648 4.53116C13.381 3.8581 13.3874 3.36295 13.5235 3.24306C13.6596 3.12316 13.5624 3.1686 13.5624 3.1686V3.1686L13.5621 3.16818Z" fill="#A88F33"/>
<path fill-rule="evenodd" clip-rule="evenodd" d="M13.5571 8.24974C13.5571 8.24974 13.9411 7.30468 14.1169 6.46649C14.1493 6.29817 14.2139 6.13006 14.2301 5.99417C14.311 5.20121 14.3336 4.87438 14.2301 4.44068C14.1493 4.12068 13.8387 3.83225 13.6767 3.60868C13.5182 3.3755 13.4438 3.28868 13.4762 3.23961C13.5086 3.19054 13.6347 3.11033 13.7576 3.11993C14.0216 3.12761 14.2708 3.24329 14.4471 3.43993C14.6963 3.72793 14.8936 4.70542 14.8936 4.70542L15.1012 5.99524L15.6287 7.61977L13.5575 8.25102V8.25102L13.5571 8.24974Z" fill="#C99E3D"/>
<path fill-rule="evenodd" clip-rule="evenodd" d="M17.1691 7.26584C17.1691 7.26584 17.0979 7.29805 16.9686 7.26584C16.9798 7.37355 16.9298 7.4785 16.8391 7.53763C16.7032 7.48259 15.4311 7.59267 15.4311 7.59267C15.4311 7.59267 14.8389 7.48899 14.6544 6.70584C14.5251 6.18466 14.7514 5.46637 14.677 4.99384C14.5637 4.29794 14.4052 4.16184 14.389 3.94531C14.3728 3.72877 14.3565 3.67352 14.3565 3.53763C14.2853 3.52141 14.2433 3.4988 14.1722 3.4988C14.156 3.4348 14.1882 3.37891 14.1172 3.26562C14.156 3.28184 14.4214 3.31426 14.732 3.60866C14.988 3.84824 14.988 3.93549 15.0266 3.98413C15.0751 4.03256 15.4667 4.36813 15.6351 4.70264C15.8034 5.03715 16.1302 6.10381 16.2047 6.27853C16.2273 6.34979 16.2759 6.42104 16.3967 6.58275C16.5844 6.81592 16.8594 7.20141 17.17 7.26541V7.26541L17.1691 7.26584Z" fill="#B58634"/>
<path fill-rule="evenodd" clip-rule="evenodd" d="M15.0703 4C15.2664 4.3167 15.4425 4.6453 15.5977 4.98389C15.7886 5.41419 15.9019 5.76704 16.1415 6.05504C16.012 5.67979 15.7822 4.94187 15.6463 4.67968C15.4942 4.40235 15.1836 4.10368 15.0703 4.00021V4.00021V4Z" fill="#A88F33"/>
<path fill-rule="evenodd" clip-rule="evenodd" d="M12.8714 9.32053C12.8714 9.32053 12.5445 9.40138 11.9361 9.72181C11.7354 9.82527 11.5447 9.91253 11.3601 9.99359C10.8808 10.2103 10.3666 10.4107 9.95874 10.5212C9.99116 10.56 10.0072 10.576 10.0072 10.576C10.0072 10.576 10.0072 10.7347 10.0946 10.8252C10.0462 10.8738 9.39874 11.3139 9.58988 12.7863C9.71916 12.7379 9.87127 12.6731 9.89388 12.6731C9.93292 12.6797 9.94252 12.7863 9.99095 12.7863C10.0394 12.7863 10.1981 12.7223 10.3664 12.5047C10.36 12.5922 10.2629 13.4724 10.7839 14.0646C10.881 13.9514 11.1269 13.5759 11.1269 13.5759L11.1333 13.4562C11.1333 13.4562 11.156 13.0387 11.2921 12.6568C11.4282 12.275 11.6934 11.9934 11.6934 11.9934L13.0781 10.016L12.871 9.32031V9.32031L12.8714 9.32053Z" fill="#E6C367"/>
<path fill-rule="evenodd" clip-rule="evenodd" d="M11.5761 12.2242C11.5127 12.269 11.4428 12.3039 11.3689 12.3277C11.3463 12.2468 11.3139 11.9684 11.5048 11.6967C11.7282 11.3696 12.2167 10.9457 12.3526 10.6087C12.4401 10.3917 12.4012 9.84812 13.178 9.15223C13.9547 8.45634 14.2587 8.21698 14.2587 8.21698L15.5144 7.58594L17.0581 8.19436L16.2912 11.2002L15.6958 12.6082L13.3278 12.1617L11.5759 12.2242V12.2242H11.5761Z" fill="#DCBA5A"/>
<path fill-rule="evenodd" clip-rule="evenodd" d="M12.4805 11.4084L12.7751 11.0395V10.7773C12.7751 10.7773 13.1019 10.6899 13.4545 10.3306C13.8072 9.97136 14.2959 9.28208 14.7264 9.3241C15.1569 9.37274 15.199 10.2594 15.2152 10.5087C15.2314 10.7581 15.2864 11.3241 15.3737 11.6285C15.4708 11.9327 14.3252 13.0847 14.3252 13.0847L13.5471 13.677L12.4805 11.4084V11.4084Z" fill="#E9CE77"/>
<path fill-rule="evenodd" clip-rule="evenodd" d="M13.3906 14.4785C13.3906 14.4785 13.6302 14.1031 13.4546 14.0222C13.5581 13.7892 13.749 13.5433 13.749 13.5433C13.749 13.5433 13.8849 13.2068 14.325 12.7926C14.7651 12.3783 15.0371 12.1031 15.1084 11.8249C15.1523 11.6436 15.1762 11.458 15.1796 11.2715C15.2272 11.3104 15.2781 11.345 15.3317 11.375C15.403 11.4074 15.7394 11.6856 15.691 12.2456C15.6426 12.8056 15.435 13.0385 15.435 13.0385C15.435 13.0385 15.2345 13.2391 15.0922 13.3427C14.9399 13.4462 14.885 13.5659 14.6292 13.5757C14.6555 13.5548 14.6851 13.5384 14.7167 13.5271C14.7167 13.5271 14.4513 13.4948 14.3088 13.6241C14.1663 13.7534 13.8634 14.1517 13.7113 14.2716C13.5592 14.3687 13.3913 14.4787 13.3913 14.4787V14.4787L13.3906 14.4785Z" fill="#CDAE50"/>
<path fill-rule="evenodd" clip-rule="evenodd" d="M24.1511 8.18367C23.7687 8.04432 23.3669 7.96571 22.9602 7.95071C22.2805 7.92809 21.2871 7.96692 20.313 7.97332C19.2644 7.97972 18.313 7.61407 16.9927 7.54943C16.7759 7.41993 16.2247 6.85353 14.5039 8.05417C14.6074 8.04777 15.7532 7.78879 16.1511 8.28735C16.5523 8.78249 16.4391 9.62388 16.3842 9.82441C16.2805 10.2711 15.9439 10.9216 15.8082 11.3779C15.6725 11.8342 15.7045 12.074 15.6075 12.394C15.5104 12.714 15.2969 12.8729 15.4229 13.2418C15.5913 13.1383 15.6789 13.1383 15.9601 12.5073C16.2413 11.8763 16.1835 11.4263 16.6496 10.8924C17.1059 10.3552 17.8656 9.62047 18.1545 9.43593C18.4433 9.2514 20.7369 8.06057 23.1384 9.19657C23.7176 9.13513 24.1513 8.18345 24.1513 8.18345V8.18345L24.1511 8.18367Z" fill="#D2A83E"/>
<path fill-rule="evenodd" clip-rule="evenodd" d="M15.4697 7.74404C15.4673 7.71972 15.4619 7.69578 15.4537 7.67278C15.4312 7.62546 15.4017 7.5818 15.3662 7.54329C15.3662 7.54329 14.7966 7.43982 14.5086 7.47204C14.0036 7.52708 13.5473 8.15172 13.3338 8.47214C13.1202 8.79257 12.8548 9.2875 12.5668 9.54329C12.57 9.51837 12.5642 9.49314 12.5506 9.47204C12.5506 9.47204 12.5668 9.49465 12.5346 9.52708C12.5024 9.5595 12.5022 9.5755 12.5184 9.59108L12.567 9.6395C12.583 9.6395 13.0298 9.43876 13.6382 8.8715C14.2854 8.27929 14.7806 7.9755 15.0396 7.8714C15.1777 7.8127 15.3221 7.76997 15.4699 7.74404V7.74404H15.4697Z" fill="#C29637"/>
<path fill-rule="evenodd" clip-rule="evenodd" d="M26.5219 5.31055C26.5219 5.31055 26.4182 5.43983 26.2887 5.58233C26.0007 5.88655 25.6253 6.22937 25.3048 6.58223C25.0008 6.91887 24.6578 7.18105 24.2725 7.62116C23.8872 8.06127 23.4405 8.5498 23.3274 8.69231C23.224 8.83481 23.1431 9.06777 23.1431 9.18745C23.0881 9.14863 23.0234 9.1066 23.0234 9.1066C23.0507 9.15741 23.0832 9.20518 23.1205 9.24911C23.2014 9.36239 23.3274 9.50511 23.3923 9.59215C23.4719 9.70295 23.529 9.82826 23.5604 9.961C23.5992 9.9674 23.8484 10.016 24.1592 9.50468C24.4701 8.99332 24.8775 8.43353 24.8775 8.43353L25.5248 7.47225L25.9327 6.65689L26.4447 5.74425L26.5225 5.31055V5.31055H26.5219Z" fill="#AC8132"/>
<path fill-rule="evenodd" clip-rule="evenodd" d="M27.1847 4.65723C27.1847 4.65723 26.793 4.97723 26.6409 5.16923C26.4888 5.36123 26.1289 5.86512 26.1289 5.86512L26.2584 5.84891L26.9155 5.26651L27.1715 4.81019L27.1845 4.65808L27.1847 4.65723Z" fill="#A88F33"/>
<path fill-rule="evenodd" clip-rule="evenodd" d="M27.0642 30.3757C27.0642 30.3757 27.0578 30.1103 27.2067 29.9518C27.3588 29.7931 27.7439 29.5602 28.1194 28.6863C28.4948 27.8125 28.5366 27.6152 28.5366 27.6152C28.5366 27.6152 27.8636 28.1912 27.4486 28.3271C27.5457 28.1263 27.6007 27.984 27.6494 27.8804C27.5943 27.8319 27.3614 27.7769 27.3388 27.7511C27.468 27.6216 27.5393 27.3044 27.8015 27.094C28.1381 26.838 28.753 26.3981 29.2308 26.006C29.7087 25.6139 30.6482 24.7019 30.7681 24.4365C30.8394 24.54 30.8554 24.6046 30.8554 24.6046C30.8554 24.6046 30.383 25.2197 30.1371 25.6111C29.9201 25.9478 29.9363 26.1387 29.9363 26.1387L30.383 25.9467C30.383 25.9467 30.5123 26.4256 29.9267 27.154C30.1827 27.0569 30.286 27.1151 30.4315 27.0341C30.1919 27.1864 29.8619 27.3935 29.5512 27.9629C29.247 28.5325 28.8327 29.196 28.1339 29.6101C27.4542 30.047 27.0625 30.3738 27.0625 30.3738V30.3738L27.0642 30.3757Z" fill="#A67A2E"/>
<path fill-rule="evenodd" clip-rule="evenodd" d="M25.3087 8.52061C25.3087 8.52061 25.0433 9.07378 25.0045 9.50429C24.9981 9.60797 24.972 9.68882 24.972 9.8085C24.9656 10.1936 24.9947 10.6241 24.908 10.8246C24.8756 10.7438 24.8594 10.6887 24.827 10.6565C24.7785 10.7924 24.6911 11.2163 24.6198 11.3748C24.5876 11.2713 24.5164 10.9121 24.523 10.4882C24.5296 10.0643 24.539 9.98322 24.539 9.89597C24.523 10.0253 24.4355 10.2002 24.4031 10.3037C24.3547 10.2164 24.2996 10.1031 24.2348 10.0093C24.1959 10.0733 24.1475 10.1678 24.1055 10.2164C24.0989 10.1776 24.0829 10.0739 24.0731 9.9284C24.0667 9.76008 24.0568 9.54333 24.0667 9.49789C24.0827 9.41064 24.2188 9.0676 24.5068 8.75357C24.8498 8.3781 25.2027 7.65661 25.3061 7.43325C25.4096 7.20989 25.8497 6.28125 25.8497 6.28125H26.1863L25.6976 7.39442C25.6976 7.39442 25.4032 8.00285 25.2511 8.22642C25.099 8.45 24.7785 9.09064 24.636 9.33981C24.7395 9.20392 24.827 9.13266 24.9307 9.00317C25.0309 8.9125 25.3091 8.52104 25.3091 8.52104V8.52104L25.3087 8.52061Z" fill="#8C6228"/>
<path fill-rule="evenodd" clip-rule="evenodd" d="M27.1917 4.61523C27.1367 4.78448 27.0498 4.94162 26.9357 5.07817C26.7349 5.31774 26.3044 5.63795 26.0943 5.89353C25.9023 6.1427 25.5183 6.82238 25.6928 7.62814C25.7568 7.45342 25.8773 7.10718 26.1977 6.7155C26.5182 6.32382 26.8612 5.87411 27.0297 5.52467C27.1978 5.17182 27.2205 4.89363 27.2205 4.89363L27.2845 4.81278L27.2456 4.62825L27.1906 4.61523L27.1917 4.61523Z" fill="#CBA94C"/>
<path fill-rule="evenodd" clip-rule="evenodd" d="M33.744 26.0812C33.744 26.0812 33.6145 25.7285 33.5757 25.4081C33.5369 25.0877 33.6397 25.0241 33.5206 24.6574C33.4494 24.434 33.3201 24.4654 33.2877 24.434C33.2553 24.4027 33.2326 24.0652 33.239 23.8806C33.2454 23.6961 33.2326 23.4567 33.2002 23.3531C33.1518 23.3142 33.1194 23.2818 33.0481 23.0424C32.9673 22.8029 32.9284 22.6832 32.8896 22.6122C32.8508 22.5411 32.7373 22.4763 32.7373 22.405C32.7373 22.2625 32.8668 22.1883 32.8668 22.149C32.8604 22.0682 32.7633 22.133 32.7373 22.1102C32.7051 22.0714 32.8184 21.8384 32.7763 21.806C32.7601 21.79 32.6468 21.9259 32.6176 21.887C32.5852 21.848 32.5464 21.4629 32.4881 21.2074C32.4333 20.9582 32.3748 20.7771 32.3684 20.7026C32.362 20.6314 31.9217 19.3757 31.815 19.0715C31.7291 18.8144 31.6567 18.553 31.5983 18.2883C31.5659 18.1362 31.5433 17.8254 31.527 17.8578C31.5108 17.8902 31.5206 18.0487 31.4946 18.0423C31.472 18.0357 31.3912 17.4826 31.3653 17.3951C31.3427 17.3076 31.2066 17.0111 31.1733 16.7965C31.1409 16.5795 31.0699 16.0131 31.0212 15.628C30.9726 15.243 30.95 15.0845 30.95 14.988C30.9579 14.7522 30.9449 14.5161 30.9112 14.2826C30.8472 13.8747 30.7192 13.3795 30.6069 13.0917C30.3902 12.5479 29.814 11.1564 29.7109 10.8101C29.7109 10.7227 29.8242 10.7713 29.8242 10.7713C29.8242 10.7713 30.1056 11.4768 30.3128 12.0204C30.5135 12.5642 30.7044 13.0431 30.7531 13.0917C30.7919 13.1402 31.0961 13.6741 31.232 14.5479C31.3679 15.4218 31.4163 16.2275 31.4974 16.7647C31.5362 17.0207 31.5686 17.2923 31.6495 17.564C31.7368 17.8587 31.8726 18.1629 32.0508 18.6288C32.2029 19.0205 32.3162 19.3473 32.3776 19.6289C32.4489 19.9882 32.4489 20.2599 32.4909 20.4381C32.5299 20.5902 32.588 20.8942 32.7241 21.3341C32.8602 21.774 33.0605 22.3406 33.1964 22.6932C33.462 23.3987 33.5804 23.9877 33.6205 24.3018C33.6559 24.6254 33.7758 25.7452 33.7434 26.0816V26.0816L33.744 26.0812Z" fill="#A88F33"/>
<path fill-rule="evenodd" clip-rule="evenodd" d="M27.2087 4.57595L27.1925 4.61477C27.1925 4.61477 27.2409 4.63099 27.2313 4.69584C27.232 4.78457 27.2266 4.87324 27.2151 4.96123C27.1991 5.07451 27.1667 5.16176 27.1603 5.23301C27.1603 5.38512 27.1829 5.55984 26.9683 5.99355C26.9043 6.11323 26.8648 6.21669 26.8324 6.28795C26.7515 6.46267 26.7353 6.48869 26.6641 6.56955C26.7773 6.50555 27.1852 6.24955 27.3922 6.28795C27.2499 6.3688 27.0329 6.52752 26.897 6.73467C26.9294 6.74107 27.0653 6.76709 27.281 6.73467C27.6403 6.67963 28.0416 6.55013 28.3942 6.57595C28.7795 6.59856 28.6274 6.11323 28.6274 6.11323L28.1828 5.13595L27.3414 4.54395L27.2087 4.57616V4.57595Z" fill="#BE9C44"/>
<path fill-rule="evenodd" clip-rule="evenodd" d="M29.4019 11.8967C29.4019 11.8967 29.0264 11.5213 28.8743 10.2327C28.7222 8.93822 28.7546 7.03273 28.7546 7.03273L28.4504 6.28841C28.4504 6.28841 28.3864 5.79326 28.227 5.60894C28.0677 5.42462 27.7547 5.11379 27.6122 4.96169C27.4697 4.80958 27.308 4.60243 27.2109 4.57001C27.2594 4.48915 27.4763 4.03283 28.3079 4.02643C29.1395 4.02003 29.3959 4.48275 29.4827 4.65107C29.5696 4.81939 29.9617 5.54707 30.1072 6.93374C30.243 8.3187 30.2497 8.42238 30.227 8.90131C30.2108 9.1667 30.1234 9.78153 29.971 10.4384C29.832 10.9952 29.6798 11.6166 29.4014 11.898L29.4019 11.8967Z" fill="#A17C34"/>
<path fill-rule="evenodd" clip-rule="evenodd" d="M28.224 13.0003C28.3492 13.0093 28.4742 12.9811 28.5833 12.9192C28.703 12.9128 29.1367 12.9678 29.4699 12.5439C29.4925 12.6408 29.551 12.9032 29.3986 13.1362C29.4797 13.0551 29.5994 13.0229 29.6156 13.0003C29.622 13.1199 29.7353 13.4888 29.2564 14.3852C29.3856 14.2429 29.5377 14.2493 29.6736 14.2331C29.6802 14.4014 29.7707 14.9676 29.5313 15.2721C29.3728 15.4792 29.1138 15.4143 29.1138 15.4143C29.1176 15.3691 29.1176 15.3237 29.1138 15.2785C29.1074 15.191 29.075 15.1037 29.0978 15.0455C28.9727 14.9883 28.8587 14.9094 28.7612 14.8123C28.4796 14.5469 28.114 14.094 28.0881 13.7574C28.0557 13.3819 28.3924 13.3011 28.3924 13.3011C28.3642 13.2758 28.3401 13.2463 28.3211 13.2136C28.3049 13.1588 28.2887 13.0713 28.224 13.0003V13.0003V13.0003Z" fill="#8C6228"/>
<path fill-rule="evenodd" clip-rule="evenodd" d="M25.7285 8.92887C25.7285 8.92887 25.7123 8.90626 25.625 9.00973C25.6412 8.90626 25.6574 8.80898 25.6638 8.71511C25.7051 8.62821 25.7586 8.54762 25.8225 8.47575C25.7739 8.57261 25.7415 8.66007 25.7415 8.66007C25.7415 8.66007 25.8614 8.43671 26.0361 8.30082C26.1558 8.20375 26.3079 8.15853 26.3725 8.06786C26.4438 7.97079 26.4276 7.95458 26.4438 7.93837C26.4438 7.93837 26.6025 7.8349 26.8453 7.53047C26.8775 7.49165 26.9261 7.44962 26.9585 7.41079C27.0134 7.38818 27.1429 7.32994 27.295 7.25207C27.4537 7.16482 27.6316 7.04514 27.7417 6.99607C27.9584 6.89901 28.1884 6.90882 28.2951 6.7565C28.3759 6.73389 28.4632 6.49111 28.4472 6.28418C28.5669 6.33261 29.1817 6.71447 29.3923 7.54946C29.5444 8.14167 29.2724 9.05431 29.1591 9.49463C29.0458 9.93495 29.0298 10.2616 28.8711 10.4621C28.6703 10.7277 28.0233 11.1021 27.8646 11.2875C27.7287 11.4396 27.321 11.8247 27.337 12.1028C27.3532 12.31 27.6088 12.4228 27.664 12.4621C27.7193 12.5014 27.7189 12.5496 27.8225 12.5261C27.9262 12.5026 27.9648 12.4548 28.0071 12.4548C28.0555 12.4612 28.0555 12.4711 28.0781 12.4711C28.0945 12.4706 28.1108 12.4684 28.1268 12.4644C28.1268 12.4644 28.1105 12.7591 27.4213 12.8484C27.3726 12.8551 27.3242 12.8711 27.2625 12.8809C27.3436 12.842 27.392 12.842 27.4795 12.7224C27.3824 12.7062 27.104 12.6899 27.0328 12.6673C27.0554 12.6285 27.1299 12.5248 27.1913 12.4764C27.2463 12.428 27.1849 12.4124 27.1365 12.4376C27.0531 12.4943 26.9731 12.5558 26.8969 12.6219C26.816 12.6931 26.7448 12.7902 26.6153 12.8779C26.5765 12.7484 26.5829 12.5024 26.7352 12.3245C26.6961 12.3309 26.6217 12.4442 26.5507 12.4216C26.5378 12.3035 26.5455 12.1841 26.5733 12.0687C26.6121 11.923 26.8224 11.6674 26.8224 11.6674L27.8385 9.85175L28.0553 8.47639L25.7285 8.92845V8.92845V8.92887Z" fill="#92723A"/>
<path fill-rule="evenodd" clip-rule="evenodd" d="M25.6709 9.00653C25.6709 9.00653 25.6159 9.04536 25.726 9.11981C25.7098 9.14242 25.6709 9.22328 25.6223 9.27832C25.5675 9.34232 25.509 9.382 25.4864 9.43704C25.438 9.55032 25.3991 9.62797 25.3991 9.67661C25.3991 9.72525 25.3829 10.0359 25.247 10.2364C25.1984 10.3077 25.1434 10.4273 25.1045 10.5082C25.0237 10.6505 24.9524 10.7642 24.9362 10.8282C24.904 10.9415 24.8814 11.2521 24.8814 11.2521C24.8814 11.2521 24.9526 11.1646 24.9784 11.1324C24.9394 11.2133 24.8974 11.3005 24.8359 11.3654C24.8748 11.3329 24.988 11.2521 25.179 11.0838C25.4444 10.8606 25.8587 10.4851 26.3636 10.1878C26.2113 10.2428 26.082 10.2428 25.9786 10.259C26.0594 10.1782 26.7875 9.32376 27.1694 9.2429C27.1926 9.2135 27.2041 9.1766 27.2018 9.13922L26.8748 9.10701L26.2113 9.2493L26.1144 8.7373L25.6709 9.00589V9.00653Z" fill="#B18E3E"/>
<path fill-rule="evenodd" clip-rule="evenodd" d="M26.7302 11.9191C26.7302 11.9191 26.6427 12.0063 26.5618 12.2233C26.4996 12.1583 26.4462 12.0853 26.4031 12.0063C26.2834 11.8058 26.0991 11.55 25.6686 11.6957C25.6622 11.5598 25.6524 11.4886 25.6686 11.3915C25.7399 11.3755 25.9566 11.2008 26.1734 10.945C26.3257 10.7703 26.468 10.5695 26.565 10.314C26.629 10.2653 26.7398 10.1845 26.885 10.0906C27.0922 9.94831 27.3414 9.75396 27.3802 9.53721C27.2831 9.57604 27.076 9.67311 26.7651 9.65711C26.885 9.60207 27.0694 9.54383 27.0467 9.30425C27.0954 9.27183 27.1342 9.24921 27.1342 9.24921C27.0977 9.23705 27.0594 9.23155 27.0209 9.233C27.0143 9.21039 27.0047 9.17817 26.9497 9.19417C26.8946 9.21017 26.8857 9.21039 26.8784 9.233C26.8558 9.23961 26.7814 9.233 26.7263 9.27204C26.6713 9.31108 26.5192 9.44015 26.4609 9.46276C26.4835 9.42393 26.5158 9.36591 26.5158 9.36591C26.5158 9.36591 26.3572 9.38191 26.244 9.42991C26.0368 9.50116 25.7975 9.63065 25.5547 9.75673C25.5773 9.71791 25.5871 9.69273 25.6031 9.68548C25.6191 9.67823 25.6582 9.66948 25.6582 9.66287C25.6582 9.65625 25.6422 9.59887 25.6518 9.57561C25.7243 9.42185 25.81 9.27461 25.9078 9.13551C26.021 8.98319 26.0436 8.76644 26.0436 8.76644L26.5388 8.51727L27.9304 8.19727L28.8334 8.25231L28.7201 8.87695L28.1868 9.96751L27.7305 10.961L27.2093 11.5696L26.7304 11.9191V11.9191H26.7302Z" fill="#543E26"/>
<path fill-rule="evenodd" clip-rule="evenodd" d="M28.9833 9.21584C28.9833 9.21584 28.4395 9.88891 28.2874 9.99259C28.3845 9.78544 28.9833 8.55238 29.2 8.20934C29.1516 8.17051 29.0868 8.17051 29.2389 7.56934C29.1096 7.87334 29.0642 8.03206 28.9575 8.11291C28.8508 8.19376 28.8376 8.16795 28.7655 8.16795C28.7791 8.14332 28.7847 8.11506 28.7815 8.0871C28.7815 8.0871 28.3252 8.03206 28.0135 8.03206C27.7018 8.03206 27.0848 8.20038 26.7416 8.33627C26.4698 8.44955 26.3177 8.44955 26.2206 8.52059C26.1236 8.60144 26.0685 8.68891 26.0199 8.71152C25.9811 8.73414 25.7967 8.79238 25.7545 8.85382C25.7157 8.91782 25.651 8.98971 25.651 9.00592C25.651 9.02214 25.6348 9.04496 25.6835 9.02854C25.6995 9.02214 25.8194 8.95728 25.9552 8.87643C26.1396 8.77296 26.3629 8.65328 26.5248 8.58203C26.9876 8.3975 27.1333 8.42992 27.3402 8.3911C27.557 8.35227 27.8678 8.2616 28.0747 8.2616C28.2819 8.2552 28.6735 8.2616 28.7642 8.27782C28.7254 8.31024 28.693 8.34907 28.7092 8.48496C28.7092 8.52379 28.6767 8.56582 28.6452 8.65968C28.5483 8.92507 28.3638 9.36518 28.2612 9.58854C28.1189 9.89254 27.9572 10.1483 27.8772 10.3068C27.7972 10.4653 27.6212 10.8828 27.4469 11.1062C27.2726 11.3295 27.1815 11.4654 27.1269 11.5141C27.0723 11.5627 26.6802 11.8505 26.7094 11.9542C26.7806 11.9316 27.2306 11.7622 27.5572 11.3944C27.8838 11.0266 27.9488 10.8022 28.2044 10.6014C28.46 10.4007 28.6607 10.0643 28.7804 9.78608C28.8807 9.5271 28.8581 9.44624 28.9842 9.21648V9.21648L28.9833 9.21584Z" fill="#806031"/>
<path fill-rule="evenodd" clip-rule="evenodd" d="M17.2634 14.2401C17.2634 14.2401 17.1922 14.5345 17.0303 14.6802C16.8718 14.8227 16.5902 14.9456 16.558 15.1852C16.5191 15.4245 16.8396 15.5444 16.8396 15.5444C16.8396 15.5444 16.6646 15.8324 16.6646 16.0492C16.6646 16.2725 16.6582 16.3145 16.6808 16.5281C16.6552 16.5446 16.6333 16.5664 16.6168 16.5921C16.6168 16.5921 16.6328 16.7992 16.7916 16.9285C16.9503 17.0578 17.086 17.1357 17.1668 17.1032C17.1792 17.1296 17.19 17.1567 17.1992 17.1843C17.1992 17.1843 17.3191 16.8801 17.4 16.6147C17.4808 16.3429 17.5521 16.3815 17.5843 16.0159C17.6165 15.6502 17.9683 15.0224 17.9683 15.0224L18.2083 14.4859L17.8168 14.1816L17.2634 14.2399V14.2401Z" fill="#B6903C"/>
<path fill-rule="evenodd" clip-rule="evenodd" d="M17.9949 14.7676C17.9142 14.8504 17.8397 14.9391 17.772 15.033C17.6685 15.1755 17.5876 15.3048 17.4355 15.36C17.2834 15.4153 17.1864 15.4148 17.196 15.5672C17.2056 15.7195 17.3481 15.7839 17.4289 15.8616C17.5164 15.9424 17.5876 16.0783 17.5488 16.2306C17.5972 16.208 17.6847 16.182 17.7656 16.0073C17.8464 15.8325 18.412 14.7678 18.412 14.7678H17.9949V14.7676Z" fill="#685026"/>
<path fill-rule="evenodd" clip-rule="evenodd" d="M20.2231 12.3105C20.2231 12.3105 20.2715 12.1812 20.2231 12.0874C20.1745 11.9903 19.8801 11.9579 19.7344 11.8478C19.5823 11.7345 19.3977 11.6558 19.2456 11.7055C19.2682 11.6505 19.3589 11.5306 19.2844 11.5048C19.2132 11.4821 18.948 11.6018 18.8768 11.6569C18.8055 11.7119 18.6436 11.7765 18.6114 11.8156C18.5792 11.8546 18.5239 11.9289 18.4915 11.8964C18.4591 11.8738 18.4431 11.8156 18.388 11.8478C18.333 11.88 18.068 12.097 18.0192 12.2233C17.9703 12.3496 17.8604 12.6312 17.5304 12.9514C17.2004 13.2716 17.0579 13.4789 17.1549 13.5986C17.252 13.7183 17.2975 13.6311 17.3137 13.7345C17.3261 13.8361 17.3206 13.9391 17.2975 14.0387C17.2586 14.2071 17.194 14.3656 17.2812 14.398C17.5046 14.4692 17.7216 14.334 17.77 14.3754C17.8671 14.4626 17.7149 14.7767 17.9447 14.8381C18.1779 14.9021 18.4076 14.7831 18.4076 14.7831L19.2554 14.3267L20.071 13.8964L20.4883 13.0711L20.2645 12.3818L20.2218 12.3105H20.2231Z" fill="#D4B968"/>
<path fill-rule="evenodd" clip-rule="evenodd" d="M19.4219 14.2823C19.4219 14.2823 19.2794 14.0655 19.4543 13.8744C19.6293 13.6832 19.8782 13.6026 19.9753 13.4829C19.9568 13.4601 19.932 13.4433 19.904 13.4345C19.9685 13.3192 20.0668 13.2265 20.1856 13.1689C20.1372 13.1205 20.0724 13.0816 20.0013 13.0816C19.8426 13.0816 19.7453 13.1787 19.5998 13.1787C19.4575 13.1787 19.4413 13.1075 19.4413 13.1075C19.4413 13.1075 19.6809 13.0848 19.6581 12.978C19.6355 12.8647 19.5941 12.8647 19.5941 12.8647C19.5941 12.8647 20.0568 12.6727 20.1376 12.5703C20.2185 12.4679 20.2089 12.3469 20.2251 12.2985C20.2799 12.2985 20.6004 12.1302 20.7299 12.2014C20.8593 12.2727 20.7687 12.4668 20.7687 12.4668C20.7687 12.4668 21.1606 12.1722 21.3603 11.8834C21.535 11.8996 21.6163 11.7637 21.7443 11.7637C21.903 11.7637 22.1521 11.9804 22.2006 12.4431C22.233 12.7085 22.2814 12.8606 22.233 13.33C22.2104 13.5954 22.2168 14.162 22.297 14.4431C22.3518 14.6665 22.4813 14.6439 22.4813 14.6439C22.4615 14.7119 22.4221 14.7727 22.368 14.8186C22.2806 14.8995 22.271 15.1132 22.2806 15.1941C22.2935 15.2532 22.3097 15.3115 22.3292 15.3688C22.3292 15.3688 22.2257 15.4885 22.1997 15.5695C22.1771 15.6504 22.0704 15.7054 21.9926 15.7054C21.9147 15.7054 21.9537 15.6988 21.8503 15.7054C21.7468 15.712 21.7144 15.728 21.6495 15.7054C21.5847 15.6828 21.5363 15.6568 21.5623 15.4494C21.5849 15.2423 20.7629 14.7602 20.7629 14.7602L19.4189 14.2812V14.2812L19.4219 14.2823Z" fill="#CCA849"/>
<path fill-rule="evenodd" clip-rule="evenodd" d="M17.88 16.3271C17.88 16.3271 18.1744 16.7188 19.3848 16.7188C19.9608 16.7188 20.1616 16.6637 20.2808 16.6313C20.4103 16.5989 20.8957 16.4081 21.3844 15.8319C21.8245 15.311 21.7274 15.0974 21.7274 15.0974L21.4714 15.0586L20.6394 15.1719L18.1776 16.2204L17.8789 16.3271H17.88Z" fill="#585136"/>
<path fill-rule="evenodd" clip-rule="evenodd" d="M18.7829 16.4239C18.7829 16.4239 17.7344 16.6571 17.7344 15.9936C17.7344 15.3464 18.3816 14.6667 18.5435 14.547C18.7119 14.4271 19.1131 14.291 19.1131 14.291H20.0808L20.2651 14.7798L20.1843 15.8347L18.7829 16.4237V16.4239Z" fill="#252211"/>
<path fill-rule="evenodd" clip-rule="evenodd" d="M19.748 14.4887C19.748 14.4887 19.5475 14.3042 19.0912 14.5527C18.6349 14.8013 18.2658 15.3207 18.2432 15.7924C18.2206 16.2097 18.5862 16.5205 19.1558 16.5367C19.5797 16.5527 19.8355 16.5043 19.965 16.4727C19.9326 16.4339 19.7642 16.2236 19.7642 16.2236L19.7482 14.489V14.489L19.748 14.4887Z" fill="#C3B378"/>
<path fill-rule="evenodd" clip-rule="evenodd" d="M19.5519 14.5917C19.5519 14.5917 19.5035 14.5529 19.3599 14.6306C19.2403 14.6946 19.0655 14.8637 18.9296 14.9834C18.8422 15.0547 18.7871 15.0869 18.7376 15.1419C18.5369 15.3815 18.3686 15.7732 18.4659 15.9673C18.5631 16.1614 18.8834 16.3848 19.6989 16.2327L19.5496 14.592V14.592L19.5519 14.5917Z" fill="#E6D89C"/>
<path fill-rule="evenodd" clip-rule="evenodd" d="M19.2854 14.9937C19.2854 14.9937 19.1559 15.1944 19.1559 15.5149C19.1559 15.8417 19.3404 16.3626 20.0201 16.4015C20.5411 16.4339 20.8905 15.6508 21.2692 15.3465C21.5572 15.1136 21.7319 15.107 21.7319 15.107C21.7319 15.107 21.4375 14.787 20.6511 14.3725C19.8744 13.955 19.0038 13.8999 18.5312 14.5408C18.7546 14.5246 19.4763 14.34 19.4763 14.34L19.8292 14.4533L19.2854 14.9939V14.9939V14.9937Z" fill="#252211"/>
<path fill-rule="evenodd" clip-rule="evenodd" d="M20.3065 15.4172C20.2839 15.3688 20.2677 15.304 20.3615 15.288C20.4554 15.272 20.4974 15.2813 20.5299 15.352C20.5623 15.4226 20.5939 15.4814 20.5459 15.5107C20.4974 15.5365 20.3711 15.5107 20.3063 15.4168L20.3065 15.4172ZM20.1536 14.961C20.1536 14.961 20.1211 14.9836 20.1374 14.9384C20.1438 14.8835 20.186 14.7862 20.2895 14.8091C20.3929 14.8319 20.3705 14.945 20.3535 14.9774C20.3364 15.0098 20.25 15.0646 20.1851 15.0414C20.1685 15.0371 20.1548 15.0252 20.1484 15.0092C20.142 14.9932 20.1436 14.9751 20.1527 14.9605L20.1536 14.961Z" fill="#6F674D"/>
<path fill-rule="evenodd" clip-rule="evenodd" d="M11.3906 15.1684C11.3906 15.1684 11.6466 15.3604 11.944 15.3529C12.2384 15.3463 12.6171 15.0423 12.7918 14.848C12.8953 14.7347 12.9838 14.615 13.0798 14.5211C13.1609 14.4403 13.2157 14.4014 13.2545 14.3464C13.3096 14.2824 13.3678 14.1621 13.397 14.123C13.3258 14.1781 13.2223 14.2754 13.1154 14.34C13.012 14.404 12.7886 14.5243 12.6979 14.5568C12.6107 14.5892 11.7044 15.0688 11.7044 15.0688L11.3906 15.1684V15.1684Z" fill="#AC924C"/>
<path fill-rule="evenodd" clip-rule="evenodd" d="M11.7812 12.7769C11.7812 12.7769 11.9235 12.6798 12.1987 12.6182C12.4641 12.5542 12.9981 12.5049 12.9981 12.5049L13.4382 12.6969L13.6129 13.3603L13.2929 14.0498L12.8853 14.3058L12.4223 13.5615L11.7823 12.7782V12.7782L11.7812 12.7769Z" fill="#9F8E57"/>
<path fill-rule="evenodd" clip-rule="evenodd" d="M11.207 13.3683L11.0547 13.482C11.0547 13.482 11.0937 13.4107 11.1259 13.194C11.1582 12.9772 11.3267 12.4497 11.5727 12.1454C11.8186 11.8412 11.8122 11.8574 11.8122 11.8574C11.7664 11.8491 11.7193 11.8608 11.6827 11.8897C11.7152 11.818 11.9223 11.562 12.1295 11.434C12.3366 11.306 12.4175 11.2657 12.6342 11.37C12.851 11.4743 12.906 11.5285 13.0647 11.5221C13.2234 11.5157 13.3591 11.3474 13.3591 11.3474C13.3591 11.3474 13.3915 11.4508 13.2719 11.6904C13.1522 11.93 12.6796 12.4185 12.6796 12.4185L11.6958 13.0916L11.207 13.3689V13.3689V13.3683Z" fill="#EAC970"/>
<path fill-rule="evenodd" clip-rule="evenodd" d="M11.9344 12.6957C11.9344 12.6957 12.6466 12.7928 12.8633 12.5923C12.8697 12.6149 12.8957 12.6149 12.8957 12.6311C12.894 12.6433 12.8883 12.6546 12.8795 12.6633C12.9031 12.6595 12.9269 12.6574 12.9508 12.6569C12.9793 12.6654 13.0086 12.6708 13.0382 12.6731C13.0621 12.6726 13.0859 12.6704 13.1095 12.6665C13.1049 12.699 13.0874 12.7283 13.0608 12.7476C13.0933 12.7476 13.1248 12.754 13.1248 12.7798C13.1248 12.8056 13.1312 12.8835 13.0924 12.8997C13.0603 12.9086 13.026 12.9062 12.9954 12.8931C12.9979 12.9543 13.0146 13.0142 13.044 13.068C13.108 13.1877 13.2445 13.324 13.428 13.2847C13.428 13.2847 13.5248 13.5177 13.1172 14.0355C13.0623 14.1067 13.0039 14.2038 12.9328 14.2846C12.9048 14.3458 12.8833 14.4098 12.8688 14.4756C12.8688 14.4756 13.5583 14.2102 13.7557 13.605C13.9564 12.9965 13.9952 12.3979 13.9564 11.8381C13.9498 11.6794 13.924 11.5663 13.8852 11.4853C13.7881 11.2845 13.5161 11.317 13.4062 11.4302C13.2475 11.589 12.9821 11.9836 12.6133 12.2554C12.2378 12.5272 12.2218 12.5754 11.9336 12.6957V12.6957H11.9344Z" fill="#D7BC6B"/>
<path fill-rule="evenodd" clip-rule="evenodd" d="M11.0788 13.5696C11.0788 13.5696 10.9429 13.6504 10.8716 13.9536C10.8004 14.2642 10.9356 14.6429 11.0139 14.7625C11.0922 14.8822 11.2699 15.2093 11.6386 15.2255C11.7298 15.225 11.8201 15.2063 11.904 15.1704C12.0327 15.1114 12.1534 15.0364 12.2632 14.9471C12.4219 14.8274 12.5512 14.7239 12.535 14.7141C12.4962 14.6979 11.5577 13.9212 11.5577 13.9212L11.2049 13.5273L11.0786 13.57L11.0788 13.5696Z" fill="#585136"/>
<path fill-rule="evenodd" clip-rule="evenodd" d="M11.9686 14.8574C11.9686 14.8574 12.1596 14.8414 12.2728 14.7701C12.3861 14.6988 11.6094 13.9287 11.6094 13.9287L11.6644 14.7607L11.9686 14.8574Z" fill="#453A25"/>
<path fill-rule="evenodd" clip-rule="evenodd" d="M11.1432 13.5111C11.1432 13.5111 11.0462 13.6956 11.0462 13.7442C11.03 13.9027 11.0786 14.4011 11.1174 14.5596C11.1563 14.7279 11.3666 14.9835 11.6386 14.9835C11.8067 14.9835 12.0399 14.88 12.0399 14.8542C12.0399 14.8218 11.8003 14.7902 11.7357 14.6697C11.6968 14.6057 11.6806 14.4465 11.6717 14.2857C11.6653 14.1822 11.6653 14.0689 11.7041 14.0297C11.7916 13.9326 11.8076 13.6542 11.8076 13.6542L12.1182 13.0771H11.7096L11.2209 13.3814L11.1432 13.5111Z" fill="#84754B"/>
<path fill-rule="evenodd" clip-rule="evenodd" d="M11.0234 13.6896C11.0234 13.6896 11.3434 13.2657 11.6319 13.1684C11.9203 13.0711 12.0494 13.1296 12.0494 13.1296L11.881 13.5601L11.6415 13.8255L11.6577 13.9614C11.6577 13.9614 11.6186 14.3206 11.8582 14.5698C12.0978 14.819 12.2757 14.8094 12.3794 14.8094C12.4831 14.8094 12.7807 14.7219 12.9328 14.3626C13.0687 14.0262 13.1819 13.5946 12.9102 13.162C12.6446 12.7315 12.1754 12.7148 12.0848 12.7148C11.9941 12.7148 11.2822 12.7505 11.0234 13.6889V13.6889V13.6896Z" fill="#252211"/>
<path fill-rule="evenodd" clip-rule="evenodd" d="M19.2384 15.1297C19.1188 15.0747 19.232 14.7382 19.3517 14.6346C19.4714 14.5309 19.6235 14.4114 19.8891 14.395C19.986 14.3886 20.0798 14.45 20.0638 14.5149C20.0412 14.6346 19.8729 14.8029 19.7208 14.9226C19.5104 15.0877 19.3743 15.1912 19.2384 15.1297Z" fill="#F7F7E7"/>
<path fill-rule="evenodd" clip-rule="evenodd" d="M12.7696 13.2943C12.8571 13.2879 12.9704 13.3583 12.993 13.4531C13.0156 13.5565 12.938 13.7637 12.7696 13.7637C12.6338 13.7637 12.5625 13.5954 12.5625 13.5469C12.564 13.5071 12.5752 13.4683 12.5949 13.4337C12.6013 13.4238 12.6175 13.3106 12.7696 13.2943V13.2943Z" fill="#F8F6DE"/>
<path fill-rule="evenodd" clip-rule="evenodd" d="M11.5068 13.3691C11.5068 13.3691 11.2834 13.4726 11.18 13.6891C11.106 13.849 11.0837 14.028 11.116 14.2011C11.1322 14.282 11.213 14.4825 11.2681 14.5538C11.3231 14.625 11.3976 14.6737 11.4526 14.6671C11.5076 14.6604 11.6207 14.515 11.6207 14.4277C11.6207 14.3404 11.6273 13.9714 11.734 13.7706C11.8278 13.5701 11.5074 13.3694 11.5074 13.3694V13.3694L11.5068 13.3691Z" fill="#D4C38B"/>
<path fill-rule="evenodd" clip-rule="evenodd" d="M11.5353 13.3522C11.4964 13.3749 11.4318 13.4073 11.4478 13.4493C11.464 13.4881 11.5999 13.5133 11.6486 13.608C11.7036 13.7051 11.7036 13.8086 11.6874 13.8572C11.7297 13.8371 11.768 13.8097 11.8007 13.7761C11.8719 13.6953 11.9592 13.5854 12.0336 13.5854C12.0823 13.5854 12.1307 13.608 12.1761 13.608C12.2474 13.608 12.3184 13.5854 12.3282 13.511C12.3442 13.4139 12.1923 13.3264 12.1049 13.3426C12.1211 13.2786 12.1437 13.1841 12.0724 13.1193C12.0012 13.0544 11.778 13.1679 11.7294 13.2004C11.6808 13.2328 11.5353 13.3525 11.5353 13.3525V13.3525V13.3522Z" fill="#E2D59D"/>
<path fill-rule="evenodd" clip-rule="evenodd" d="M16.679 20.1522L17.1579 20.0107L17.2938 20.1078C17.2938 20.1078 17.3907 20.315 17.543 20.3408C17.4943 20.4442 17.368 20.5328 17.3747 20.6062C17.3813 20.6795 17.4459 20.7356 17.4459 20.7356C17.4459 20.7356 17.0154 21.4475 17.8634 22.165C17.6627 22.2458 17.4071 22.357 17.2712 22.421C17.368 22.4436 17.5752 22.485 17.6627 22.5635C17.7501 22.642 17.7501 22.667 17.831 22.7156C17.9118 22.7642 17.9603 22.8289 17.9443 22.8579C17.8892 22.8255 17.7047 22.7286 17.6725 22.8191C17.6403 22.9095 16.8731 22.8741 16.8731 22.8741L15.5786 23.1233C15.5786 23.1233 15.627 22.9938 15.4911 22.8741C15.3326 22.7318 15.1385 22.8805 14.9314 22.722C14.6596 22.5148 14.6498 22.2753 14.5625 22.1848C14.6498 22.1298 14.8279 22.0489 15.2518 21.9928C15.2356 21.9604 15.1805 21.8633 15.213 21.7761C15.2518 21.6628 15.4135 21.5915 15.3651 21.4561C15.4363 21.4399 15.4685 21.4399 15.6467 21.2165C15.815 20.9931 15.9184 20.9447 16.0479 20.9285C16.1774 20.9123 16.2551 20.9285 16.4947 20.7051C16.6628 20.5466 16.6079 20.4107 16.6079 20.4107C16.6079 20.4107 16.7178 20.3751 16.6792 20.1518V20.1518L16.679 20.1522Z" fill="#CBAC5A"/>
<path fill-rule="evenodd" clip-rule="evenodd" d="M15.2683 20.2235C15.2747 20.191 15.3008 20.1748 15.4755 20.191C15.6502 20.2072 16.757 20.0876 17.058 20.0714C17.3622 20.0487 18.4333 20.0647 18.9545 20.1748C19.4757 20.2849 20.003 20.4144 20.2586 20.479C20.5146 20.5503 20.5953 20.5759 20.5854 20.6083C20.579 20.6407 20.5214 20.6723 20.4884 20.6634C20.4562 20.657 19.6082 20.398 19.3462 20.3434C19.0842 20.2887 18.1778 20.1426 17.6822 20.1514C17.2195 20.158 17.0349 20.145 16.6435 20.1902C16.2518 20.2388 15.6045 20.3035 15.4104 20.2776C15.2184 20.255 15.2581 20.255 15.2679 20.2226V20.2226L15.2683 20.2235Z" fill="#D6BC6F"/>
<path fill-rule="evenodd" clip-rule="evenodd" d="M17.8729 22.7599C17.8729 22.7599 18.5364 23.1192 18.7759 23.5593C18.9507 23.8861 18.6725 24.048 18.6725 24.048C18.6725 24.048 19.0479 24.048 18.9993 24.2552C18.9767 24.3844 18.352 24.7339 17.9346 24.9184C17.5107 25.1029 17.5269 25.0933 17.3197 25.1256C17.119 25.158 16.5688 25.0616 16.4555 25.2226C16.3422 25.3837 16.3915 25.5497 16.4231 25.5755C16.4555 25.5981 16.7177 25.6305 16.7177 25.6305C16.7177 25.6305 16.6627 25.7826 16.1191 25.7988C15.5755 25.8151 15.4394 25.8537 15.407 25.9121C15.3746 25.9669 15.5104 25.9347 15.7598 25.9761C16.009 26.0149 16.3584 26.0401 16.3584 26.0401C16.3584 26.0401 16.2452 26.1372 15.9508 26.2148C15.6141 26.3021 15.0866 26.3832 14.928 26.4802C15.0089 26.5353 15.1288 26.6161 15.184 26.6225C15.0482 26.6549 14.857 26.7262 14.8248 26.752C14.8732 26.7844 14.9381 26.8233 14.9381 26.8233C14.9381 26.8233 14.6661 27.1501 14.5076 27.2312C14.3491 27.3122 13.4364 27.7359 13.1224 27.6551C12.3392 27.4479 12.2422 26.5903 12.0512 26.5257C11.7632 26.4286 11.6274 26.6225 11.3716 26.4866C11.4848 26.4058 11.5465 26.3573 11.6662 26.3023C11.5367 26.2383 10.8668 25.8136 10.8668 25.8136C10.7968 25.6609 10.719 25.5119 10.6339 25.3671C10.5044 25.1437 10.3139 24.8459 10.1709 24.5837C9.86031 24.0077 9.8441 23.7423 9.5625 23.4155C9.61114 23.3515 9.77925 23.3604 9.77925 23.3604L12.1387 24.1372L16.3224 24.2584L17.4104 22.7051L17.8731 22.7601L17.8729 22.7599Z" fill="#DFC677"/>
<path fill-rule="evenodd" clip-rule="evenodd" d="M11.6719 25.1293C11.6971 25.1574 11.7266 25.1815 11.7591 25.2006C11.8402 25.2556 11.9599 25.3205 12.0407 25.4173C12.0732 25.3689 12.154 25.2814 12.2967 25.4173C12.4394 25.5532 12.6167 25.4564 12.727 25.4886C12.8403 25.5276 12.8467 25.5436 12.8467 25.5436C12.8467 25.5436 12.9107 25.4886 13.0538 25.4304C13.1413 25.3979 13.2448 25.3753 13.3581 25.3431C13.4615 25.3205 13.5748 25.2881 13.6527 25.2881C13.7239 25.3365 13.9795 25.6081 15.0054 25.2072C15.9731 24.8317 16.1962 24.7897 16.3582 24.8477C16.3744 24.8089 16.3906 24.7345 16.6398 24.7443C16.6398 24.6408 16.4326 24.288 16.4326 24.288L15.2902 23.8965H14.6654L12.7917 24.2395L11.7534 24.832L11.6725 25.1306L11.6719 25.1293Z" fill="#C4A859"/>
<path fill-rule="evenodd" clip-rule="evenodd" d="M11.0469 24.4732C11.0469 24.4732 11.0695 24.6479 11.3285 24.8325C11.5845 25.0168 11.6649 25.1269 11.6649 25.1269C11.6649 25.1269 11.7135 25.0629 11.7524 24.9976C11.7912 24.9263 11.8236 24.8455 11.8883 24.8229C12.0178 24.7678 12.3122 24.8713 12.377 24.8551C12.432 24.8391 12.4158 24.7258 12.4741 24.7258C12.61 24.7192 12.6972 24.8131 12.7459 24.8131C12.7945 24.8131 12.914 24.8067 12.9302 24.7809C12.9464 24.755 12.9528 24.4862 13.1373 24.3567C13.3381 24.2145 13.584 24.2759 13.6493 24.3083C13.6493 24.3567 13.6557 24.4766 13.7852 24.483C13.9147 24.4894 13.9275 24.4668 14.0412 24.5057C14.1549 24.5445 14.2904 24.4993 14.3518 24.69C14.4069 24.674 14.5364 24.6578 14.5039 24.4732C14.5679 24.4248 14.6238 24.3924 14.7599 24.2014C14.7924 24.153 14.8472 24.098 14.8894 24.0267C15.0027 24.0267 15.1386 24.0041 15.3197 24.1626C15.2647 24.2014 15.2323 24.2266 15.2163 24.2661C15.2636 24.313 15.3069 24.3639 15.3455 24.4182C15.3942 24.4822 15.4266 24.5607 15.488 24.5769C15.6239 24.6157 15.8473 24.5607 16.0965 24.5769C16.336 24.5931 16.5366 24.6804 16.624 24.7354C16.6565 24.7194 16.6565 24.7128 16.7373 24.729C16.8182 24.7452 16.8796 24.7516 16.7924 24.6482C16.8408 24.6708 16.8958 24.7194 16.9445 24.6708C16.9931 24.6221 17.0317 24.5511 17.1676 24.5349C17.3035 24.5187 17.3522 24.5413 17.4072 24.399C17.4784 24.2243 17.2325 24.2243 17.2325 24.2243C17.2325 24.2243 17.3458 24.1206 17.472 23.9847C17.6242 23.8424 17.7989 23.6579 17.8409 23.4313C17.9122 23.0138 17.5045 22.959 17.5045 22.959L15.5271 23.5674L13.1096 23.4475L11.0482 24.4734V24.4734L11.0469 24.4732Z" fill="#927D49"/>
<path fill-rule="evenodd" clip-rule="evenodd" d="M9.27014 18.7603C9.27014 18.7603 9.20614 18.8412 9.16668 19.0321C9.12721 19.223 9.14406 19.2004 9.11164 19.3363C9.07921 19.4722 8.68092 20.8249 8.83025 21.2813C8.97958 21.7376 9.23814 21.9059 9.39985 22.2748C9.43228 22.3556 9.46385 22.4043 9.4807 22.4755C9.53574 22.7149 9.48732 22.8994 9.55196 23.139C9.57457 23.2198 9.63302 23.3137 9.72028 23.4108C9.91228 23.6113 10.2252 23.8022 10.3603 23.9381C10.551 24.1389 10.823 24.5468 11.1692 24.5854C11.3538 24.608 11.616 24.5303 11.8327 24.4011C12.0247 24.2812 12.1433 24.1131 12.3447 24.0171C12.487 23.9458 12.6391 23.92 12.775 23.8876C13.0566 23.8325 13.3124 23.8236 13.4645 23.8551C13.6975 23.9038 14.2476 24.0721 14.5525 24.0721C14.7907 24.0682 15.0276 24.0357 15.258 23.975C15.7207 23.8391 16.2805 23.606 16.6496 23.5025C16.8663 23.4385 17.041 23.4216 17.2192 23.3828C17.5234 23.3116 17.7789 23.2145 17.9247 23.03C17.8276 22.9167 17.7079 22.742 17.0604 22.7484C16.3259 22.7646 15.4779 23.1723 15.0604 23.2371C14.6429 23.302 14.4618 23.3568 13.9957 23.1885C13.5387 23.0184 13.5236 22.906 13.5236 22.906C13.5236 22.906 13.0438 22.5704 12.8431 21.715C12.6423 20.8595 12.8431 20.2361 13.3642 19.6437C13.5001 19.4916 13.4677 19.3557 13.4677 19.3557C13.4677 19.3557 13.8107 18.893 13.7169 18.4597C13.6134 18.0292 12.9499 18.1167 12.9499 18.1167L9.27036 18.7603V18.7603H9.27014Z" fill="#6E6342"/>
<path fill-rule="evenodd" clip-rule="evenodd" d="M9.82443 20.2012C9.7959 20.2548 9.78248 20.3152 9.7856 20.3759C9.792 20.4631 9.81803 20.5764 10.08 20.8322C10.3034 21.0554 10.2547 21.3045 10.2547 21.3045C10.2547 21.3045 10.3671 21.3271 10.6722 21.1844C10.9118 21.0711 10.9922 21.2719 10.9922 21.2719C11.062 21.2353 11.1375 21.2112 11.2156 21.2006C11.2863 21.1941 11.3547 21.1723 11.4161 21.1366C11.4161 21.1366 11.6977 21.4246 11.9437 21.5605C12.167 21.6804 12.2965 21.7613 12.4066 21.6804C12.5101 21.6092 12.5101 21.4635 12.5035 21.3988C12.4778 21.3392 12.4453 21.2827 12.4066 21.2305C12.3354 21.127 12.2221 21.0071 12.2146 20.9105C12.1984 20.6874 12.3829 20.4218 12.3439 20.3571C12.3049 20.2925 12.1596 20.2763 11.8003 20.4058C11.4283 20.5286 9.82293 20.2018 9.82293 20.2018V20.2018L9.82443 20.2012Z" fill="#39331F"/>
<path fill-rule="evenodd" clip-rule="evenodd" d="M10.6725 21.6478C10.6725 21.6478 10.4882 21.4731 10.5528 20.6251C10.6311 20.624 10.7092 20.6316 10.7858 20.6477C10.7858 20.6477 10.8862 21.3048 10.6725 21.6478Z" fill="#292311"/>
<path fill-rule="evenodd" clip-rule="evenodd" d="M9.35962 18.1137C9.38534 18.0947 9.40919 18.0733 9.43087 18.0497C9.36687 18.1694 9.0714 18.6484 9.31098 19.4025C9.55055 20.1532 10.1524 20.713 10.8935 20.739C11.6346 20.765 12.0241 20.4024 12.4696 19.8588C12.6443 19.6421 12.8451 19.3701 13.023 19.1857C13.2884 18.8975 13.4955 18.8167 13.4955 18.5385C13.4955 17.9689 12.9129 17.7131 12.0553 17.4575C11.1977 17.202 10.4241 17.2335 10.0229 17.4085C9.6314 17.5992 9.46308 17.7999 9.3594 18.114V18.114L9.35962 18.1137Z" fill="#252211"/>
<path fill-rule="evenodd" clip-rule="evenodd" d="M12.1139 21.9028L12.1779 21.8704C12.1779 21.8704 12.1939 21.6144 12.2976 21.6212C12.4011 21.6374 12.4497 21.7735 12.4399 21.822C12.4335 21.8704 12.4077 21.9515 12.304 21.9417C12.1681 21.9449 12.1133 21.9028 12.1133 21.9028H12.1139Z" fill="#3F3824"/>
<path fill-rule="evenodd" clip-rule="evenodd" d="M11.8281 20.8156C11.8281 20.8156 11.8921 20.7929 11.9704 20.8706C12.0344 20.8706 12.3135 20.8382 12.4009 20.8932C12.4884 20.9483 12.5142 20.9967 12.5142 20.9967C12.5142 20.9967 12.1874 21.0679 12.0092 20.9967C11.8281 20.9352 11.8281 20.8156 11.8281 20.8156H11.8281Z" fill="#2D2815"/>
<path fill-rule="evenodd" clip-rule="evenodd" d="M13.264 20.8642C13.264 20.8479 13.0893 20.7283 12.9047 20.6892C12.8723 20.6828 12.8657 20.7054 12.8407 20.7054C12.8245 20.699 12.8181 20.6504 12.8181 20.6504L12.7132 20.7056C12.7132 20.7056 12.697 20.7283 12.752 20.7696C12.8004 20.8085 12.8815 20.8409 12.9041 20.9055C12.9267 20.9702 12.9267 20.9928 12.9365 21.0026C12.9429 21.009 13.0562 21.0026 13.1112 20.9702C13.1663 20.9378 13.27 20.8848 13.2634 20.8635V20.8635L13.264 20.8642Z" fill="#82764F"/>
<path fill-rule="evenodd" clip-rule="evenodd" d="M11.6328 21.5209C11.6328 21.5209 11.665 21.2978 11.882 21.288C12.1051 21.2718 12.1474 21.4885 12.1474 21.4885L12.0179 21.618C12.0179 21.6148 11.9208 21.4789 11.6339 21.5209H11.6328Z" fill="#2D2816"/>
<path fill-rule="evenodd" clip-rule="evenodd" d="M13.0396 20.5599C13.0396 20.5599 12.9197 20.6894 12.6545 20.7283C12.6319 20.6958 12.5832 20.6312 12.6545 20.5277C12.7258 20.4243 12.8066 20.3918 12.8875 20.4241C12.9603 20.4359 13.0197 20.4889 13.0396 20.5599Z" fill="#574F35"/>
<path fill-rule="evenodd" clip-rule="evenodd" d="M13.5275 20.7188C13.5341 20.6864 13.5115 20.68 13.5275 20.6638C13.5435 20.6476 13.6312 20.6154 13.6474 20.6314C13.6538 20.638 13.6474 20.6638 13.6474 20.6954C13.6474 20.7269 13.6474 20.7594 13.6312 20.7826C13.6085 20.8151 13.5439 20.8313 13.5115 20.8217C13.4791 20.8121 13.4727 20.7666 13.4727 20.7577C13.4887 20.7513 13.5275 20.7351 13.5275 20.7188ZM14.082 20.369C14.082 20.3528 14.1371 20.3204 14.1695 20.3204C14.2179 20.3204 14.2179 20.3592 14.2245 20.369C14.2405 20.3754 14.2405 20.3624 14.2568 20.3916C14.273 20.4209 14.2958 20.4725 14.2794 20.5049C14.2629 20.5374 14.1985 20.5598 14.1825 20.5534C14.1599 20.5371 14.0886 20.3916 14.082 20.369V20.369Z" fill="#82764F"/>
<path fill-rule="evenodd" clip-rule="evenodd" d="M12.9688 20.7932C12.9688 20.7932 13.04 20.8092 13.1371 20.8902C13.1046 20.9129 13.056 20.9387 13.056 20.9387C13.056 20.9387 13.0496 20.8642 12.9688 20.793V20.7932Z" fill="#6E6342"/>
<path fill-rule="evenodd" clip-rule="evenodd" d="M12.8072 20.0808C12.791 20.0648 12.8557 20.026 12.8945 20.0324C12.9333 20.0388 12.9495 20.0648 12.9916 20.0712C13.0336 20.0776 13.0402 20.055 13.0556 20.0388C13.0709 20.0225 13.1268 20.0324 13.1364 20.0388C13.1424 20.0459 13.1478 20.0534 13.1526 20.0614C13.154 20.0365 13.1657 20.0133 13.1848 19.9974C13.21 19.9789 13.2422 19.9729 13.2723 19.9812C13.2787 20.0038 13.3111 20.0846 13.3047 20.1008C13.2983 20.1171 13.2013 20.1399 13.1848 20.1235C13.2011 20.1625 13.2723 20.2433 13.2819 20.2593C13.2915 20.2753 13.2107 20.3144 13.1784 20.308C13.1332 20.3048 12.8548 20.1429 12.8064 20.0814L12.8072 20.0808ZM13.2311 19.5433C13.2251 19.527 13.2136 19.5133 13.1986 19.5045C13.176 19.4981 13.1016 19.5045 13.1016 19.5433C13.1016 19.5821 13.1656 19.7993 13.2375 19.9124C13.3185 20.0257 13.3733 20.1193 13.4284 20.1453C13.4642 20.1617 13.5066 20.1475 13.5255 20.1129C13.5319 20.0967 13.5481 19.977 13.5417 19.6954C13.5353 19.4138 13.5255 19.142 13.5092 19.1258C13.493 19.1096 13.4284 19.1098 13.4058 19.142C13.3832 19.1742 13.2375 19.4949 13.2308 19.5433V19.5433H13.2311Z" fill="#585136"/>
<path fill-rule="evenodd" clip-rule="evenodd" d="M12.9455 21.2007C12.9455 21.2007 12.8322 21.1295 12.7221 21.1781C12.6187 21.2268 12.6251 21.4177 12.6251 21.4177C12.6723 21.4362 12.7257 21.4301 12.7676 21.4015C12.8388 21.3531 12.9293 21.2722 12.9455 21.201V21.2007Z" fill="#574F35"/>
<path fill-rule="evenodd" clip-rule="evenodd" d="M13.1578 21.4568C13.1514 21.3928 13.0938 21.3928 13.0938 21.3597C13.1019 21.3272 13.1313 21.3045 13.1648 21.3047C13.1972 21.3047 13.2288 21.3435 13.2685 21.3687C13.3073 21.3913 13.3655 21.4327 13.3719 21.482C13.3783 21.5312 13.3079 21.6663 13.2296 21.6663C13.1514 21.6663 13.1746 21.5206 13.1584 21.4559L13.1578 21.4568ZM13.7845 21.369C13.7845 21.369 13.655 21.4078 13.6646 21.369C13.6742 21.3301 13.7036 21.3205 13.7456 21.3205C13.767 21.2982 13.7957 21.2843 13.8265 21.2815C13.8441 21.2806 13.8614 21.2864 13.8749 21.2977C13.8749 21.2977 13.9624 21.2589 13.9882 21.2815C14.014 21.3041 13.9948 21.3041 14.0108 21.3301C14.0312 21.359 14.0446 21.3922 14.0499 21.4272C14.0499 21.453 13.9528 21.508 13.8749 21.4984C13.7845 21.479 13.8005 21.3852 13.7845 21.369V21.369ZM14.5359 21.2226C14.5359 21.2226 14.5747 21.2452 14.5425 21.2712C14.5199 21.2938 14.4066 21.3352 14.3093 21.3425C14.2123 21.3425 14.125 21.3585 14.125 21.3263C14.125 21.294 14.2059 21.2292 14.2543 21.213C14.274 21.1883 14.3038 21.174 14.3353 21.1742C14.3742 21.1742 14.5261 21.1579 14.5683 21.1515C14.6071 21.1449 14.6396 21.1675 14.6167 21.2C14.6071 21.2226 14.5359 21.2226 14.5359 21.2226V21.2226ZM14.7608 20.2237C14.7608 20.2237 14.7122 20.3272 14.6573 20.3272C14.6023 20.3208 14.6023 20.3046 14.6023 20.2884C14.6023 20.2657 14.6573 20.2075 14.6507 20.1913C14.6347 20.1913 14.5957 20.1913 14.6023 20.1525C14.6023 20.12 14.6573 20.0812 14.7058 20.0885C14.7424 20.0584 14.7879 20.0414 14.8353 20.04C14.8903 20.04 14.9387 20.056 14.9387 20.0885C14.9387 20.1209 14.8747 20.1919 14.8513 20.2084C14.8255 20.2342 14.793 20.251 14.7608 20.2244V20.2237ZM14.021 22.1358C14.021 22.1358 13.957 22.1424 13.957 22.1746C13.957 22.1908 13.973 22.1908 13.9959 22.1812C14.009 22.1805 14.022 22.1783 14.0347 22.1746C14.0411 22.1812 14.0411 22.2134 14.0897 22.2134C14.1297 22.2081 14.1682 22.1949 14.203 22.1746C14.2418 22.1586 14.2743 22.1422 14.2743 22.1106C14.258 22.0556 14.2256 22.0296 14.1772 22.0296C14.1524 22.028 14.1276 22.0336 14.1059 22.0458C14.1059 22.0458 14.0897 22.0133 14.0347 22.0458C13.9796 22.0782 13.986 22.0782 14.0023 22.0944C14.0313 22.1202 14.0217 22.1371 14.0217 22.1371L14.021 22.1358ZM13.6583 22.4723C13.6583 22.4561 13.7391 22.4236 13.7617 22.4335C13.7843 22.4399 13.849 22.5627 13.849 22.5757C13.849 22.592 13.7681 22.6308 13.7357 22.6308C13.7033 22.6308 13.6484 22.5757 13.6484 22.5668C13.6484 22.5604 13.6873 22.5508 13.6873 22.5442C13.6969 22.5282 13.6583 22.4891 13.6583 22.4729V22.4723ZM13.3993 22.0008C13.4155 21.9944 13.4155 21.9782 13.4381 21.962C13.4525 21.9524 13.4704 21.95 13.4868 21.9556C13.4983 21.9349 13.5185 21.9206 13.5418 21.9165C13.5806 21.9101 13.6131 21.9165 13.6058 21.9327C13.6058 21.9814 13.6382 22.0136 13.6382 22.0524C13.6382 22.0912 13.6156 22.1399 13.5348 22.1723C13.4539 22.1949 13.3438 22.1949 13.3276 22.1885C13.3114 22.1821 13.2952 22.1173 13.3114 22.0848C13.3276 22.0524 13.3728 22.017 13.3989 22.0008V22.0008H13.3993Z" fill="#82764F"/>
<path fill-rule="evenodd" clip-rule="evenodd" d="M13.503 22.0225C13.503 22.0225 13.4479 22.0549 13.4479 22.0711C13.443 22.0868 13.4409 22.1031 13.4415 22.1195C13.4415 22.1291 13.5128 22.1131 13.5224 22.1033C13.5256 22.0969 13.503 22.0393 13.503 22.0225Z" fill="#6E6342"/>
<path fill-rule="evenodd" clip-rule="evenodd" d="M13.0218 21.8704C13.054 21.877 13.109 21.8704 13.151 21.8866C13.1835 21.9029 13.2061 21.9353 13.1736 21.9741C13.1412 22.0129 13.1096 22.0712 13.0378 22.0614C12.9569 22.055 12.8792 22.0129 12.8792 21.9805C12.8765 21.9391 12.8905 21.8983 12.9181 21.8672C12.9505 21.8414 12.9665 21.8576 13.0215 21.8704V21.8704H13.0218Z" fill="#585136"/>
<path fill-rule="evenodd" clip-rule="evenodd" d="M12.9851 21.9023C12.9851 21.9023 12.8817 21.9832 12.8556 22.0222C12.8232 22.0611 12.6647 22.2616 12.6163 22.3036C12.6324 22.2752 12.6507 22.2482 12.6711 22.2228C12.6071 22.2637 12.5591 22.3254 12.5352 22.3975C12.4964 22.5174 12.7522 22.582 12.9203 22.6307C13.0884 22.6793 13.1534 22.6947 13.1534 22.6947C13.0916 22.6016 13.0384 22.5031 12.9947 22.4003C12.9307 22.2482 12.8977 22.2319 12.9397 22.1607C12.9721 22.0894 13.0208 22.041 13.0208 21.986C13.0013 21.9348 12.9851 21.9023 12.9851 21.9023Z" fill="#574F35"/>
<path fill-rule="evenodd" clip-rule="evenodd" d="M9.2973 22.1588C9.32086 22.1631 9.345 22.1631 9.36856 22.1588C9.41698 22.1522 9.92194 21.9668 10.4495 22.0001C10.8445 22.024 11.2359 22.0883 11.6177 22.1921C12.2812 22.3668 13.1064 22.713 13.6403 22.9106C13.7826 22.9654 13.9219 23.0627 14.0243 23.1013C14.4322 23.26 14.4482 23.26 14.6878 23.3021C14.9694 23.3409 15.2574 23.247 15.5584 23.1824C15.9273 23.1013 16.5583 23.0625 17.1117 22.9816C17.2906 22.9568 17.4671 22.9168 17.6393 22.862C17.6393 22.862 17.1992 23.3021 16.144 23.4606C15.7175 23.5253 15.2841 23.5308 14.8561 23.4768C14.5195 23.4444 14.2963 23.3957 14.128 23.3473C13.9371 23.2922 13.5454 23.1465 13.0633 23.0273C12.7266 22.9398 12.3512 22.8752 11.9209 22.7943C10.8593 22.6 9.70733 22.3768 9.29688 22.1601L9.2973 22.1588Z" fill="#252211"/>
<path fill-rule="evenodd" clip-rule="evenodd" d="M8.10437 20.1582C7.84837 20.3749 7.5768 20.5821 7.31163 20.7826L6.51227 21.3968C6.24048 21.5973 5.97509 21.8045 5.70309 22.0052C5.43109 22.206 5.15952 22.3967 4.87109 22.5812C5.12709 22.3645 5.39867 22.1637 5.67045 21.9664C5.94224 21.7691 6.22405 21.5756 6.48624 21.3755L7.2856 20.7604C7.56059 20.5599 7.82597 20.3528 8.10437 20.1586V20.1582ZM6.68771 22.4231C6.68771 22.4231 6.97571 22.1836 7.33497 21.8471C7.78147 21.4299 8.32846 20.8957 8.50318 20.7988L6.6875 22.4234L6.68771 22.4231Z" fill="#CFB66C"/>
<path fill-rule="evenodd" clip-rule="evenodd" d="M6.6875 22.4241C6.83001 22.2818 6.98211 22.1427 7.13422 22.0066L7.36718 21.8061C7.43843 21.7421 7.5195 21.6702 7.59054 21.5989C7.73283 21.4566 7.87214 21.3043 8.01443 21.1588C8.08496 21.0857 8.15953 21.0165 8.23779 20.9517C8.27692 20.9171 8.32038 20.8877 8.36707 20.8642C8.40611 20.8416 8.44814 20.8002 8.50297 20.793C8.47075 20.8416 8.43193 20.8642 8.3995 20.9062C8.36067 20.9387 8.32825 20.9775 8.29603 21.0097C8.22478 21.081 8.14393 21.1456 8.07267 21.2105C7.92057 21.34 7.76206 21.4665 7.60995 21.6019C7.45785 21.7374 7.31555 21.8835 7.16323 22.0194C6.99833 22.1587 6.84622 22.2946 6.6875 22.4248V22.4241ZM8.62346 21.1299C8.62346 21.1299 7.56852 22.1624 7.35156 22.3305L8.62346 21.1299Z" fill="#CFB66C"/>
<path fill-rule="evenodd" clip-rule="evenodd" d="M8.62346 21.1289C8.52856 21.2388 8.42681 21.3425 8.31882 21.4395L7.99882 21.7437C7.89535 21.8472 7.79807 21.9509 7.6882 22.0543C7.57492 22.1514 7.47146 22.2463 7.35156 22.3359L7.66218 22.0317C7.76586 21.9283 7.87914 21.841 7.98922 21.7373L8.29983 21.4331C8.4065 21.3265 8.51018 21.2228 8.62346 21.1289V21.1289ZM8.66939 21.6895C8.57215 21.9608 8.45757 22.2257 8.32635 22.4824C8.05456 23.0262 7.64688 23.7057 7.46875 24.0521L8.66939 21.6895Z" fill="#CFB66C"/>
<path fill-rule="evenodd" clip-rule="evenodd" d="M8.674 21.6895C8.674 21.8091 8.64158 21.9128 8.60275 22.0163C8.5649 22.1198 8.52175 22.2214 8.47347 22.3205C8.42483 22.4176 8.36979 22.5212 8.31475 22.6151C8.25971 22.709 8.19507 22.8058 8.14643 22.9031L7.8196 23.4791C7.70632 23.6711 7.59624 23.8642 7.47656 24.0487C7.55742 23.8416 7.6675 23.6474 7.77118 23.4565C7.88446 23.2645 7.98792 23.0725 8.09118 22.8739C8.14159 22.7749 8.18694 22.6734 8.22707 22.5699C8.2755 22.4662 8.32392 22.3691 8.36296 22.2753C8.41139 22.1718 8.45022 22.0745 8.49886 21.9809C8.55368 21.8804 8.59912 21.7833 8.67358 21.6895L8.674 21.6895Z" fill="#CFB66C"/>
<path fill-rule="evenodd" clip-rule="evenodd" d="M9.82541 24.3428C9.82541 24.3428 9.50541 24.7667 9.53741 25.3038C9.62466 25.0225 9.73474 24.5919 9.82541 24.3428ZM10.129 24.7676C10.129 24.7676 10.0157 25.9196 9.92187 26.486C10.0546 25.8313 10.0804 25.8863 10.129 24.7676ZM12.2466 26.5538C12.2466 26.5538 11.7676 27.9618 11.7578 28.3531C11.8615 27.9507 12.062 27.1287 12.2466 26.5527V26.5538Z" fill="#DEC270"/>
<path fill-rule="evenodd" clip-rule="evenodd" d="M13.3672 24.2559C13.3672 24.2559 14.1439 25.5374 14.7265 26.6311C14.5689 26.0807 14.2062 25.0712 13.3672 24.2559Z" fill="#CBAF59"/>
<path fill-rule="evenodd" clip-rule="evenodd" d="M15.457 26.1426C15.8835 26.8964 16.2681 27.6732 16.609 28.4694C16.5444 27.9192 16.3695 26.9776 15.457 26.1426Z" fill="#E3C677"/>
<path fill-rule="evenodd" clip-rule="evenodd" d="M21.5906 28.0316C21.7199 27.9508 21.9757 27.5105 22.199 27.4006C22.4222 27.2873 22.5905 27.2647 22.7912 27.0413C22.9918 26.8082 23.0472 26.6659 23.4869 26.4815C24.102 26.2159 23.6789 25.8729 23.6789 25.8729C23.7467 25.8064 23.8191 25.7448 23.8957 25.6886C24.0544 25.5689 24.2387 25.4232 24.2227 25.1674C24.2001 24.7371 24.1192 24.1125 23.7664 23.75C24.1094 23.6788 24.7663 23.6303 25.1744 23.5269C25.6467 23.407 25.8637 23.2387 25.8637 23.2387C25.8637 23.2387 25.5919 22.7759 26.032 22.31C26.4721 21.8441 26.8314 21.5657 27.0967 21.0445C26.7925 21.0057 26.3287 20.844 25.1452 21.2937C25.2091 21.3238 25.2707 21.3583 25.3297 21.3972C25.3297 21.3972 24.6016 21.5979 24.3362 21.8213C23.8733 22.2127 23.815 22.5332 23.3135 22.7727C22.8119 23.0123 22.307 22.9475 21.8897 23.1416C21.4724 23.3357 21.4108 23.5009 21.2584 23.5721C21.2909 23.6109 21.252 23.6756 21.3135 23.7306C21.2747 23.7856 21.0481 24.1545 20.8183 24.1545C20.841 24.242 21.0351 24.3066 21.0351 24.3066C21.0351 24.3066 20.8928 24.4103 20.5303 24.4361C20.7147 24.6281 20.8896 24.8374 21.3717 25.1416C21.3329 25.2225 21.171 25.3423 21.2358 25.4945C21.3071 25.6466 21.4918 25.8537 22.2293 26.022C21.8539 26.038 21.414 26.1255 20.8213 26.0446C20.2291 25.9734 20.132 25.9314 19.7664 26.022C19.8052 26.0609 19.9087 26.0609 19.9994 26.1643C19.9023 26.1707 19.2939 26.0931 19.0867 26.3651C18.87 26.6465 18.7761 27.1094 18.7923 27.42C18.679 27.475 18.569 27.5721 18.624 27.7729C18.679 27.9736 18.967 28.0382 19.1516 28.1643C19.3359 28.3002 19.3521 28.3486 19.527 28.3164C19.7114 28.2776 19.9831 28.0933 20.1419 28.0933C20.3006 28.0933 20.4136 28.213 20.4136 28.213C20.4136 28.213 20.8442 28.0058 20.8862 28.0446C20.925 28.0835 20.8926 28.3326 20.9346 28.3715C20.9773 28.4007 21.4622 28.1127 21.5917 28.0316H21.5906Z" fill="#ECD592"/>
<path fill-rule="evenodd" clip-rule="evenodd" d="M30.9993 15.0816C28.9766 9.85831 23.9765 8.89062 23.9765 8.89062H9.71115L9.76619 14.2109H12.6072V26.0913H9.71094V31.402H23.5817C26.9246 31.402 29.6043 28.0426 29.6043 28.0426C33.8955 21.9522 30.999 15.0816 30.999 15.0816H30.9993ZM23.6568 24.464C23.6568 24.464 22.5688 26.0337 21.385 26.0337H19.017L18.9609 14.2246H21.9999C21.9999 14.2246 23.4079 14.519 24.3916 17.3054C24.3916 17.3054 25.6957 21.2947 23.6568 24.464V24.464Z" fill="white" fill-opacity="0.8"/>
</svg>
