<svg width="40" height="40" viewBox="0 0 40 40" fill="none" xmlns="http://www.w3.org/2000/svg">
<circle cx="20.1693" cy="19.8333" r="17.8333" fill="white"/>
<path fill-rule="evenodd" clip-rule="evenodd" d="M0 20C0 8.95431 8.95427 0 19.9999 0H20.1161C25.405 0.0153897 30.4712 2.13118 34.2001 5.88191C37.929 9.63264 40.0153 14.7111 39.9998 20C39.9998 31.0457 31.0456 40 19.9999 40C8.95427 40 0 31.0457 0 20ZM18.2592 27.7004L20.3415 20.6786L23.586 19.7585L24.264 17.434L21.0679 18.4026L24.4577 6.87713V6.69311C24.4527 6.5441 24.3886 6.40321 24.2796 6.30147C24.1706 6.19974 24.0256 6.14551 23.8766 6.15074H19.5667C19.2309 6.14039 18.9313 6.36011 18.8403 6.68343L14.8209 20.3396L11.6248 21.3081L10.8984 23.5357L14.0946 22.5672L11.2374 32.3009H28.2834C28.6202 32.3148 28.9218 32.0936 29.0097 31.7682L29.9783 28.4268V28.2428C29.9732 28.0937 29.9091 27.9528 29.8001 27.8511C29.6911 27.7494 29.5462 27.6952 29.3971 27.7004H18.2592Z" fill="#345D9D"/>
</svg>
