<svg width="40" height="40" viewBox="0 0 40 40" fill="none" xmlns="http://www.w3.org/2000/svg">
<circle cx="20" cy="20" r="20" fill="#172852"/>
<path d="M16.4088 9.65019C18.6514 8.81137 21.1756 8.80945 23.4603 9.4989C26.4345 10.422 28.9453 12.6665 30.2571 15.4837C30.6191 16.2861 30.9657 17.123 31.0002 18.0155C29.3283 17.0464 27.4955 16.4183 25.6589 15.8456C22.7211 14.7866 19.6454 14.0512 16.8646 12.5957C16.2173 12.2088 15.3919 11.8124 15.2157 11.0061C15.1448 10.309 15.8822 9.92023 16.4088 9.65019Z" fill="#FFD83D"/>
<path d="M9.63872 16.4301C10.2879 14.6681 11.3528 13.0326 12.7987 11.8203C13.1664 14.8443 14.4533 17.7668 16.5791 19.9654C19.1281 22.614 22.7592 24.24 26.4535 24.1787C27.9205 24.2247 29.3549 23.8857 30.7855 23.6118C29.3779 28.6985 23.803 32.0748 18.6379 31.2628C15.5201 30.8645 12.6416 29.0183 10.9046 26.4118C8.94544 23.5314 8.45134 19.7069 9.63872 16.4301Z" fill="#FFD83D"/>
</svg>
