<svg width="40" height="40" viewBox="0 0 40 40" fill="none" xmlns="http://www.w3.org/2000/svg">
<path d="M39.3971 24.8381C36.726 35.5525 25.8741 42.0731 15.1584 39.4012C4.44722 36.7301 -2.07335 25.8775 0.598971 15.1639C3.26894 4.44838 14.1209 -2.07268 24.8332 0.598468C35.5481 3.26961 42.0683 14.1234 39.3968 24.8383L39.397 24.8381H39.3971Z" fill="#50AF95"/>
<path fill-rule="evenodd" clip-rule="evenodd" d="M22.5328 22.2668V22.2668C22.3914 22.2774 21.6607 22.321 20.0309 22.321C18.7346 22.321 17.8142 22.2821 17.4913 22.2668V22.2668C12.4815 22.0464 8.74219 21.1743 8.74219 20.1302C8.74219 19.086 12.4815 18.2151 17.4913 17.9912V21.3982C17.8189 21.4218 18.7569 21.4772 20.0533 21.4772C21.6089 21.4772 22.3879 21.4124 22.5281 21.3994V17.9936C27.5272 18.2163 31.2583 19.0884 31.2583 20.1302C31.2583 21.1719 27.5284 22.044 22.5281 22.2656V22.2656L22.5328 22.2668ZM22.5309 17.6412V14.5925H29.5075V9.94336H10.5127V14.5925H17.4881V17.64C11.8184 17.9005 7.55469 19.0236 7.55469 20.3694C7.55469 21.7152 11.8184 22.8372 17.4881 23.0988V32.8684H22.5297V23.0952C28.1864 22.8348 32.4431 21.7129 32.4431 20.3682C32.4431 19.0236 28.1899 17.9017 22.5297 17.64V17.64L22.5309 17.6412Z" fill="white"/>
</svg>
