<svg width="40" height="40" viewBox="0 0 40 40" fill="none" xmlns="http://www.w3.org/2000/svg">
<path d="M20 40C31.0834 40 40 31.0834 40 20C40 8.9166 31.0834 0 20 0C8.9166 0 0 8.9166 0 20C0 31.0834 8.9166 40 20 40Z" fill="#2775CA"/>
<path d="M25.5025 23.166C25.5025 20.2494 23.7525 19.2494 20.2525 18.8328C17.7525 18.4994 17.2525 17.8328 17.2525 16.666C17.2525 15.4992 18.0859 14.7494 19.7525 14.7494C21.2525 14.7494 22.0859 15.2494 22.5025 16.4994C22.5859 16.7494 22.8359 16.916 23.0859 16.916H24.4191C24.7525 16.916 25.0025 16.666 25.0025 16.3328V16.2494C24.6691 14.416 23.1691 12.9994 21.2525 12.8328V10.8328C21.2525 10.4994 21.0025 10.2494 20.5859 10.166H19.3359C19.0025 10.166 18.7525 10.416 18.6691 10.8328V12.7494C16.1691 13.0828 14.5859 14.7494 14.5859 16.8328C14.5859 19.5828 16.2525 20.666 19.7525 21.0828C22.0859 21.4994 22.8359 21.9994 22.8359 23.3328C22.8359 24.6662 21.6691 25.5828 20.0859 25.5828C17.9191 25.5828 17.1691 24.666 16.9191 23.416C16.8359 23.0828 16.5859 22.916 16.3359 22.916H14.9191C14.5859 22.916 14.3359 23.166 14.3359 23.4994V23.5828C14.6691 25.666 16.0025 27.166 18.7525 27.5828V29.5828C18.7525 29.916 19.0025 30.166 19.4191 30.2494H20.6691C21.0025 30.2494 21.2525 29.9994 21.3359 29.5828V27.5828C23.8359 27.166 25.5025 25.416 25.5025 23.166V23.166Z" fill="white"/>
<path fill-rule="evenodd" clip-rule="evenodd" d="M8.33502 15.9172C5.91822 22.334 9.25163 29.584 15.7516 31.9172C16.0016 32.084 16.2516 32.4172 16.2516 32.6672V33.834C16.2516 34.0006 16.2516 34.084 16.1682 34.1672C16.085 34.5006 15.7516 34.6672 15.4182 34.5006C10.7516 33.0006 7.16822 29.4172 5.66822 24.7506C3.16822 16.834 7.50163 8.41718 15.4182 5.91718C15.5016 5.83398 15.6682 5.83398 15.7516 5.83398C16.085 5.91718 16.2516 6.16718 16.2516 6.50058V7.66718C16.2516 8.08398 16.085 8.33398 15.7516 8.50058C12.335 9.75058 9.58502 12.4172 8.33502 15.9172ZM23.8334 6.25032C23.9166 5.91692 24.25 5.75032 24.5834 5.91692C29.1666 7.41692 32.8334 11.0003 34.3334 15.7503C36.8334 23.6669 32.5 32.0837 24.5834 34.5837C24.5 34.6669 24.3334 34.6669 24.25 34.6669C23.9166 34.5837 23.75 34.3337 23.75 34.0003V32.8337C23.75 32.4169 23.9166 32.1669 24.25 32.0003C27.6666 30.7503 30.4166 28.0837 31.6666 24.5837C34.0834 18.1669 30.75 10.9169 24.25 8.58372C24 8.41692 23.75 8.08372 23.75 7.75032V6.58372C23.75 6.41692 23.75 6.33372 23.8334 6.25032Z" fill="white"/>
</svg>
