<svg xmlns="http://www.w3.org/2000/svg" viewBox="0 0 337 337">
  <g id="Group_66" data-name="Group 66" transform="translate(-1194.5 -3139.5)">
    <circle id="Ellipse_17" data-name="Ellipse 17" cx="168" cy="168" r="168" transform="translate(1195 3140)"
      fill="none" stroke="#707070" stroke-width="1" stroke-dasharray="4 4" opacity="0.1" />
    <circle id="Ellipse_18" data-name="Ellipse 18" cx="128" cy="128" r="128" transform="translate(1235 3180)"
      fill="none" stroke="#707070" stroke-width="1" stroke-dasharray="4 4" opacity="0.2" />
    <circle id="Ellipse_19" data-name="Ellipse 19" cx="88" cy="88" r="88" transform="translate(1275 3220)" fill="none"
      stroke="#707070" stroke-width="1" stroke-dasharray="4 4" opacity="0.2" />
    <circle id="Ellipse_20" data-name="Ellipse 20" cx="64" cy="64" r="64" transform="translate(1299 3244)"
      fill="#07f" />
    <rect id="Rectangle_1410" data-name="Rectangle 1410" width="23.814" height="23.814"
      transform="translate(1331 3306.81)" fill="#fff" />
    <path id="Path_585" data-name="Path 585" d="M160.819,146.6v21.209l23.07,23.07h17.116V167.437L180.168,146.6Z"
      transform="translate(1194 3139)" fill="#fff" />
    <circle id="Ellipse_21" data-name="Ellipse 21" cx="24" cy="24" r="24" transform="translate(1226 3340)"
      fill="#ebf4ff" />
    <path id="Path_586" data-name="Path 586" d="M55.928,210.6l-.191.648v18.817l.191.191,8.734-5.163Z"
      transform="translate(1194 3139)" fill="#479dff" />
    <path id="Path_587" data-name="Path 587" d="M55.931,210.6,47.2,225.093l8.735,5.163V210.6Z"
      transform="translate(1194 3139)" fill="#99c9ff" />
    <path id="Path_588" data-name="Path 588" d="M55.929,231.909l-.108.131v6.7l.108.314,8.74-12.309Z"
      transform="translate(1194 3139)" fill="#005fcc" />
    <path id="Path_589" data-name="Path 589" d="M55.931,239.058V231.91L47.2,226.75Z" transform="translate(1194 3139)"
      fill="#99c9ff" />
    <path id="Path_590" data-name="Path 590" d="M55.934,230.255l8.734-5.163-8.734-3.97Z"
      transform="translate(1194 3139)" fill="#70b3ff" />
    <path id="Path_591" data-name="Path 591" d="M47.2,225.092l8.735,5.163v-9.133Z" transform="translate(1194 3139)"
      fill="#005fcc" />
    <path id="Path_592" data-name="Path 592"
      d="M79.281,126.806A23.992,23.992,0,1,1,61.8,97.718a23.993,23.993,0,0,1,17.477,29.088h0Z"
      transform="translate(1194 3139)" fill="#f7931a" />
    <path id="Path_593" data-name="Path 593"
      d="M79.281,126.806l3.881.967,1.238-4.967h-5.12ZM50.195,144.281l-.968,3.882h0ZM32.724,115.2l3.881.968h0ZM61.8,97.718l-.968,3.881h0Zm17.476,29.088-3.881-.968-3.489,13.995,10.2-10.2Zm0,0v-4H77.624l-1.172,1.171Zm-3.881-.968A19.993,19.993,0,0,1,51.163,140.4l-1.936,7.763a28,28,0,0,0,33.935-20.39ZM51.163,140.4A19.992,19.992,0,0,1,36.6,116.165l-7.762-1.936a27.993,27.993,0,0,0,20.385,33.934ZM36.6,116.164A19.991,19.991,0,0,1,60.837,101.6l1.935-7.762a27.99,27.99,0,0,0-33.93,20.393ZM60.837,101.6A20,20,0,0,1,75.4,125.838l7.762,1.936a28,28,0,0,0-20.39-33.937Zm21.272,28.035h0l-5.657-5.657h0Zm-2.828,1.172h0v-8h0Z"
      transform="translate(1194 3139)" fill="#fff" />
    <path id="Path_594" data-name="Path 594"
      d="M66.584,117.581c.478-3.194-1.954-4.911-5.279-6.056l1.079-4.327-2.634-.656-1.05,4.213c-.692-.173-1.4-.336-2.11-.5l1.058-4.24-2.632-.657-1.079,4.325c-.573-.13-1.136-.259-1.682-.395l0-.014-3.632-.906-.7,2.812s1.954.448,1.913.476a1.4,1.4,0,0,1,1.227,1.532l-1.229,4.928a2.241,2.241,0,0,1,.274.088l-.077-.019h0l-.2-.05-1.722,6.9a.958.958,0,0,1-1.207.625c.026.039-1.914-.477-1.914-.477l-1.308,3.014,3.427.855c.375.094.746.191,1.113.286h0c.257.067.511.134.764.2L47.9,133.92l2.631.657,1.079-4.33c.719.2,1.416.375,2.1.545L52.63,135.1l2.634.656,1.09-4.368c4.491.85,7.868.507,9.289-3.555,1.145-3.27-.057-5.156-2.42-6.386a4.2,4.2,0,0,0,3.363-3.867h0Zm-6.017,8.437c-.747,3-5.443,1.76-7.592,1.193-.193-.051-.366-.1-.513-.134l1.446-5.8c.18.045.4.094.647.15h0c2.223.5,6.777,1.521,6.012,4.588ZM55,118.74c1.792.478,5.7,1.521,6.38-1.206h0c.695-2.789-3.1-3.63-4.958-4.041-.209-.046-.393-.087-.543-.124l-1.311,5.258C54.69,118.658,54.835,118.7,55,118.74Z"
      transform="translate(1194 3139)" fill="#fff" fill-rule="evenodd" />
    <path id="Path_595" data-name="Path 595" d="M287,147a26,26,0,1,0-26-26A25.942,25.942,0,0,0,287,147Z"
      transform="translate(1194 3139)" fill="#2775ca" stroke="#fff" stroke-width="4" />
    <path id="Path_596" data-name="Path 596"
      d="M293.6,124.8c0-3.5-2.1-4.7-6.3-5.2-3-.4-3.6-1.2-3.6-2.6s1-2.3,3-2.3c1.8,0,2.8.6,3.3,2.1a.752.752,0,0,0,.7.5h1.6a.684.684,0,0,0,.7-.7v-.1a5,5,0,0,0-4.5-4.1V110c0-.4-.3-.7-.8-.8h-1.5c-.4,0-.7.3-.8.8v2.3c-3,.4-4.9,2.4-4.9,4.9,0,3.3,2,4.6,6.2,5.1,2.8.5,3.7,1.1,3.7,2.7s-1.4,2.7-3.3,2.7c-2.6,0-3.5-1.1-3.8-2.6a.73.73,0,0,0-.7-.6h-1.7a.684.684,0,0,0-.7.7v.1c.4,2.5,2,4.3,5.3,4.8v2.4c0,.4.3.7.8.8h1.5c.4,0,.7-.3.8-.8v-2.4C291.6,129.6,293.6,127.5,293.6,124.8Z"
      transform="translate(1194 3139)" fill="#fff" />
    <path id="Path_597" data-name="Path 597"
      d="M273,116.1a14.892,14.892,0,0,0,8.9,19.2,1.332,1.332,0,0,1,.6.9v1.4c0,.2,0,.3-.1.4a.608.608,0,0,1-.9.4,18,18,0,0,1,0-34.3.6.6,0,0,1,.4-.1.76.76,0,0,1,.6.8v1.4a1,1,0,0,1-.6,1A14.793,14.793,0,0,0,273,116.1Zm18.6-11.6a.608.608,0,0,1,.9-.4,18.072,18.072,0,0,1,0,34.4.6.6,0,0,1-.4.1.76.76,0,0,1-.6-.8v-1.4a1,1,0,0,1,.6-1,14.964,14.964,0,0,0,0-28.1,1.326,1.326,0,0,1-.6-1v-1.4C291.5,104.7,291.5,104.6,291.6,104.5Z"
      transform="translate(1194 3139)" fill="#fff" fill-rule="evenodd" />
    <circle id="Ellipse_22" data-name="Ellipse 22" cx="26" cy="26" r="26" transform="translate(1455 3338)"
      fill="#2a5ada" stroke="#fff" stroke-width="4" />
    <path id="Path_598" data-name="Path 598"
      d="M283.939,210.687,286.874,209l2.936,1.688,8,4.624L300.746,217v16l-2.936,1.688-7.926,4.624L286.948,241l-2.936-1.688-8.073-4.624L273,233V217l2.936-1.688Zm-5.067,9.688v9.248l8,4.624,8-4.624v-9.248l-8-4.623Z"
      transform="translate(1194 3139)" fill="#fff" fill-rule="evenodd" />
    <path id="Path_599" data-name="Path 599"
      d="M191.277,46.806A23.992,23.992,0,1,1,173.8,17.718a23.994,23.994,0,0,1,17.477,29.087h0Z"
      transform="translate(1194 3139)" fill="#50af95" />
    <path id="Path_600" data-name="Path 600"
      d="M191.277,46.806l3.881.968,1.238-4.968h-5.119ZM162.19,64.282l-.968,3.881h0ZM144.719,35.2l3.881.968h0ZM173.8,17.718l-.968,3.881h0Zm17.476,29.088-3.881-.968-3.489,13.995,10.2-10.2Zm0,0v-4H189.62l-1.172,1.172Zm-3.881-.968A19.993,19.993,0,0,1,163.158,60.4l-1.936,7.762a27.994,27.994,0,0,0,33.936-20.389ZM163.158,60.4A19.993,19.993,0,0,1,148.6,36.165l-7.762-1.936a27.992,27.992,0,0,0,20.384,33.934ZM148.6,36.164A19.991,19.991,0,0,1,172.832,21.6l1.936-7.762A27.992,27.992,0,0,0,140.837,34.23ZM172.832,21.6A20,20,0,0,1,187.4,45.838l7.762,1.935a28,28,0,0,0-20.39-33.937ZM194.1,49.634h0l-5.657-5.657h0Zm-2.829,1.171h0v-8h0Z"
      transform="translate(1194 3139)" fill="#fff" />
    <path id="Path_601" data-name="Path 601"
      d="M171.039,43.72c-.17.013-1.046.065-3,.065-1.556,0-2.66-.047-3.048-.065-6.011-.264-10.5-1.311-10.5-2.564s4.488-2.3,10.5-2.567v4.088c.393.028,1.519.095,3.075.095,1.866,0,2.8-.078,2.97-.093V38.592c6,.267,10.476,1.314,10.476,2.564s-4.476,2.3-10.476,2.563Zm0-5.551V34.511h8.372V28.932H156.615v5.579h8.371v3.657c-6.8.313-11.921,1.66-11.921,3.275s5.117,2.961,11.921,3.275V56.442h6.049V44.714c6.788-.313,11.9-1.659,11.9-3.272s-5.1-2.96-11.9-3.274Z"
      transform="translate(1194 3139)" fill="#fff" fill-rule="evenodd" />
  </g>
</svg>