<svg viewBox="0 0 32 32" fill="none" xmlns="http://www.w3.org/2000/svg">
  <circle cx="16" cy="16" r="16" fill="#333745" />
  <path
    d="M21.4705 8H14.0877V17.9082H23.996V10.5779C24 9.18608 22.8623 8 21.4705 8ZM11.8205 8H10.5819C9.19012 8 8 9.13364 8 10.5819V11.8205H11.8205V8ZM8 14.1402H11.8205V17.9607H8V14.1402ZM20.1795 24.0484H21.4181C22.8099 24.0484 24 22.9148 24 21.4665V20.232H20.1795V24.0484ZM14.0877 20.232H17.9082V24.0524H14.0877V20.232ZM8 20.232V21.4705C8 22.8623 9.13364 24.0524 10.5819 24.0524H11.8205V20.232H8Z"
    fill="white" />
</svg>