<svg viewBox="0 0 16 16" fill="none" xmlns="http://www.w3.org/2000/svg">
  <path d="M15.2026 0.799946L8.95947 5.45621L10.114 2.70908L15.2026 0.799946Z" fill="#E2761B" />
  <path
    d="M0.790171 0.799946L6.98311 5.50032L5.88507 2.70908L0.790171 0.799946ZM12.9564 11.5932L11.2937 14.1513L14.8513 15.1342L15.8741 11.6499L12.9564 11.5932ZM0.131348 11.6499L1.14782 15.1342L4.70547 14.1513L3.04272 11.5932L0.131348 11.6499Z"
    fill="#E4761B" />
  <path
    d="M4.50553 7.27077L3.51416 8.77665L7.04671 8.93417L6.92122 5.12221L4.50553 7.27077ZM11.4891 7.27077L9.042 5.0781L8.96043 8.93417L12.4867 8.77665L11.4891 7.27077ZM4.70632 14.1512L6.8271 13.1116L4.99494 11.675L4.70632 14.1512ZM9.16749 13.1116L11.2945 14.1512L10.9996 11.675L9.16749 13.1116Z"
    fill="#E4761B" />
  <path
    d="M11.2944 14.1513L9.16738 13.1117L9.33679 14.5042L9.31797 15.0902L11.2944 14.1513ZM4.70621 14.1513L6.68268 15.0902L6.67013 14.5042L6.82699 13.1117L4.70621 14.1513Z"
    fill="#D7C1B3" />
  <path
    d="M6.71326 10.7553L4.94385 10.2324L6.19247 9.65899L6.71326 10.7553ZM9.27953 10.7553L9.80032 9.65899L11.0552 10.2324L9.27953 10.7553Z"
    fill="#233447" />
  <path
    d="M4.7062 14.1515L5.00738 11.5934L3.04346 11.6501L4.7062 14.1515ZM10.9933 11.5934L11.2944 14.1515L12.9572 11.6501L10.9933 11.5934ZM12.4866 8.77691L8.96032 8.93443L9.2866 10.7554L9.80738 9.65902L11.0623 10.2324L12.4866 8.77691ZM4.94463 10.2324L6.19954 9.65902L6.71405 10.7554L7.0466 8.93443L3.51405 8.77691L4.94463 10.2324Z"
    fill="#CD6116" />
  <path
    d="M3.51416 8.77691L4.99494 11.6753L4.94475 10.2324L3.51416 8.77691ZM11.0624 10.2324L10.9996 11.6753L12.4867 8.77691L11.0624 10.2324ZM7.04671 8.93443L6.71416 10.7554L7.12828 12.9039L7.22239 10.0749L7.04671 8.93443ZM8.96043 8.93443L8.79102 10.0686L8.86632 12.9039L9.28671 10.7554L8.96043 8.93443Z"
    fill="#E4751F" />
  <path
    d="M9.28581 10.7554L8.86542 12.9039L9.16659 13.1119L10.9987 11.6753L11.0615 10.2324L9.28581 10.7554ZM4.94385 10.2324L4.99404 11.6753L6.8262 13.1119L7.12738 12.9039L6.71326 10.7554L4.94385 10.2324Z"
    fill="#F6851B" />
  <path
    d="M9.31797 15.09L9.33679 14.504L9.17993 14.3654H6.81444L6.67013 14.504L6.68268 15.09L4.70621 14.1512L5.3964 14.7183L6.79562 15.6949H9.19875L10.6042 14.7183L11.2944 14.1512L9.31797 15.09Z"
    fill="#C0AD9E" />
  <path
    d="M9.16767 13.1118L8.86649 12.9039H7.12845L6.82727 13.1118L6.67041 14.5043L6.81472 14.3656H9.18022L9.33708 14.5043L9.16767 13.1118Z"
    fill="#161616" />
  <path
    d="M15.4665 5.75865L15.9998 3.18794L15.203 0.799946L9.16689 5.29869L11.4885 7.27083L14.77 8.23485L15.4979 7.38424L15.1841 7.15742L15.6861 6.69746L15.2971 6.39502L15.799 6.01068L15.4665 5.75865ZM-0.000167847 3.18794L0.533166 5.75865L0.194342 6.01068L0.696303 6.39502L0.313558 6.69746L0.815518 7.15742L0.501793 7.38424L1.22336 8.23485L4.50493 7.27083L6.8265 5.29869L0.790421 0.799946L-0.000167847 3.18794Z"
    fill="#763D16" />
  <path
    d="M14.7698 8.23473L11.4882 7.27071L12.4859 8.7766L10.9988 11.6749L12.9564 11.6497H15.8741L14.7698 8.23473ZM4.50468 7.27071L1.22311 8.23473L0.131348 11.6497H3.04272L4.99409 11.6749L3.51331 8.7766L4.50468 7.27071ZM8.95958 8.93412L9.16664 5.29858L10.1204 2.70896H5.88507L6.82625 5.29858L7.04586 8.93412L7.12115 10.0809L7.12743 12.9036H8.86547L8.87801 10.0809L8.95958 8.93412Z"
    fill="#F6851B" />
</svg>