<svg viewBox="0 0 32 32" fill="none" xmlns="http://www.w3.org/2000/svg">
  <circle cx="16" cy="16" r="16" fill="#172852" />
  <path
    d="M13.1271 7.72021C14.9212 7.04915 16.9405 7.04762 18.7683 7.59918C21.1477 8.33765 23.1562 10.1333 24.2057 12.387C24.4953 13.029 24.7726 13.6985 24.8002 14.4124C23.4627 13.6372 21.9964 13.1347 20.5271 12.6766C18.1769 11.8293 15.7163 11.241 13.4917 10.0766C12.9739 9.76711 12.3135 9.44996 12.1726 8.80494C12.1159 8.24726 12.7057 7.93624 13.1271 7.72021Z"
    fill="#FFD83D" />
  <path
    d="M7.711 13.1441C8.23038 11.7346 9.08223 10.4262 10.239 9.45633C10.5331 11.8755 11.5627 14.2135 13.2633 15.9724C15.3025 18.0913 18.2074 19.3921 21.1628 19.3431C22.3364 19.3798 23.4839 19.1086 24.6284 18.8895C23.5023 22.9588 19.0424 25.66 14.9103 25.0103C12.4161 24.6917 10.1133 23.2147 8.72372 21.1295C7.15638 18.8252 6.7611 15.7656 7.711 13.1441Z"
    fill="#FFD83D" />
</svg>