<svg viewBox="0 0 12 14" fill="none" xmlns="http://www.w3.org/2000/svg">
  <path
    d="M9.57714 7.43776C9.59681 9.55643 11.4358 10.2615 11.4561 10.2704C11.4406 10.3201 11.1623 11.2751 10.4873 12.2616C9.90375 13.1145 9.29816 13.9642 8.34414 13.9818C7.40673 13.9991 7.1053 13.4259 6.03356 13.4259C4.96215 13.4259 4.62725 13.9642 3.73988 13.9991C2.81901 14.0339 2.11776 13.0769 1.52942 12.2271C0.327169 10.489 -0.591599 7.31554 0.642074 5.17343C1.25494 4.10964 2.35017 3.43601 3.53894 3.41874C4.44321 3.40149 5.29671 4.0271 5.84952 4.0271C6.40199 4.0271 7.43917 3.27475 8.52956 3.38524C8.98603 3.40424 10.2674 3.56963 11.0901 4.77395C11.0238 4.81505 9.56124 5.6665 9.57714 7.43776ZM7.81538 2.23531C8.30427 1.64352 8.63332 0.819699 8.54356 0C7.83885 0.0283232 6.9867 0.469596 6.48123 1.06106C6.02824 1.58483 5.63151 2.42315 5.73856 3.22662C6.52403 3.28739 7.32646 2.82747 7.81538 2.23531Z"
    fill="black" />
</svg>