<svg viewBox="0 0 153 28" fill="none" xmlns="http://www.w3.org/2000/svg">
  <mask id="path-1-outside-1_219_2131" maskUnits="userSpaceOnUse" x="47.6929" y="1.01416" width="105" height="27"
    fill="black">
    <rect fill="white" x="47.6929" y="1.01416" width="105" height="27" />
    <path
      d="M54.9806 21.7194C61.128 21.7194 64.8613 17.7615 64.8613 11.8949C64.8613 6.00013 61.128 2.0703 54.9806 2.0703H48.6929V21.7194H54.9806ZM51.135 4.31592H54.9806C59.7525 4.31592 62.3631 7.29136 62.3631 11.8949C62.3631 16.4703 59.7525 19.4738 54.9806 19.4738H51.135V4.31592Z" />
    <path
      d="M74.196 21.8879C77.5082 21.8879 79.8661 19.7826 80.4276 16.9194H78.0977C77.6205 18.7721 76.0486 19.8387 74.0275 19.8387C71.3047 19.8387 69.5925 17.93 69.5082 15.2072V15.0107H80.624C80.6521 14.6738 80.6802 14.337 80.6802 14.0282C80.5679 9.78961 77.9293 7.23522 73.8872 7.23522C69.8451 7.23522 67.0942 10.2107 67.0942 14.5615C67.0942 18.9405 69.9012 21.8879 74.196 21.8879ZM69.6486 13.1019C69.8732 10.7721 71.81 9.25627 73.9153 9.25627C76.3012 9.25627 77.9854 10.6317 78.21 13.1019H69.6486Z" />
    <path
      d="M81.6265 9.5089H84.2089V21.7194H86.5107V9.5089H90.5528V7.40364H86.5107V5.7475C86.5107 4.65276 86.9317 4.17557 88.0826 4.17557H90.5528V2.0703H87.9423C85.2756 2.0703 84.2089 3.27732 84.2089 5.80364V7.40364H81.6265V9.5089Z" />
    <path
      d="M93.3947 4.9896C94.2368 4.9896 94.8824 4.37206 94.8824 3.50188C94.8824 2.63171 94.2368 2.01416 93.3947 2.01416C92.5526 2.01416 91.9069 2.63171 91.9069 3.50188C91.9069 4.37206 92.5526 4.9896 93.3947 4.9896ZM92.2157 21.7194H94.5175V7.40364H92.2157V21.7194Z" />
    <path
      d="M97.0813 17.0036C97.1374 20.1475 99.6918 21.8879 103.397 21.8879C106.569 21.8879 109.123 20.2317 109.123 17.5651C109.123 14.3931 106.513 13.7756 103.257 13.3826C101.18 13.13 99.6638 12.9335 99.6638 11.3615C99.6638 10.0422 101.011 9.20013 103.004 9.20013C104.969 9.20013 106.316 10.2949 106.485 11.7545H108.843C108.618 8.77908 106.26 7.26329 103.004 7.23522C99.776 7.20715 97.3901 8.91943 97.3901 11.53C97.3901 14.5054 99.9445 15.151 103.144 15.544C105.278 15.7966 106.85 15.937 106.85 17.7335C106.85 19.0528 105.418 19.923 103.397 19.923C101.011 19.923 99.5234 18.6879 99.4392 17.0036H97.0813Z" />
    <path
      d="M118.893 7.23522C116.478 7.23522 114.935 8.3861 113.98 9.7054L113.671 7.40364H111.678V27.3335H113.98V19.53C114.85 20.9054 116.478 21.8879 118.893 21.8879C122.85 21.8879 125.77 18.9405 125.77 14.5615C125.77 9.90189 122.85 7.23522 118.893 7.23522ZM118.668 19.8387C115.861 19.8387 113.952 17.6493 113.952 14.5054C113.952 11.4457 115.861 9.28434 118.668 9.28434C121.503 9.28434 123.412 11.4457 123.412 14.5615C123.412 17.6773 121.503 19.8387 118.668 19.8387Z" />
    <path
      d="M134.996 21.8879C139.179 21.8879 142.098 18.9124 142.098 14.5615C142.098 10.2107 139.179 7.23522 134.996 7.23522C130.814 7.23522 127.895 10.2107 127.895 14.5615C127.895 18.9124 130.814 21.8879 134.996 21.8879ZM134.996 19.8387C132.161 19.8387 130.253 17.6212 130.253 14.5615C130.253 11.5019 132.161 9.28434 134.996 9.28434C137.832 9.28434 139.74 11.5019 139.74 14.5615C139.74 17.6212 137.832 19.8387 134.996 19.8387Z" />
    <path
      d="M145.64 17.9861C145.64 20.5124 146.622 21.7194 149.373 21.7194H151.871V19.6142H149.598C148.363 19.6142 147.942 19.1651 147.942 17.958V9.5089H151.647V7.40364H147.942V3.3896H145.64V7.40364H143.057V9.5089H145.64V17.9861Z" />
  </mask>
  <path
    d="M54.9806 21.7194C61.128 21.7194 64.8613 17.7615 64.8613 11.8949C64.8613 6.00013 61.128 2.0703 54.9806 2.0703H48.6929V21.7194H54.9806ZM51.135 4.31592H54.9806C59.7525 4.31592 62.3631 7.29136 62.3631 11.8949C62.3631 16.4703 59.7525 19.4738 54.9806 19.4738H51.135V4.31592Z"
    fill="#121315" />
  <path
    d="M74.196 21.8879C77.5082 21.8879 79.8661 19.7826 80.4276 16.9194H78.0977C77.6205 18.7721 76.0486 19.8387 74.0275 19.8387C71.3047 19.8387 69.5925 17.93 69.5082 15.2072V15.0107H80.624C80.6521 14.6738 80.6802 14.337 80.6802 14.0282C80.5679 9.78961 77.9293 7.23522 73.8872 7.23522C69.8451 7.23522 67.0942 10.2107 67.0942 14.5615C67.0942 18.9405 69.9012 21.8879 74.196 21.8879ZM69.6486 13.1019C69.8732 10.7721 71.81 9.25627 73.9153 9.25627C76.3012 9.25627 77.9854 10.6317 78.21 13.1019H69.6486Z"
    fill="#121315" />
  <path
    d="M81.6265 9.5089H84.2089V21.7194H86.5107V9.5089H90.5528V7.40364H86.5107V5.7475C86.5107 4.65276 86.9317 4.17557 88.0826 4.17557H90.5528V2.0703H87.9423C85.2756 2.0703 84.2089 3.27732 84.2089 5.80364V7.40364H81.6265V9.5089Z"
    fill="#121315" />
  <path
    d="M93.3947 4.9896C94.2368 4.9896 94.8824 4.37206 94.8824 3.50188C94.8824 2.63171 94.2368 2.01416 93.3947 2.01416C92.5526 2.01416 91.9069 2.63171 91.9069 3.50188C91.9069 4.37206 92.5526 4.9896 93.3947 4.9896ZM92.2157 21.7194H94.5175V7.40364H92.2157V21.7194Z"
    fill="#121315" />
  <path
    d="M97.0813 17.0036C97.1374 20.1475 99.6918 21.8879 103.397 21.8879C106.569 21.8879 109.123 20.2317 109.123 17.5651C109.123 14.3931 106.513 13.7756 103.257 13.3826C101.18 13.13 99.6638 12.9335 99.6638 11.3615C99.6638 10.0422 101.011 9.20013 103.004 9.20013C104.969 9.20013 106.316 10.2949 106.485 11.7545H108.843C108.618 8.77908 106.26 7.26329 103.004 7.23522C99.776 7.20715 97.3901 8.91943 97.3901 11.53C97.3901 14.5054 99.9445 15.151 103.144 15.544C105.278 15.7966 106.85 15.937 106.85 17.7335C106.85 19.0528 105.418 19.923 103.397 19.923C101.011 19.923 99.5234 18.6879 99.4392 17.0036H97.0813Z"
    fill="#121315" />
  <path
    d="M118.893 7.23522C116.478 7.23522 114.935 8.3861 113.98 9.7054L113.671 7.40364H111.678V27.3335H113.98V19.53C114.85 20.9054 116.478 21.8879 118.893 21.8879C122.85 21.8879 125.77 18.9405 125.77 14.5615C125.77 9.90189 122.85 7.23522 118.893 7.23522ZM118.668 19.8387C115.861 19.8387 113.952 17.6493 113.952 14.5054C113.952 11.4457 115.861 9.28434 118.668 9.28434C121.503 9.28434 123.412 11.4457 123.412 14.5615C123.412 17.6773 121.503 19.8387 118.668 19.8387Z"
    fill="#121315" />
  <path
    d="M134.996 21.8879C139.179 21.8879 142.098 18.9124 142.098 14.5615C142.098 10.2107 139.179 7.23522 134.996 7.23522C130.814 7.23522 127.895 10.2107 127.895 14.5615C127.895 18.9124 130.814 21.8879 134.996 21.8879ZM134.996 19.8387C132.161 19.8387 130.253 17.6212 130.253 14.5615C130.253 11.5019 132.161 9.28434 134.996 9.28434C137.832 9.28434 139.74 11.5019 139.74 14.5615C139.74 17.6212 137.832 19.8387 134.996 19.8387Z"
    fill="#121315" />
  <path
    d="M145.64 17.9861C145.64 20.5124 146.622 21.7194 149.373 21.7194H151.871V19.6142H149.598C148.363 19.6142 147.942 19.1651 147.942 17.958V9.5089H151.647V7.40364H147.942V3.3896H145.64V7.40364H143.057V9.5089H145.64V17.9861Z"
    fill="#121315" />
  <path
    d="M48.6929 2.0703V1.8703H48.4929V2.0703H48.6929ZM48.6929 21.7194H48.4929V21.9194H48.6929V21.7194ZM51.135 4.31592V4.11592H50.935V4.31592H51.135ZM51.135 19.4738H50.935V19.6738H51.135V19.4738ZM80.4276 16.9194L80.6238 16.9579L80.6706 16.7194H80.4276V16.9194ZM78.0977 16.9194V16.7194H77.9427L77.904 16.8696L78.0977 16.9194ZM69.5082 15.2072H69.3081L69.3083 15.2133L69.5082 15.2072ZM69.5082 15.0107V14.8107H69.3082V15.0107H69.5082ZM80.624 15.0107V15.2107H80.8081L80.8234 15.0273L80.624 15.0107ZM80.6802 14.0282H80.8803L80.8801 14.0229L80.6802 14.0282ZM69.6486 13.1019L69.4495 13.0827L69.4284 13.3019H69.6486V13.1019ZM78.21 13.1019V13.3019H78.429L78.4092 13.0838L78.21 13.1019ZM81.6265 9.5089H81.4265V9.7089H81.6265V9.5089ZM84.2089 9.5089H84.4089V9.3089H84.2089V9.5089ZM84.2089 21.7194H84.0089V21.9194H84.2089V21.7194ZM86.5107 21.7194V21.9194H86.7107V21.7194H86.5107ZM86.5107 9.5089V9.3089H86.3107V9.5089H86.5107ZM90.5528 9.5089V9.7089H90.7528V9.5089H90.5528ZM90.5528 7.40364H90.7528V7.20364H90.5528V7.40364ZM86.5107 7.40364H86.3107V7.60364H86.5107V7.40364ZM90.5528 4.17557V4.37557H90.7528V4.17557H90.5528ZM90.5528 2.0703H90.7528V1.8703H90.5528V2.0703ZM84.2089 7.40364V7.60364H84.4089V7.40364H84.2089ZM81.6265 7.40364V7.20364H81.4265V7.40364H81.6265ZM92.2157 21.7194H92.0157V21.9194H92.2157V21.7194ZM94.5175 21.7194V21.9194H94.7175V21.7194H94.5175ZM94.5175 7.40364H94.7175V7.20364H94.5175V7.40364ZM92.2157 7.40364V7.20364H92.0157V7.40364H92.2157ZM97.0813 17.0036V16.8036H96.8777L96.8813 17.0072L97.0813 17.0036ZM103.257 13.3826L103.233 13.5811L103.233 13.5812L103.257 13.3826ZM106.485 11.7545L106.286 11.7774L106.307 11.9545H106.485V11.7545ZM108.843 11.7545V11.9545H109.058L109.042 11.7395L108.843 11.7545ZM103.004 7.23522L103.002 7.43521H103.002L103.004 7.23522ZM103.144 15.544L103.12 15.7425L103.121 15.7426L103.144 15.544ZM99.4392 17.0036L99.6389 16.9937L99.6294 16.8036H99.4392V17.0036ZM113.98 9.7054L113.782 9.73199L113.849 10.2286L114.142 9.82262L113.98 9.7054ZM113.671 7.40364L113.87 7.37705L113.846 7.20364H113.671V7.40364ZM111.678 7.40364V7.20364H111.478V7.40364H111.678ZM111.678 27.3335H111.478V27.5335H111.678V27.3335ZM113.98 27.3335V27.5335H114.18V27.3335H113.98ZM113.98 19.53L114.149 19.423L113.78 18.8398V19.53H113.98ZM151.871 21.7194V21.9194H152.071V21.7194H151.871ZM151.871 19.6142H152.071V19.4142H151.871V19.6142ZM147.942 9.5089V9.3089H147.742V9.5089H147.942ZM151.647 9.5089V9.7089H151.847V9.5089H151.647ZM151.647 7.40364H151.847V7.20364H151.647V7.40364ZM147.942 7.40364H147.742V7.60364H147.942V7.40364ZM147.942 3.3896H148.142V3.1896H147.942V3.3896ZM145.64 3.3896V3.1896H145.44V3.3896H145.64ZM145.64 7.40364V7.60364H145.84V7.40364H145.64ZM143.057 7.40364V7.20364H142.857V7.40364H143.057ZM143.057 9.5089H142.857V9.7089H143.057V9.5089ZM145.64 9.5089H145.84V9.3089H145.64V9.5089ZM54.9806 21.9194C58.0982 21.9194 60.623 20.9148 62.3685 19.1477C64.1136 17.381 65.0613 14.871 65.0613 11.8949H64.6613C64.6613 14.7854 63.7424 17.1877 62.0839 18.8666C60.426 20.5451 58.0103 21.5194 54.9806 21.5194V21.9194ZM65.0613 11.8949C65.0613 8.90487 64.1137 6.3947 62.3684 4.63136C60.6226 2.86764 58.0978 1.8703 54.9806 1.8703V2.2703C58.0107 2.2703 60.4263 3.23788 62.0841 4.91275C63.7422 6.58801 64.6613 8.99013 64.6613 11.8949H65.0613ZM54.9806 1.8703H48.6929V2.2703H54.9806V1.8703ZM48.4929 2.0703V21.7194H48.8929V2.0703H48.4929ZM48.6929 21.9194H54.9806V21.5194H48.6929V21.9194ZM51.135 4.51592H54.9806V4.11592H51.135V4.51592ZM54.9806 4.51592C57.3239 4.51592 59.1124 5.24531 60.3161 6.51658C61.5213 7.78951 62.1631 9.62995 62.1631 11.8949H62.5631C62.5631 9.55628 61.8996 7.60725 60.6065 6.24157C59.3119 4.87425 57.4092 4.11592 54.9806 4.11592V4.51592ZM62.1631 11.8949C62.1631 14.1455 61.5214 15.9862 60.3159 17.2628C59.112 18.5378 57.3234 19.2738 54.9806 19.2738V19.6738C57.4097 19.6738 59.3124 18.9081 60.6067 17.5375C61.8994 16.1685 62.5631 14.2197 62.5631 11.8949H62.1631ZM54.9806 19.2738H51.135V19.6738H54.9806V19.2738ZM51.335 19.4738V4.31592H50.935V19.4738H51.335ZM74.196 22.0879C77.604 22.0879 80.044 19.9148 80.6238 16.9579L80.2313 16.881C79.6883 19.6504 77.4125 21.6879 74.196 21.6879V22.0879ZM80.4276 16.7194H78.0977V17.1194H80.4276V16.7194ZM77.904 16.8696C77.4532 18.6198 75.9727 19.6387 74.0275 19.6387V20.0387C76.1245 20.0387 77.7878 18.9244 78.2914 16.9693L77.904 16.8696ZM74.0275 19.6387C72.7153 19.6387 71.6608 19.1801 70.9232 18.406C70.184 17.6302 69.749 16.5223 69.7081 15.201L69.3083 15.2133C69.3517 16.6148 69.8149 17.8227 70.6336 18.682C71.454 19.5429 72.6169 20.0387 74.0275 20.0387V19.6387ZM69.7082 15.2072V15.0107H69.3082V15.2072H69.7082ZM69.5082 15.2107H80.624V14.8107H69.5082V15.2107ZM80.8234 15.0273C80.8513 14.6924 80.8802 14.3469 80.8802 14.0282H80.4802C80.4802 14.3271 80.453 14.6553 80.4247 14.9941L80.8234 15.0273ZM80.8801 14.0229C80.8229 11.8629 80.1207 10.1118 78.8982 8.90018C77.6753 7.68828 75.9512 7.03522 73.8872 7.03522V7.43522C75.8653 7.43522 77.4815 8.05935 78.6166 9.18429C79.752 10.3095 80.4252 11.955 80.4803 14.0335L80.8801 14.0229ZM73.8872 7.03522C71.8147 7.03522 70.0618 7.7993 68.8282 9.13088C67.5958 10.4612 66.8942 12.3439 66.8942 14.5615H67.2942C67.2942 12.4283 67.9681 10.6479 69.1216 9.40272C70.274 8.15885 71.9176 7.43522 73.8872 7.43522V7.03522ZM66.8942 14.5615C66.8942 16.7941 67.6105 18.6784 68.8906 20.0057C70.1715 21.3337 72.0012 22.0879 74.196 22.0879V21.6879C72.0959 21.6879 70.3749 20.9684 69.1785 19.728C67.9815 18.4868 67.2942 16.7079 67.2942 14.5615H66.8942ZM69.8477 13.1211C70.0615 10.9025 71.904 9.45627 73.9153 9.45627V9.05627C71.716 9.05627 69.6848 10.6416 69.4495 13.0827L69.8477 13.1211ZM73.9153 9.45627C75.0699 9.45627 76.0376 9.78863 76.7416 10.4034C77.4445 11.0172 77.9025 11.928 78.0108 13.12L78.4092 13.0838C78.293 11.8056 77.7966 10.7936 77.0047 10.1021C76.214 9.41163 75.1466 9.05627 73.9153 9.05627V9.45627ZM78.21 12.9019H69.6486V13.3019H78.21V12.9019ZM81.6265 9.7089H84.2089V9.3089H81.6265V9.7089ZM84.0089 9.5089V21.7194H84.4089V9.5089H84.0089ZM84.2089 21.9194H86.5107V21.5194H84.2089V21.9194ZM86.7107 21.7194V9.5089H86.3107V21.7194H86.7107ZM86.5107 9.7089H90.5528V9.3089H86.5107V9.7089ZM90.7528 9.5089V7.40364H90.3528V9.5089H90.7528ZM90.5528 7.20364H86.5107V7.60364H90.5528V7.20364ZM86.7107 7.40364V5.7475H86.3107V7.40364H86.7107ZM86.7107 5.7475C86.7107 5.21841 86.8138 4.89054 87.0084 4.69045C87.2019 4.49154 87.5283 4.37557 88.0826 4.37557V3.97557C87.4861 3.97557 87.0265 4.09819 86.7217 4.41156C86.418 4.72375 86.3107 5.18185 86.3107 5.7475H86.7107ZM88.0826 4.37557H90.5528V3.97557H88.0826V4.37557ZM90.7528 4.17557V2.0703H90.3528V4.17557H90.7528ZM90.5528 1.8703H87.9423V2.2703H90.5528V1.8703ZM87.9423 1.8703C86.5833 1.8703 85.5858 2.17741 84.9321 2.85023C84.2796 3.52188 84.0089 4.5178 84.0089 5.80364H84.4089C84.4089 4.56315 84.6716 3.6924 85.219 3.12897C85.7653 2.56669 86.6345 2.2703 87.9423 2.2703V1.8703ZM84.0089 5.80364V7.40364H84.4089V5.80364H84.0089ZM84.2089 7.20364H81.6265V7.60364H84.2089V7.20364ZM81.4265 7.40364V9.5089H81.8265V7.40364H81.4265ZM93.3947 5.1896C94.3447 5.1896 95.0824 4.485 95.0824 3.50188H94.6824C94.6824 4.25911 94.1288 4.7896 93.3947 4.7896V5.1896ZM95.0824 3.50188C95.0824 2.51876 94.3447 1.81416 93.3947 1.81416V2.21416C94.1288 2.21416 94.6824 2.74465 94.6824 3.50188H95.0824ZM93.3947 1.81416C92.4446 1.81416 91.7069 2.51876 91.7069 3.50188H92.1069C92.1069 2.74465 92.6605 2.21416 93.3947 2.21416V1.81416ZM91.7069 3.50188C91.7069 4.485 92.4446 5.1896 93.3947 5.1896V4.7896C92.6605 4.7896 92.1069 4.25911 92.1069 3.50188H91.7069ZM92.2157 21.9194H94.5175V21.5194H92.2157V21.9194ZM94.7175 21.7194V7.40364H94.3175V21.7194H94.7175ZM94.5175 7.20364H92.2157V7.60364H94.5175V7.20364ZM92.0157 7.40364V21.7194H92.4157V7.40364H92.0157ZM96.8813 17.0072C96.9105 18.639 97.5912 19.9187 98.7511 20.7849C99.9046 21.6464 101.516 22.0879 103.397 22.0879V21.6879C101.573 21.6879 100.054 21.2591 98.9904 20.4645C97.9328 19.6745 97.3083 18.5121 97.2813 17.0001L96.8813 17.0072ZM103.397 22.0879C105.015 22.0879 106.491 21.6657 107.567 20.8886C108.647 20.1084 109.323 18.9703 109.323 17.5651H108.923C108.923 18.8265 108.322 19.8498 107.333 20.5643C106.339 21.2819 104.951 21.6879 103.397 21.6879V22.0879ZM109.323 17.5651C109.323 16.7441 109.154 16.0747 108.838 15.5284C108.521 14.9818 108.064 14.5717 107.51 14.2577C106.411 13.6353 104.905 13.3801 103.281 13.184L103.233 13.5812C104.864 13.7781 106.292 14.0281 107.313 14.6058C107.818 14.8918 108.217 15.2553 108.492 15.7289C108.766 16.2028 108.923 16.8 108.923 17.5651H109.323ZM103.281 13.1841C102.231 13.0564 101.367 12.9464 100.761 12.6833C100.463 12.5541 100.243 12.3937 100.096 12.1884C99.9497 11.985 99.8638 11.7208 99.8638 11.3615H99.4638C99.4638 11.7882 99.5673 12.1381 99.7705 12.4215C99.9724 12.7031 100.261 12.9023 100.602 13.0503C101.273 13.3416 102.205 13.4561 103.233 13.5811L103.281 13.1841ZM99.8638 11.3615C99.8638 10.7808 100.156 10.2993 100.694 9.9545C101.239 9.60589 102.032 9.40013 103.004 9.40013V9.00013C101.983 9.00013 101.107 9.21543 100.479 9.6177C99.845 10.0237 99.4638 10.623 99.4638 11.3615H99.8638ZM103.004 9.40013C104.898 9.40013 106.133 10.446 106.286 11.7774L106.683 11.7316C106.5 10.1437 105.04 9.00013 103.004 9.00013V9.40013ZM106.485 11.9545H108.843V11.5545H106.485V11.9545ZM109.042 11.7395C108.926 10.1965 108.253 9.01918 107.179 8.22855C106.111 7.44202 104.662 7.0495 103.006 7.03522L103.002 7.43521C104.602 7.449 105.961 7.82841 106.942 8.55066C107.917 9.2688 108.535 10.3371 108.643 11.7696L109.042 11.7395ZM103.006 7.03522C101.358 7.0209 99.9089 7.45044 98.8665 8.23318C97.8201 9.0189 97.1901 10.1571 97.1901 11.53H97.5901C97.5901 10.2923 98.1531 9.26908 99.1067 8.55305C100.064 7.83403 101.422 7.42147 103.002 7.43521L103.006 7.03522ZM97.1901 11.53C97.1901 12.3033 97.3563 12.9383 97.6674 13.4596C97.9784 13.9808 98.4264 14.3753 98.9694 14.6798C100.047 15.2839 101.522 15.5463 103.12 15.7425L103.169 15.3455C101.567 15.1487 100.165 14.8918 99.1651 14.331C98.6696 14.0531 98.2789 13.7037 98.0109 13.2547C97.7431 12.8058 97.5901 12.2444 97.5901 11.53H97.1901ZM103.121 15.7426C104.202 15.8706 105.091 15.9667 105.716 16.2428C106.022 16.3777 106.251 16.5505 106.405 16.7803C106.558 17.0097 106.65 17.3141 106.65 17.7335H107.05C107.05 17.2546 106.945 16.8677 106.737 16.5577C106.53 16.248 106.232 16.0331 105.878 15.8768C105.184 15.5704 104.22 15.47 103.168 15.3454L103.121 15.7426ZM106.65 17.7335C106.65 18.3097 106.341 18.7991 105.775 19.1535C105.205 19.5105 104.382 19.7229 103.397 19.7229V20.1229C104.433 20.1229 105.336 19.9003 105.987 19.4924C106.643 19.0819 107.05 18.4765 107.05 17.7335H106.65ZM103.397 19.7229C102.237 19.7229 101.315 19.4228 100.676 18.9359C100.041 18.4511 99.678 17.775 99.6389 16.9937L99.2394 17.0136C99.2846 17.9165 99.7077 18.7001 100.434 19.2539C101.157 19.8056 102.171 20.1229 103.397 20.1229V19.7229ZM99.4392 16.8036H97.0813V17.2036H99.4392V16.8036ZM118.893 7.03522C116.403 7.03522 114.803 8.22667 113.818 9.58817L114.142 9.82262C115.066 8.54552 116.554 7.43522 118.893 7.43522V7.03522ZM114.178 9.6788L113.87 7.37705L113.473 7.43023L113.782 9.73199L114.178 9.6788ZM113.671 7.20364H111.678V7.60364H113.671V7.20364ZM111.478 7.40364V27.3335H111.878V7.40364H111.478ZM111.678 27.5335H113.98V27.1335H111.678V27.5335ZM114.18 27.3335V19.53H113.78V27.3335H114.18ZM113.811 19.6369C114.723 21.0781 116.42 22.0879 118.893 22.0879V21.6879C116.537 21.6879 114.978 20.7327 114.149 19.423L113.811 19.6369ZM118.893 22.0879C120.923 22.0879 122.696 21.3309 123.96 20.0048C125.224 18.6792 125.97 16.7962 125.97 14.5615H125.57C125.57 16.7058 124.856 18.486 123.671 19.7288C122.486 20.9711 120.82 21.6879 118.893 21.6879V22.0879ZM125.97 14.5615C125.97 12.1892 125.226 10.304 123.958 9.011C122.691 7.71814 120.917 7.03522 118.893 7.03522V7.43522C120.826 7.43522 122.491 8.08563 123.672 9.29102C124.854 10.4963 125.57 12.2742 125.57 14.5615H125.97ZM118.668 19.6387C117.32 19.6387 116.196 19.1145 115.408 18.2188C114.617 17.3211 114.152 16.0374 114.152 14.5054H113.752C113.752 16.1173 114.242 17.5003 115.107 18.4832C115.975 19.4682 117.209 20.0387 118.668 20.0387V19.6387ZM114.152 14.5054C114.152 13.0168 114.616 11.7616 115.406 10.8811C116.195 10.0023 117.319 9.48434 118.668 9.48434V9.08434C117.21 9.08434 115.976 9.6471 115.109 10.6139C114.243 11.579 113.752 12.9343 113.752 14.5054H114.152ZM118.668 9.48434C120.032 9.48434 121.162 10.0026 121.954 10.8878C122.747 11.775 123.212 13.0441 123.212 14.5615H123.612C123.612 12.9632 123.122 11.5937 122.252 10.6212C121.381 9.64675 120.139 9.08434 118.668 9.08434V9.48434ZM123.212 14.5615C123.212 16.079 122.747 17.3481 121.954 18.2352C121.162 19.1204 120.032 19.6387 118.668 19.6387V20.0387C120.139 20.0387 121.381 19.4763 122.252 18.5019C123.122 17.5293 123.612 16.1599 123.612 14.5615H123.212ZM134.996 22.0879C137.137 22.0879 138.965 21.3256 140.259 19.9957C141.552 18.6662 142.298 16.7825 142.298 14.5615H141.898C141.898 16.6914 141.184 18.4709 139.972 19.7168C138.761 20.9624 137.039 21.6879 134.996 21.6879V22.0879ZM142.298 14.5615C142.298 12.3406 141.552 10.4568 140.259 9.12734C138.965 7.79748 137.137 7.03522 134.996 7.03522V7.43522C137.039 7.43522 138.761 8.16068 139.972 9.40625C141.184 10.6522 141.898 12.4316 141.898 14.5615H142.298ZM134.996 7.03522C132.856 7.03522 131.027 7.79748 129.734 9.12734C128.441 10.4568 127.695 12.3406 127.695 14.5615H128.095C128.095 12.4316 128.809 10.6522 130.021 9.40625C131.232 8.16068 132.954 7.43522 134.996 7.43522V7.03522ZM127.695 14.5615C127.695 16.7825 128.441 18.6662 129.734 19.9957C131.027 21.3256 132.856 22.0879 134.996 22.0879V21.6879C132.954 21.6879 131.232 20.9624 130.021 19.7168C128.809 18.4709 128.095 16.6914 128.095 14.5615H127.695ZM134.996 19.6387C133.634 19.6387 132.503 19.1076 131.711 18.2147C130.917 17.3199 130.453 16.0502 130.453 14.5615H130.053C130.053 16.1325 130.543 17.5014 131.412 18.4803C132.282 19.4611 133.523 20.0387 134.996 20.0387V19.6387ZM130.453 14.5615C130.453 13.0728 130.917 11.8031 131.711 10.9083C132.503 10.0155 133.634 9.48434 134.996 9.48434V9.08434C133.523 9.08434 132.282 9.66197 131.412 10.6428C130.543 11.6217 130.053 12.9906 130.053 14.5615H130.453ZM134.996 9.48434C136.359 9.48434 137.489 10.0155 138.282 10.9083C139.076 11.8031 139.54 13.0728 139.54 14.5615H139.94C139.94 12.9906 139.45 11.6217 138.581 10.6428C137.71 9.66197 136.47 9.08434 134.996 9.08434V9.48434ZM139.54 14.5615C139.54 16.0502 139.076 17.3199 138.282 18.2147C137.489 19.1076 136.359 19.6387 134.996 19.6387V20.0387C136.47 20.0387 137.71 19.4611 138.581 18.4803C139.45 17.5014 139.94 16.1325 139.94 14.5615H139.54ZM145.44 17.9861C145.44 19.2683 145.688 20.2653 146.33 20.9382C146.975 21.6131 147.974 21.9194 149.373 21.9194V21.5194C148.022 21.5194 147.154 21.2222 146.62 20.662C146.083 20.0999 145.84 19.2302 145.84 17.9861H145.44ZM149.373 21.9194H151.871V21.5194H149.373V21.9194ZM152.071 21.7194V19.6142H151.671V21.7194H152.071ZM151.871 19.4142H149.598V19.8142H151.871V19.4142ZM149.598 19.4142C148.995 19.4142 148.651 19.3026 148.449 19.0983C148.247 18.8933 148.142 18.548 148.142 17.958H147.742C147.742 18.575 147.847 19.0578 148.164 19.3792C148.482 19.7012 148.965 19.8142 149.598 19.8142V19.4142ZM148.142 17.958V9.5089H147.742V17.958H148.142ZM147.942 9.7089H151.647V9.3089H147.942V9.7089ZM151.847 9.5089V7.40364H151.447V9.5089H151.847ZM151.647 7.20364H147.942V7.60364H151.647V7.20364ZM148.142 7.40364V3.3896H147.742V7.40364H148.142ZM147.942 3.1896H145.64V3.5896H147.942V3.1896ZM145.44 3.3896V7.40364H145.84V3.3896H145.44ZM145.64 7.20364H143.057V7.60364H145.64V7.20364ZM142.857 7.40364V9.5089H143.257V7.40364H142.857ZM143.057 9.7089H145.64V9.3089H143.057V9.7089ZM145.44 9.5089V17.9861H145.84V9.5089H145.44Z"
    fill="#121315" mask="url(#path-1-outside-1_219_2131)" />
  <rect y="11.5195" width="12.1855" height="12.1855" fill="#121315" />
  <path d="M12.1875 0.666504V11.5192L23.9922 23.3239H32.7506V11.3288L22.0882 0.666504H12.1875Z" fill="#121315" />
</svg>