<svg viewBox="0 0 14 14" fill="none" xmlns="http://www.w3.org/2000/svg">
  <path
    d="M3.10268 8.46035L2.61536 10.2796L0.834227 10.3173C0.301928 9.32996 0 8.20037 0 6.99998C0 5.83922 0.282296 4.7446 0.782684 3.78076H0.783067L2.36878 4.07148L3.06342 5.64768C2.91803 6.07153 2.83879 6.52653 2.83879 6.99998C2.83884 7.51382 2.93192 8.00615 3.10268 8.46035Z"
    fill="#FBBB00" />
  <path
    d="M13.8776 5.69238C13.958 6.11583 13.9999 6.55313 13.9999 7.00006C13.9999 7.50122 13.9472 7.99007 13.8468 8.46161C13.5061 10.0662 12.6157 11.4674 11.3822 12.4589L11.3818 12.4585L9.38456 12.3566L9.10188 10.592C9.92033 10.112 10.56 9.36083 10.8969 8.46161H7.15381V5.69238H10.9515H13.8776Z"
    fill="#518EF8" />
  <path
    d="M11.3816 12.4585L11.382 12.4589C10.1824 13.4231 8.65856 14 6.99973 14C4.33397 14 2.0163 12.51 0.833984 10.3174L3.10244 8.46045C3.69358 10.0381 5.2155 11.1612 6.99973 11.1612C7.76663 11.1612 8.48512 10.9539 9.10163 10.592L11.3816 12.4585Z"
    fill="#28B446" />
  <path
    d="M11.4681 1.61152L9.20037 3.46805C8.56231 3.06921 7.80806 2.83882 7 2.83882C5.17539 2.83882 3.625 4.01342 3.06347 5.64766L0.783098 3.78075H0.782715C1.94772 1.53461 4.29462 0 7 0C8.69845 0 10.2558 0.605005 11.4681 1.61152Z"
    fill="#F14336" />
</svg>