<svg viewBox="0 0 20 12" fill="none" xmlns="http://www.w3.org/2000/svg">
  <path
    d="M3.97444 2.32503C7.14069 -0.775011 12.2743 -0.775011 15.4405 2.32503L15.8217 2.69811C15.8593 2.73456 15.8891 2.77818 15.9095 2.82639C15.9299 2.8746 15.9404 2.92642 15.9404 2.97876C15.9404 3.03111 15.9299 3.08293 15.9095 3.13114C15.8891 3.17934 15.8593 3.22297 15.8217 3.25942L14.5181 4.53573C14.4797 4.57301 14.4283 4.59386 14.3748 4.59386C14.3213 4.59386 14.2699 4.57301 14.2315 4.53573L13.707 4.02229C11.4982 1.8596 7.91678 1.8596 5.70797 4.02229L5.1464 4.57213C5.108 4.60941 5.05659 4.63027 5.00307 4.63027C4.94956 4.63027 4.89814 4.60941 4.85975 4.57213L3.5562 3.29582C3.51862 3.25937 3.48875 3.21575 3.46835 3.16754C3.44796 3.11933 3.43744 3.06752 3.43744 3.01517C3.43744 2.96282 3.44796 2.91101 3.46835 2.8628C3.48875 2.81459 3.51862 2.77097 3.5562 2.73452L3.97444 2.32503ZM18.1365 4.96449L19.2966 6.10045C19.3341 6.13689 19.364 6.18051 19.3844 6.22872C19.4049 6.27693 19.4154 6.32875 19.4154 6.3811C19.4154 6.43345 19.4049 6.48527 19.3844 6.53348C19.364 6.58169 19.3341 6.62531 19.2966 6.66175L14.0654 11.7837C13.9886 11.8583 13.8857 11.9 13.7787 11.9C13.6717 11.9 13.5689 11.8583 13.4921 11.7837L9.77921 8.14854C9.76001 8.1299 9.73431 8.11947 9.70755 8.11947C9.68079 8.11947 9.65508 8.1299 9.63588 8.14854L5.92303 11.7836C5.84623 11.8582 5.74341 11.8999 5.63638 11.8999C5.52934 11.8999 5.42652 11.8582 5.34973 11.7836L0.118265 6.66189C0.0806922 6.62544 0.0508207 6.58182 0.0304218 6.53361C0.0100228 6.4854 -0.000488281 6.43358 -0.000488281 6.38124C-0.000488281 6.32889 0.0100228 6.27707 0.0304218 6.22886C0.0508207 6.18066 0.0806922 6.13703 0.118265 6.10058L1.27849 4.96463C1.35528 4.89007 1.45811 4.84837 1.56514 4.84837C1.67218 4.84837 1.775 4.89007 1.85179 4.96463L5.56478 8.59955C5.58398 8.61819 5.60969 8.62862 5.63644 8.62862C5.6632 8.62862 5.68891 8.61819 5.70811 8.59955L9.42083 4.96449C9.49762 4.88993 9.60044 4.84823 9.70748 4.84823C9.81451 4.84823 9.91734 4.88993 9.99413 4.96449L13.707 8.59968C13.7262 8.61833 13.7519 8.62875 13.7786 8.62875C13.8054 8.62875 13.8311 8.61833 13.8503 8.59968L17.5632 4.96463C17.64 4.89007 17.7428 4.84837 17.8498 4.84837C17.9569 4.84837 18.0597 4.89007 18.1365 4.96463V4.96449Z"
    fill="#121315" />
</svg>