<svg xmlns="http://www.w3.org/2000/svg" viewBox="0 0 20 20">
  <path fill="currentColor" fill-rule="evenodd"
    d="M11 18v2H9v-2H1c-.55228424 0-1-.44769287-1-1V1c0-.55227661.44771576-1 1-1h6c1.14823914-.0013733 2.2414093.49203491 3 1.3540039C10.7585907.49203492 11.85176086-.0013733 13 0h6c.55228424 0 1 .44772339 1 1v16c0 .55230713-.44771576 1-1 1h-8zM9 4.00003052v12.00003052H2V2.00003052h5c1.10456848 0 2 .89541626 2 2zm9 12.00003052V2.00003052h-5c-1.10456848 0-2 .89541626-2 2v12.00003052h7z" />
</svg>