<svg xmlns="http://www.w3.org/2000/svg" viewBox="0 0 20 17.273">
  <path fill="currentColor" fill-rule="evenodd"
    d="M12.72727203 0c1.2994156-.00012207 2.50016022.6930542 3.14977265 1.81848145.64961242 1.1253662.64935303 2.51184082-.00067902 3.63696289L20 5.4545288v1.81817627h-1.8181839v9.09094238c0 .5020752-.40701294.90905762-.90908813.90905762H2.72727203c-.5020752 0-.90908813-.40698242-.90908813-.90905762V7.27270508H0V5.4545288l4.12363434.00091553C3.1892395 3.83746338 3.63310242 1.7746582 5.1503067.68414307 6.66750336-.40637207 8.76420593-.16955566 10 1.23181152 10.68894958.4472046 11.68309021-.00183105 12.72727203 0zM7.27272797 1.81817627c-.98075104-.00439453-1.78823853.76989746-1.8250351 1.74993896-.0368042.98010254.71035004 1.81274414 1.68867493 1.88189698l.13636017.0045166h1.8181839V3.63635254c.00003814-.89776611-.65527344-1.66125488-1.54272461-1.79724121l-.14000702-.01635742-.13545227-.00457764zM10.91363525 3.5c.07135773-.9487915.86215973-1.6821289 1.81363678-1.68182373 1.0041504 0 1.81817627.81402588 1.81817627 1.81817627l-.00453949.13635254c-.07136535.9487915-.86215973 1.6821289-1.81363678 1.68182373h-1.8181839V3.63635254L10.91363525 3.5zM9.09090424 7.27270508H3.63636017v8.18182373h5.45454407V7.27270508zm1.8181839 0h5.45454406v8.18182373h-5.45454407V7.27270508z" />
</svg>