<svg xmlns="http://www.w3.org/2000/svg" viewBox="0 0 20 20">
  <g>
    <path fill="none" d="M0 0h20v20H0V0z" />
    <path fill="currentColor" fill-rule="evenodd"
      d="M4.16666412 8.33331299C3.25 8.33331299 2.5 9.08331299 2.5 10c0 .91662598.75 1.66662598 1.66666412 1.66662598.91667176 0 1.66667176-.75 1.66667176-1.66662598 0-.91668701-.75-1.66668701-1.66667176-1.66668701zM8.33333588 10c0-.91668701.75-1.66668701 1.66666412-1.66668701.91667175 0 1.66667175.75 1.66667175 1.66668701 0 .91662598-.75 1.66662598-1.66667175 1.66662598-.91666412 0-1.66666412-.75-1.66666412-1.66662598zm7.49999237-1.66668701c-.91666413 0-1.66666413.75-1.66666413 1.66668701 0 .91662598.75 1.66662598 1.66666413 1.66662598C16.75 11.66662598 17.5 10.91662598 17.5 10c0-.91668701-.75-1.66668701-1.66667175-1.66668701z" />
  </g>
</svg>