<svg xmlns="http://www.w3.org/2000/svg" viewBox="0 0 20 14.546">
  <path id="Shape"
    d="M18.182,14.546V10a8.182,8.182,0,0,0-7.941-8.178l-.241,0A8.182,8.182,0,0,0,1.822,9.759l0,.241v4.546H0V10a10,10,0,1,1,20,0v4.546Zm-3.636,0V10A4.546,4.546,0,0,0,10.2,5.459l-.2,0A4.545,4.545,0,0,0,5.459,9.8l0,.2v4.546H3.636V10a6.364,6.364,0,0,1,12.728,0v4.546Zm-3.637,0V10a.909.909,0,0,0-.8-.9L10,9.091a.909.909,0,0,0-.9.8L9.091,10v4.546H7.273V10a2.727,2.727,0,0,1,5.454,0v4.546Z"
    fill="currentColor" />
</svg>