<svg xmlns="http://www.w3.org/2000/svg" viewBox="0 0 20.148 20.88">
  <g>
    <path fill="none" d="M0 0h1.5v1.5H0V0z" />
    <path fill="currentColor" fill-rule="evenodd"
      d="M.14762878 13.2767334c.2351761.84399414.5761261 1.65490723 1.01473237 2.41339111.43743133.7590332.96907043 1.45977783 1.58228302 2.08551026.98156738-.63867188 2.23854064-.67242432 3.25292205-.08721924 1.01438904.58514404 1.61450196 1.6901245 1.55304718 2.8595581 1.7034378.4416504 3.4912796.44238282 5.19506836.0020752-.06200409-1.16949463.5376587-2.27478028 1.55184174-2.86035156 1.01419067-.58563233 2.27124023-.5524292 3.2530899.0859375 1.23290253-1.25543213 2.12593079-2.80401612 2.59494019-4.49993897-1.04325104-.53155517-1.69993591-1.6036377-1.6994934-2.77453613.00043487-1.17089844.6579132-2.24249268 1.7015686-2.7732544-.22930146-.82592773-.56546784-1.63623047-1.01473237-2.41339111-.43717193-.7592163-.96883392-1.45996094-1.58228302-2.08551025-.98156738.63867187-2.23854065.67236328-3.25292205.08721923-1.01438904-.58514404-1.61450196-1.6901245-1.55304718-2.8595581-1.70343781-.4416504-3.4912796-.44238281-5.19506836-.0020752.06200409 1.16949463-.5376587 2.27478028-1.55184174 2.86035157-1.01419067.58563232-2.27124023.5524292-3.2530899-.0859375C1.51174164 4.48443604.618721 6.03302002.14970397 7.72894287c1.04325105.53155518 1.6999283 1.6036377 1.69949342 2.77453613-.00043488 1.17089844-.65792084 2.24243164-1.7015686 2.7732544zm9.22183228 5.49078369c-.3975525-1.21289063-1.22885895-2.23632813-2.3345108-2.87402344-1.10478974-.63861084-2.40639496-.84698486-3.65532685-.58520508-.30033111-.42401123-.56082916-.87481689-.77816772-1.34674072.85164642-.9508667 1.32202148-2.18273926 1.32081604-3.45922851.00091553-1.27642823-.46942902-2.50823975-1.32081604-3.45922852.21595001-.472229.47579193-.92315674.77609253-1.34674072 1.24971771.26196289 2.5521698.05322265 3.65740204-.58624268 1.10604095-.6375122 1.93774414-1.6609497 2.3355484-2.87402344.51773834-.04876709 1.03755188-.04772949 1.55529785.0010376.39754486 1.21289063 1.22885895 2.23632813 2.3345108 2.87402344 1.1047821.63861084 2.40639496.84698486 3.65531922.58520508.30033111.4239502.56082916.8748169.77817535 1.34674072-.8331604.93066406-1.32081604 2.1519165-1.32081604 3.45922852-.00091553 1.27642822.46942139 2.50823974 1.32081604 3.45922851-.21581268.4720459-.47520447.92340088-.77610016 1.34674072-1.24971771-.26202392-2.5521698-.05322265-3.6573944.58624268-1.10604096.6375122-1.93774415 1.6609497-2.3355484 2.87402344-.51773835.04876709-1.03755952.04772949-1.55529786-.0010376zm.7781601-5.15252686c-1.7190857 0-3.11267853-1.39355468-3.11267853-3.1126709 0-1.71905517 1.39359283-3.1126709 3.11267852-3.1126709 1.7190857 0 3.11267853 1.39361573 3.11267853 3.1126709 0 1.71911622-1.39359283 3.1126709-3.11267853 3.1126709zm1.0375595-3.1126709c0 .57305909-.46453094 1.03759766-1.0375595 1.03759766-.57302857 0-1.03755951-.46453857-1.03755951-1.03759765 0-.57299805.46453094-1.03753663 1.0375595-1.03753663.57302857 0 1.03755951.46453858 1.03755951 1.03753663z" />
  </g>
</svg>