<svg viewBox="0 0 282 282" fill="none" xmlns="http://www.w3.org/2000/svg">
  <path d="M87.6667 0.394043H77.9697V10.091H87.6667V0.394043Z" fill="black" />
  <path d="M97.364 0.394043H87.667V10.091H97.364V0.394043Z" fill="black" />
  <path d="M107.061 0.394043H97.3638V10.091H107.061V0.394043Z" fill="black" />
  <path d="M155.546 0.394043H145.849V10.091H155.546V0.394043Z" fill="black" />
  <path d="M165.242 0.394043H155.545V10.091H165.242V0.394043Z" fill="black" />
  <path d="M174.94 0.394043H165.243V10.091H174.94V0.394043Z" fill="black" />
  <path d="M107.061 10.0908H97.3638V19.7878H107.061V10.0908Z" fill="black" />
  <path d="M116.757 10.0908H107.061V19.7878H116.757V10.0908Z" fill="black" />
  <path d="M126.455 10.0908H116.758V19.7878H126.455V10.0908Z" fill="black" />
  <path d="M136.152 10.0908H126.455V19.7878H136.152V10.0908Z" fill="black" />
  <path d="M145.848 10.0908H136.151V19.7878H145.848V10.0908Z" fill="black" />
  <path d="M165.242 10.0908H155.545V19.7878H165.242V10.0908Z" fill="black" />
  <path d="M174.94 10.0908H165.243V19.7878H174.94V10.0908Z" fill="black" />
  <path d="M204.03 10.0908H194.333V19.7878H204.03V10.0908Z" fill="black" />
  <path d="M87.6667 19.7881H77.9697V29.4851H87.6667V19.7881Z" fill="black" />
  <path d="M107.061 19.7881H97.3638V29.4851H107.061V19.7881Z" fill="black" />
  <path d="M116.757 19.7881H107.061V29.4851H116.757V19.7881Z" fill="black" />
  <path d="M145.848 19.7881H136.151V29.4851H145.848V19.7881Z" fill="black" />
  <path d="M155.546 19.7881H145.849V29.4851H155.546V19.7881Z" fill="black" />
  <path d="M165.242 19.7881H155.545V29.4851H165.242V19.7881Z" fill="black" />
  <path d="M174.94 19.7881H165.243V29.4851H174.94V19.7881Z" fill="black" />
  <path d="M204.03 19.7881H194.333V29.4851H204.03V19.7881Z" fill="black" />
  <path d="M97.364 29.4849H87.667V39.1818H97.364V29.4849Z" fill="black" />
  <path d="M107.061 29.4849H97.3638V39.1818H107.061V29.4849Z" fill="black" />
  <path d="M126.455 29.4849H116.758V39.1818H126.455V29.4849Z" fill="black" />
  <path d="M145.848 29.4849H136.151V39.1818H145.848V29.4849Z" fill="black" />
  <path d="M174.94 29.4849H165.243V39.1818H174.94V29.4849Z" fill="black" />
  <path d="M194.334 29.4849H184.637V39.1818H194.334V29.4849Z" fill="black" />
  <path d="M97.364 39.1821H87.667V48.8791H97.364V39.1821Z" fill="black" />
  <path d="M107.061 39.1821H97.3638V48.8791H107.061V39.1821Z" fill="black" />
  <path d="M116.757 39.1821H107.061V48.8791H116.757V39.1821Z" fill="black" />
  <path d="M136.152 39.1821H126.455V48.8791H136.152V39.1821Z" fill="black" />
  <path d="M145.848 39.1821H136.151V48.8791H145.848V39.1821Z" fill="black" />
  <path d="M155.546 39.1821H145.849V48.8791H155.546V39.1821Z" fill="black" />
  <path d="M184.636 39.1821H174.939V48.8791H184.636V39.1821Z" fill="black" />
  <path d="M87.6667 48.8789H77.9697V58.5759H87.6667V48.8789Z" fill="black" />
  <path d="M107.061 48.8789H97.3638V58.5759H107.061V48.8789Z" fill="black" />
  <path d="M116.757 48.8789H107.061V58.5759H116.757V48.8789Z" fill="black" />
  <path d="M126.455 48.8789H116.758V58.5759H126.455V48.8789Z" fill="black" />
  <path d="M155.546 48.8789H145.849V58.5759H155.546V48.8789Z" fill="black" />
  <path d="M174.94 48.8789H165.243V58.5759H174.94V48.8789Z" fill="black" />
  <path d="M184.636 48.8789H174.939V58.5759H184.636V48.8789Z" fill="black" />
  <path d="M87.6667 58.5757H77.9697V68.2727H87.6667V58.5757Z" fill="black" />
  <path d="M107.061 58.5757H97.3638V68.2727H107.061V58.5757Z" fill="black" />
  <path d="M126.455 58.5757H116.758V68.2727H126.455V58.5757Z" fill="black" />
  <path d="M145.848 58.5757H136.151V68.2727H145.848V58.5757Z" fill="black" />
  <path d="M165.242 58.5757H155.545V68.2727H165.242V58.5757Z" fill="black" />
  <path d="M184.636 58.5757H174.939V68.2727H184.636V58.5757Z" fill="black" />
  <path d="M204.03 58.5757H194.333V68.2727H204.03V58.5757Z" fill="black" />
  <path d="M97.364 68.2729H87.667V77.9699H97.364V68.2729Z" fill="black" />
  <path d="M116.757 68.2729H107.061V77.9699H116.757V68.2729Z" fill="black" />
  <path d="M126.455 68.2729H116.758V77.9699H126.455V68.2729Z" fill="black" />
  <path d="M145.848 68.2729H136.151V77.9699H145.848V68.2729Z" fill="black" />
  <path d="M155.546 68.2729H145.849V77.9699H155.546V68.2729Z" fill="black" />
  <path d="M165.242 68.2729H155.545V77.9699H165.242V68.2729Z" fill="black" />
  <path d="M194.334 68.2729H184.637V77.9699H194.334V68.2729Z" fill="black" />
  <path d="M204.03 68.2729H194.333V77.9699H204.03V68.2729Z" fill="black" />
  <path d="M10.091 77.9697H0.394043V87.6667H10.091V77.9697Z" fill="black" />
  <path d="M29.4851 77.9697H19.7881V87.6667H29.4851V77.9697Z" fill="black" />
  <path d="M68.2727 77.9697H58.5757V87.6667H68.2727V77.9697Z" fill="black" />
  <path d="M77.9699 77.9697H68.2729V87.6667H77.9699V77.9697Z" fill="black" />
  <path d="M136.152 77.9697H126.455V87.6667H136.152V77.9697Z" fill="black" />
  <path d="M145.848 77.9697H136.151V87.6667H145.848V77.9697Z" fill="black" />
  <path d="M204.03 77.9697H194.333V87.6667H204.03V77.9697Z" fill="black" />
  <path d="M233.121 77.9697H223.424V87.6667H233.121V77.9697Z" fill="black" />
  <path d="M262.212 77.9697H252.515V87.6667H262.212V77.9697Z" fill="black" />
  <path d="M281.606 77.9697H271.909V87.6667H281.606V77.9697Z" fill="black" />
  <path d="M10.091 87.667H0.394043V97.364H10.091V87.667Z" fill="black" />
  <path d="M19.7878 87.667H10.0908V97.364H19.7878V87.667Z" fill="black" />
  <path d="M29.4851 87.667H19.7881V97.364H29.4851V87.667Z" fill="black" />
  <path d="M39.1818 87.667H29.4849V97.364H39.1818V87.667Z" fill="black" />
  <path d="M58.5759 87.667H48.8789V97.364H58.5759V87.667Z" fill="black" />
  <path d="M77.9699 87.667H68.2729V97.364H77.9699V87.667Z" fill="black" />
  <path d="M97.364 87.667H87.667V97.364H97.364V87.667Z" fill="black" />
  <path d="M136.152 87.667H126.455V97.364H136.152V87.667Z" fill="black" />
  <path d="M145.848 87.667H136.151V97.364H145.848V87.667Z" fill="black" />
  <path d="M194.334 87.667H184.637V97.364H194.334V87.667Z" fill="black" />
  <path d="M204.03 87.667H194.333V97.364H204.03V87.667Z" fill="black" />
  <path d="M223.424 87.667H213.728V97.364H223.424V87.667Z" fill="black" />
  <path d="M233.121 87.667H223.424V97.364H233.121V87.667Z" fill="black" />
  <path d="M271.909 87.667H262.212V97.364H271.909V87.667Z" fill="black" />
  <path d="M281.606 87.667H271.909V97.364H281.606V87.667Z" fill="black" />
  <path d="M19.7878 97.3638H10.0908V107.061H19.7878V97.3638Z" fill="black" />
  <path d="M29.4851 97.3638H19.7881V107.061H29.4851V97.3638Z" fill="black" />
  <path d="M39.1818 97.3638H29.4849V107.061H39.1818V97.3638Z" fill="black" />
  <path d="M48.8791 97.3638H39.1821V107.061H48.8791V97.3638Z" fill="black" />
  <path d="M68.2727 97.3638H58.5757V107.061H68.2727V97.3638Z" fill="black" />
  <path d="M77.9699 97.3638H68.2729V107.061H77.9699V97.3638Z" fill="black" />
  <path d="M116.757 97.3638H107.061V107.061H116.757V97.3638Z" fill="black" />
  <path d="M126.455 97.3638H116.758V107.061H126.455V97.3638Z" fill="black" />
  <path d="M155.546 97.3638H145.849V107.061H155.546V97.3638Z" fill="black" />
  <path d="M184.636 97.3638H174.939V107.061H184.636V97.3638Z" fill="black" />
  <path d="M194.334 97.3638H184.637V107.061H194.334V97.3638Z" fill="black" />
  <path d="M233.121 97.3638H223.424V107.061H233.121V97.3638Z" fill="black" />
  <path d="M252.515 97.3638H242.818V107.061H252.515V97.3638Z" fill="black" />
  <path d="M262.212 97.3638H252.515V107.061H262.212V97.3638Z" fill="black" />
  <path d="M281.606 97.3638H271.909V107.061H281.606V97.3638Z" fill="black" />
  <path d="M10.091 107.061H0.394043V116.757H10.091V107.061Z" fill="black" />
  <path d="M48.8791 107.061H39.1821V116.757H48.8791V107.061Z" fill="black" />
  <path d="M77.9699 107.061H68.2729V116.757H77.9699V107.061Z" fill="black" />
  <path d="M87.6667 107.061H77.9697V116.757H87.6667V107.061Z" fill="black" />
  <path d="M97.364 107.061H87.667V116.757H97.364V107.061Z" fill="black" />
  <path d="M107.061 107.061H97.3638V116.757H107.061V107.061Z" fill="black" />
  <path d="M116.757 107.061H107.061V116.757H116.757V107.061Z" fill="black" />
  <path d="M126.455 107.061H116.758V116.757H126.455V107.061Z" fill="black" />
  <path d="M136.152 107.061H126.455V116.757H136.152V107.061Z" fill="black" />
  <path d="M184.636 107.061H174.939V116.757H184.636V107.061Z" fill="black" />
  <path d="M213.727 107.061H204.03V116.757H213.727V107.061Z" fill="black" />
  <path d="M233.121 107.061H223.424V116.757H233.121V107.061Z" fill="black" />
  <path d="M242.818 107.061H233.121V116.757H242.818V107.061Z" fill="black" />
  <path d="M252.515 107.061H242.818V116.757H252.515V107.061Z" fill="black" />
  <path d="M48.8791 116.758H39.1821V126.455H48.8791V116.758Z" fill="black" />
  <path d="M58.5759 116.758H48.8789V126.455H58.5759V116.758Z" fill="black" />
  <path d="M68.2727 116.758H58.5757V126.455H68.2727V116.758Z" fill="black" />
  <path d="M77.9699 116.758H68.2729V126.455H77.9699V116.758Z" fill="black" />
  <path d="M97.364 116.758H87.667V126.455H97.364V116.758Z" fill="black" />
  <path d="M107.061 116.758H97.3638V126.455H107.061V116.758Z" fill="black" />
  <path d="M136.152 116.758H126.455V126.455H136.152V116.758Z" fill="black" />
  <path d="M155.546 116.758H145.849V126.455H155.546V116.758Z" fill="black" />
  <path d="M165.242 116.758H155.545V126.455H165.242V116.758Z" fill="black" />
  <path d="M204.03 116.758H194.333V126.455H204.03V116.758Z" fill="black" />
  <path d="M223.424 116.758H213.728V126.455H223.424V116.758Z" fill="black" />
  <path d="M233.121 116.758H223.424V126.455H233.121V116.758Z" fill="black" />
  <path d="M281.606 116.758H271.909V126.455H281.606V116.758Z" fill="black" />
  <path d="M39.1818 126.455H29.4849V136.152H39.1818V126.455Z" fill="black" />
  <path d="M48.8791 126.455H39.1821V136.152H48.8791V126.455Z" fill="black" />
  <path d="M97.364 126.455H87.667V136.152H97.364V126.455Z" fill="black" />
  <path d="M116.757 126.455H107.061V136.152H116.757V126.455Z" fill="black" />
  <path d="M165.242 126.455H155.545V136.152H165.242V126.455Z" fill="black" />
  <path d="M174.94 126.455H165.243V136.152H174.94V126.455Z" fill="black" />
  <path d="M194.334 126.455H184.637V136.152H194.334V126.455Z" fill="black" />
  <path d="M204.03 126.455H194.333V136.152H204.03V126.455Z" fill="black" />
  <path d="M223.424 126.455H213.728V136.152H223.424V126.455Z" fill="black" />
  <path d="M271.909 126.455H262.212V136.152H271.909V126.455Z" fill="black" />
  <path d="M281.606 126.455H271.909V136.152H281.606V126.455Z" fill="black" />
  <path d="M10.091 136.151H0.394043V145.848H10.091V136.151Z" fill="black" />
  <path d="M19.7878 136.151H10.0908V145.848H19.7878V136.151Z" fill="black" />
  <path d="M48.8791 136.151H39.1821V145.848H48.8791V136.151Z" fill="black" />
  <path d="M68.2727 136.151H58.5757V145.848H68.2727V136.151Z" fill="black" />
  <path d="M97.364 136.151H87.667V145.848H97.364V136.151Z" fill="black" />
  <path d="M126.455 136.151H116.758V145.848H126.455V136.151Z" fill="black" />
  <path d="M136.152 136.151H126.455V145.848H136.152V136.151Z" fill="black" />
  <path d="M145.848 136.151H136.151V145.848H145.848V136.151Z" fill="black" />
  <path d="M165.242 136.151H155.545V145.848H165.242V136.151Z" fill="black" />
  <path d="M194.334 136.151H184.637V145.848H194.334V136.151Z" fill="black" />
  <path d="M204.03 136.151H194.333V145.848H204.03V136.151Z" fill="black" />
  <path d="M223.424 136.151H213.728V145.848H223.424V136.151Z" fill="black" />
  <path d="M281.606 136.151H271.909V145.848H281.606V136.151Z" fill="black" />
  <path d="M39.1818 145.849H29.4849V155.546H39.1818V145.849Z" fill="black" />
  <path d="M58.5759 145.849H48.8789V155.546H58.5759V145.849Z" fill="black" />
  <path d="M87.6667 145.849H77.9697V155.546H87.6667V145.849Z" fill="black" />
  <path d="M145.848 145.849H136.151V155.546H145.848V145.849Z" fill="black" />
  <path d="M155.546 145.849H145.849V155.546H155.546V145.849Z" fill="black" />
  <path d="M165.242 145.849H155.545V155.546H165.242V145.849Z" fill="black" />
  <path d="M184.636 145.849H174.939V155.546H184.636V145.849Z" fill="black" />
  <path d="M204.03 145.849H194.333V155.546H204.03V145.849Z" fill="black" />
  <path d="M213.727 145.849H204.03V155.546H213.727V145.849Z" fill="black" />
  <path d="M233.121 145.849H223.424V155.546H233.121V145.849Z" fill="black" />
  <path d="M10.091 155.545H0.394043V165.242H10.091V155.545Z" fill="black" />
  <path d="M19.7878 155.545H10.0908V165.242H19.7878V155.545Z" fill="black" />
  <path d="M29.4851 155.545H19.7881V165.242H29.4851V155.545Z" fill="black" />
  <path d="M48.8791 155.545H39.1821V165.242H48.8791V155.545Z" fill="black" />
  <path d="M58.5759 155.545H48.8789V165.242H58.5759V155.545Z" fill="black" />
  <path d="M68.2727 155.545H58.5757V165.242H68.2727V155.545Z" fill="black" />
  <path d="M77.9699 155.545H68.2729V165.242H77.9699V155.545Z" fill="black" />
  <path d="M97.364 155.545H87.667V165.242H97.364V155.545Z" fill="black" />
  <path d="M107.061 155.545H97.3638V165.242H107.061V155.545Z" fill="black" />
  <path d="M116.757 155.545H107.061V165.242H116.757V155.545Z" fill="black" />
  <path d="M126.455 155.545H116.758V165.242H126.455V155.545Z" fill="black" />
  <path d="M136.152 155.545H126.455V165.242H136.152V155.545Z" fill="black" />
  <path d="M145.848 155.545H136.151V165.242H145.848V155.545Z" fill="black" />
  <path d="M165.242 155.545H155.545V165.242H165.242V155.545Z" fill="black" />
  <path d="M204.03 155.545H194.333V165.242H204.03V155.545Z" fill="black" />
  <path d="M223.424 155.545H213.728V165.242H223.424V155.545Z" fill="black" />
  <path d="M281.606 155.545H271.909V165.242H281.606V155.545Z" fill="black" />
  <path d="M19.7878 165.243H10.0908V174.94H19.7878V165.243Z" fill="black" />
  <path d="M48.8791 165.243H39.1821V174.94H48.8791V165.243Z" fill="black" />
  <path d="M77.9699 165.243H68.2729V174.94H77.9699V165.243Z" fill="black" />
  <path d="M87.6667 165.243H77.9697V174.94H87.6667V165.243Z" fill="black" />
  <path d="M97.364 165.243H87.667V174.94H97.364V165.243Z" fill="black" />
  <path d="M116.757 165.243H107.061V174.94H116.757V165.243Z" fill="black" />
  <path d="M136.152 165.243H126.455V174.94H136.152V165.243Z" fill="black" />
  <path d="M145.848 165.243H136.151V174.94H145.848V165.243Z" fill="black" />
  <path d="M174.94 165.243H165.243V174.94H174.94V165.243Z" fill="black" />
  <path d="M194.334 165.243H184.637V174.94H194.334V165.243Z" fill="black" />
  <path d="M204.03 165.243H194.333V174.94H204.03V165.243Z" fill="black" />
  <path d="M223.424 165.243H213.728V174.94H223.424V165.243Z" fill="black" />
  <path d="M233.121 165.243H223.424V174.94H233.121V165.243Z" fill="black" />
  <path d="M262.212 165.243H252.515V174.94H262.212V165.243Z" fill="black" />
  <path d="M271.909 165.243H262.212V174.94H271.909V165.243Z" fill="black" />
  <path d="M281.606 165.243H271.909V174.94H281.606V165.243Z" fill="black" />
  <path d="M10.091 174.939H0.394043V184.636H10.091V174.939Z" fill="black" />
  <path d="M19.7878 174.939H10.0908V184.636H19.7878V174.939Z" fill="black" />
  <path d="M48.8791 174.939H39.1821V184.636H48.8791V174.939Z" fill="black" />
  <path d="M58.5759 174.939H48.8789V184.636H58.5759V174.939Z" fill="black" />
  <path d="M68.2727 174.939H58.5757V184.636H68.2727V174.939Z" fill="black" />
  <path d="M77.9699 174.939H68.2729V184.636H77.9699V174.939Z" fill="black" />
  <path d="M97.364 174.939H87.667V184.636H97.364V174.939Z" fill="black" />
  <path d="M107.061 174.939H97.3638V184.636H107.061V174.939Z" fill="black" />
  <path d="M116.757 174.939H107.061V184.636H116.757V174.939Z" fill="black" />
  <path d="M155.546 174.939H145.849V184.636H155.546V174.939Z" fill="black" />
  <path d="M165.242 174.939H155.545V184.636H165.242V174.939Z" fill="black" />
  <path d="M174.94 174.939H165.243V184.636H174.94V174.939Z" fill="black" />
  <path d="M194.334 174.939H184.637V184.636H194.334V174.939Z" fill="black" />
  <path d="M252.515 174.939H242.818V184.636H252.515V174.939Z" fill="black" />
  <path d="M281.606 174.939H271.909V184.636H281.606V174.939Z" fill="black" />
  <path d="M48.8791 184.637H39.1821V194.334H48.8791V184.637Z" fill="black" />
  <path d="M58.5759 184.637H48.8789V194.334H58.5759V184.637Z" fill="black" />
  <path d="M97.364 184.637H87.667V194.334H97.364V184.637Z" fill="black" />
  <path d="M107.061 184.637H97.3638V194.334H107.061V184.637Z" fill="black" />
  <path d="M126.455 184.637H116.758V194.334H126.455V184.637Z" fill="black" />
  <path d="M136.152 184.637H126.455V194.334H136.152V184.637Z" fill="black" />
  <path d="M165.242 184.637H155.545V194.334H165.242V184.637Z" fill="black" />
  <path d="M184.636 184.637H174.939V194.334H184.636V184.637Z" fill="black" />
  <path d="M213.727 184.637H204.03V194.334H213.727V184.637Z" fill="black" />
  <path d="M233.121 184.637H223.424V194.334H233.121V184.637Z" fill="black" />
  <path d="M10.091 194.333H0.394043V204.03H10.091V194.333Z" fill="black" />
  <path d="M19.7878 194.333H10.0908V204.03H19.7878V194.333Z" fill="black" />
  <path d="M39.1818 194.333H29.4849V204.03H39.1818V194.333Z" fill="black" />
  <path d="M48.8791 194.333H39.1821V204.03H48.8791V194.333Z" fill="black" />
  <path d="M68.2727 194.333H58.5757V204.03H68.2727V194.333Z" fill="black" />
  <path d="M77.9699 194.333H68.2729V204.03H77.9699V194.333Z" fill="black" />
  <path d="M107.061 194.333H97.3638V204.03H107.061V194.333Z" fill="black" />
  <path d="M116.757 194.333H107.061V204.03H116.757V194.333Z" fill="black" />
  <path d="M136.152 194.333H126.455V204.03H136.152V194.333Z" fill="black" />
  <path d="M155.546 194.333H145.849V204.03H155.546V194.333Z" fill="black" />
  <path d="M184.636 194.333H174.939V204.03H184.636V194.333Z" fill="black" />
  <path d="M204.03 194.333H194.333V204.03H204.03V194.333Z" fill="black" />
  <path d="M213.727 194.333H204.03V204.03H213.727V194.333Z" fill="black" />
  <path d="M223.424 194.333H213.728V204.03H223.424V194.333Z" fill="black" />
  <path d="M233.121 194.333H223.424V204.03H233.121V194.333Z" fill="black" />
  <path d="M242.818 194.333H233.121V204.03H242.818V194.333Z" fill="black" />
  <path d="M252.515 194.333H242.818V204.03H252.515V194.333Z" fill="black" />
  <path d="M271.909 194.333H262.212V204.03H271.909V194.333Z" fill="black" />
  <path d="M87.6667 204.03H77.9697V213.727H87.6667V204.03Z" fill="black" />
  <path d="M97.364 204.03H87.667V213.727H97.364V204.03Z" fill="black" />
  <path d="M107.061 204.03H97.3638V213.727H107.061V204.03Z" fill="black" />
  <path d="M116.757 204.03H107.061V213.727H116.757V204.03Z" fill="black" />
  <path d="M126.455 204.03H116.758V213.727H126.455V204.03Z" fill="black" />
  <path d="M155.546 204.03H145.849V213.727H155.546V204.03Z" fill="black" />
  <path d="M174.94 204.03H165.243V213.727H174.94V204.03Z" fill="black" />
  <path d="M194.334 204.03H184.637V213.727H194.334V204.03Z" fill="black" />
  <path d="M204.03 204.03H194.333V213.727H204.03V204.03Z" fill="black" />
  <path d="M242.818 204.03H233.121V213.727H242.818V204.03Z" fill="black" />
  <path d="M252.515 204.03H242.818V213.727H252.515V204.03Z" fill="black" />
  <path d="M262.212 204.03H252.515V213.727H262.212V204.03Z" fill="black" />
  <path d="M281.606 204.03H271.909V213.727H281.606V204.03Z" fill="black" />
  <path d="M87.6667 213.728H77.9697V223.424H87.6667V213.728Z" fill="black" />
  <path d="M97.364 213.728H87.667V223.424H97.364V213.728Z" fill="black" />
  <path d="M107.061 213.728H97.3638V223.424H107.061V213.728Z" fill="black" />
  <path d="M116.757 213.728H107.061V223.424H116.757V213.728Z" fill="black" />
  <path d="M126.455 213.728H116.758V223.424H126.455V213.728Z" fill="black" />
  <path d="M136.152 213.728H126.455V223.424H136.152V213.728Z" fill="black" />
  <path d="M145.848 213.728H136.151V223.424H145.848V213.728Z" fill="black" />
  <path d="M155.546 213.728H145.849V223.424H155.546V213.728Z" fill="black" />
  <path d="M204.03 213.728H194.333V223.424H204.03V213.728Z" fill="black" />
  <path d="M223.424 213.728H213.728V223.424H223.424V213.728Z" fill="black" />
  <path d="M242.818 213.728H233.121V223.424H242.818V213.728Z" fill="black" />
  <path d="M281.606 213.728H271.909V223.424H281.606V213.728Z" fill="black" />
  <path d="M107.061 223.424H97.3638V233.121H107.061V223.424Z" fill="black" />
  <path d="M116.757 223.424H107.061V233.121H116.757V223.424Z" fill="black" />
  <path d="M126.455 223.424H116.758V233.121H126.455V223.424Z" fill="black" />
  <path d="M145.848 223.424H136.151V233.121H145.848V223.424Z" fill="black" />
  <path d="M155.546 223.424H145.849V233.121H155.546V223.424Z" fill="black" />
  <path d="M184.636 223.424H174.939V233.121H184.636V223.424Z" fill="black" />
  <path d="M194.334 223.424H184.637V233.121H194.334V223.424Z" fill="black" />
  <path d="M204.03 223.424H194.333V233.121H204.03V223.424Z" fill="black" />
  <path d="M242.818 223.424H233.121V233.121H242.818V223.424Z" fill="black" />
  <path d="M97.364 233.121H87.667V242.818H97.364V233.121Z" fill="black" />
  <path d="M107.061 233.121H97.3638V242.818H107.061V233.121Z" fill="black" />
  <path d="M116.757 233.121H107.061V242.818H116.757V233.121Z" fill="black" />
  <path d="M126.455 233.121H116.758V242.818H126.455V233.121Z" fill="black" />
  <path d="M136.152 233.121H126.455V242.818H136.152V233.121Z" fill="black" />
  <path d="M145.848 233.121H136.151V242.818H145.848V233.121Z" fill="black" />
  <path d="M155.546 233.121H145.849V242.818H155.546V233.121Z" fill="black" />
  <path d="M184.636 233.121H174.939V242.818H184.636V233.121Z" fill="black" />
  <path d="M194.334 233.121H184.637V242.818H194.334V233.121Z" fill="black" />
  <path d="M204.03 233.121H194.333V242.818H204.03V233.121Z" fill="black" />
  <path d="M213.727 233.121H204.03V242.818H213.727V233.121Z" fill="black" />
  <path d="M223.424 233.121H213.728V242.818H223.424V233.121Z" fill="black" />
  <path d="M233.121 233.121H223.424V242.818H233.121V233.121Z" fill="black" />
  <path d="M242.818 233.121H233.121V242.818H242.818V233.121Z" fill="black" />
  <path d="M252.515 233.121H242.818V242.818H252.515V233.121Z" fill="black" />
  <path d="M271.909 233.121H262.212V242.818H271.909V233.121Z" fill="black" />
  <path d="M281.606 233.121H271.909V242.818H281.606V233.121Z" fill="black" />
  <path d="M97.364 242.818H87.667V252.515H97.364V242.818Z" fill="black" />
  <path d="M107.061 242.818H97.3638V252.515H107.061V242.818Z" fill="black" />
  <path d="M116.757 242.818H107.061V252.515H116.757V242.818Z" fill="black" />
  <path d="M126.455 242.818H116.758V252.515H126.455V242.818Z" fill="black" />
  <path d="M136.152 242.818H126.455V252.515H136.152V242.818Z" fill="black" />
  <path d="M145.848 242.818H136.151V252.515H145.848V242.818Z" fill="black" />
  <path d="M155.546 242.818H145.849V252.515H155.546V242.818Z" fill="black" />
  <path d="M184.636 242.818H174.939V252.515H184.636V242.818Z" fill="black" />
  <path d="M204.03 242.818H194.333V252.515H204.03V242.818Z" fill="black" />
  <path d="M213.727 242.818H204.03V252.515H213.727V242.818Z" fill="black" />
  <path d="M233.121 242.818H223.424V252.515H233.121V242.818Z" fill="black" />
  <path d="M242.818 242.818H233.121V252.515H242.818V242.818Z" fill="black" />
  <path d="M252.515 242.818H242.818V252.515H252.515V242.818Z" fill="black" />
  <path d="M262.212 242.818H252.515V252.515H262.212V242.818Z" fill="black" />
  <path d="M281.606 242.818H271.909V252.515H281.606V242.818Z" fill="black" />
  <path d="M87.6667 252.515H77.9697V262.212H87.6667V252.515Z" fill="black" />
  <path d="M97.364 252.515H87.667V262.212H97.364V252.515Z" fill="black" />
  <path d="M107.061 252.515H97.3638V262.212H107.061V252.515Z" fill="black" />
  <path d="M155.546 252.515H145.849V262.212H155.546V252.515Z" fill="black" />
  <path d="M184.636 252.515H174.939V262.212H184.636V252.515Z" fill="black" />
  <path d="M194.334 252.515H184.637V262.212H194.334V252.515Z" fill="black" />
  <path d="M204.03 252.515H194.333V262.212H204.03V252.515Z" fill="black" />
  <path d="M213.727 252.515H204.03V262.212H213.727V252.515Z" fill="black" />
  <path d="M242.818 252.515H233.121V262.212H242.818V252.515Z" fill="black" />
  <path d="M271.909 252.515H262.212V262.212H271.909V252.515Z" fill="black" />
  <path d="M281.606 252.515H271.909V262.212H281.606V252.515Z" fill="black" />
  <path d="M97.364 262.212H87.667V271.909H97.364V262.212Z" fill="black" />
  <path d="M116.757 262.212H107.061V271.909H116.757V262.212Z" fill="black" />
  <path d="M126.455 262.212H116.758V271.909H126.455V262.212Z" fill="black" />
  <path d="M145.848 262.212H136.151V271.909H145.848V262.212Z" fill="black" />
  <path d="M165.242 262.212H155.545V271.909H165.242V262.212Z" fill="black" />
  <path d="M194.334 262.212H184.637V271.909H194.334V262.212Z" fill="black" />
  <path d="M204.03 262.212H194.333V271.909H204.03V262.212Z" fill="black" />
  <path d="M213.727 262.212H204.03V271.909H213.727V262.212Z" fill="black" />
  <path d="M223.424 262.212H213.728V271.909H223.424V262.212Z" fill="black" />
  <path d="M233.121 262.212H223.424V271.909H233.121V262.212Z" fill="black" />
  <path d="M242.818 262.212H233.121V271.909H242.818V262.212Z" fill="black" />
  <path d="M252.515 262.212H242.818V271.909H252.515V262.212Z" fill="black" />
  <path d="M87.6667 271.909H77.9697V281.606H87.6667V271.909Z" fill="black" />
  <path d="M97.364 271.909H87.667V281.606H97.364V271.909Z" fill="black" />
  <path d="M107.061 271.909H97.3638V281.606H107.061V271.909Z" fill="black" />
  <path d="M126.455 271.909H116.758V281.606H126.455V271.909Z" fill="black" />
  <path d="M145.848 271.909H136.151V281.606H145.848V271.909Z" fill="black" />
  <path d="M155.546 271.909H145.849V281.606H155.546V271.909Z" fill="black" />
  <path d="M184.636 271.909H174.939V281.606H184.636V271.909Z" fill="black" />
  <path d="M204.03 271.909H194.333V281.606H204.03V271.909Z" fill="black" />
  <path d="M242.818 271.909H233.121V281.606H242.818V271.909Z" fill="black" />
  <path d="M281.606 271.909H271.909V281.606H281.606V271.909Z" fill="black" />
  <path
    d="M58.091 0.394043H10.5759H0.394043V10.5759V58.091V68.2728H10.5759H58.091H68.2728V58.091V10.5759V0.394043H58.091ZM58.091 58.091H10.5759V10.5759H58.091V58.091Z"
    fill="black" />
  <path
    d="M271.425 0.394043H223.909H213.728V10.5759V58.091V68.2728H223.909H271.425H281.606V58.091V10.5759V0.394043H271.425ZM271.425 58.091H223.909V10.5759H271.425V58.091Z"
    fill="black" />
  <path
    d="M58.091 213.728H10.5759H0.394043V223.909V271.425V281.606H10.5759H58.091H68.2728V271.425V223.909V213.728H58.091ZM58.091 271.425H10.5759V223.909H58.091V271.425Z"
    fill="black" />
  <path d="M48.879 19.7881H19.7881V48.879H48.879V19.7881Z" fill="black" />
  <path d="M262.212 19.7881H233.121V48.879H262.212V19.7881Z" fill="black" />
  <path d="M48.879 233.121H19.7881V262.212H48.879V233.121Z" fill="black" />
</svg>