<svg viewBox="0 0 21 20" fill="none" xmlns="http://www.w3.org/2000/svg">
<path d="M15.169 0C18.57 0 20.49 1.929 20.5 5.33V14.67C20.5 18.07 18.57 20 15.169 20H5.83C2.429 20 0.5 18.07 0.5 14.67V5.33C0.5 1.929 2.429 0 5.83 0H15.169ZM11 4.13C10.719 3.96 10.379 3.96 10.11 4.13C9.839 4.299 9.69 4.61 9.719 4.92V15.11C9.77 15.54 10.129 15.86 10.549 15.86C10.98 15.86 11.339 15.54 11.379 15.11V4.92C11.419 4.61 11.27 4.299 11 4.13ZM6.33 7.41C6.06 7.24 5.719 7.24 5.45 7.41C5.179 7.58 5.03 7.889 5.06 8.2V15.11C5.099 15.54 5.459 15.86 5.889 15.86C6.32 15.86 6.679 15.54 6.719 15.11V8.2C6.75 7.889 6.599 7.58 6.33 7.41ZM15.589 11.04C15.32 10.87 14.98 10.87 14.7 11.04C14.429 11.21 14.28 11.509 14.32 11.83V15.11C14.36 15.54 14.719 15.86 15.15 15.86C15.57 15.86 15.929 15.54 15.98 15.11V11.83C16.009 11.509 15.86 11.21 15.589 11.04Z" fill="currentColor"/>
</svg>
