<svg viewBox="0 0 32 32" fill="none" xmlns="http://www.w3.org/2000/svg">
  <path
    d="M31.5208 19.8705C29.3839 28.442 20.7024 33.6584 12.1298 31.521C3.5609 29.3841 -1.65555 20.702 0.482301 12.1312C2.61828 3.5587 11.2998 -1.65814 19.8697 0.478775C28.4416 2.61569 33.6578 11.2987 31.5206 19.8706L31.5208 19.8705H31.5208Z"
    fill="#F7931A" />
  <path fill-rule="evenodd" clip-rule="evenodd"
    d="M23.0573 13.7204C23.3758 11.5912 21.7547 10.4466 19.538 9.68311L20.2571 6.79886L18.5014 6.36137L17.8014 9.16969C17.3398 9.05457 16.8658 8.94609 16.3947 8.83856L17.0998 6.01171L15.3451 5.57422L14.6256 8.45754C14.2437 8.37057 13.8685 8.28462 13.5046 8.19406L13.5066 8.18499L11.0854 7.58037L10.6183 9.45561C10.6183 9.45561 11.9209 9.7542 11.8935 9.77258C12.6045 9.95003 12.733 10.4207 12.7117 10.7937L11.8926 14.0796C11.9415 14.092 12.005 14.11 12.0751 14.1381L12.0241 14.1254C11.9808 14.1146 11.9357 14.1033 11.8895 14.0922L10.7414 18.6952C10.6545 18.9113 10.4339 19.2354 9.93685 19.1123C9.95445 19.1378 8.66075 18.7939 8.66075 18.7939L7.78906 20.8036L10.0739 21.3732C10.3241 21.4359 10.5713 21.5004 10.8161 21.5642C10.9871 21.6088 11.1569 21.653 11.3256 21.6962L10.5991 24.6135L12.3528 25.051L13.0723 22.1646C13.5514 22.2947 14.0163 22.4147 14.4715 22.5278L13.7544 25.4005L15.5102 25.838L16.2367 22.9261C19.2306 23.4927 21.4818 23.2643 22.4293 20.5563C23.1929 18.3761 22.3913 17.1185 20.8162 16.2984C21.9635 16.0339 22.8276 15.2793 23.058 13.7207L23.0574 13.7203L23.0573 13.7204ZM19.0459 19.3455C18.548 21.3458 15.417 20.5188 13.9845 20.1405C13.8556 20.1064 13.7405 20.076 13.6423 20.0516L14.6064 16.1867C14.7261 16.2165 14.8724 16.2494 15.0381 16.2866L15.0381 16.2866C16.5199 16.6191 19.5559 17.3004 19.0459 19.3455H19.0459ZM15.3347 14.4928C16.5291 14.8115 19.1345 15.5069 19.5883 13.6888H19.5884C20.0517 11.8294 17.5197 11.2689 16.2831 10.9951C16.1439 10.9643 16.0212 10.9371 15.921 10.9121L15.0469 14.4174C15.1294 14.438 15.2262 14.4638 15.3347 14.4928Z"
    fill="white" />
</svg>