<svg viewBox="0 0 32 32" fill="none" xmlns="http://www.w3.org/2000/svg">
  <circle cx="16" cy="16" r="16" fill="#8DC351" />
  <path fill-rule="evenodd" clip-rule="evenodd"
    d="M21.2138 10.6112C20.413 8.62117 18.511 8.52167 16.2086 8.91968L15.4077 6.13361L13.706 6.63112L14.5068 9.31769C14.3446 9.358 14.1659 9.41464 13.9775 9.47438L13.9775 9.47438C13.7008 9.5621 13.4031 9.6565 13.1053 9.7157L12.3045 6.92963L10.6027 7.42714L11.4036 10.2132C11.2033 10.263 11.0282 10.3127 10.853 10.3625C10.6778 10.4122 10.5026 10.462 10.3024 10.5117L8 11.3077L8.50052 13.0988C8.50052 13.0988 9.80188 12.7008 9.70178 12.7008C10.4025 12.5018 10.7028 12.8003 10.903 13.1983L11.804 16.3824H12.0042L11.804 16.4819L13.1053 20.9595C13.1053 21.1585 13.1053 21.5565 12.6048 21.7555L11.4036 22.1535L11.6038 24.2431L13.8061 23.646L15.0073 23.3475L15.8082 26.1336L17.5099 25.6361L16.7091 22.85C17.2096 22.7505 17.61 22.651 18.1106 22.452L18.9114 25.2381L20.6132 24.7406L19.8123 21.9545C22.6153 20.9595 24.4172 19.6659 23.9166 16.8799C23.5162 14.6908 22.2149 13.9943 20.413 14.0938C21.414 13.0988 21.8144 12.1038 21.2138 10.6112ZM20.6135 17.3774C21.1429 19.2194 18.3275 20.0562 16.83 20.5013L16.8299 20.5013C16.6287 20.5611 16.4513 20.6139 16.309 20.661L15.2078 16.8799C15.3657 16.8407 15.5633 16.7825 15.7892 16.7161C17.2816 16.2771 20.0048 15.4761 20.6135 17.3774ZM14.9864 15.1082C16.1833 14.7701 18.7633 14.0413 18.211 12.3027C17.7582 10.5024 15.2573 11.3079 14.0434 11.6989C13.9154 11.7401 13.8017 11.7767 13.7063 11.8052L14.7073 15.1883C14.7878 15.1643 14.8818 15.1377 14.9864 15.1082Z"
    fill="white" />
</svg>