<svg viewBox="0 0 32 32" fill="none" xmlns="http://www.w3.org/2000/svg">
  <path
    d="M31.5177 19.8705C29.3808 28.442 20.6992 33.6584 12.1267 31.521C3.55778 29.3841 -1.65868 20.702 0.479177 12.1312C2.61515 3.5587 11.2967 -1.65814 19.8666 0.478775C28.4385 2.61569 33.6546 11.2987 31.5175 19.8706L31.5176 19.8705H31.5177Z"
    fill="url(#paint0_linear_710_27204)" />
  <path fill-rule="evenodd" clip-rule="evenodd"
    d="M23.0542 13.7204C23.3727 11.5912 21.7516 10.4466 19.5349 9.68311L20.254 6.79886L18.4983 6.36137L17.7983 9.16969C17.3367 9.05457 16.8627 8.94609 16.3915 8.83856L17.0967 6.01171L15.342 5.57422L14.6225 8.45754C14.2406 8.37057 13.8654 8.28462 13.5014 8.19406L13.5035 8.18499L11.0823 7.58037L10.6152 9.45561C10.6152 9.45561 11.9178 9.7542 11.8904 9.77258C12.6013 9.95003 12.7299 10.4207 12.7086 10.7937L11.8894 14.0796C11.9384 14.092 12.0019 14.11 12.072 14.1381L12.021 14.1254C11.9777 14.1146 11.9326 14.1033 11.8864 14.0922L10.7382 18.6952C10.6513 18.9113 10.4308 19.2354 9.93372 19.1123C9.95132 19.1378 8.65762 18.7939 8.65762 18.7939L7.78593 20.8036L10.0707 21.3732C10.3209 21.4359 10.5682 21.5004 10.8129 21.5642C10.984 21.6088 11.1538 21.653 11.3225 21.6962L10.596 24.6135L12.3497 25.051L13.0692 22.1646C13.5483 22.2947 14.0132 22.4147 14.4684 22.5278L13.7513 25.4005L15.5071 25.838L16.2336 22.9261C19.2275 23.4927 21.4786 23.2643 22.4262 20.5563C23.1897 18.3761 22.3882 17.1185 20.8131 16.2984C21.9603 16.0339 22.8244 15.2793 23.0548 13.7207L23.0543 13.7203L23.0542 13.7204ZM19.0427 19.3456C18.5448 21.3459 15.4138 20.5189 13.9813 20.1405C13.8524 20.1065 13.7373 20.0761 13.6391 20.0517L14.6032 16.1867C14.7229 16.2166 14.8692 16.2494 15.0349 16.2866L15.0349 16.2866C16.5167 16.6192 19.5527 17.3005 19.0427 19.3456H19.0427ZM15.3316 14.4928C16.5259 14.8115 19.1314 15.5069 19.5851 13.6888H19.5853C20.0486 11.8294 17.5166 11.2689 16.2799 10.9951C16.1408 10.9643 16.0181 10.9371 15.9179 10.9121L15.0437 14.4174C15.1263 14.438 15.2231 14.4638 15.3316 14.4928Z"
    fill="white" />
  <defs>
    <linearGradient id="paint0_linear_710_27204" x1="0" y1="0" x2="0" y2="32" gradientUnits="userSpaceOnUse">
      <stop stop-color="#FCC538" />
      <stop offset="1" stop-color="#F7931A" />
    </linearGradient>
  </defs>
</svg>