<svg viewBox="0 0 32 32" fill="none" xmlns="http://www.w3.org/2000/svg">
  <circle cx="16" cy="16" r="16" fill="#988430" />
  <circle cx="16" cy="16" r="15.4875" fill="#7A6A2A" />
  <ellipse cx="16.0002" cy="15.9999" rx="15.1612" ry="15.1612" fill="#BA9F33" />
  <path fill-rule="evenodd" clip-rule="evenodd"
    d="M6.99561 14.2914C6.90499 14.2087 6.80924 14.1257 6.72118 14.0429C6.63311 13.9602 6.54266 13.8772 6.45204 13.7945L6.18272 13.5385C6.13869 13.4944 6.0921 13.4557 6.04807 13.4115C6.00404 13.3727 5.95232 13.3287 5.90829 13.2898C5.55092 12.9507 5.19149 12.6116 4.83907 12.2723C5.20412 12.6063 5.5615 12.9379 5.92655 13.2768L6.05336 13.4038C6.09739 13.4477 6.14398 13.4866 6.18801 13.5306L6.45716 13.7791C6.54778 13.8619 6.63584 13.9448 6.72647 14.0351C6.81709 14.1254 6.90516 14.2085 6.99578 14.2911L6.99561 14.2914ZM2.25313 14.2402C2.25313 14.2402 3.55275 14.3747 4.18712 14.4654C4.77473 14.5483 6.61298 14.8304 6.61298 14.8304L2.25313 14.2402ZM2.2533 14.2403C2.61835 14.2714 2.98341 14.3101 3.34847 14.349C3.53483 14.3671 3.71352 14.3878 3.89221 14.4058L4.16647 14.4371C4.2571 14.4499 4.34516 14.4629 4.43578 14.4758L5.52327 14.6492L6.06685 14.7398C6.24553 14.7709 6.42422 14.8047 6.61059 14.8358C6.4319 14.8177 6.24553 14.7917 6.06685 14.7658L5.52327 14.6881L4.43578 14.5277C4.34516 14.5147 4.2571 14.4965 4.16647 14.4837L3.89204 14.4521C3.71335 14.434 3.52698 14.4081 3.3483 14.3872C2.98324 14.3434 2.61818 14.2966 2.25313 14.2398L2.2533 14.2403ZM6.48456 15.1692C6.48456 15.1692 5.09687 15.5214 4.62822 15.6561C4.16742 15.7829 2.77188 16.2075 2.77188 16.2075L6.48439 15.1693L6.48456 15.1692Z"
    fill="#CFB66C" />
  <path fill-rule="evenodd" clip-rule="evenodd"
    d="M6.48335 15.1688C6.1753 15.2594 5.86895 15.3475 5.55646 15.4304L4.62957 15.6789C4.32152 15.7695 4.01517 15.8576 3.70797 15.9482L3.24717 16.075C3.09442 16.119 2.93912 16.1578 2.78125 16.202C2.93383 16.1508 3.0893 16.0984 3.24205 16.0544L3.70285 15.9069C4.0109 15.811 4.31725 15.7204 4.62445 15.6246C4.93762 15.547 5.24585 15.464 5.55902 15.3889C5.85666 15.3138 6.17001 15.2389 6.48335 15.1689V15.1688ZM2.96563 17.0616C3.1182 17.0046 4.8788 16.184 5.28789 15.9924C5.49269 15.8965 6.08797 15.6852 6.08797 15.6852L2.96563 17.0616Z"
    fill="#CFB66C" />
  <path fill-rule="evenodd" clip-rule="evenodd"
    d="M2.96424 17.0618C3.09872 17.0106 3.2257 16.9479 3.35506 16.8884L3.73821 16.7097L4.50723 16.3395C4.76323 16.2178 5.01207 16.0835 5.27609 15.9692C5.41074 15.9123 5.5454 15.8657 5.67988 15.8217L5.88468 15.757C5.95449 15.7389 6.01934 15.7181 6.08948 15.7C5.83348 15.8217 5.564 15.9253 5.30766 16.0442C5.05166 16.1712 4.78986 16.2748 4.52567 16.3887L3.74384 16.7329C3.48136 16.8392 3.22536 16.953 2.96407 17.0618H2.96424ZM3.13438 17.7786C3.13438 17.7786 4.72909 16.844 5.27795 16.5437C5.56535 16.3832 6.4948 15.9223 6.4948 15.9223L3.13438 17.7786Z"
    fill="#CFB66C" />
  <path fill-rule="evenodd" clip-rule="evenodd"
    d="M3.13594 17.7786C3.40508 17.6129 3.67951 17.4446 3.95395 17.2738L4.36355 17.0251C4.50332 16.9424 4.63798 16.8647 4.78048 16.7819C4.92026 16.699 5.05492 16.6162 5.19725 16.5386C5.26501 16.4967 5.33601 16.4604 5.40956 16.4299L5.62699 16.3211C5.91439 16.1814 6.2018 16.0389 6.50473 15.9172C6.2303 16.0907 5.94802 16.2384 5.6659 16.3909C5.52613 16.4686 5.38362 16.5386 5.24384 16.6162C5.10407 16.6939 4.96941 16.7768 4.82691 16.8519C4.68713 16.9347 4.55247 17.0123 4.41014 17.0874L3.98808 17.3178L3.13628 17.7786H3.13594ZM6.48329 16.1265C6.48329 16.1265 5.49172 16.8877 5.1707 17.1311C4.84967 17.3745 3.90469 18.058 3.90469 18.058L6.48329 16.1265Z"
    fill="#CFB66C" />
  <path fill-rule="evenodd" clip-rule="evenodd"
    d="M12.173 22.2654L11.6656 21.3049L11.9607 20.1036L14.0655 19.2907L13.1697 17.4526L13.6124 15.5963L14.4436 13.934L17.0119 13.5302L18.8992 11.7309L22.9743 12.0389L23.7742 16.3962L22.2338 21.8823L21.3562 24.7225L17.7989 24.8572L16.1472 23.7129L14.2132 22.9049L12.173 22.2654Z"
    fill="#E2CC85" />
  <path fill-rule="evenodd" clip-rule="evenodd"
    d="M18.4128 22.2342C18.4128 22.2342 17.9208 22.4595 17.0816 22.4076C16.8388 22.0815 15.1379 21.9288 15.1379 21.9288C15.1379 21.9288 14.9256 21.8641 14.5501 22.0194C14.1723 22.173 13.8149 22.154 13.4809 22.2368C13.1469 22.3196 12.8153 21.8847 12.5593 21.7941C12.3033 21.6984 11.9638 21.468 11.9638 21.468L11.247 21.398L9.80763 20.7896L7.52087 18.5113L6.89947 19.4841L6.70781 20.688L7.39918 22.1146L9.26064 23.8104L12.8904 24.732L15.0418 24.0981L17.737 22.9589L18.4128 22.2341V22.2342Z"
    fill="#F1D789" />
  <path fill-rule="evenodd" clip-rule="evenodd"
    d="M5.51677 14.1824L5.97757 12.787L6.52661 11.8859L8.29471 11.7383L7.76394 13.2866L6.2858 15.9171L6.89934 18.2653L5.81203 18.8088L5.47786 18.2963L5.20872 17.1209L5.19063 15.8005L5.51677 14.1824Z"
    fill="#F4ECB4" />
  <path fill-rule="evenodd" clip-rule="evenodd"
    d="M7.50069 22.1385L7.16158 21.6647C7.16158 21.6647 7.07095 21.4395 7.12284 21.2427C7.17404 21.0433 7.1667 21.0304 7.14093 20.9553C7.11516 20.8802 6.89756 20.6213 6.91053 20.3986C6.92333 20.1733 6.89244 20.0982 7.05798 19.9197C7.23138 19.7463 7.17967 19.4459 7.17967 19.4459L7.40495 19.5857L7.45615 19.508C7.45615 19.508 7.53892 19.5727 7.53892 19.6737C7.55701 19.534 7.48192 18.8866 7.65276 18.7392C7.82359 18.5917 8.12653 19.4304 8.12653 19.4304L7.94016 18.2135L7.4611 16.9658L6.6093 15.8266L6.5581 14.5708V14.4621C6.5581 14.4621 6.1671 15.0628 6.05839 15.5373C5.98074 15.8634 6.1671 16.2596 6.12836 16.7282C6.09713 17.1943 6.05839 17.1579 6.17222 17.3426C6.28606 17.5273 6.56322 17.907 6.45451 18.1814C6.35876 18.4171 6.03245 18.2514 6.03245 18.2514C6.03245 18.2514 5.96777 18.4429 5.8797 18.5129C5.84864 18.399 5.81502 18.3265 5.7529 18.2569C5.74761 18.3009 5.73481 18.3605 5.73481 18.3605C5.73481 18.3605 5.6778 18.1818 5.6208 17.9565C5.54332 17.6563 5.46037 17.2602 5.38528 17.0479C5.35422 17.1696 5.27657 17.5397 5.27657 17.5397L5.3206 18.1094L5.53291 18.8912L5.73771 19.4032L5.93705 20.0298L6.11027 20.4506L6.25005 20.7716L6.37173 21.4941L6.95934 22.1153L7.27268 22.2552L7.50035 22.1387L7.50069 22.1385Z"
    fill="#F3E19D" />
  <path fill-rule="evenodd" clip-rule="evenodd"
    d="M5.82592 13.0432C5.82592 13.0432 5.40386 13.76 5.28235 14.4826C5.16084 15.2052 5.05195 15.9688 5.12875 16.9525C5.2064 17.9442 5.35403 18.5525 5.47315 18.9875C5.67795 19.7099 6.20839 20.7145 6.20839 20.7145L6.22648 20.6756C6.13732 20.5066 6.06616 20.3287 6.01417 20.1448C5.94419 19.8704 5.91825 19.5442 5.85357 19.3966C5.79657 19.2491 5.70082 19.1222 5.65423 18.9409C5.6102 18.7675 5.60303 18.4931 5.46786 18.2886C5.41086 18.2057 5.34089 17.9883 5.32024 17.7708C5.2943 17.4445 5.33321 17.0795 5.30215 16.7793C5.24514 16.2795 5.2064 15.9404 5.25812 15.6788C5.30983 15.4172 5.57931 14.6744 5.74503 14.0841C5.85374 13.7061 5.78889 13.3876 5.98823 13.0587C6.18757 12.7326 6.30942 12.4452 6.35328 12.2458C6.40448 12.0646 5.82524 13.0432 5.82524 13.0432H5.82592Z"
    fill="#F2E8B0" />
  <path fill-rule="evenodd" clip-rule="evenodd"
    d="M7.82727 12.7559C7.82727 12.7559 7.60984 12.8207 7.50625 12.9345C7.40265 13.0433 7.35862 13.1339 7.21884 13.3177C7.07907 13.5015 7.07122 13.6517 6.95721 13.8821C6.84338 14.1074 6.59215 14.4465 6.56109 14.5682C6.53003 14.6899 6.47832 15.2594 6.41364 15.5287C6.35663 15.798 6.47832 16.1294 6.47832 16.1294L6.62578 16.0982C6.62578 16.0982 6.62578 16.2899 6.7734 16.4194C6.92086 16.5462 6.9468 15.9895 6.9468 15.9895L7.49822 14.128L8.3292 13.5636L8.41982 13.1079L7.82693 12.7559H7.82727Z"
    fill="#F5EEC0" />
  <path fill-rule="evenodd" clip-rule="evenodd"
    d="M8.23046 13.6C8.23046 13.6 7.83946 13.6258 7.64798 13.7657C7.57032 13.8226 7.53926 13.8692 7.45649 13.9391C7.30374 14.0659 7.14826 14.1825 7.07334 14.3487C6.9904 14.5143 6.89977 14.7655 6.83765 15.2393C6.81171 15.4386 6.81171 15.6224 6.79362 15.783C6.76768 16.0004 6.72893 16.1738 6.74959 16.295C6.77553 16.5435 7.03187 16.673 7.05679 16.9552L7.58756 16.686L8.08727 14.7157L9.14882 14.0501L8.54807 13.377L8.22978 13.5988L8.23046 13.6Z"
    fill="#E6DB9D" />
  <path fill-rule="evenodd" clip-rule="evenodd"
    d="M5.42986 26.8678C5.43208 26.8483 5.4343 26.8289 5.43651 26.8089C5.514 26.1433 5.52714 25.6388 5.58397 25.3229C5.66674 24.8751 5.72375 24.7085 5.71078 24.5409C5.69268 24.2718 5.67203 24.075 5.69798 23.8678C5.73672 23.5934 6.00603 23.2672 5.99835 23.0419C5.99306 22.8633 5.90243 22.7469 5.82478 22.6381C5.74713 22.5294 5.685 22.4388 5.685 22.4388C5.685 22.4388 6.21578 22.0738 6.21066 20.6031C6.2215 20.6062 6.23193 20.6105 6.24172 20.6161L6.50318 21.359L6.68187 21.5764L7.36795 22.8554L8.25081 23.7125L9.55555 24.5901L10.3737 25.4804L10.4565 27.8546L9.38728 29.2423L9.21217 29.5594C7.82102 28.861 6.54533 27.9532 5.42969 26.8676L5.42986 26.8678Z"
    fill="#E5CB7A" />
  <path fill-rule="evenodd" clip-rule="evenodd"
    d="M8.69687 29.1391C8.69687 29.1391 8.71496 28.844 8.95833 28.6524C8.99724 28.7171 9.02301 28.7794 9.01533 28.8258C9.05936 28.7483 9.36742 28.2512 10.0639 28.1216C10.7604 27.9948 10.9287 27.4874 10.9287 27.4874L12.4068 26.1438L14.0974 24.5878L16.1531 23.8654L17.1138 23.6297C17.1138 23.6297 17.1319 23.6996 17.0957 23.8549C17.2742 23.8421 17.6704 23.7515 18.082 23.6065C18.2477 23.5418 18.4032 23.5158 18.486 23.6013C18.6077 23.7152 18.6257 23.9845 18.6334 24.1449C18.8328 24.1009 19.0632 23.9094 19.2478 23.9275C19.5431 23.9585 19.8045 24.3055 20.1049 24.3055C20.501 24.3055 20.6795 24.0621 20.9567 23.8705C21.1224 23.7566 21.3605 23.6145 21.4952 23.5184C21.8162 23.2827 25.213 22.2445 25.213 22.2445L26.4039 22.3222L26.5955 23.6012L26.4931 26.9445C26.4805 26.9566 26.4679 26.9693 26.4551 26.9814L21.0402 29.8095L13.5342 30.9601C11.8529 30.6854 10.2304 30.1273 8.73578 29.3096L8.69738 29.139L8.69687 29.1391Z"
    fill="#D8C173" />
  <path fill-rule="evenodd" clip-rule="evenodd"
    d="M5.88594 27.2931C5.99261 27.0701 6.08852 26.8835 6.10542 26.8168C6.11873 26.9513 6.14314 27.2464 6.19229 27.5601C6.08909 27.4723 5.98698 27.3833 5.88594 27.293V27.2931Z"
    fill="#F1D789" />
  <path fill-rule="evenodd" clip-rule="evenodd"
    d="M11.3684 30.4397L12.3391 30.1697L12.4219 30.1957C12.4219 30.1957 12.4659 30.2216 12.4659 30.3095C12.5876 30.2397 12.6912 30.2525 12.7663 30.2061C12.8051 30.2889 12.8438 30.5633 13.0148 30.5969C13.1933 30.6358 13.385 30.5192 13.5792 30.3718C13.7707 30.219 13.9888 30.0274 14.1538 29.9497C14.2144 30.0611 14.268 30.176 14.3144 30.294C14.5319 30.1206 14.9099 29.4164 15.4483 29.4292C15.604 29.0614 15.864 28.7473 16.1962 28.5257C16.6959 28.1866 17.0091 28.1606 17.4001 28.1917C17.5554 27.99 17.7467 27.8188 17.9645 27.6869C18.0292 27.7128 18.2078 27.8215 18.4306 27.7179C18.6558 27.6145 18.9095 27.2131 19.2435 27.1614C19.4234 27.1366 19.6064 27.175 19.7613 27.2701C19.7613 27.2701 20.7341 26.3043 21.4053 25.9833C21.3793 25.9056 21.3276 25.6131 22.1146 24.9658C22.1586 25.0047 22.1275 25.1134 22.1586 25.1194C22.1714 25.1194 22.3634 25.0366 22.6064 24.85C22.9068 24.6249 23.2666 24.3892 23.484 24.3246C23.8936 24.2029 24.3281 24.4514 24.3281 24.4514C24.3651 24.4255 24.4063 24.4062 24.4498 24.3944C24.5532 24.3763 24.6283 24.3633 24.6853 24.3432C24.6802 24.4778 24.7553 24.7082 24.6853 24.9076C24.7664 24.9531 24.8522 24.9896 24.9413 25.0163C24.8975 25.112 24.8016 25.3554 24.6411 25.472C24.7756 25.5366 24.7937 25.6117 24.9854 25.6768C24.9077 25.7855 24.7806 25.972 24.7239 26.0864C24.6669 26.208 24.4623 26.7129 24.3716 26.9044C24.2759 27.096 24.1465 27.4481 24.0842 27.5188C24.0219 27.5894 23.7968 27.8889 23.6234 28.0364C23.777 27.9794 24.4054 27.7879 24.672 27.7154C24.5927 27.8318 24.1904 28.4286 23.8037 29.0025C20.0578 31.2477 15.5269 31.7722 11.3672 30.4423L11.3684 30.4397Z"
    fill="#E0CD81" />
  <path fill-rule="evenodd" clip-rule="evenodd"
    d="M8.29428 13.5302C8.29428 13.5302 8.06917 13.5302 8.02514 13.5613C7.98111 13.5923 8.25042 13.6572 8.33319 13.6882C8.41597 13.7193 8.59465 13.8616 8.64125 13.9756C8.68528 14.0844 10.2593 14.7185 10.2593 14.7185L11.3726 14.6615L11.7564 14.1313L11.0263 13.4918L11.5383 11.9824L10.8601 12.0911L9.22902 13.0639L8.41085 13.3773L8.29428 13.5302Z"
    fill="#DFC57C" />
  <path fill-rule="evenodd" clip-rule="evenodd"
    d="M10.7393 14.03C10.7721 14.083 10.8306 14.1146 10.8929 14.1128C11.1233 14.1128 11.3355 14.1698 11.4235 14.2862C11.5712 14.4727 11.9803 15.0682 11.9803 15.0682L12.9589 15.4202L13.022 14.2679L11.9528 13.525L10.7359 13.9728V14.0298H10.7387L10.7393 14.03Z"
    fill="#E5CC7C" />
  <path fill-rule="evenodd" clip-rule="evenodd"
    d="M10.547 14.4571C10.547 14.4571 10.7255 14.47 10.9507 14.3871C11.176 14.3041 11.5462 14.1256 11.7068 14.1956C11.9319 14.2913 11.8853 14.5917 12.1289 14.8612C12.2763 15.0269 12.5456 15.0218 12.6984 15.2005C12.8511 15.3792 13.3766 15.2962 13.3766 15.2962L13.5759 16.3714L12.776 17.3968L12.5144 18.6705H11.4327L10.4446 18.2785L9.95781 17.1009L10.2012 15.9099L10.547 14.4571Z"
    fill="#D2C281" />
  <path fill-rule="evenodd" clip-rule="evenodd"
    d="M12.6393 14.5086C12.6661 14.5169 12.694 14.5213 12.722 14.5216C12.691 14.5475 12.6261 14.6044 12.6521 14.752C12.678 14.8996 12.7608 15.086 12.691 15.1998C12.7467 15.2608 12.7883 15.3333 12.8127 15.4121C12.8567 15.5391 12.8697 15.6555 13.1569 15.6738C13.1154 15.6993 13.0772 15.7297 13.0431 15.7644C13.0431 15.7644 13.2424 15.9378 13.3434 16.0982C13.4469 16.0938 13.7213 16.0085 13.7213 16.0085L13.7783 16.0474L13.9 15.9962C13.9 15.9962 13.7861 15.9521 13.8689 15.6751C13.9466 15.4318 14.0165 15.4447 14.0225 15.4267C14.0285 15.4086 14.0795 15.1522 14.0795 15.0486C14.1183 14.9141 14.1493 14.5051 14.1493 14.5051L14.0665 13.6015L13.6006 13.3193L13.2217 12.9535L12.8644 13.6266L12.629 13.8613L12.6109 14.4438L12.6393 14.5086Z"
    fill="#E2C270" />
  <path fill-rule="evenodd" clip-rule="evenodd"
    d="M13.7609 13.7528C13.7609 13.7528 13.8437 13.9883 13.8749 14.1696C13.886 14.1343 13.892 14.0978 13.893 14.0609C13.893 14.0609 13.9577 14.4182 13.9705 14.5659C13.9965 14.5606 14.0217 14.5529 14.0275 14.5787C14.0333 14.6044 14.0924 14.892 14.0787 15.0524C14.1865 14.8746 14.3357 14.7254 14.5136 14.6176C14.6172 14.5527 14.7389 14.4829 14.8658 14.4776C15.0652 14.4725 15.2101 14.6046 15.4483 14.6046C16.023 14.6046 16.5435 14.1825 16.9266 14.0532C17.2087 13.9573 17.4521 13.8875 17.623 13.732C17.7059 13.6622 17.8535 13.5069 17.988 13.2763C18.1667 12.9691 18.3531 12.7017 18.5396 12.6681C18.4552 12.6836 18.3693 12.6896 18.2836 12.6861C18.2836 12.6861 18.3406 12.6291 18.4372 12.5515C18.5338 12.4738 18.6495 12.3781 18.8151 12.3781C19.1103 12.3781 19.2578 12.422 19.4235 12.422C19.5892 12.4168 19.685 12.3781 19.685 12.3781C19.685 12.3781 19.8585 12.4998 20.2493 12.4998C20.6403 12.5049 20.9018 12.5385 21.1064 12.5568C21.3111 12.575 21.997 12.4998 22.1938 12.5056C22.322 12.5105 22.448 12.5413 22.5641 12.5962L21.9297 10.753L19.651 8.76132L18.2944 9.72183L16.2074 11.8086L14.1881 12.5568L13.7661 13.0305V13.7528H13.7609Z"
    fill="#CCB360" />
  <path fill-rule="evenodd" clip-rule="evenodd"
    d="M18.2909 12.6962C18.2909 12.6962 18.348 12.6393 18.4435 12.5617C18.5391 12.484 18.656 12.3881 18.8216 12.3881C19.1166 12.3881 19.2643 12.4322 19.43 12.4322C19.5957 12.427 19.6914 12.3881 19.6914 12.3881C19.6914 12.3881 19.8652 12.5096 20.2558 12.5096C20.6468 12.5148 20.9083 12.5484 21.1129 12.5665C21.3176 12.5846 22.0035 12.5096 22.2002 12.5153C22.3285 12.5201 22.4544 12.5509 22.5704 12.6059L22.283 11.7747L21.9492 11.1406L20.9964 10.0971C20.9964 10.0971 19.8529 9.42398 19.8442 9.41886C19.8391 9.41374 19.4481 9.31015 19.4481 9.31015L18.4125 9.93667L17.4728 12.3678L17.4547 12.8798L18.0629 13.1672C18.2157 12.9112 18.3841 12.7064 18.542 12.6805C18.3995 12.696 18.2908 12.696 18.2908 12.696L18.2909 12.6962Z"
    fill="#D5B457" />
  <path fill-rule="evenodd" clip-rule="evenodd"
    d="M18.2782 12.8701C18.1876 12.8752 18.1127 12.8571 18.0919 12.7924C18.0142 12.575 17.9521 12.544 17.8871 12.544C17.822 12.544 17.7343 12.6837 17.6823 12.6965C17.6302 12.7093 17.5684 12.5361 17.5684 12.5361L17.5114 12.5102C17.5114 12.5102 17.1774 12.7276 16.9419 12.9839C16.7064 13.2403 16.3205 13.6753 16.1471 13.7528C15.9737 13.8303 15.3781 13.8564 15.1743 13.9004C14.9705 13.9444 14.7446 14.0921 14.7135 14.1257C14.6824 14.1593 14.8043 14.1955 14.8224 14.2291C14.8405 14.2602 14.6229 14.2472 14.6048 14.2803C14.592 14.3063 14.656 14.4537 14.6877 14.5288C14.7433 14.5012 14.8042 14.4862 14.8662 14.4848C15.0656 14.4797 15.2107 14.6118 15.4487 14.6118C16.0235 14.6118 16.5439 14.1897 16.9271 14.0602C17.2093 13.9644 17.4527 13.8944 17.6235 13.7391C17.7063 13.6693 17.8539 13.5139 17.9886 13.2835C18.0869 13.1256 18.1828 12.978 18.2787 12.8692L18.2782 12.8701Z"
    fill="#D2B257" />
  <path fill-rule="evenodd" clip-rule="evenodd"
    d="M10.0351 25.6829C10.0351 25.6829 9.98391 25.4912 9.50946 24.9968C9.3748 24.857 9.29203 24.7408 9.20141 24.6577C8.97613 24.4452 8.84403 24.3883 8.6836 24.2667C8.33152 24.0052 7.94837 24.0052 7.65329 23.6842C7.35821 23.3632 7.01431 22.7498 6.77538 22.1229C6.53986 21.4964 6.47501 21.2971 6.47501 21.279C6.47501 21.2609 6.53986 21.1392 6.62263 21.1573C6.70541 21.1754 6.70541 21.3358 6.72623 21.3747C6.76747 21.4382 6.81424 21.498 6.866 21.5532C6.98769 21.6932 7.16109 21.8604 7.24915 22.1099C7.23106 21.8976 7.15853 21.6621 7.15853 21.6621C7.15853 21.6621 7.61421 21.9495 8.00247 22.2497C8.39347 22.5501 8.5539 22.6537 8.66807 22.8452C8.78225 23.0367 9.05122 23.5417 9.18007 23.6893C9.30893 23.8369 11.0745 24.3935 11.0745 24.3935L11.9143 25.0196L12.3313 25.9336L12.0049 26.4456L11.3784 26.5802L10.3609 26.1245L10.0351 25.6827V25.6829Z"
    fill="#D2B159" />
  <path fill-rule="evenodd" clip-rule="evenodd"
    d="M7.77499 22.5346C7.77499 22.5346 7.9873 22.8737 8.50511 23.1947C8.9712 23.477 9.70899 23.7334 10.3667 23.8861C10.7446 23.9767 11.1226 24.0465 11.4617 24.0518C12.3757 24.0646 13.0047 23.8033 13.7842 23.7178C14.2062 23.6738 14.724 23.6402 15.2625 23.513C15.9537 23.3473 16.3628 23.1608 16.9195 22.8986C17.3233 22.7123 17.6936 22.5725 17.9938 22.3938C18.4159 22.1453 18.7239 21.8683 19.0813 21.7856C19.0373 21.9072 18.9907 22.1247 18.6386 22.3499C18.825 22.3447 19.0813 22.3319 19.0813 22.3319C19.0813 22.3319 18.8328 22.4793 18.3952 22.8107C18.1259 23.0155 17.7687 23.3622 17.4037 23.5926C17.168 23.7402 16.9116 23.8486 16.7434 23.937C16.3338 24.1623 16.1686 24.2761 15.8994 24.5514C15.9952 24.5463 16.003 24.5514 16.003 24.5514C16.003 24.5514 15.6637 24.5954 15.4205 24.7248C15.3693 24.7248 15.2806 24.7067 15.1253 24.7507C15.0036 24.7895 14.843 24.8777 14.6774 24.9241C14.4417 24.9941 14.3643 24.963 14.3643 24.963L14.403 25.0407C14.403 25.0407 14.0958 25.0354 13.9934 25.0458C14.0115 25.0509 14.0064 25.0588 14.0064 25.0588C13.9884 25.0618 13.9711 25.0679 13.9552 25.0769C13.9059 25.1088 13.8517 25.1324 13.7947 25.1467C13.7637 25.1518 13.7377 25.1518 13.6988 25.1596C13.7118 25.1907 13.8128 25.3644 13.8594 25.4668C13.8207 25.4928 13.238 25.9329 13.238 25.9329C13.2561 25.9614 13.2709 25.9918 13.2821 26.0235C13.3002 26.0804 13.308 26.1633 13.3261 26.2021C13.37 26.2797 13.3959 26.2927 13.3959 26.2927C13.3959 26.2927 13.3261 26.3057 13.2042 26.3367C13.1008 26.3627 12.9738 26.4065 12.7946 26.4325C12.7397 26.4396 12.6843 26.4439 12.6289 26.4454C12.6549 26.5024 12.7687 26.7199 12.559 26.9709C12.3492 27.222 12.2845 27.2585 12.2198 27.4189C12.1873 27.3943 12.1526 27.3726 12.1162 27.3541C12.0464 27.323 11.9505 27.2766 11.9169 27.2143C11.8973 27.2973 11.8713 27.3786 11.8393 27.4577C11.7746 27.6311 11.6788 27.8021 11.6607 27.9314C11.5908 27.8538 11.4614 27.701 11.2827 27.7321C11.104 27.7632 10.9617 28.0065 10.9306 28.0765C10.9306 28.0325 10.8996 27.9988 10.8919 28.0506C10.8866 28.1076 10.7883 28.7028 10.2394 29.1845C10.2343 29.0628 10.2343 28.7935 10.2213 28.7056C10.1701 28.7568 10.1075 28.8324 9.73459 28.993C9.36953 29.1534 9.42739 29.314 9.42739 29.314C9.42739 29.314 9.39633 29.058 9.59311 28.7883C9.79244 28.5192 9.91413 28.3922 9.91413 28.3716C9.91091 28.3505 9.90193 28.3308 9.88819 28.3146C9.86225 28.2886 9.81054 28.2576 9.81054 28.2369C9.8416 28.2241 10.1497 28.0765 10.1316 27.7708C10.1135 27.4966 9.99707 27.3541 9.91413 27.2532C9.90133 27.2402 10.036 27.1445 10.0177 27.1134C10.0048 27.0953 9.83921 26.9735 9.81839 26.9086C9.82328 26.8699 9.83197 26.8318 9.84433 26.7948C9.86242 26.7378 9.87539 26.6989 9.87027 26.6601C9.8573 26.5955 9.78732 26.4168 9.76667 26.3987C9.78476 26.4038 9.91413 26.3987 9.91413 26.3987C9.91413 26.3987 9.81071 26.233 9.79244 26.1553C9.77418 26.0776 9.73544 25.873 9.71479 25.8343C9.75882 25.8394 9.86754 25.8471 9.86754 25.8343C9.87283 25.7954 9.77179 25.7307 9.81634 25.6807C9.8474 25.6858 9.90696 25.7117 9.96379 25.7843C9.93273 25.7013 9.88102 25.5409 9.77214 25.4762C9.82334 25.4581 9.99742 25.4114 10.1502 25.502C10.3029 25.5926 10.355 25.7194 10.355 25.7194C10.355 25.7194 10.4456 25.7894 10.5855 25.893C10.746 26.0198 10.9504 26.2002 11.2767 26.3278C11.3467 26.3668 11.5252 26.3668 11.6548 26.3408C11.7112 26.3274 11.7652 26.3056 11.8152 26.2761C11.8332 26.2655 11.8523 26.2568 11.8722 26.2502C11.8444 26.1943 11.8124 26.1406 11.7764 26.0896C11.8205 26.0896 11.8722 26.0949 11.8722 26.0949C11.8722 26.0949 11.9033 26.0249 11.7635 25.8901C11.7945 25.859 11.8334 25.8389 11.8334 25.7865C11.7894 25.7814 11.7118 25.7167 11.6937 25.6907C11.7194 25.6727 11.7584 25.6131 11.8024 25.595C11.7635 25.5639 11.6677 25.4344 11.6237 25.4216C11.6658 25.406 11.7065 25.3869 11.7454 25.3646C11.7454 25.3646 11.528 25.3076 11.458 25.261C11.388 25.2098 11.2846 25.1212 11.2225 25.0953C11.1576 25.0694 11.0438 25.0566 10.9972 25.0047C11.041 25.0176 11.111 25.0047 11.1629 25.0047C11.2016 25.0047 11.2199 25.0098 11.2327 25.0098C11.2276 24.9917 11.2276 24.9528 11.3286 24.94C11.3772 24.9327 11.4244 24.9178 11.4684 24.896C11.4684 24.896 11.3725 24.8908 11.2636 24.7872C11.1547 24.6836 11.0643 24.6009 11.0021 24.5879C10.9374 24.5749 10.8158 24.6319 10.7407 24.6266C10.6371 24.6138 10.593 24.562 10.593 24.562C10.593 24.562 10.2488 24.593 9.48507 24.1271C8.82476 23.7231 8.53736 23.3659 8.53736 23.3659C8.47557 23.3435 8.41584 23.3157 8.35884 23.283C8.11035 23.1536 7.76595 22.8843 7.77636 22.532L7.77499 22.5346Z"
    fill="#C2A44D" />
  <path fill-rule="evenodd" clip-rule="evenodd"
    d="M17.299 6.99548C17.3589 7.01494 17.4121 7.05083 17.4526 7.09908C17.5743 7.23885 17.6519 7.50287 17.3749 7.78516C17.4837 7.8239 17.5285 7.83636 17.6234 7.8239C17.5277 7.9379 17.3103 8.18127 17.2973 8.39358C17.2843 8.56698 17.393 8.61886 17.393 8.61886C17.393 8.61886 17.2273 8.81035 17.2196 9.13086C17.2979 9.04261 17.3835 8.96119 17.4756 8.88749C17.6673 8.73475 17.9313 8.56135 18.11 8.45263C18.1076 8.4982 18.1137 8.54381 18.1281 8.58712C18.1281 8.58712 18.4619 8.31269 18.7425 8.43454C18.8693 8.49155 18.8123 8.67006 18.8123 8.67006C18.8123 8.67006 18.9859 8.60538 19.1076 8.72707C19.2292 8.84875 19.4013 9.16261 19.4895 9.28429C19.5282 9.34129 19.6293 9.45001 19.7327 9.61829C19.874 9.85388 19.992 10.1027 20.085 10.3612C20.0901 10.2265 20.1237 10.017 20.507 10.1489C20.8902 10.2835 21.325 10.5658 21.6901 11.1217C22.0551 11.6776 22.1456 12.3051 22.3294 12.544C22.5158 12.7744 22.7074 13.1576 22.7204 13.3182C22.7334 13.4788 22.6634 13.9964 23.0465 15.3971C23.1553 14.9622 23.321 13.9964 23.321 13.9964L23.4116 13.1446L23.5152 10.509L20.763 8.22257L18.6116 6.66132L17.2109 6.79597L17.2988 6.99531L17.299 6.99548Z"
    fill="#CAA13E" />
  <path fill-rule="evenodd" clip-rule="evenodd"
    d="M22.4123 10.9177C22.4123 10.9177 22.3734 10.6617 21.7263 10.2265C21.0789 9.79677 20.5741 9.79677 20.1082 9.43171C19.7508 9.14431 19.3781 8.484 19.1354 8.26657C18.8997 8.0517 18.8609 7.4303 18.8609 7.4303L19.6557 6.7647L20.8378 5.05616L21.837 3.95587L22.3159 4.62147L22.9815 5.4033L23.3517 6.97223L23.4863 9.26873L22.4111 10.9179L22.4123 10.9177Z"
    fill="#B59544" />
  <path fill-rule="evenodd" clip-rule="evenodd"
    d="M23.2127 13.6702C23.2323 13.3219 23.1893 12.973 23.0857 12.6399C22.9151 12.1091 22.5422 11.1667 22.3689 10.8138C22.299 10.4228 22.3509 10.3917 22.4259 10.3477C22.501 10.3036 22.7833 10.1429 22.9379 9.57882C23.0926 9.01476 23.5723 8.99633 23.5723 8.99633L23.8674 8.7789L24.3154 9.89984L24.7062 10.9122L24.8279 11.6864L24.9185 12.3465L24.7062 13.7421L23.6578 14.6896L23.2126 13.6702H23.2127Z"
    fill="#C89D3A" />
  <path fill-rule="evenodd" clip-rule="evenodd"
    d="M8.58281 29.225V29.1963C8.6046 29.1827 8.62383 29.1654 8.63964 29.1451C8.65773 29.1192 8.67087 29.0881 8.68367 29.0804C8.70961 29.0675 8.8313 29.0292 8.89598 29.0415C8.96067 29.0538 9.13167 29.1243 9.2223 29.1192C9.40867 29.1141 9.62609 28.9716 9.9705 29.0364C10.4883 29.1322 10.61 29.4842 10.9104 29.6836C11.1152 29.8235 11.3271 29.7612 11.3582 29.7612H11.428C11.441 29.7612 11.5367 29.6525 11.5886 29.6578C11.6922 29.6629 11.7024 29.7484 11.7671 29.7536C11.9199 29.7716 12.2151 29.6759 12.3627 29.7148C12.4516 29.7426 12.5212 29.8122 12.5491 29.901C12.5802 29.9968 12.5542 30.1184 12.4791 30.1884C12.3187 30.3359 12.166 30.4758 12.1349 30.598C12.1744 30.6281 12.2123 30.6603 12.2486 30.6943C10.9676 30.3679 9.73508 29.8744 8.58281 29.2265V29.225Z"
    fill="#CEB052" />
  <path fill-rule="evenodd" clip-rule="evenodd"
    d="M22.3687 24.0517C22.3687 24.0517 22.7725 23.5132 22.9125 23.2465C23.0523 22.9715 22.4698 19.4899 22.4698 19.4899L23.64 15.6557L23.6088 14.4078C23.6088 14.4078 23.6658 13.2556 23.8005 12.7559C23.9611 13.0433 24.4608 13.3903 24.5695 13.5741C24.6207 13.2219 24.7946 12.4789 24.7688 11.6867C24.8646 11.8342 25.095 13.3178 25.095 13.3178L25.3254 14.317L25.6257 15.3786L25.9597 16.4997L26.1591 17.2738L26.2729 17.4602L26.3688 17.7863L26.4595 18.1386L26.7209 18.9644L26.8745 19.6427L26.9962 20.8725C27.0227 20.9667 27.0417 21.0628 27.0532 21.1599C27.0583 21.2946 27.0351 21.3722 27.0351 21.3956C27.0351 21.419 27.0791 21.6907 27.0611 21.8953C27.0351 22.1001 27.0351 22.2604 26.8745 22.4073C26.7139 22.5542 26.6131 23.4325 26.6131 23.4325L26.3256 23.241C26.3256 23.241 26.3827 22.9794 26.248 22.7413C26.1133 22.5032 25.8519 22.4539 25.7043 22.4928C25.5568 22.5239 25.2617 22.5703 25.1658 22.6532C25.0752 22.736 24.8526 22.9923 24.648 23.1089C24.392 23.2625 23.9749 23.2746 23.7523 23.3263C23.5271 23.3775 23.2786 23.5311 23.0169 23.7095C22.8118 23.8423 22.5952 23.9565 22.3698 24.0508L22.3687 24.0517Z"
    fill="#CCA847" />
  <path fill-rule="evenodd" clip-rule="evenodd"
    d="M22.3687 29.7089C22.3687 29.7089 22.3858 29.72 22.4187 29.7381C24.2581 28.8763 25.9062 27.6548 27.2657 26.1456C27.2508 25.6216 27.2315 25.0845 27.2104 24.8855C27.1665 24.4635 27.1976 24.0337 27.1846 23.7852C27.1716 23.5367 27.0319 22.5243 26.9672 22.2629C26.8972 22.0014 26.7624 21.8719 26.7419 21.8719C26.7238 21.8772 26.6149 22.3639 26.6149 22.4863C26.6149 22.6087 26.589 22.9032 26.589 22.9783C26.5709 22.973 26.5632 22.9271 26.5632 22.9083C26.5373 22.973 26.5062 23.087 26.4932 23.1C26.4803 23.113 26.5113 22.9913 26.4932 22.9653C26.4752 22.9394 26.442 22.9524 26.4492 22.8877C26.4523 22.8493 26.4583 22.8113 26.4673 22.7739C26.4673 22.7739 26.3897 22.8877 26.3328 23.1777C26.2758 23.4651 26.2758 23.4729 26.2552 23.4987C26.2371 23.5299 26.1335 23.6333 26.1282 23.6722C26.1231 23.7421 26.2241 23.812 26.2318 23.8508C26.2369 23.9156 26.1412 24.2158 26.1101 24.3628C26.079 24.5097 26.092 24.7976 26.0589 24.9453C26.033 25.0799 26.0077 25.1576 25.9191 25.2144C25.9838 25.2274 26.0459 25.2455 26.0459 25.2455C26.0459 25.2455 26.1366 25.6286 25.9062 25.9549C25.8234 26.0688 25.8027 26.1206 25.7147 26.2242C25.5411 26.4157 25.4064 26.6338 25.3935 26.7757C25.3845 26.7338 25.3785 26.6914 25.3754 26.6487C25.3754 26.6487 25.1062 26.962 24.9922 27.1407C24.8448 27.3711 24.6401 27.3581 24.5826 27.4151C24.5251 27.4721 24.5127 27.5756 24.5314 27.6585C24.4802 27.6713 24.384 27.6896 24.3191 27.8889C24.2881 27.9923 24.2104 28.0937 24.0887 28.1633C23.967 28.233 23.8194 28.254 23.7443 28.2721C23.809 28.2901 23.8349 28.2901 23.866 28.3108C23.8273 28.3755 23.6486 28.4765 23.4492 28.6061C23.2499 28.7277 23.154 28.9063 23.1048 29.0228C23.0536 29.1315 22.978 29.2015 22.8563 29.2145C22.9075 29.2455 22.9833 29.3179 23.0221 29.3413C22.9651 29.3543 22.8685 29.3543 22.6959 29.5019C22.5147 29.6521 22.4525 29.6961 22.3696 29.7091L22.3687 29.7089Z"
    fill="#C39D3C" />
  <path fill-rule="evenodd" clip-rule="evenodd"
    d="M18.7665 30.9084C18.8656 30.8389 18.973 30.782 19.0861 30.7389C19.4899 30.5785 19.9171 30.5475 20.0854 30.4957C20.246 30.4445 20.3728 30.3739 20.5721 30.3351C20.5668 30.3805 20.5624 30.4232 20.5576 30.4635C19.9699 30.6482 19.3715 30.7968 18.7656 30.9084H18.7665Z"
    fill="#D2BA6B" />
  <path fill-rule="evenodd" clip-rule="evenodd"
    d="M26.214 20.2875C26.214 20.2875 26.1312 20.7353 25.9836 21.0176C25.8359 21.2999 25.6764 21.6907 25.6764 21.6907C25.6773 21.6026 25.6877 21.5149 25.7074 21.4291C25.5211 21.5378 25.0679 21.7994 24.9394 21.9158C24.8177 22.0245 24.6131 22.2162 24.5614 22.3068C24.6831 21.9496 24.8099 21.6286 24.8307 21.481C24.6443 21.6156 23.7743 22.3328 23.3213 22.8065L21.9103 23.9483C21.7474 24.0361 21.5797 24.1146 21.408 24.1835C21.1648 24.2869 20.8774 24.375 20.6651 24.4579C20.7221 24.3051 20.8125 24.1703 20.9395 24.041C21.0742 23.9142 21.478 23.4766 21.5401 23.273C21.5971 23.0606 21.6101 22.9338 21.535 22.7552C21.465 22.7732 21.3046 22.7811 21.1959 22.8122C21.0871 22.8432 20.9706 22.9596 20.9706 22.9596C20.9706 22.9596 21.0533 22.4858 21.232 22.038C21.0974 22.0431 20.867 22.0819 20.867 22.0819C20.867 22.0819 21.188 21.5434 21.7374 21.1681C21.5691 21.2039 21.4045 21.255 21.2455 21.3207C20.9245 21.4554 20.5724 21.6547 20.3109 21.7634C20.4584 21.5586 21.494 20.0806 22.1103 18.7032C22.7247 17.3285 22.9542 16.9764 23.0889 16.2386C23.1587 15.8735 23.1401 15.3341 23.1587 14.8509C23.1768 14.3718 23.2363 13.9421 23.1976 13.6547C23.358 13.854 23.9588 14.4159 23.9794 15.6716C23.9975 16.9272 23.4048 18.6231 22.7755 19.5369C22.9291 19.5809 23.3271 19.6328 23.7361 18.9225C24.145 18.2122 24.14 18.0139 24.2876 17.7186C24.3057 17.8662 24.3004 17.9179 24.3004 17.9179C24.3004 17.9179 24.8961 17.1957 25.1782 16.2869C25.2352 16.6779 25.4035 17.0223 25.1393 17.7394C24.9038 18.3866 24.5957 18.5446 24.5957 18.5446C24.5957 18.5446 24.7484 18.5187 24.9736 18.384C25.0125 18.4798 25.0048 18.5888 25.0695 18.6274C25.1342 18.666 25.2222 18.731 25.2352 18.7931C25.305 18.6895 25.4137 18.5574 25.4475 18.4591C25.4216 18.6639 25.4035 19.5594 25.4987 20.0151C25.6982 19.997 25.9027 19.984 26.0424 19.6241C25.9467 19.9764 25.9467 20.1885 26.0114 20.4889C26.1175 20.4165 26.2133 20.287 26.2133 20.287L26.214 20.2875Z"
    fill="#C0993A" />
  <path fill-rule="evenodd" clip-rule="evenodd"
    d="M19.4881 6.01699C19.4881 6.01699 19.2887 6.09977 18.9496 6.09977C18.6545 6.09977 18.7373 5.98593 18.2765 5.98593C17.5672 5.98593 15.0895 6.39553 14.6544 6.38973C14.3722 6.38461 15.6071 6.51141 15.6071 6.51141L18.7632 6.55545L19.3974 6.50425L19.6331 6.02467L19.4881 6.01699Z"
    fill="#A88F33" />
  <path fill-rule="evenodd" clip-rule="evenodd"
    d="M11.3039 12.1864C11.3039 12.1864 10.9 12.4945 10.7291 12.7302C10.5583 12.9659 10.4677 13.121 10.2734 13.3127C10.319 13.3144 10.3646 13.3083 10.4081 13.2946C10.4081 13.2946 10.4081 13.3458 10.377 13.3592C10.4314 13.3532 10.4856 13.372 10.5245 13.4104C10.4675 13.4415 10.3122 13.597 10.4339 13.7808C10.5245 13.9206 10.7161 13.9334 10.7161 13.9334C10.7161 13.9334 10.6721 14.0603 10.8559 14.0474C11.252 14.0293 11.6947 13.8557 11.8992 13.8997C12.104 13.9509 12.2204 13.9697 12.3653 14.2209C12.5189 14.4694 12.6527 14.5083 12.6527 14.5083C12.6527 14.5083 12.7433 14.2778 12.7227 13.9335C12.797 13.748 12.8382 13.5508 12.8444 13.3511L12.7097 12.3595L12.1221 11.6164L11.3609 12.0385L11.3039 12.1859V12.1864Z"
    fill="#E3C571" />
  <path fill-rule="evenodd" clip-rule="evenodd"
    d="M12.0266 12.0387C12.0266 12.0387 12.0836 12.1733 12.3218 12.1861C12.2959 12.2431 12.2959 12.251 12.3037 12.2948C12.3088 12.3389 12.3165 12.4035 12.3165 12.4035C12.3428 12.3908 12.3665 12.3735 12.3865 12.3523C12.3995 12.4093 12.3735 12.4998 12.3865 12.5646C12.3945 12.6041 12.4075 12.6423 12.4252 12.6785C12.429 12.6696 12.4334 12.661 12.4382 12.6527C12.4433 12.6397 12.4894 12.7925 12.6169 12.9087C12.6168 12.8908 12.6212 12.8732 12.6297 12.8575C12.6317 12.89 12.6424 12.9213 12.6608 12.9481C12.6512 12.9436 12.6425 12.9375 12.635 12.93C12.635 12.93 12.6478 13.3396 12.7178 13.5514C12.7295 13.5378 12.7399 13.523 12.7488 13.5074C12.7488 13.4946 12.7437 13.6214 12.7307 13.7122C12.7126 13.8028 12.7256 13.9296 12.7256 13.9296C12.7723 13.8929 12.8236 13.8624 12.8782 13.839C12.9558 13.8078 13.083 13.712 13.1605 13.4997C13.2054 13.3795 13.2401 13.2557 13.2641 13.1296C13.2891 13.1777 13.3064 13.2296 13.3153 13.2832C13.3206 13.3478 13.4422 13.3142 13.4422 13.3142L13.4682 13.0319L13.6218 12.3924L13.7616 11.9963L14.4347 10.9479L15.6508 10.0113L16.7124 10.2547L17.608 9.03782L16.065 8.11093L14.6048 8.26368L13.2796 10.0992L12.2182 11.7641L12.0266 12.0385L12.0266 12.0387Z"
    fill="#D8B65B" />
  <path fill-rule="evenodd" clip-rule="evenodd"
    d="M19.674 9.38266C19.674 9.38266 19.5834 9.40075 19.3219 9.53626C19.0605 9.67177 18.8792 9.71478 18.7782 9.91412C18.6771 10.1135 18.6695 10.2715 18.6695 10.2715C18.6695 10.2715 18.8481 10.1938 18.9517 10.1679C19.0605 10.1421 19.1821 10.1498 19.1692 10.1938C19.1567 10.224 19.1394 10.252 19.118 10.2766C19.118 10.2766 19.3228 10.2715 19.3173 10.3725C19.3118 10.4736 19.2786 10.5848 19.2398 10.634C19.2009 10.6852 19.0405 10.761 19.0224 10.8205C18.9784 10.9422 19.0405 10.9473 19.0171 11.0456C18.999 11.1416 18.9137 11.3279 18.634 11.6541C18.3466 11.9804 18.2244 12.2108 18.2244 12.2108C18.2244 12.2108 18.0846 11.9493 18.012 11.724C17.9608 11.7498 17.6859 11.9026 17.6859 11.9026L17.049 9.68389L17.0618 9.53626C17.0618 9.53626 17.1188 9.46646 17.1317 9.33692C17.036 9.30586 17.023 9.27992 16.8961 9.1584C16.7691 9.03689 16.6657 8.88909 16.4535 8.78806C16.4225 8.73105 16.3835 8.65357 16.2282 8.62234C16.0729 8.59111 15.9797 8.56551 15.9797 8.56551C15.9797 8.56551 16.0625 8.53428 16.1014 8.46959C16.0055 8.48256 15.928 8.51362 15.7183 8.5085C15.506 8.50321 15.4826 8.49553 15.3662 8.51362C15.2498 8.53172 15.1102 8.5836 15.0581 8.40491C15.0011 8.36088 14.8795 8.39979 14.7759 8.55237C14.6723 8.70494 14.6361 8.8268 14.4368 8.88636C14.4227 8.97423 14.392 9.05859 14.3461 9.13485C14.2891 9.23077 14.1985 9.32651 14.0768 9.46885C13.8852 9.69413 13.9162 10.0643 13.6107 10.3466C13.3027 10.6287 13.6619 9.56459 13.6619 9.56459L14.1538 8.38699L15.5544 7.01739L17.7293 6.86993L17.9416 7.99633L19.0031 8.36139L19.6737 9.38402L19.674 9.38266Z"
    fill="#D3AE4D" />
  <path fill-rule="evenodd" clip-rule="evenodd"
    d="M20.0187 9.63096L19.1048 8.31324L18.4653 7.82121C18.4653 7.82121 18.0096 6.98256 17.9786 6.95661C17.9526 6.93852 17.5229 6.89193 17.2485 6.87384L17.2997 7.00065C17.3596 7.0201 17.4128 7.056 17.4533 7.10424C17.575 7.24402 17.6526 7.50804 17.3756 7.79032C17.4843 7.82906 17.5292 7.84152 17.6241 7.82906C17.5284 7.94307 17.3109 8.18644 17.298 8.39875C17.285 8.57214 17.3937 8.62386 17.3937 8.62386C17.3937 8.62386 17.228 8.81552 17.2203 9.13586C17.2986 9.0476 17.3842 8.96618 17.4763 8.89249C17.668 8.73889 17.932 8.56617 18.1107 8.45746C18.1082 8.50308 18.1144 8.54875 18.1288 8.59211C18.1288 8.59211 18.4626 8.31768 18.7432 8.43937C18.87 8.49637 18.813 8.67506 18.813 8.67506C18.813 8.67506 18.9865 8.61037 19.1082 8.73206C19.2299 8.85374 19.4033 9.16692 19.4914 9.28877C19.5301 9.34578 19.6311 9.45449 19.7346 9.6226C19.8759 9.85824 19.9939 10.1071 20.0868 10.3657C20.0919 10.2621 20.1128 10.1172 20.2916 10.1172L20.0198 9.63045L20.0187 9.63096Z"
    fill="#CAA13E" />
  <path fill-rule="evenodd" clip-rule="evenodd"
    d="M6.31781 13.3748C6.31781 13.3748 6.25313 13.2142 6.31781 12.9011C6.38249 12.5879 6.48353 12.4403 6.51715 11.9795C6.55077 11.5187 6.85114 10.9439 6.85114 10.9439L7.68212 10.566L8.2699 10.7264L8.44329 11.5136L7.70021 11.9232C7.70021 11.9232 7.66147 12.0965 7.45172 12.2363C7.24197 12.3761 6.95201 12.4848 6.88221 12.6273C6.84048 12.7146 6.81002 12.8068 6.79158 12.9018C6.79158 12.9018 6.57927 12.8577 6.45247 12.9975C6.31781 13.14 6.32293 13.2668 6.31781 13.3755V13.3748Z"
    fill="#F4EFC8" />
  <path fill-rule="evenodd" clip-rule="evenodd"
    d="M7.99535 13.165C7.99535 13.165 7.92537 13.209 7.87366 13.3186C7.82246 13.2358 7.70009 12.7438 7.69497 12.3011C7.68985 11.8584 7.6634 11.7486 7.7658 11.5961C7.8682 11.4435 8.26978 11.2827 8.21278 11.008C8.15577 10.7465 7.91752 10.6378 7.625 10.7129C7.4202 10.7641 7.26779 11.1996 7.05549 11.417C6.89489 11.5828 6.7034 11.5568 6.65169 11.6474C6.58171 11.7691 6.6464 11.8908 6.62575 11.9685C6.62046 11.9944 6.55577 12.1342 6.43921 12.3025C6.20369 12.6416 5.80501 13.1206 5.75313 13.5504C5.77122 13.307 5.75842 13.3019 5.8231 13.0326L5.78419 12.9679L6.04019 12.1291L6.20591 11.4379L6.57625 10.2804L7.22854 9.09734L7.86291 8.38788L8.52305 8.43191L8.6007 9.42348L8.97873 11.2851L9.77352 12.2637L8.49967 13.121L7.99483 13.165H7.99535Z"
    fill="#EBCC73" />
  <path fill-rule="evenodd" clip-rule="evenodd"
    d="M8.39125 13.5168C8.39125 13.5168 8.28253 13.5428 8.24362 13.5221C8.20471 13.5015 8.16614 13.4781 8.17894 13.4522C8.19174 13.4262 8.26171 13.3824 8.26171 13.3615C8.2647 13.3224 8.23604 13.288 8.19703 13.2839C8.13747 13.2762 8.11937 13.3149 8.11937 13.3149C8.11937 13.3149 8.06237 13.2711 8.01595 13.2637C8.04342 13.2604 8.07105 13.2586 8.09872 13.2585C8.02718 13.226 7.95128 13.2043 7.87344 13.1938C7.93813 13.155 8.0651 13.041 8.14788 13.041C8.23065 13.041 8.28253 13.0282 8.26956 12.9842C8.25659 12.9402 8.19191 12.8755 8.12211 12.8495C8.14788 12.8185 8.16614 12.7719 8.10401 12.6447C8.03916 12.5179 8.0651 12.4324 8.08592 12.4015C8.10401 12.3626 8.1687 12.2928 8.19976 12.2488C8.23082 12.2048 8.25676 12.1452 8.30847 12.1141C8.33441 12.096 8.41719 12.0629 8.50013 12.0314C8.59076 12.0003 8.66585 11.9614 8.71756 12.0003C8.77456 12.039 8.74862 12.0909 8.74862 12.0909C8.74862 12.0909 8.92731 12.0261 9.08774 12.109C9.24833 12.1865 9.63933 12.2358 9.63933 12.2358L9.77945 12.5181L8.85256 13.3129L8.46941 13.5046L8.39176 13.5174L8.39125 13.5168Z"
    fill="#E5C66B" />
  <path fill-rule="evenodd" clip-rule="evenodd"
    d="M9.67741 12.2175C9.67741 12.2175 9.39001 12.4091 9.32533 12.4789C9.36407 12.4842 9.42875 12.5102 9.40281 12.5489C9.37175 12.5877 9.18538 12.7223 9.08179 12.8493C8.97307 12.9761 8.86948 13.1367 8.8333 13.2143C8.79455 13.2841 8.4993 13.4888 8.39844 13.5145C8.61075 13.5145 9.03793 13.2531 9.19835 13.2531C9.19323 13.3307 9.24238 13.4188 9.33301 13.4265C9.42363 13.4342 9.68509 13.4835 10.0372 13.2661C10.3893 13.0537 10.2729 12.8957 10.4203 12.7923C10.7026 12.6057 10.8164 12.44 10.9718 12.3366C11.1271 12.2332 11.2074 12.2096 11.2074 12.2096C11.2074 12.2096 11.2126 12.132 11.2586 12.1398C11.2843 12.1428 11.3063 12.1597 11.3156 12.1839C11.3156 12.1839 11.585 11.9922 11.93 11.9405C11.922 11.9369 11.9156 11.9304 11.912 11.9224C11.912 11.9224 11.9377 11.9094 11.943 11.8965C11.943 11.8965 11.9611 11.8705 11.9741 11.8835C11.987 11.8965 12.0051 11.9922 12.0311 12.0311C12.0881 12.0052 12.1968 11.7618 12.1968 11.7618L12.4584 11.0136V10.3301L12.2536 10.369L10.7176 11.0213L9.78545 11.9871L9.67673 12.2175H9.67741Z"
    fill="#E6BD62" />
  <path fill-rule="evenodd" clip-rule="evenodd"
    d="M14.1003 8.86482C14.1833 8.84466 14.263 8.81234 14.3366 8.7689C14.3056 8.85184 14.3056 8.94247 14.1709 9.13925C14.0363 9.33603 14.0311 9.36453 13.9224 9.56899C13.8137 9.7813 13.8007 10.0868 13.6971 10.2213C13.7436 10.1987 13.7934 10.1839 13.8446 10.1774C13.8446 10.1774 13.7412 10.268 13.6971 10.3638C13.6531 10.4595 13.5755 10.6589 13.384 10.7807C13.1925 10.9026 12.9489 10.9801 12.6875 11.2675C12.4258 11.5496 12.1567 11.9069 12.0219 12.0355C12.0919 11.9138 12.1876 11.6704 12.2135 11.51C12.2395 11.3496 12.2082 11.1577 12.2523 10.9456C12.2963 10.7334 12.2963 10.5805 12.5083 10.2102C12.7202 9.83983 13.0831 8.55318 13.0831 8.55318L13.8649 8.30469L14.1006 8.86396L14.1003 8.86482Z"
    fill="#B6933F" />
  <path fill-rule="evenodd" clip-rule="evenodd"
    d="M13.535 8.39094C13.535 8.39094 13.2995 8.73005 13.2348 9.03043C13.1702 9.3308 13.2296 9.30486 13.1908 9.45249C13.1676 9.5425 13.1676 9.63691 13.1908 9.72692C13.2724 9.59551 13.3841 9.48541 13.5166 9.40572C13.7393 9.27124 13.9206 9.17532 14.0286 9.06149C14.1373 8.9398 14.228 8.74047 14.4635 8.58772C14.3677 8.57475 14.2331 8.53072 14.2075 8.53652C14.3034 8.4278 14.5906 8.26209 14.8806 8.06275C15.168 7.85795 15.1499 7.77535 15.616 7.57089C15.4632 7.59683 15.3907 7.55792 15.2637 7.57089C15.3149 7.46217 15.4941 7.41029 15.6733 7.23177C15.8525 7.05325 15.5595 6.78906 15.5595 6.78906L14.1942 7.61492L13.534 8.39162L13.535 8.39094Z"
    fill="#C49937" />
  <path fill-rule="evenodd" clip-rule="evenodd"
    d="M9.82968 7.77485L9.86074 7.52636L10.2517 6.89984L10.6608 5.79956V4.2953L10.6298 3.42541L10.6944 2.85573L10.7436 2.67465L10.7955 2.60468L11.1293 2.77807L11.5903 3.40459L11.6343 4.61376L11.1863 6.52182L9.90733 7.91736L9.82968 7.77485Z"
    fill="#DFC068" />
  <path fill-rule="evenodd" clip-rule="evenodd"
    d="M10.8482 2.53455C10.8482 2.53455 10.6434 2.53984 10.5997 3.39164C10.556 4.24344 10.5348 4.69127 10.5037 5.11333C10.4727 5.53539 10.4003 5.79156 10.364 6.04022C10.3276 6.28888 10.307 6.62782 10.1906 6.83501C10.1394 6.93076 10.03 7.23113 9.77364 7.45641C9.48623 7.7049 9.05684 7.87847 8.99181 7.89144C8.87781 7.91721 8.30044 7.97421 8.06492 8.10375C7.98215 8.14778 7.83964 8.19949 7.68178 8.34712C7.36843 8.62923 6.95166 9.13406 6.65129 9.74249C6.19049 10.6513 5.72969 13.2169 5.72969 13.2169L5.83329 13.0435C5.83329 13.0435 5.84626 12.8131 6.07666 12.4092C6.30194 12.0054 6.23725 11.5522 6.55043 10.7781C6.67211 10.483 6.82486 10.0999 7.01123 9.77355C7.30648 9.24278 7.66368 8.7871 8.02362 8.53861C8.61123 8.13481 9.25856 8.04675 9.25856 8.04675L9.95506 7.58595C9.95506 7.58595 10.0767 7.35043 10.2373 7.08111C10.4624 6.70326 10.7493 6.2812 10.812 5.66765C10.9079 4.75885 10.6773 4.1634 10.6903 3.62494C10.7033 3.08649 10.7084 2.69037 10.8173 2.59446C10.9261 2.49854 10.8483 2.5349 10.8483 2.5349L10.8482 2.53455Z"
    fill="#A88F33" />
  <path fill-rule="evenodd" clip-rule="evenodd"
    d="M10.8472 6.59942C10.8472 6.59942 11.1544 5.84336 11.295 5.17281C11.321 5.03816 11.3727 4.90367 11.3857 4.79496C11.4504 4.16059 11.4684 3.89913 11.3857 3.55216C11.321 3.29616 11.0725 3.06542 10.943 2.88656C10.8162 2.70002 10.7566 2.63056 10.7825 2.59131C10.8085 2.55206 10.9093 2.48789 11.0076 2.49557C11.2188 2.50171 11.4182 2.59425 11.5592 2.75157C11.7586 2.98197 11.9164 3.76396 11.9164 3.76396L12.0825 4.79581L12.5046 6.09544L10.8476 6.60044L10.8472 6.59942Z"
    fill="#C99E3D" />
  <path fill-rule="evenodd" clip-rule="evenodd"
    d="M13.7353 5.81229C13.7353 5.81229 13.6783 5.83806 13.5749 5.81229C13.5839 5.89846 13.5439 5.98242 13.4713 6.02972C13.3626 5.98569 12.3449 6.07375 12.3449 6.07375C12.3449 6.07375 11.8711 5.99081 11.7235 5.36429C11.6201 4.94735 11.8011 4.37272 11.7416 3.99469C11.651 3.43798 11.5241 3.32909 11.5112 3.15587C11.4982 2.98264 11.4852 2.93844 11.4852 2.82972C11.4282 2.81675 11.3946 2.79866 11.3378 2.79866C11.3248 2.74746 11.3506 2.70275 11.2937 2.61212C11.3248 2.62509 11.5371 2.65103 11.7856 2.88655C11.9904 3.07821 11.9904 3.14801 12.0213 3.18693C12.06 3.22567 12.3734 3.49413 12.508 3.76173C12.6427 4.02934 12.9042 4.88267 12.9637 5.02245C12.9818 5.07945 13.0207 5.13645 13.1173 5.26582C13.2675 5.45236 13.4875 5.76075 13.736 5.81195L13.7353 5.81229Z"
    fill="#B58634" />
  <path fill-rule="evenodd" clip-rule="evenodd"
    d="M12.0562 3.20001C12.2131 3.45337 12.354 3.71625 12.4781 3.98713C12.6309 4.33136 12.7215 4.61364 12.9132 4.84404C12.8096 4.54384 12.6258 3.95351 12.517 3.74376C12.3954 3.52189 12.1469 3.28296 12.0562 3.20018V3.20001Z"
    fill="#A88F33" />
  <path fill-rule="evenodd" clip-rule="evenodd"
    d="M10.2971 7.45641C10.2971 7.45641 10.0356 7.52109 9.5489 7.77743C9.3883 7.86021 9.23573 7.93001 9.0881 7.99486C8.70461 8.16826 8.29331 8.32852 7.96699 8.41692C7.99293 8.44798 8.00573 8.46078 8.00573 8.46078C8.00573 8.46078 8.00573 8.58776 8.07571 8.66012C8.03697 8.69903 7.51899 9.05112 7.67191 10.2291C7.77533 10.1903 7.89702 10.1384 7.91511 10.1384C7.94634 10.1437 7.95402 10.2291 7.99276 10.2291C8.0315 10.2291 8.15848 10.1779 8.29314 10.0038C8.28802 10.0738 8.21036 10.7779 8.62713 11.2517C8.70478 11.1611 8.90156 10.8607 8.90156 10.8607L8.90668 10.765C8.90668 10.765 8.92477 10.431 9.03366 10.1255C9.14254 9.81997 9.35468 9.59469 9.35468 9.59469L10.4625 8.01278L10.2968 7.45624L10.2971 7.45641Z"
    fill="#E6C367" />
  <path fill-rule="evenodd" clip-rule="evenodd"
    d="M9.26086 9.77939C9.21014 9.81523 9.15426 9.84314 9.09514 9.86216C9.07705 9.79748 9.05111 9.57476 9.20386 9.35733C9.38255 9.0957 9.77337 8.75658 9.88209 8.48693C9.95206 8.31336 9.921 7.87851 10.5424 7.32179C11.1638 6.76508 11.407 6.57359 11.407 6.57359L12.4115 6.06876L13.6465 6.5555L13.0329 8.96019L12.5566 10.0866L10.6622 9.72938L9.26069 9.77939H9.26086Z"
    fill="#DCBA5A" />
  <path fill-rule="evenodd" clip-rule="evenodd"
    d="M9.98438 9.12631L10.2201 8.83123V8.62148C10.2201 8.62148 10.4815 8.55151 10.7636 8.2641C11.0458 7.9767 11.4367 7.42528 11.7812 7.4589C12.1256 7.49781 12.1592 8.2071 12.1722 8.40661C12.1851 8.60612 12.2292 9.0589 12.299 9.30244C12.3766 9.54581 11.4601 10.4674 11.4601 10.4674L10.8377 10.9412L9.98438 9.12631Z"
    fill="#E9CE77" />
  <path fill-rule="evenodd" clip-rule="evenodd"
    d="M10.7125 11.5832C10.7125 11.5832 10.9042 11.2828 10.7637 11.2182C10.8465 11.0318 10.9992 10.835 10.9992 10.835C10.9992 10.835 11.1079 10.5659 11.46 10.2344C11.8121 9.903 12.0297 9.68284 12.0867 9.46029C12.1218 9.31525 12.141 9.16679 12.1437 9.01758C12.1818 9.04867 12.2225 9.07637 12.2654 9.10035C12.3224 9.12629 12.5915 9.34884 12.5528 9.79684C12.5141 10.2448 12.348 10.4312 12.348 10.4312C12.348 10.4312 12.1876 10.5916 12.0737 10.6746C11.9519 10.7574 11.908 10.8531 11.7034 10.8609C11.7244 10.8442 11.7481 10.8311 11.7734 10.822C11.7734 10.822 11.561 10.7963 11.447 10.8997C11.333 11.0031 11.0907 11.3217 10.969 11.4177C10.8473 11.4953 10.713 11.5834 10.713 11.5834L10.7125 11.5832Z"
    fill="#CDAE50" />
  <path fill-rule="evenodd" clip-rule="evenodd"
    d="M19.3208 6.54734C19.015 6.43586 18.6935 6.37297 18.3682 6.36097C17.8244 6.34288 17.0296 6.37394 16.2504 6.37906C15.4115 6.38418 14.6504 6.09166 13.5941 6.03994C13.4207 5.93635 12.9797 5.48323 11.6031 6.44374C11.6859 6.43862 12.6025 6.23143 12.9208 6.63028C13.2419 7.0264 13.1512 7.69951 13.1074 7.85993C13.0244 8.21731 12.7551 8.73767 12.6466 9.10273C12.538 9.46778 12.5636 9.65961 12.486 9.91561C12.4083 10.1716 12.2375 10.2988 12.3384 10.5938C12.473 10.5111 12.5432 10.5111 12.7681 10.0062C12.993 9.50141 12.9468 9.14147 13.3197 8.71429C13.6847 8.28455 14.2925 7.69678 14.5236 7.54915C14.7546 7.40152 16.5895 6.44886 18.5107 7.35766C18.974 7.30851 19.321 6.54716 19.321 6.54716L19.3208 6.54734Z"
    fill="#D2A83E" />
  <path fill-rule="evenodd" clip-rule="evenodd"
    d="M12.3773 6.19523C12.3754 6.17577 12.3711 6.15663 12.3645 6.13823C12.3465 6.10036 12.3229 6.06544 12.2945 6.03463C12.2945 6.03463 11.8388 5.95186 11.6084 5.97763C11.2045 6.02166 10.8394 6.52137 10.6686 6.77771C10.4977 7.03406 10.2854 7.43 10.055 7.63463C10.0575 7.6147 10.053 7.59451 10.0421 7.57763C10.0421 7.57763 10.055 7.59572 10.0293 7.62166C10.0035 7.6476 10.0033 7.6604 10.0163 7.67286L10.0552 7.7116C10.068 7.7116 10.4254 7.55101 10.9121 7.0972C11.4299 6.62343 11.826 6.3804 12.0332 6.29712C12.1437 6.25016 12.2592 6.21598 12.3775 6.19523H12.3773Z"
    fill="#C29637" />
  <path fill-rule="evenodd" clip-rule="evenodd"
    d="M21.2175 4.24844C21.2175 4.24844 21.1346 4.35187 21.031 4.46587C20.8006 4.70924 20.5002 4.98351 20.2439 5.26579C20.0007 5.5351 19.7262 5.74485 19.418 6.09693C19.1098 6.44902 18.7524 6.83985 18.6619 6.95385C18.5792 7.06786 18.5145 7.25423 18.5145 7.34997C18.4705 7.31891 18.4187 7.28529 18.4187 7.28529C18.4405 7.32593 18.4665 7.36415 18.4964 7.39929C18.5611 7.48992 18.6619 7.60409 18.7138 7.67372C18.7775 7.76237 18.8232 7.86261 18.8483 7.96881C18.8794 7.97393 19.0787 8.01284 19.3274 7.60375C19.576 7.19466 19.902 6.74683 19.902 6.74683L20.4198 5.97781L20.7461 5.32552L21.1557 4.59541L21.218 4.24844H21.2175Z"
    fill="#AC8132" />
  <path fill-rule="evenodd" clip-rule="evenodd"
    d="M21.7477 3.72577C21.7477 3.72577 21.4344 3.98177 21.3127 4.13537C21.191 4.28897 20.9031 4.69208 20.9031 4.69208L21.0067 4.67911L21.5324 4.21319L21.7372 3.84814L21.7476 3.72645L21.7477 3.72577Z"
    fill="#A88F33" />
  <path fill-rule="evenodd" clip-rule="evenodd"
    d="M21.6514 24.3006C21.6514 24.3006 21.6462 24.0883 21.7654 23.9615C21.8871 23.8345 22.1951 23.6481 22.4955 22.9491C22.7959 22.25 22.8293 22.0922 22.8293 22.0922C22.8293 22.0922 22.2908 22.553 21.9589 22.6617C22.0366 22.5011 22.0806 22.3872 22.1195 22.3043C22.0755 22.2656 21.8891 22.2215 21.871 22.2009C21.9744 22.0973 22.0314 21.8435 22.2412 21.6752C22.5105 21.4704 23.0024 21.1185 23.3847 20.8048C23.7669 20.4911 24.5186 19.7615 24.6145 19.5492C24.6715 19.632 24.6843 19.6837 24.6843 19.6837C24.6843 19.6837 24.3064 20.1757 24.1096 20.4889C23.9361 20.7582 23.949 20.911 23.949 20.911L24.3064 20.7574C24.3064 20.7574 24.4098 21.1405 23.9414 21.7232C24.1462 21.6455 24.2288 21.6921 24.3452 21.6273C24.1535 21.7491 23.8895 21.9148 23.641 22.3703C23.3976 22.826 23.0662 23.3568 22.5071 23.6881C21.9633 24.0376 21.65 24.299 21.65 24.299L21.6514 24.3006Z"
    fill="#A67A2E" />
  <path fill-rule="evenodd" clip-rule="evenodd"
    d="M20.2485 6.81688C20.2485 6.81688 20.0362 7.25942 20.0051 7.60382C20 7.68677 19.9792 7.75145 19.9792 7.84719C19.9741 8.15525 19.9973 8.49965 19.928 8.66008C19.902 8.5954 19.8891 8.55136 19.8631 8.52559C19.8244 8.63431 19.7544 8.97342 19.6974 9.10023C19.6716 9.01746 19.6146 8.73005 19.6199 8.39094C19.6252 8.05182 19.6327 7.98697 19.6327 7.91717C19.6199 8.02059 19.55 8.16054 19.524 8.24331C19.4853 8.17351 19.4412 8.08288 19.3894 8.00779C19.3583 8.05899 19.3196 8.1346 19.2859 8.17351C19.2807 8.14245 19.2679 8.0595 19.26 7.94311C19.2549 7.80845 19.247 7.63506 19.2549 7.5987C19.2677 7.5289 19.3766 7.25447 19.607 7.00325C19.8814 6.70287 20.1637 6.12568 20.2465 5.94699C20.3292 5.7683 20.6813 5.02539 20.6813 5.02539H20.9506L20.5596 5.91593C20.5596 5.91593 20.3241 6.40267 20.2024 6.58153C20.0807 6.76039 19.8244 7.2729 19.7104 7.47224C19.7932 7.36352 19.8631 7.30652 19.9461 7.20293C20.0263 7.13039 20.2488 6.81722 20.2488 6.81722L20.2485 6.81688Z"
    fill="#8C6228" />
  <path fill-rule="evenodd" clip-rule="evenodd"
    d="M21.7533 3.6918C21.7093 3.8272 21.6398 3.95291 21.5485 4.06215C21.3879 4.25381 21.0435 4.50998 20.8754 4.71444C20.7218 4.91378 20.4146 5.45752 20.5542 6.10213C20.6054 5.96235 20.7018 5.68536 20.9582 5.37202C21.2145 5.05867 21.489 4.69891 21.6238 4.41935C21.7583 4.13707 21.7764 3.91452 21.7764 3.91452L21.8276 3.84984L21.7965 3.70221L21.7525 3.6918L21.7533 3.6918Z"
    fill="#CBA94C" />
  <path fill-rule="evenodd" clip-rule="evenodd"
    d="M26.9952 20.8645C26.9952 20.8645 26.8916 20.5824 26.8606 20.3261C26.8295 20.0698 26.9118 20.0189 26.8165 19.7255C26.7595 19.5468 26.6561 19.5719 26.6302 19.5468C26.6042 19.5217 26.5861 19.2517 26.5912 19.1041C26.5964 18.9565 26.5861 18.765 26.5602 18.6821C26.5214 18.651 26.4955 18.6251 26.4385 18.4336C26.3738 18.2419 26.3427 18.1462 26.3117 18.0893C26.2806 18.0325 26.1898 17.9806 26.1898 17.9236C26.1898 17.8096 26.2934 17.7502 26.2934 17.7188C26.2883 17.6541 26.2107 17.706 26.1898 17.6878C26.1641 17.6567 26.2547 17.4703 26.2211 17.4444C26.2081 17.4316 26.1175 17.5403 26.0941 17.5092C26.0681 17.478 26.0371 17.17 25.9905 16.9655C25.9466 16.7662 25.8999 16.6213 25.8947 16.5617C25.8896 16.5047 25.5374 15.5002 25.452 15.2568C25.3833 15.0511 25.3254 14.842 25.2786 14.6303C25.2527 14.5086 25.2346 14.2599 25.2216 14.2859C25.2087 14.3118 25.2165 14.4386 25.1957 14.4335C25.1776 14.4282 25.1129 13.9857 25.0923 13.9157C25.0742 13.8457 24.9653 13.6085 24.9387 13.4368C24.9127 13.2632 24.8559 12.8101 24.817 12.5021C24.7781 12.194 24.76 12.0672 24.76 11.9901C24.7664 11.8014 24.756 11.6125 24.7289 11.4257C24.6777 11.0993 24.5753 10.7032 24.4856 10.473C24.3122 10.038 23.8512 8.92471 23.7688 8.64772C23.7688 8.57774 23.8594 8.61665 23.8594 8.61665C23.8594 8.61665 24.0845 9.18105 24.2502 9.61591C24.4108 10.0509 24.5635 10.4341 24.6025 10.473C24.6335 10.5117 24.8769 10.9389 24.9856 11.638C25.0943 12.337 25.1331 12.9816 25.1979 13.4114C25.229 13.6162 25.2549 13.8334 25.3196 14.0509C25.3894 14.2865 25.4981 14.5299 25.6406 14.9026C25.7623 15.216 25.8529 15.4775 25.9021 15.7027C25.9591 15.9901 25.9591 16.2076 25.9927 16.3501C26.0239 16.4718 26.0704 16.715 26.1792 17.0669C26.2881 17.4188 26.4484 17.8721 26.5571 18.1542C26.7696 18.7186 26.8643 19.1898 26.8964 19.441C26.9247 19.6999 27.0206 20.5957 26.9947 20.8649L26.9952 20.8645Z"
    fill="#A88F33" />
  <path fill-rule="evenodd" clip-rule="evenodd"
    d="M21.7654 3.66076L21.7524 3.69182C21.7524 3.69182 21.7912 3.70479 21.7835 3.75668C21.784 3.82766 21.7797 3.8986 21.7705 3.96899C21.7577 4.05961 21.7318 4.12941 21.7267 4.18642C21.7267 4.3081 21.7447 4.44788 21.5731 4.79484C21.5219 4.89059 21.4903 4.97336 21.4643 5.03036C21.3997 5.17014 21.3867 5.19096 21.3297 5.25564C21.4203 5.20444 21.7466 4.99964 21.9122 5.03036C21.7983 5.09504 21.6248 5.22202 21.516 5.38774C21.542 5.39286 21.6507 5.41368 21.8232 5.38774C22.1107 5.34371 22.4317 5.24011 22.7138 5.26076C23.022 5.27885 22.9003 4.89059 22.9003 4.89059L22.5447 4.10876L21.8715 3.63516L21.7654 3.66093V3.66076Z"
    fill="#BE9C44" />
  <path fill-rule="evenodd" clip-rule="evenodd"
    d="M23.5215 9.51739C23.5215 9.51739 23.2211 9.21701 23.0994 8.18619C22.9778 7.15058 23.0037 5.62619 23.0037 5.62619L22.7603 5.03073C22.7603 5.03073 22.7091 4.63461 22.5816 4.48716C22.4542 4.3397 22.2038 4.09104 22.0898 3.96936C21.9758 3.84767 21.8464 3.68195 21.7688 3.65601C21.8075 3.59133 21.9811 3.22627 22.6463 3.22115C23.3116 3.21603 23.5167 3.58621 23.5862 3.72086C23.6556 3.85552 23.9693 4.43766 24.0857 5.547C24.1944 6.65497 24.1997 6.73791 24.1816 7.12106C24.1687 7.33337 24.0987 7.82523 23.9768 8.35071C23.8656 8.79615 23.7439 9.2933 23.5212 9.51841L23.5215 9.51739Z"
    fill="#A17C34" />
  <path fill-rule="evenodd" clip-rule="evenodd"
    d="M22.5792 10.4002C22.6793 10.4074 22.7793 10.3849 22.8666 10.3354C22.9624 10.3302 23.3093 10.3743 23.5759 10.0352C23.594 10.1126 23.6408 10.3226 23.5189 10.5089C23.5838 10.4441 23.6795 10.4183 23.6925 10.4002C23.6976 10.496 23.7882 10.791 23.4051 11.5082C23.5085 11.3943 23.6302 11.3995 23.7389 11.3865C23.7442 11.5212 23.8166 11.9741 23.6251 12.2176C23.4983 12.3834 23.2911 12.3315 23.2911 12.3315C23.2941 12.2953 23.2941 12.2589 23.2911 12.2228C23.286 12.1528 23.26 12.083 23.2783 12.0364C23.1782 11.9907 23.087 11.9275 23.009 11.8499C22.7837 11.6375 22.4912 11.2752 22.4705 11.0059C22.4446 10.7055 22.7139 10.6409 22.7139 10.6409C22.6913 10.6207 22.6721 10.5971 22.6569 10.5709C22.6439 10.527 22.6309 10.457 22.5792 10.4002Z"
    fill="#8C6228" />
  <path fill-rule="evenodd" clip-rule="evenodd"
    d="M20.5828 7.1431C20.5828 7.1431 20.5698 7.12501 20.5 7.20778C20.513 7.12501 20.5259 7.04718 20.5311 6.97209C20.5641 6.90257 20.6069 6.83809 20.658 6.7806C20.6191 6.85808 20.5932 6.92806 20.5932 6.92806C20.5932 6.92806 20.6891 6.74937 20.8289 6.64066C20.9246 6.563 21.0463 6.52682 21.098 6.45429C21.155 6.37663 21.142 6.36366 21.155 6.35069C21.155 6.35069 21.282 6.26792 21.4762 6.02438C21.502 5.99332 21.5409 5.9597 21.5668 5.92863C21.6107 5.91054 21.7143 5.86395 21.836 5.80166C21.963 5.73186 22.1053 5.63611 22.1934 5.59686C22.3668 5.51921 22.5507 5.52706 22.6361 5.4052C22.7007 5.38711 22.7705 5.19289 22.7577 5.02734C22.8535 5.06609 23.3454 5.37158 23.5138 6.03957C23.6355 6.51334 23.4179 7.24345 23.3273 7.59571C23.2366 7.94796 23.2238 8.20925 23.0969 8.36968C22.9363 8.58216 22.4186 8.88168 22.2917 9.02999C22.1829 9.15167 21.8568 9.45973 21.8696 9.68228C21.8826 9.84799 22.087 9.93828 22.1312 9.96968C22.1754 10.0011 22.1751 10.0397 22.258 10.0209C22.341 10.0021 22.3719 9.96388 22.4057 9.96388C22.4444 9.969 22.4444 9.97685 22.4625 9.97685C22.4756 9.97646 22.4887 9.97468 22.5014 9.97156C22.5014 9.97156 22.4884 10.2072 21.937 10.2788C21.8981 10.284 21.8594 10.2968 21.81 10.3047C21.8749 10.2736 21.9136 10.2736 21.9836 10.1779C21.906 10.1649 21.6832 10.152 21.6262 10.1339C21.6443 10.1028 21.7039 10.0199 21.753 9.98111C21.7971 9.94237 21.7479 9.92991 21.7092 9.95005C21.6425 9.99543 21.5785 10.0447 21.5175 10.0975C21.4528 10.1545 21.3958 10.2322 21.2922 10.3023C21.2612 10.1987 21.2663 10.0019 21.3881 9.8596C21.3569 9.86472 21.2974 9.95534 21.2405 9.93725C21.2302 9.84282 21.2364 9.74732 21.2586 9.65497C21.2897 9.5384 21.458 9.33395 21.458 9.33395L22.2708 7.8814L22.4442 6.78111L20.5828 7.14276V7.1431Z"
    fill="#92723A" />
  <path fill-rule="evenodd" clip-rule="evenodd"
    d="M20.5383 7.20522C20.5383 7.20522 20.4943 7.23628 20.5823 7.29584C20.5694 7.31393 20.5383 7.37862 20.4994 7.42265C20.4555 7.47385 20.4088 7.50559 20.3907 7.54962C20.3519 7.64025 20.3209 7.70237 20.3209 7.74128C20.3209 7.7802 20.3079 8.02869 20.1992 8.18911C20.1603 8.24612 20.1162 8.34186 20.0852 8.40654C20.0205 8.52038 19.9635 8.61134 19.9505 8.66254C19.9248 8.75317 19.9067 9.00166 19.9067 9.00166C19.9067 9.00166 19.9637 8.93168 19.9843 8.90591C19.9531 8.9706 19.9195 9.0404 19.8703 9.09228C19.9014 9.06634 19.992 9.00166 20.1447 8.867C20.3571 8.68848 20.6885 8.38811 21.0925 8.1502C20.9706 8.19423 20.8672 8.19423 20.7844 8.2072C20.8491 8.14252 21.4316 7.459 21.7371 7.39432C21.7556 7.3708 21.7649 7.34127 21.763 7.31137L21.5014 7.2856L20.9706 7.39944L20.8931 6.98984L20.5383 7.20471V7.20522Z"
    fill="#B18E3E" />
  <path fill-rule="evenodd" clip-rule="evenodd"
    d="M21.3826 9.53525C21.3826 9.53525 21.3126 9.60505 21.2479 9.77862C21.1981 9.72662 21.1554 9.66826 21.1209 9.60505C21.0252 9.44463 20.8777 9.24 20.5333 9.35656C20.5282 9.24785 20.5203 9.19085 20.5333 9.11319C20.5903 9.10039 20.7637 8.96062 20.9371 8.75599C21.059 8.61621 21.1728 8.45561 21.2505 8.25116C21.3017 8.21224 21.3902 8.14756 21.5065 8.07247C21.6722 7.95863 21.8715 7.80315 21.9026 7.62976C21.8249 7.66082 21.6592 7.73847 21.4105 7.72567C21.5065 7.68164 21.6539 7.63505 21.6358 7.44339C21.6747 7.41745 21.7058 7.39936 21.7058 7.39936C21.6766 7.38962 21.6459 7.38523 21.6152 7.38639C21.6099 7.3683 21.6022 7.34253 21.5582 7.35533C21.5141 7.36813 21.507 7.3683 21.5012 7.38639C21.4831 7.39168 21.4235 7.38639 21.3795 7.41762C21.3355 7.44885 21.2138 7.5521 21.1672 7.57019C21.1853 7.53913 21.211 7.49271 21.211 7.49271C21.211 7.49271 21.0842 7.50551 20.9936 7.54391C20.8279 7.60092 20.6364 7.70451 20.4422 7.80537C20.4603 7.77431 20.4681 7.75417 20.4809 7.74837C20.4937 7.74257 20.525 7.73557 20.525 7.73028C20.525 7.72499 20.5122 7.67908 20.5198 7.66048C20.5779 7.53747 20.6464 7.41967 20.7246 7.30839C20.8153 7.18654 20.8334 7.01314 20.8334 7.01314L21.2295 6.8138L22.3427 6.5578L23.0652 6.60183L22.9745 7.10154L22.5479 7.97399L22.1828 8.76879L21.7659 9.2557L21.3827 9.53525H21.3826Z"
    fill="#543E26" />
  <path fill-rule="evenodd" clip-rule="evenodd"
    d="M23.1866 7.37269C23.1866 7.37269 22.7516 7.91114 22.6299 7.99408C22.7076 7.82837 23.1866 6.84191 23.36 6.56748C23.3213 6.53642 23.2694 6.53642 23.3911 6.05548C23.2877 6.29868 23.2513 6.42566 23.166 6.49034C23.0807 6.55502 23.0701 6.53437 23.0124 6.53437C23.0233 6.51467 23.0278 6.49206 23.0252 6.46969C23.0252 6.46969 22.6601 6.42566 22.4108 6.42566C22.1614 6.42566 21.6679 6.56031 21.3933 6.66903C21.1758 6.75965 21.0542 6.75965 20.9765 6.81648C20.8989 6.88117 20.8548 6.95114 20.8159 6.96923C20.7848 6.98732 20.6374 7.03391 20.6036 7.08307C20.5725 7.13427 20.5208 7.19178 20.5208 7.20475C20.5208 7.21772 20.5079 7.23598 20.5468 7.22284C20.5596 7.21772 20.6555 7.16584 20.7642 7.10116C20.9117 7.01838 21.0903 6.92264 21.2199 6.86564C21.5901 6.71801 21.7066 6.74395 21.8722 6.71289C22.0456 6.68183 22.2942 6.60929 22.4598 6.60929C22.6255 6.60417 22.9388 6.60929 23.0114 6.62227C22.9803 6.64821 22.9544 6.67927 22.9673 6.78798C22.9673 6.81904 22.9414 6.85267 22.9161 6.92776C22.8387 7.14007 22.691 7.49215 22.6089 7.67084C22.4951 7.91404 22.3657 8.11867 22.3017 8.24548C22.2377 8.37228 22.0969 8.70628 21.9575 8.88496C21.8181 9.06365 21.7452 9.17237 21.7015 9.21128C21.6578 9.25019 21.3441 9.48042 21.3675 9.56336C21.4245 9.54527 21.7844 9.40976 22.0457 9.11553C22.307 8.82131 22.3591 8.64176 22.5635 8.48117C22.768 8.32057 22.9286 8.05143 23.0243 7.82888C23.1046 7.62169 23.0865 7.55701 23.1873 7.3732L23.1866 7.37269Z"
    fill="#806031" />
  <path fill-rule="evenodd" clip-rule="evenodd"
    d="M13.8123 11.3917C13.8123 11.3917 13.7553 11.6272 13.6258 11.7438C13.499 11.8578 13.2737 11.9561 13.2479 12.1477C13.2169 12.3392 13.4732 12.4351 13.4732 12.4351C13.4732 12.4351 13.3333 12.6655 13.3333 12.8389C13.3333 13.0176 13.3281 13.0512 13.3462 13.2221C13.3257 13.2353 13.3082 13.2527 13.295 13.2733C13.295 13.2733 13.3078 13.439 13.4348 13.5424C13.5618 13.6458 13.6703 13.7081 13.735 13.6822C13.7449 13.7033 13.7535 13.7249 13.761 13.747C13.761 13.747 13.8569 13.5037 13.9215 13.2914C13.9862 13.0739 14.0432 13.1048 14.069 12.8123C14.0948 12.5198 14.3762 12.0175 14.3762 12.0175L14.5682 11.5883L14.255 11.3449L13.8123 11.3915V11.3917Z"
    fill="#B6903C" />
  <path fill-rule="evenodd" clip-rule="evenodd"
    d="M14.3944 11.8137C14.3298 11.88 14.2702 11.9509 14.216 12.026C14.1332 12.14 14.0686 12.2434 13.9469 12.2876C13.8252 12.3318 13.7475 12.3315 13.7552 12.4533C13.7629 12.5752 13.8769 12.6267 13.9416 12.6888C14.0115 12.7535 14.0686 12.8622 14.0375 12.9841C14.0762 12.966 14.1462 12.9452 14.2109 12.8054C14.2756 12.6656 14.728 11.8138 14.728 11.8138H14.3944V11.8137Z"
    fill="#685026" />
  <path fill-rule="evenodd" clip-rule="evenodd"
    d="M16.1785 9.84842C16.1785 9.84842 16.2172 9.745 16.1785 9.66991C16.1396 9.59225 15.904 9.56631 15.7875 9.47825C15.6658 9.38762 15.5182 9.32465 15.3965 9.36441C15.4146 9.32038 15.4871 9.22447 15.4275 9.20382C15.3705 9.18573 15.1584 9.28147 15.1014 9.3255C15.0444 9.36953 14.9149 9.42125 14.8891 9.45248C14.8633 9.48371 14.8191 9.5431 14.7932 9.51716C14.7672 9.49907 14.7544 9.45248 14.7104 9.47825C14.6664 9.50402 14.4544 9.67759 14.4153 9.77862C14.3762 9.87966 14.2883 10.1049 14.0243 10.3611C13.7603 10.6173 13.6463 10.7832 13.724 10.8789C13.8016 10.9747 13.838 10.9049 13.8509 10.9876C13.8609 11.0689 13.8565 11.1513 13.838 11.231C13.8069 11.3657 13.7552 11.4925 13.825 11.5184C14.0037 11.5754 14.1772 11.4672 14.216 11.5003C14.2936 11.5701 14.172 11.8213 14.3558 11.8705C14.5423 11.9217 14.7261 11.8265 14.7261 11.8265L15.4043 11.4614L16.0568 11.1172L16.3906 10.4569L16.2116 9.90543L16.1775 9.84842H16.1785Z"
    fill="#D4B968" />
  <path fill-rule="evenodd" clip-rule="evenodd"
    d="M15.5391 11.4254C15.5391 11.4254 15.4251 11.252 15.565 11.0991C15.705 10.9462 15.9041 10.8817 15.9818 10.786C15.967 10.7677 15.9472 10.7542 15.9248 10.7472C15.9763 10.655 16.055 10.5808 16.1501 10.5347C16.1113 10.496 16.0595 10.4649 16.0026 10.4649C15.8756 10.4649 15.7978 10.5426 15.6814 10.5426C15.5676 10.5426 15.5546 10.4856 15.5546 10.4856C15.5546 10.4856 15.7463 10.4675 15.728 10.382C15.7099 10.2914 15.6768 10.2914 15.6768 10.2914C15.6768 10.2914 16.047 10.1378 16.1117 10.0558C16.1764 9.97392 16.1687 9.87716 16.1817 9.83841C16.2255 9.83841 16.4819 9.70376 16.5854 9.76076C16.689 9.81776 16.6165 9.97307 16.6165 9.97307C16.6165 9.97307 16.93 9.73738 17.0898 9.5063C17.2295 9.51927 17.2946 9.41055 17.397 9.41055C17.5239 9.41055 17.7233 9.58395 17.762 9.95413C17.788 10.1664 17.8267 10.2881 17.788 10.6636C17.7699 10.8759 17.775 11.3292 17.8392 11.5541C17.883 11.7328 17.9866 11.7147 17.9866 11.7147C17.9707 11.7692 17.9392 11.8178 17.896 11.8545C17.826 11.9192 17.8183 12.0902 17.826 12.1549C17.8363 12.2022 17.8493 12.2488 17.8649 12.2946C17.8649 12.2946 17.7822 12.3904 17.7613 12.4552C17.7433 12.5199 17.6579 12.564 17.5956 12.564C17.5333 12.564 17.5646 12.5587 17.4818 12.564C17.399 12.5693 17.3731 12.5821 17.3212 12.564C17.2693 12.5459 17.2306 12.525 17.2514 12.3592C17.2695 12.1934 16.6119 11.8077 16.6119 11.8077L15.5367 11.4246L15.5391 11.4254Z"
    fill="#CCA849" />
  <path fill-rule="evenodd" clip-rule="evenodd"
    d="M14.304 13.0617C14.304 13.0617 14.5395 13.375 15.5079 13.375C15.9687 13.375 16.1293 13.331 16.2247 13.305C16.3283 13.2791 16.7165 13.1265 17.1075 12.6655C17.4596 12.2488 17.382 12.0779 17.382 12.0779L17.1772 12.0469L16.5116 12.1375L14.5421 12.9763L14.3031 13.0617H14.304Z"
    fill="#585136" />
  <path fill-rule="evenodd" clip-rule="evenodd"
    d="M15.0263 13.1391C15.0263 13.1391 14.1875 13.3257 14.1875 12.7949C14.1875 12.2771 14.7053 11.7333 14.8348 11.6376C14.9695 11.5417 15.2905 11.4328 15.2905 11.4328H16.0647L16.2121 11.8238L16.1474 12.6677L15.0263 13.139V13.1391Z"
    fill="#252211" />
  <path fill-rule="evenodd" clip-rule="evenodd"
    d="M15.8 11.591C15.8 11.591 15.6396 11.4434 15.2745 11.6422C14.9094 11.841 14.6142 12.2566 14.5961 12.6339C14.578 12.9678 14.8705 13.2164 15.3262 13.2294C15.6653 13.2422 15.87 13.2034 15.9736 13.1782C15.9476 13.1471 15.813 12.9788 15.813 12.9788L15.8002 11.5912L15.8 11.591Z"
    fill="#C3B378" />
  <path fill-rule="evenodd" clip-rule="evenodd"
    d="M15.6431 11.6734C15.6431 11.6734 15.6044 11.6423 15.4895 11.7044C15.3938 11.7556 15.254 11.891 15.1453 11.9867C15.0753 12.0437 15.0313 12.0695 14.9917 12.1135C14.8311 12.3052 14.6964 12.6185 14.7742 12.7738C14.8521 12.9291 15.1082 13.1078 15.7607 12.9862L15.6412 11.6736L15.6431 11.6734Z"
    fill="#E6D89C" />
  <path fill-rule="evenodd" clip-rule="evenodd"
    d="M15.4299 11.995C15.4299 11.995 15.3263 12.1556 15.3263 12.4119C15.3263 12.6734 15.4739 13.0901 16.0177 13.1212C16.4344 13.1471 16.714 12.5206 17.0169 12.2772C17.2473 12.0909 17.3871 12.0856 17.3871 12.0856C17.3871 12.0856 17.1516 11.8296 16.5225 11.498C15.9011 11.164 15.2046 11.12 14.8266 11.6326C15.0053 11.6197 15.5826 11.472 15.5826 11.472L15.8649 11.5627L15.4299 11.9951V11.995Z"
    fill="#252211" />
  <path fill-rule="evenodd" clip-rule="evenodd"
    d="M16.2436 12.3338C16.2256 12.2951 16.2126 12.2432 16.2877 12.2304C16.3628 12.2176 16.3964 12.2251 16.4223 12.2816C16.4483 12.3381 16.4735 12.3852 16.4351 12.4086C16.3964 12.4292 16.2954 12.4086 16.2435 12.3335L16.2436 12.3338ZM16.1213 11.9688C16.1213 11.9688 16.0954 11.9869 16.1083 11.9507C16.1134 11.9068 16.1472 11.829 16.23 11.8473C16.3128 11.8655 16.2949 11.956 16.2812 11.9819C16.2676 12.0079 16.1984 12.0517 16.1466 12.0331C16.1332 12.0297 16.1223 12.0201 16.1172 12.0074C16.112 11.9946 16.1133 11.9801 16.1206 11.9684L16.1213 11.9688Z"
    fill="#6F674D" />
  <path fill-rule="evenodd" clip-rule="evenodd"
    d="M9.11406 12.1343C9.11406 12.1343 9.31886 12.2879 9.55677 12.2819C9.79229 12.2766 10.0952 12.0334 10.235 11.878C10.3178 11.7873 10.3886 11.6916 10.4654 11.6165C10.5303 11.5518 10.5741 11.5208 10.6052 11.4767C10.6492 11.4255 10.6958 11.3293 10.7192 11.298C10.6622 11.3421 10.5794 11.4199 10.4939 11.4716C10.4111 11.5228 10.2324 11.6191 10.1599 11.645C10.0901 11.6709 9.36511 12.0546 9.36511 12.0546L9.11406 12.1343Z"
    fill="#AC924C" />
  <path fill-rule="evenodd" clip-rule="evenodd"
    d="M9.42656 10.2215C9.42656 10.2215 9.54039 10.1439 9.76055 10.0945C9.97286 10.0433 10.4 10.0039 10.4 10.0039L10.7521 10.1575L10.8919 10.6883L10.6359 11.2399L10.3098 11.4447L9.93941 10.8492L9.42741 10.2225L9.42656 10.2215Z"
    fill="#9F8E57" />
  <path fill-rule="evenodd" clip-rule="evenodd"
    d="M8.96561 10.695L8.84375 10.786C8.84375 10.786 8.87498 10.729 8.90075 10.5556C8.92652 10.3822 9.06135 9.96012 9.25813 9.71675C9.45491 9.47338 9.44979 9.48635 9.44979 9.48635C9.41316 9.47965 9.37541 9.48904 9.34619 9.51212C9.37213 9.45478 9.53785 9.24998 9.70357 9.14758C9.86929 9.04518 9.93397 9.01292 10.1074 9.09638C10.2808 9.17983 10.3248 9.22318 10.4518 9.21806C10.5787 9.21294 10.6873 9.07828 10.6873 9.07828C10.6873 9.07828 10.7132 9.16106 10.6175 9.35272C10.5217 9.54438 10.1437 9.9352 10.1437 9.9352L9.3566 10.4737L8.96561 10.6955V10.695Z"
    fill="#EAC970" />
  <path fill-rule="evenodd" clip-rule="evenodd"
    d="M9.54756 10.1566C9.54756 10.1566 10.1172 10.2342 10.2906 10.0738C10.2958 10.0919 10.3166 10.0919 10.3166 10.1049C10.3152 10.1146 10.3106 10.1237 10.3036 10.1306C10.3225 10.1276 10.3415 10.1259 10.3606 10.1255C10.3834 10.1323 10.4069 10.1367 10.4306 10.1385C10.4497 10.1381 10.4687 10.1363 10.4876 10.1332C10.484 10.1592 10.4699 10.1826 10.4487 10.1981C10.4746 10.1981 10.4999 10.2032 10.4999 10.2238C10.4999 10.2445 10.505 10.3068 10.4739 10.3197C10.4482 10.3269 10.4208 10.325 10.3963 10.3144C10.3983 10.3635 10.4117 10.4113 10.4352 10.4544C10.4864 10.5501 10.5956 10.6592 10.7424 10.6278C10.7424 10.6278 10.8199 10.8142 10.4937 11.2284C10.4499 11.2854 10.4031 11.363 10.3463 11.4277C10.3238 11.4767 10.3067 11.5279 10.2951 11.5805C10.2951 11.5805 10.8467 11.3681 11.0045 10.884C11.1651 10.3972 11.1962 9.91833 11.1651 9.4705C11.1598 9.34352 11.1392 9.25307 11.1081 9.18822C11.0305 9.02762 10.8129 9.05356 10.725 9.14418C10.598 9.27116 10.3857 9.58689 10.0906 9.80432C9.79025 10.0218 9.77745 10.0603 9.54688 10.1566H9.54756Z"
    fill="#D7BC6B" />
  <path fill-rule="evenodd" clip-rule="evenodd"
    d="M8.8646 10.8557C8.8646 10.8557 8.75588 10.9203 8.69888 11.1629C8.64188 11.4114 8.75008 11.7143 8.81272 11.81C8.87535 11.9058 9.01752 12.1674 9.31243 12.1804C9.38542 12.18 9.45761 12.165 9.52474 12.1363C9.62769 12.0891 9.72426 12.0291 9.81214 11.9577C9.93912 11.8619 10.0425 11.7791 10.0296 11.7713C9.99851 11.7583 9.24775 11.1369 9.24775 11.1369L8.96546 10.8219L8.86443 10.856L8.8646 10.8557Z"
    fill="#585136" />
  <path fill-rule="evenodd" clip-rule="evenodd"
    d="M9.57491 11.8859C9.57491 11.8859 9.72766 11.8731 9.81828 11.8161C9.9089 11.7591 9.28751 11.143 9.28751 11.143L9.33154 11.8086L9.57491 11.8859Z"
    fill="#453A25" />
  <path fill-rule="evenodd" clip-rule="evenodd"
    d="M8.9146 10.8089C8.9146 10.8089 8.83694 10.9565 8.83694 10.9954C8.82397 11.1222 8.86289 11.5209 8.89395 11.6477C8.92501 11.7823 9.09329 11.9868 9.31089 11.9868C9.44537 11.9868 9.63191 11.904 9.63191 11.8834C9.63191 11.8574 9.44025 11.8322 9.38854 11.7358C9.35748 11.6846 9.34451 11.5572 9.33734 11.4286C9.33222 11.3458 9.33222 11.2552 9.36328 11.2238C9.43325 11.1461 9.44605 10.9234 9.44605 10.9234L9.69454 10.4617H9.36772L8.97672 10.7051L8.9146 10.8089Z"
    fill="#84754B" />
  <path fill-rule="evenodd" clip-rule="evenodd"
    d="M8.81876 10.9517C8.81876 10.9517 9.07476 10.6125 9.3055 10.5347C9.53624 10.4569 9.63949 10.5037 9.63949 10.5037L9.50484 10.8481L9.31318 11.0604L9.32615 11.1691C9.32615 11.1691 9.29492 11.4565 9.48657 11.6558C9.67823 11.8552 9.82057 11.8475 9.90351 11.8475C9.98646 11.8475 10.2245 11.7775 10.3462 11.4901C10.4549 11.221 10.5456 10.8757 10.3281 10.5296C10.1157 10.1852 9.74036 10.1719 9.66782 10.1719C9.59529 10.1719 9.02577 10.2004 8.81876 10.9511V10.9517Z"
    fill="#252211" />
  <path fill-rule="evenodd" clip-rule="evenodd"
    d="M15.3908 12.1034C15.295 12.0593 15.3856 11.7902 15.4814 11.7073C15.5771 11.6243 15.6988 11.5287 15.9113 11.5156C15.9888 11.5105 16.0639 11.5596 16.0511 11.6115C16.033 11.7073 15.8983 11.8419 15.7766 11.9377C15.6084 12.0698 15.4995 12.1525 15.3908 12.1034Z"
    fill="#F7F7E7" />
  <path fill-rule="evenodd" clip-rule="evenodd"
    d="M10.2141 10.6355C10.2841 10.6304 10.3747 10.6867 10.3928 10.7625C10.4109 10.8452 10.3488 11.011 10.2141 11.011C10.1054 11.011 10.0484 10.8763 10.0484 10.8376C10.0497 10.8057 10.0586 10.7746 10.0744 10.7469C10.0795 10.7391 10.0925 10.6485 10.2141 10.6355Z"
    fill="#F8F6DE" />
  <path fill-rule="evenodd" clip-rule="evenodd"
    d="M9.20386 10.6953C9.20386 10.6953 9.02517 10.7781 8.9424 10.9513C8.88325 11.0792 8.86536 11.2224 8.8912 11.3609C8.90417 11.4256 8.96885 11.586 9.01288 11.643C9.05692 11.7 9.11648 11.7389 9.16051 11.7336C9.20454 11.7284 9.295 11.612 9.295 11.5422C9.295 11.4724 9.30029 11.1771 9.38562 11.0165C9.46071 10.8561 9.20437 10.6955 9.20437 10.6955L9.20386 10.6953Z"
    fill="#D4C38B" />
  <path fill-rule="evenodd" clip-rule="evenodd"
    d="M9.22978 10.6822C9.19872 10.7003 9.147 10.7262 9.1598 10.7598C9.17277 10.7909 9.28149 10.811 9.3204 10.8868C9.36443 10.9645 9.36443 11.0472 9.35146 11.0861C9.38528 11.0701 9.41597 11.0481 9.44209 11.0213C9.49909 10.9566 9.56889 10.8687 9.62845 10.8687C9.66737 10.8687 9.70611 10.8868 9.74246 10.8868C9.79946 10.8868 9.85629 10.8687 9.86414 10.8092C9.87694 10.7315 9.75543 10.6615 9.68546 10.6745C9.69843 10.6233 9.71652 10.5477 9.65952 10.4958C9.60251 10.4439 9.424 10.5347 9.38508 10.5607C9.34617 10.5866 9.22978 10.6824 9.22978 10.6824V10.6822Z"
    fill="#E2D59D" />
  <path fill-rule="evenodd" clip-rule="evenodd"
    d="M13.3432 16.1218L13.7263 16.0086L13.835 16.0863C13.835 16.0863 13.9125 16.252 14.0344 16.2726C13.9955 16.3554 13.8944 16.4262 13.8997 16.4849C13.905 16.5436 13.9567 16.5885 13.9567 16.5885C13.9567 16.5885 13.6123 17.158 14.2907 17.732C14.1301 17.7967 13.9257 17.8856 13.8169 17.9368C13.8944 17.9549 14.0601 17.988 14.1301 18.0508C14.2001 18.1136 14.2001 18.1336 14.2648 18.1725C14.3295 18.2114 14.3682 18.2631 14.3554 18.2863C14.3114 18.2604 14.1637 18.1829 14.138 18.2553C14.1122 18.3276 13.4985 18.2993 13.4985 18.2993L12.4629 18.4986C12.4629 18.4986 12.5016 18.395 12.3929 18.2993C12.2661 18.1855 12.1108 18.3044 11.9451 18.1776C11.7276 18.0119 11.7198 17.8202 11.65 17.7479C11.7198 17.7038 11.8623 17.6392 12.2014 17.5943C12.1884 17.5683 12.1444 17.4907 12.1704 17.4209C12.2014 17.3302 12.3308 17.2732 12.292 17.1649C12.349 17.1519 12.3748 17.1519 12.5173 16.9732C12.652 16.7945 12.7348 16.7558 12.8383 16.7428C12.9419 16.7298 13.0041 16.7428 13.1957 16.5641C13.3302 16.4373 13.2863 16.3286 13.2863 16.3286C13.2863 16.3286 13.3742 16.3001 13.3433 16.1214L13.3432 16.1218Z"
    fill="#CBAC5A" />
  <path fill-rule="evenodd" clip-rule="evenodd"
    d="M12.2131 16.1792C12.2182 16.1532 12.239 16.1402 12.3788 16.1532C12.5186 16.1662 13.404 16.0704 13.6448 16.0575C13.8882 16.0394 14.7451 16.0522 15.162 16.1402C15.579 16.2283 16.0009 16.3319 16.2053 16.3836C16.4101 16.4406 16.4746 16.4611 16.4668 16.487C16.4617 16.513 16.4156 16.5382 16.3891 16.5311C16.3634 16.5259 15.685 16.3188 15.4754 16.2751C15.2658 16.2314 14.5406 16.1145 14.1442 16.1215C13.774 16.1268 13.6264 16.1163 13.3132 16.1525C12.9999 16.1914 12.4821 16.2432 12.3268 16.2225C12.1732 16.2044 12.2049 16.2044 12.2128 16.1785L12.2131 16.1792Z"
    fill="#D6BC6F" />
  <path fill-rule="evenodd" clip-rule="evenodd"
    d="M14.2968 18.2083C14.2968 18.2083 14.8275 18.4957 15.0192 18.8478C15.159 19.1093 14.9364 19.2388 14.9364 19.2388C14.9364 19.2388 15.2368 19.2388 15.1979 19.4045C15.1798 19.5079 14.6801 19.7875 14.3461 19.9351C14.007 20.0828 14.0199 20.0751 13.8542 20.1008C13.6936 20.1268 13.2535 20.0496 13.1628 20.1785C13.0722 20.3073 13.1116 20.4401 13.1369 20.4608C13.1628 20.4789 13.3726 20.5048 13.3726 20.5048C13.3726 20.5048 13.3286 20.6265 12.8937 20.6395C12.4588 20.6524 12.35 20.6833 12.324 20.7301C12.2981 20.774 12.4068 20.7482 12.6063 20.7813C12.8056 20.8124 13.0852 20.8325 13.0852 20.8325C13.0852 20.8325 12.9946 20.9101 12.7591 20.9723C12.4897 21.0421 12.0677 21.1069 11.9409 21.1846C12.0056 21.2286 12.1015 21.2933 12.1457 21.2984C12.037 21.3244 11.884 21.3814 11.8583 21.402C11.897 21.4279 11.9489 21.459 11.9489 21.459C11.9489 21.459 11.7313 21.7205 11.6045 21.7853C11.4777 21.8502 10.7476 22.1891 10.4964 22.1244C9.86984 21.9587 9.79218 21.2726 9.63944 21.2209C9.40904 21.1433 9.30032 21.2984 9.09569 21.1897C9.18632 21.125 9.23564 21.0863 9.33138 21.0422C9.22779 20.991 8.69189 20.6512 8.69189 20.6512C8.63585 20.5291 8.57365 20.4099 8.50553 20.294C8.40193 20.1153 8.24953 19.8771 8.13518 19.6673C7.88669 19.2065 7.87372 18.9942 7.64844 18.7328C7.68735 18.6816 7.82183 18.6887 7.82183 18.6887L9.70941 19.3101L13.0564 19.4071L13.9268 18.1645L14.2969 18.2085L14.2968 18.2083Z"
    fill="#DFC677" />
  <path fill-rule="evenodd" clip-rule="evenodd"
    d="M9.33907 20.1035C9.35926 20.1259 9.38281 20.1452 9.40887 20.1605C9.47372 20.2045 9.56947 20.2564 9.63415 20.3339C9.66009 20.2951 9.72477 20.2252 9.83895 20.3339C9.95312 20.4426 10.0949 20.3651 10.1832 20.3909C10.2738 20.4221 10.2789 20.4349 10.2789 20.4349C10.2789 20.4349 10.3301 20.3909 10.4446 20.3443C10.5146 20.3183 10.5974 20.3002 10.688 20.2745C10.7708 20.2564 10.8614 20.2304 10.9237 20.2304C10.9807 20.2692 11.1852 20.4864 12.0059 20.1658C12.78 19.8654 12.9586 19.8318 13.0881 19.8782C13.1011 19.8471 13.114 19.7876 13.3134 19.7954C13.3134 19.7126 13.1477 19.4304 13.1477 19.4304L12.2337 19.1172H11.7339L10.2349 19.3916L9.40426 19.8656L9.33958 20.1045L9.33907 20.1035Z"
    fill="#C4A859" />
  <path fill-rule="evenodd" clip-rule="evenodd"
    d="M8.83907 19.5782C8.83907 19.5782 8.85716 19.718 9.06435 19.8656C9.26915 20.013 9.33349 20.1011 9.33349 20.1011C9.33349 20.1011 9.3724 20.0499 9.40346 19.9977C9.43452 19.9407 9.46046 19.876 9.51217 19.8579C9.61577 19.8139 9.85129 19.8966 9.90317 19.8837C9.9472 19.8709 9.93423 19.7803 9.98083 19.7803C10.0895 19.775 10.1593 19.8501 10.1983 19.8501C10.2372 19.8501 10.3327 19.8449 10.3457 19.8243C10.3587 19.8036 10.3638 19.5886 10.5114 19.485C10.672 19.3712 10.8688 19.4203 10.921 19.4463C10.921 19.485 10.9261 19.5809 11.0297 19.586C11.1333 19.5912 11.1436 19.5731 11.2345 19.6041C11.3255 19.6352 11.4339 19.599 11.483 19.7516C11.5271 19.7388 11.6307 19.7258 11.6047 19.5782C11.6559 19.5394 11.7006 19.5135 11.8095 19.3608C11.8355 19.322 11.8793 19.278 11.9131 19.221C12.0037 19.221 12.1125 19.2029 12.2573 19.3297C12.2133 19.3608 12.1874 19.3809 12.1746 19.4125C12.2125 19.45 12.2471 19.4907 12.278 19.5342C12.3169 19.5854 12.3429 19.6482 12.392 19.6611C12.5007 19.6922 12.6794 19.6482 12.8787 19.6611C13.0704 19.6741 13.2308 19.7439 13.3008 19.7879C13.3267 19.7751 13.3267 19.7698 13.3914 19.7828C13.4561 19.7958 13.5053 19.8009 13.4355 19.7181C13.4742 19.7362 13.5182 19.7751 13.5571 19.7362C13.5961 19.6973 13.6269 19.6405 13.7357 19.6275C13.8444 19.6145 13.8833 19.6326 13.9273 19.5188C13.9843 19.379 13.7875 19.379 13.7875 19.379C13.7875 19.379 13.8782 19.2961 13.9792 19.1874C14.1009 19.0735 14.2407 18.9259 14.2743 18.7446C14.3313 18.4107 14.0051 18.3668 14.0051 18.3668L12.4232 18.8535L10.4892 18.7576L8.84009 19.5784L8.83907 19.5782Z"
    fill="#927D49" />
  <path fill-rule="evenodd" clip-rule="evenodd"
    d="M7.41768 15.0082C7.41768 15.0082 7.36648 15.0729 7.3349 15.2257C7.30333 15.3784 7.31681 15.3603 7.29087 15.469C7.26493 15.5777 6.9463 16.6599 7.06576 17.025C7.18523 17.3901 7.39208 17.5247 7.52144 17.8198C7.54738 17.8845 7.57264 17.9234 7.58613 17.9804C7.63016 18.1719 7.59142 18.3195 7.64313 18.5112C7.66122 18.5758 7.70798 18.6509 7.77778 18.7286C7.93138 18.889 8.18175 19.0418 8.28978 19.1505C8.44236 19.3111 8.65996 19.6374 8.93695 19.6683C9.08458 19.6864 9.29433 19.6243 9.46773 19.5208C9.62133 19.4249 9.71622 19.2904 9.87733 19.2136C9.99116 19.1566 10.1128 19.136 10.2216 19.11C10.4468 19.066 10.6515 19.0588 10.7732 19.0841C10.9595 19.123 11.3997 19.2577 11.6436 19.2577C11.8341 19.2546 12.0236 19.2285 12.2079 19.18C12.5781 19.0713 13.026 18.8848 13.3212 18.802C13.4946 18.7508 13.6344 18.7373 13.7769 18.7062C14.0203 18.6492 14.2247 18.5716 14.3413 18.424C14.2636 18.3333 14.1679 18.1936 13.6499 18.1987C13.0623 18.2116 12.3839 18.5378 12.0499 18.5897C11.7159 18.6416 11.571 18.6854 11.1981 18.5508C10.8325 18.4147 10.8204 18.3248 10.8204 18.3248C10.8204 18.3248 10.4366 18.0563 10.276 17.372C10.1154 16.6876 10.276 16.1889 10.6929 15.715C10.8017 15.5933 10.7757 15.4846 10.7757 15.4846C10.7757 15.4846 11.0501 15.1144 10.9751 14.7678C10.8923 14.4234 10.3615 14.4933 10.3615 14.4933L7.41785 15.0082H7.41768Z"
    fill="#6E6342" />
  <path fill-rule="evenodd" clip-rule="evenodd"
    d="M7.85954 16.1606C7.83672 16.2035 7.82598 16.2518 7.82848 16.3003C7.8336 16.3701 7.85442 16.4608 8.064 16.6654C8.24269 16.8439 8.20378 17.0432 8.20378 17.0432C8.20378 17.0432 8.29372 17.0613 8.53777 16.9472C8.72943 16.8565 8.79377 17.0171 8.79377 17.0171C8.84956 16.9879 8.91003 16.9686 8.97246 16.9601C9.02902 16.9549 9.08376 16.9374 9.13289 16.9089C9.13289 16.9089 9.35817 17.1393 9.55494 17.248C9.73363 17.344 9.83723 17.4086 9.92529 17.344C10.0081 17.287 10.0081 17.1704 10.0028 17.1187C9.98224 17.0709 9.95624 17.0258 9.92529 16.984C9.86829 16.9012 9.77766 16.8053 9.77169 16.728C9.75872 16.5495 9.90635 16.337 9.87512 16.2853C9.84388 16.2336 9.72766 16.2206 9.44026 16.3242C9.14261 16.4225 7.85835 16.1611 7.85835 16.1611L7.85954 16.1606Z"
    fill="#39331F" />
  <path fill-rule="evenodd" clip-rule="evenodd"
    d="M8.53798 17.3179C8.53798 17.3179 8.39053 17.1781 8.44224 16.4997C8.50484 16.4988 8.56735 16.5048 8.62861 16.5178C8.62861 16.5178 8.70899 17.0434 8.53798 17.3179Z"
    fill="#292311" />
  <path fill-rule="evenodd" clip-rule="evenodd"
    d="M7.48769 14.4906C7.50827 14.4754 7.52736 14.4582 7.5447 14.4394C7.4935 14.5351 7.25712 14.9183 7.44878 15.5216C7.64044 16.1222 8.12189 16.57 8.71479 16.5908C9.30768 16.6117 9.61932 16.3215 9.97567 15.8867C10.1154 15.7133 10.276 15.4957 10.4184 15.3482C10.6307 15.1176 10.7964 15.053 10.7964 14.8304C10.7964 14.3747 10.3303 14.1701 9.64424 13.9656C8.95816 13.7612 8.33932 13.7864 8.0183 13.9264C7.70512 14.079 7.57047 14.2396 7.48752 14.4908L7.48769 14.4906Z"
    fill="#252211" />
  <path fill-rule="evenodd" clip-rule="evenodd"
    d="M9.69114 17.5223L9.74234 17.4963C9.74234 17.4963 9.75514 17.2915 9.83808 17.297C9.92086 17.31 9.95977 17.4188 9.95192 17.4576C9.9468 17.4963 9.92615 17.5612 9.8432 17.5533C9.73449 17.5559 9.69063 17.5223 9.69063 17.5223H9.69114Z"
    fill="#3F3824" />
  <path fill-rule="evenodd" clip-rule="evenodd"
    d="M9.46094 16.6524C9.46094 16.6524 9.51214 16.6344 9.57477 16.6965C9.62597 16.6965 9.8492 16.6705 9.91918 16.7146C9.98915 16.7586 10.0098 16.7973 10.0098 16.7973C10.0098 16.7973 9.74834 16.8543 9.60583 16.7973C9.46094 16.7482 9.46094 16.6524 9.46094 16.6524H9.46094Z"
    fill="#2D2815" />
  <path fill-rule="evenodd" clip-rule="evenodd"
    d="M10.6128 16.6913C10.6128 16.6784 10.473 16.5826 10.3254 16.5514C10.2994 16.5463 10.2941 16.5644 10.2742 16.5644C10.2612 16.5592 10.2561 16.5203 10.2561 16.5203L10.1721 16.5645C10.1721 16.5645 10.1591 16.5826 10.2032 16.6157C10.2419 16.6468 10.3068 16.6727 10.3248 16.7244C10.3429 16.7762 10.3429 16.7942 10.3508 16.8021C10.3559 16.8072 10.4465 16.8021 10.4906 16.7762C10.5346 16.7502 10.6175 16.7079 10.6123 16.6908L10.6128 16.6913Z"
    fill="#82764F" />
  <path fill-rule="evenodd" clip-rule="evenodd"
    d="M9.30469 17.2168C9.30469 17.2168 9.33046 17.0382 9.50403 17.0304C9.68254 17.0174 9.71634 17.1908 9.71634 17.1908L9.61274 17.2944C9.61274 17.2918 9.53509 17.1831 9.30554 17.2168H9.30469Z"
    fill="#2D2816" />
  <path fill-rule="evenodd" clip-rule="evenodd"
    d="M10.4317 16.448C10.4317 16.448 10.3357 16.5515 10.1236 16.5826C10.1055 16.5567 10.0666 16.505 10.1236 16.4222C10.1806 16.3394 10.2453 16.3135 10.31 16.3392C10.3682 16.3487 10.4157 16.3911 10.4317 16.448Z"
    fill="#574F35" />
  <path fill-rule="evenodd" clip-rule="evenodd"
    d="M10.822 16.5747C10.8273 16.5487 10.8092 16.5436 10.822 16.5306C10.8348 16.5177 10.9049 16.4919 10.9179 16.5047C10.923 16.51 10.9179 16.5306 10.9179 16.5559C10.9179 16.5812 10.9179 16.6071 10.9049 16.6257C10.8868 16.6516 10.8351 16.6646 10.8092 16.6569C10.7832 16.6493 10.7781 16.6129 10.7781 16.6057C10.7909 16.6006 10.822 16.5876 10.822 16.5747ZM11.2641 16.2953C11.2641 16.2823 11.3081 16.2564 11.334 16.2564C11.3728 16.2564 11.3728 16.2874 11.3781 16.2953C11.3909 16.3004 11.3909 16.29 11.4038 16.3134C11.4168 16.3368 11.4351 16.3781 11.4219 16.404C11.4088 16.4299 11.3572 16.4479 11.3444 16.4427C11.3264 16.4298 11.2694 16.3134 11.2641 16.2953Z"
    fill="#82764F" />
  <path fill-rule="evenodd" clip-rule="evenodd"
    d="M10.3734 16.6345C10.3734 16.6345 10.4304 16.6473 10.5081 16.7122C10.4822 16.7303 10.4432 16.7509 10.4432 16.7509C10.4432 16.7509 10.4381 16.6914 10.3734 16.6344V16.6345Z"
    fill="#6E6342" />
  <path fill-rule="evenodd" clip-rule="evenodd"
    d="M10.2474 16.065C10.2344 16.0522 10.2861 16.0212 10.3172 16.0263C10.3482 16.0314 10.3612 16.0522 10.3948 16.0573C10.4284 16.0625 10.4337 16.0444 10.446 16.0314C10.4583 16.0184 10.503 16.0263 10.5107 16.0314C10.5155 16.0371 10.5198 16.0431 10.5237 16.0495C10.5248 16.0296 10.5341 16.011 10.5494 15.9983C10.5696 15.9835 10.5953 15.9787 10.6194 15.9853C10.6245 16.0034 10.6505 16.0681 10.6454 16.0811C10.6402 16.094 10.5626 16.1123 10.5494 16.0991C10.5624 16.1304 10.6194 16.1951 10.6271 16.2079C10.6348 16.2207 10.5701 16.2519 10.5443 16.2468C10.5081 16.2442 10.2854 16.1147 10.2467 16.0655L10.2474 16.065ZM10.5864 15.635C10.5816 15.622 10.5724 15.611 10.5605 15.604C10.5424 15.5989 10.4828 15.604 10.4828 15.635C10.4828 15.6661 10.534 15.8398 10.5915 15.9303C10.6564 16.0209 10.7002 16.0958 10.7443 16.1167C10.773 16.1297 10.8069 16.1184 10.8219 16.0907C10.8271 16.0777 10.84 15.982 10.8349 15.7567C10.8298 15.5314 10.8219 15.314 10.809 15.301C10.796 15.2881 10.7443 15.2882 10.7262 15.314C10.7081 15.3398 10.5915 15.5963 10.5862 15.635H10.5864Z"
    fill="#585136" />
  <path fill-rule="evenodd" clip-rule="evenodd"
    d="M10.3564 16.9606C10.3564 16.9606 10.2658 16.9036 10.1777 16.9425C10.0949 16.9814 10.1001 17.1341 10.1001 17.1341C10.1379 17.1489 10.1806 17.1441 10.2141 17.1212C10.2711 17.0824 10.3434 17.0178 10.3564 16.9607V16.9606Z"
    fill="#574F35" />
  <path fill-rule="evenodd" clip-rule="evenodd"
    d="M10.5262 17.1651C10.5211 17.1139 10.475 17.1139 10.475 17.0874C10.4815 17.0614 10.505 17.0432 10.5318 17.0434C10.5578 17.0434 10.583 17.0744 10.6148 17.0946C10.6458 17.1127 10.6924 17.1458 10.6976 17.1852C10.7027 17.2246 10.6464 17.3327 10.5837 17.3327C10.5211 17.3327 10.5397 17.2161 10.5267 17.1644L10.5262 17.1651ZM11.026 17.0952C11.026 17.0952 10.9224 17.1262 10.9301 17.0952C10.9378 17.0641 10.9613 17.0564 10.995 17.0564C11.012 17.0386 11.035 17.0275 11.0596 17.0252C11.0737 17.0245 11.0876 17.0291 11.0984 17.0382C11.0984 17.0382 11.1684 17.0071 11.189 17.0252C11.2097 17.0433 11.1943 17.0433 11.2071 17.0641C11.2234 17.0872 11.2341 17.1138 11.2383 17.1418C11.2383 17.1624 11.1607 17.2065 11.0984 17.1988C11.026 17.1832 11.0388 17.1081 11.026 17.0952ZM11.6287 16.9785C11.6287 16.9785 11.6598 16.9966 11.634 17.0174C11.6159 17.0355 11.5253 17.0686 11.4475 17.0744C11.3698 17.0744 11.3 17.0872 11.3 17.0614C11.3 17.0356 11.3647 16.9838 11.4034 16.9708C11.4192 16.9511 11.4431 16.9396 11.4683 16.9397C11.4993 16.9397 11.6209 16.9268 11.6547 16.9216C11.6857 16.9163 11.7117 16.9344 11.6934 16.9604C11.6857 16.9785 11.6287 16.9785 11.6287 16.9785ZM11.8071 16.179C11.8071 16.179 11.7682 16.2618 11.7243 16.2618C11.6803 16.2566 11.6803 16.2437 11.6803 16.2307C11.6803 16.2126 11.7243 16.166 11.719 16.153C11.7062 16.153 11.675 16.153 11.6803 16.122C11.6803 16.096 11.7243 16.065 11.7631 16.0708C11.7923 16.0467 11.8288 16.0331 11.8667 16.032C11.9107 16.032 11.9494 16.0448 11.9494 16.0708C11.9494 16.0967 11.8982 16.1536 11.8795 16.1667C11.8588 16.1874 11.8329 16.2008 11.8071 16.1795V16.179ZM11.2168 17.709C11.2168 17.709 11.1656 17.7143 11.1656 17.7401C11.1656 17.7531 11.1784 17.7531 11.1967 17.7454C11.2072 17.7448 11.2176 17.743 11.2278 17.7401C11.2329 17.7454 11.2329 17.7712 11.2718 17.7712C11.3037 17.7668 11.3345 17.7563 11.3624 17.7401C11.3935 17.7273 11.4194 17.7142 11.4194 17.6889C11.4064 17.6449 11.3805 17.624 11.3418 17.624C11.3219 17.6228 11.3021 17.6273 11.2848 17.637C11.2848 17.637 11.2718 17.6111 11.2278 17.637C11.1837 17.663 11.1888 17.663 11.2018 17.6759C11.225 17.6966 11.2173 17.7101 11.2173 17.7101L11.2168 17.709ZM10.925 17.9782C10.925 17.9653 10.9897 17.9393 11.0078 17.9472C11.0259 17.9523 11.0776 18.0506 11.0776 18.061C11.0776 18.074 11.0129 18.105 10.987 18.105C10.9611 18.105 10.9172 18.061 10.9172 18.0538C10.9172 18.0487 10.9483 18.041 10.9483 18.0357C10.9559 18.0229 10.925 17.9917 10.925 17.9787V17.9782ZM10.7194 17.6002C10.7324 17.5951 10.7324 17.5822 10.7505 17.5692C10.762 17.5615 10.7764 17.5597 10.7894 17.5641C10.7987 17.5476 10.8148 17.5361 10.8334 17.5328C10.8645 17.5277 10.8905 17.5328 10.8846 17.5458C10.8846 17.5847 10.9106 17.6105 10.9106 17.6415C10.9106 17.6726 10.8925 17.7115 10.8278 17.7375C10.7631 17.7555 10.6751 17.7555 10.6621 17.7504C10.6491 17.7453 10.6362 17.6934 10.6491 17.6675C10.6621 17.6415 10.6983 17.6132 10.7191 17.6002H10.7194Z"
    fill="#82764F" />
  <path fill-rule="evenodd" clip-rule="evenodd"
    d="M10.8024 17.618C10.8024 17.618 10.7583 17.6439 10.7583 17.6569C10.7544 17.6694 10.7527 17.6825 10.7532 17.6956C10.7532 17.7033 10.8102 17.6905 10.8179 17.6827C10.8205 17.6775 10.8024 17.6315 10.8024 17.618Z"
    fill="#6E6342" />
  <path fill-rule="evenodd" clip-rule="evenodd"
    d="M10.4174 17.4964C10.4432 17.5016 10.4872 17.4964 10.5208 17.5093C10.5468 17.5223 10.5649 17.5482 10.5389 17.5793C10.513 17.6104 10.4877 17.657 10.4302 17.6491C10.3655 17.644 10.3034 17.6104 10.3034 17.5844C10.3012 17.5513 10.3124 17.5186 10.3345 17.4938C10.3604 17.4731 10.3732 17.4861 10.4172 17.4964H10.4174Z"
    fill="#585136" />
  <path fill-rule="evenodd" clip-rule="evenodd"
    d="M10.3865 17.5223C10.3865 17.5223 10.3038 17.587 10.2829 17.6182C10.257 17.6493 10.1302 17.8097 10.0915 17.8433C10.1043 17.8206 10.119 17.799 10.1353 17.7786C10.0841 17.8114 10.0457 17.8607 10.0266 17.9184C9.99554 18.0143 10.2002 18.066 10.3347 18.1049C10.4691 18.1438 10.5212 18.1561 10.5212 18.1561C10.4717 18.0817 10.4292 18.0029 10.3942 17.9206C10.343 17.7989 10.3166 17.786 10.3502 17.729C10.3761 17.672 10.415 17.6332 10.415 17.5892C10.3995 17.5482 10.3865 17.5223 10.3865 17.5223Z"
    fill="#574F35" />
  <path fill-rule="evenodd" clip-rule="evenodd"
    d="M7.43628 17.727C7.45513 17.7305 7.47444 17.7305 7.49329 17.727C7.53203 17.7217 7.936 17.5734 8.35806 17.6001C8.67401 17.6192 8.98718 17.6706 9.29263 17.7537C9.8234 17.8934 10.4835 18.1704 10.9107 18.3285C11.0246 18.3723 11.136 18.4501 11.2179 18.481C11.5442 18.608 11.557 18.608 11.7487 18.6416C11.974 18.6727 12.2044 18.5976 12.4452 18.5459C12.7403 18.481 13.2451 18.45 13.6878 18.3853C13.831 18.3655 13.9722 18.3334 14.1099 18.2896C14.1099 18.2896 13.7578 18.6416 12.9137 18.7684C12.5725 18.8203 12.2257 18.8246 11.8833 18.7814C11.614 18.7555 11.4355 18.7166 11.3009 18.6778C11.1481 18.6338 10.8348 18.5172 10.4491 18.4218C10.1798 18.3518 9.87938 18.3001 9.53514 18.2355C8.68591 18.08 7.76431 17.9015 7.43594 17.7281L7.43628 17.727Z"
    fill="#252211" />
  <path fill-rule="evenodd" clip-rule="evenodd"
    d="M6.4835 16.127C6.2787 16.3004 6.06145 16.4661 5.84931 16.6265L5.20982 17.1178C4.99239 17.2783 4.78008 17.444 4.56248 17.6046C4.34488 17.7652 4.12762 17.9178 3.89688 18.0654C4.10168 17.892 4.31894 17.7314 4.53637 17.5735C4.7538 17.4157 4.97925 17.2609 5.189 17.1008L5.82849 16.6087C6.04848 16.4483 6.26078 16.2826 6.4835 16.1273V16.127ZM5.35174 17.9393C5.35174 17.9393 5.58214 17.7476 5.86954 17.4785C6.22675 17.1447 6.66434 16.7173 6.80411 16.6398L5.35157 17.9395L5.35174 17.9393Z"
    fill="#CFB66C" />
  <path fill-rule="evenodd" clip-rule="evenodd"
    d="M5.35156 17.9393C5.46557 17.8255 5.58725 17.7142 5.70894 17.6053L5.89531 17.4449C5.95231 17.3937 6.01716 17.3362 6.07399 17.2791C6.18783 17.1653 6.29927 17.0435 6.41311 16.9271C6.46953 16.8685 6.52919 16.8132 6.5918 16.7613C6.6231 16.7336 6.65786 16.7101 6.69522 16.6914C6.72645 16.6733 6.76007 16.6402 6.80394 16.6344C6.77817 16.6733 6.7471 16.6914 6.72116 16.725C6.6901 16.7509 6.66416 16.782 6.63839 16.8078C6.58139 16.8648 6.5167 16.9165 6.4597 16.9684C6.33802 17.072 6.21121 17.1732 6.08953 17.2815C5.96784 17.3899 5.85401 17.5068 5.73215 17.6155C5.60022 17.727 5.47854 17.8357 5.35156 17.9398V17.9393ZM6.90033 16.9039C6.90033 16.9039 6.05638 17.7299 5.88281 17.8644L6.90033 16.9039Z"
    fill="#CFB66C" />
  <path fill-rule="evenodd" clip-rule="evenodd"
    d="M6.90033 16.9035C6.82441 16.9914 6.74301 17.0744 6.65662 17.152L6.40062 17.3954C6.31784 17.4781 6.24002 17.5611 6.15212 17.6439C6.0615 17.7215 5.97873 17.7975 5.88281 17.8691L6.1313 17.6258C6.21425 17.543 6.30487 17.4732 6.39294 17.3902L6.64143 17.1469C6.72676 17.0615 6.8097 16.9786 6.90033 16.9035ZM6.93864 17.3516C6.86084 17.5687 6.76918 17.7806 6.6642 17.9859C6.44678 18.4209 6.12063 18.9645 5.97813 19.2417L6.93864 17.3516Z"
    fill="#CFB66C" />
  <path fill-rule="evenodd" clip-rule="evenodd"
    d="M6.9392 17.3516C6.9392 17.4473 6.91326 17.5303 6.8822 17.613C6.85192 17.6959 6.8174 17.7771 6.77877 17.8564C6.73986 17.934 6.69583 18.017 6.6518 18.0921C6.60776 18.1672 6.55605 18.2447 6.51714 18.3225L6.25568 18.7833C6.16505 18.9369 6.07699 19.0913 5.98125 19.239C6.04593 19.0732 6.13399 18.9179 6.21694 18.7652C6.30756 18.6116 6.39033 18.458 6.47294 18.2991C6.51327 18.2199 6.54955 18.1388 6.58165 18.0559C6.62039 17.973 6.65913 17.8953 6.69037 17.8202C6.72911 17.7374 6.76017 17.6596 6.79908 17.5847C6.84294 17.5043 6.87929 17.4267 6.93886 17.3516L6.9392 17.3516Z"
    fill="#CFB66C" />
  <path fill-rule="evenodd" clip-rule="evenodd"
    d="M7.86033 19.4742C7.86033 19.4742 7.60433 19.8133 7.62993 20.2431C7.69973 20.018 7.78779 19.6736 7.86033 19.4742ZM8.10322 19.8141C8.10322 19.8141 8.0126 20.7357 7.9375 21.1888C8.04366 20.665 8.06431 20.709 8.10322 19.8141ZM9.79881 21.2434C9.79881 21.2434 9.41567 22.3698 9.40781 22.6828C9.49076 22.361 9.65119 21.7034 9.79881 21.2426V21.2434Z"
    fill="#DEC270" />
  <path fill-rule="evenodd" clip-rule="evenodd"
    d="M10.6953 19.4047C10.6953 19.4047 11.3167 20.4299 11.7828 21.3049C11.6567 20.8646 11.3665 20.057 10.6953 19.4047Z"
    fill="#CBAF59" />
  <path fill-rule="evenodd" clip-rule="evenodd"
    d="M12.3656 20.9141C12.7068 21.5171 13.0145 22.1386 13.2872 22.7755C13.2355 22.3354 13.0956 21.5821 12.3656 20.9141Z"
    fill="#E3C677" />
  <path fill-rule="evenodd" clip-rule="evenodd"
    d="M17.2741 22.4257C17.3775 22.361 17.5821 22.0088 17.7608 21.9209C17.9393 21.8302 18.074 21.8122 18.2346 21.6335C18.395 21.4469 18.4394 21.3331 18.7911 21.1856C19.2831 20.9732 18.9447 20.6987 18.9447 20.6987C18.9989 20.6455 19.0569 20.5962 19.1181 20.5513C19.2451 20.4555 19.3925 20.339 19.3797 20.1343C19.3617 19.7901 19.297 19.2904 19.0147 19.0004C19.2891 18.9434 19.8146 18.9047 20.1411 18.8219C20.5189 18.726 20.6925 18.5913 20.6925 18.5913C20.6925 18.5913 20.4751 18.2212 20.8272 17.8484C21.1793 17.4757 21.4667 17.253 21.679 16.836C21.4356 16.805 21.0646 16.6756 20.1177 17.0354C20.1688 17.0594 20.2182 17.0871 20.2653 17.1181C20.2653 17.1181 19.6828 17.2787 19.4705 17.4574C19.1002 17.7706 19.0536 18.0269 18.6524 18.2186C18.2511 18.4103 17.8472 18.3584 17.5133 18.5137C17.1795 18.669 17.1302 18.8011 17.0083 18.8581C17.0343 18.8891 17.0032 18.9409 17.0524 18.9849C17.0213 19.0289 16.8401 19.324 16.6562 19.324C16.6743 19.394 16.8296 19.4457 16.8296 19.4457C16.8296 19.4457 16.7158 19.5286 16.4258 19.5493C16.5733 19.7029 16.7132 19.8703 17.099 20.1137C17.0679 20.1784 16.9384 20.2743 16.9902 20.396C17.0472 20.5176 17.195 20.6834 17.785 20.818C17.4847 20.8308 17.1327 20.9008 16.6586 20.8361C16.1849 20.7791 16.1072 20.7455 15.8147 20.818C15.8457 20.8491 15.9285 20.8491 16.0011 20.9319C15.9234 20.937 15.4367 20.8749 15.2709 21.0925C15.0975 21.3176 15.0225 21.6879 15.0354 21.9364C14.9448 21.9804 14.8567 22.0581 14.9008 22.2187C14.9448 22.3793 15.1752 22.431 15.3228 22.5319C15.4703 22.6406 15.4833 22.6793 15.6232 22.6535C15.7707 22.6225 15.9881 22.475 16.1151 22.475C16.242 22.475 16.3325 22.5708 16.3325 22.5708C16.3325 22.5708 16.6769 22.4051 16.7105 22.4361C16.7416 22.4672 16.7156 22.6665 16.7493 22.6976C16.7834 22.721 17.1713 22.4906 17.2749 22.4257H17.2741Z"
    fill="#ECD592" />
  <path fill-rule="evenodd" clip-rule="evenodd"
    d="M24.7994 12.0649C23.1813 7.88627 19.1812 7.11212 19.1812 7.11212H7.76892L7.81296 11.3684H10.0857V20.8726H7.76875V25.1212H18.8653C21.5397 25.1212 23.6834 22.4337 23.6834 22.4337C27.1164 17.5614 24.7992 12.0649 24.7992 12.0649H24.7994ZM18.9255 19.5704C18.9255 19.5704 18.0551 20.8262 17.108 20.8262H15.2136L15.1688 11.3789H17.5999C17.5999 11.3789 18.7263 11.6144 19.5132 13.8435C19.5132 13.8435 20.5565 17.035 18.9255 19.5704Z"
    fill="white" fill-opacity="0.8" />
</svg>