<svg viewBox="0 0 32 32" fill="none" xmlns="http://www.w3.org/2000/svg">
  <path fill-rule="evenodd" clip-rule="evenodd"
    d="M0 16C0 7.16344 7.16341 0 15.9999 0H16.0929C20.324 0.0123117 24.377 1.70494 27.3601 4.70553C30.3432 7.70611 32.0122 11.7689 31.9999 16C31.9999 24.8366 24.8365 32 15.9999 32C7.16341 32 0 24.8366 0 16ZM14.6058 22.1599L16.2716 16.5425L18.8673 15.8064L19.4096 13.9468L16.8527 14.7217L19.5646 5.50132V5.3541C19.5606 5.23489 19.5093 5.12218 19.4221 5.04079C19.3349 4.9594 19.2189 4.91602 19.0997 4.9202H15.6518C15.3832 4.91192 15.1435 5.08769 15.0707 5.34635L11.8552 16.2713L9.2983 17.0461L8.71719 18.8282L11.2741 18.0534L8.98837 25.8403H22.6251C22.8946 25.8514 23.1359 25.6745 23.2062 25.4142L23.981 22.741V22.5938C23.977 22.4746 23.9257 22.3619 23.8385 22.2805C23.7513 22.1991 23.6354 22.1557 23.5162 22.1599H14.6058Z"
    fill="#345D9D" />
</svg>