<svg viewBox="0 0 32 32" fill="none" xmlns="http://www.w3.org/2000/svg">
  <circle cx="16" cy="16" r="16" fill="#172852" />
  <path
    d="M13.127 7.72017C14.9211 7.0491 16.9405 7.04757 18.7683 7.59913C21.1476 8.33761 23.1562 10.1332 24.2057 12.387C24.4953 13.0289 24.7726 13.6984 24.8002 14.4124C23.4626 13.6372 21.9964 13.1346 20.5271 12.6765C18.1769 11.8293 15.7163 11.2409 13.4917 10.0765C12.9738 9.76706 12.3135 9.44991 12.1725 8.8049C12.1159 8.24721 12.7057 7.93619 13.127 7.72017Z"
    fill="#FFD83D" />
  <path
    d="M7.71097 13.1441C8.23035 11.7345 9.0822 10.4261 10.2389 9.45627C10.5331 11.8755 11.5627 14.2135 13.2633 15.9723C15.3025 18.0913 18.2074 19.392 21.1628 19.343C22.3364 19.3798 23.4839 19.1086 24.6284 18.8895C23.5023 22.9588 19.0424 25.6599 14.9103 25.0103C12.416 24.6916 10.1133 23.2146 8.72369 21.1294C7.15635 18.8251 6.76107 15.7655 7.71097 13.1441Z"
    fill="#FFD83D" />
</svg>