<svg  viewBox="0 0 22 22" fill="none" xmlns="http://www.w3.org/2000/svg">
<circle cx="11" cy="11" r="10" fill="#E84142" stroke="#E84142" stroke-width="2"/>
<path fill-rule="evenodd" clip-rule="evenodd" d="M11.5375 4.67152C11.2257 4.13293 10.7297 4.13293 10.4178 4.67152L4.75564 14.6424C4.44383 15.1881 4.69894 15.6203 5.32257 15.6203H8.1643C8.73832 15.5849 9.25564 15.2802 9.56745 14.7983L12.9903 8.86679C13.2383 8.35655 13.2383 7.75419 12.9903 7.24396L11.9698 5.45104L11.5375 4.67152ZM15.3013 11.2334C14.9895 10.6948 14.4863 10.6948 14.1745 11.2334L12.1974 14.6421C11.8926 15.1807 12.1478 15.62 12.7643 15.62H16.6761C17.2997 15.62 17.5548 15.1807 17.243 14.6421L15.3013 11.2334Z" fill="white"/>
</svg>
