<svg  viewBox="0 0 20 20" fill="none" xmlns="http://www.w3.org/2000/svg">
<path d="M19.7005 12.419C18.365 17.7762 12.939 21.0365 7.58115 19.7006C2.22556 18.365 -1.03472 12.9387 0.301438 7.58197C1.63642 2.22419 7.06239 -1.03634 12.4186 0.299234C17.776 1.63481 21.0361 7.0617 19.7004 12.4191L19.7005 12.419H19.7005Z" fill="#F7931A"/>
<path fill-rule="evenodd" clip-rule="evenodd" d="M14.4099 8.57528C14.6089 7.2445 13.5957 6.52915 12.2103 6.05194L12.6597 4.24928L11.5624 3.97585L11.1249 5.73105C10.8364 5.6591 10.5401 5.59131 10.2457 5.5241L10.6864 3.75732L9.58974 3.48389L9.14005 5.28596C8.90133 5.23161 8.66685 5.17789 8.43937 5.12129L8.44064 5.11562L6.92739 4.73773L6.63549 5.90976C6.63549 5.90976 7.44962 6.09638 7.43246 6.10786C7.87682 6.21877 7.95718 6.51292 7.94383 6.74608L7.43187 8.79973C7.46247 8.8075 7.50216 8.81875 7.54596 8.83634L7.51414 8.8284L7.51409 8.82839C7.48701 8.82161 7.45887 8.81457 7.42997 8.80765L6.71237 11.6845C6.65807 11.8195 6.52023 12.0221 6.20955 11.9452C6.22055 11.9611 5.41199 11.7462 5.41199 11.7462L4.86719 13.0023L6.29519 13.3582C6.45157 13.3975 6.6061 13.4377 6.75907 13.4776L6.75917 13.4776C6.86603 13.5055 6.97212 13.5332 7.07755 13.5601L6.62346 15.3835L7.71953 15.6569L8.16921 13.8529C8.46865 13.9342 8.75923 14.0092 9.04371 14.0798L8.59554 15.8753L9.69292 16.1488L10.147 14.3288C12.0181 14.683 13.4251 14.5402 14.0174 12.8477C14.4946 11.4851 13.9936 10.6991 13.0092 10.1865C13.7262 10.0212 14.2662 9.54959 14.4102 8.57543L14.4099 8.57518L14.4099 8.57528ZM11.9027 12.0909C11.5915 13.3411 9.63466 12.8243 8.73932 12.5878L8.7393 12.5878C8.65877 12.5665 8.58682 12.5475 8.52543 12.5323L9.12801 10.1167C9.20283 10.1353 9.29426 10.1559 9.39784 10.1791C10.324 10.3869 12.2215 10.8128 11.9027 12.0909H11.9027ZM9.58226 9.05823C10.3287 9.25744 11.9571 9.69203 12.2407 8.55576H12.2408C12.5304 7.39365 10.9479 7.04328 10.175 6.87216C10.088 6.85291 10.0113 6.83593 9.94867 6.82031L9.40234 9.01112C9.45393 9.02398 9.51445 9.04013 9.58226 9.05823Z" fill="white"/>
</svg>
