<svg width="32" height="32" viewBox="0 0 32 32" fill="none" xmlns="http://www.w3.org/2000/svg">
<circle cx="16" cy="16" r="15.5" fill="white" stroke="#EFF0F3"/>
<path d="M23.2025 8.80005L16.9594 13.4563L18.1139 10.7092L23.2025 8.80005Z" fill="#E2761B"/>
<path d="M8.79008 8.80005L14.983 13.5004L13.885 10.7092L8.79008 8.80005ZM20.9564 19.5933L19.2936 22.1514L22.8513 23.1343L23.874 19.65L20.9564 19.5933ZM8.13126 19.65L9.14773 23.1343L12.7054 22.1514L11.0426 19.5933L8.13126 19.65Z" fill="#E4761B"/>
<path d="M12.5039 15.2708L11.5125 16.7767L15.0451 16.9342L14.9196 13.1222L12.5039 15.2708ZM19.4874 15.2708L17.0404 13.0781L16.9588 16.9342L20.4851 16.7767L19.4874 15.2708ZM12.7047 22.1512L14.8255 21.1116L12.9933 19.675L12.7047 22.1512ZM17.1658 21.1116L19.2929 22.1512L18.998 19.675L17.1658 21.1116Z" fill="#E4761B"/>
<path d="M19.2945 22.1514L17.1674 21.1118L17.3368 22.5043L17.318 23.0903L19.2945 22.1514ZM12.7062 22.1514L14.6827 23.0903L14.6702 22.5043L14.827 21.1118L12.7062 22.1514Z" fill="#D7C1B3"/>
<path d="M14.7132 18.7558L12.9438 18.2328L14.1924 17.6594L14.7132 18.7558ZM17.2794 18.7558L17.8002 17.6594L19.0551 18.2328L17.2794 18.7558Z" fill="#233447"/>
<path d="M12.7065 22.1512L13.0077 19.5931L11.0438 19.6498L12.7065 22.1512ZM18.9936 19.5931L19.2947 22.1512L20.9575 19.6498L18.9936 19.5931ZM20.4869 16.7766L16.9606 16.9341L17.2869 18.7551L17.8077 17.6587L19.0626 18.2321L20.4869 16.7766ZM12.9449 18.2321L14.1998 17.6587L14.7144 18.7551L15.0469 16.9341L11.5144 16.7766L12.9449 18.2321Z" fill="#CD6116"/>
<path d="M11.5125 16.7766L12.9933 19.675L12.9431 18.2321L11.5125 16.7766ZM19.0607 18.2321L18.998 19.675L20.4851 16.7766L19.0607 18.2321ZM15.0451 16.9341L14.7125 18.7551L15.1266 20.9036L15.2207 18.0746L15.0451 16.9341ZM16.9588 16.9341L16.7894 18.0683L16.8647 20.9036L17.2851 18.7551L16.9588 16.9341Z" fill="#E4751F"/>
<path d="M17.2857 18.7559L16.8653 20.9044L17.1665 21.1124L18.9987 19.6758L19.0614 18.2329L17.2857 18.7559ZM12.9438 18.2329L12.994 19.6758L14.8261 21.1124L15.1273 20.9044L14.7132 18.7559L12.9438 18.2329Z" fill="#F6851B"/>
<path d="M17.318 23.0904L17.3368 22.5045L17.18 22.3658H14.8145L14.6702 22.5045L14.6827 23.0904L12.7062 22.1516L13.3964 22.7187L14.7956 23.6953H17.1988L18.6043 22.7187L19.2945 22.1516L17.318 23.0904Z" fill="#C0AD9E"/>
<path d="M17.166 21.112L16.8648 20.9041H15.1268L14.8256 21.112L14.6688 22.5044L14.8131 22.3658H17.1786L17.3354 22.5044L17.166 21.112Z" fill="#161616"/>
<path d="M23.4667 13.7587L24 11.188L23.2031 8.80005L17.1671 13.2988L19.4886 15.2709L22.7702 16.235L23.498 15.3843L23.1843 15.1575L23.6863 14.6976L23.2973 14.3951L23.7992 14.0108L23.4667 13.7587ZM8 11.188L8.53333 13.7587L8.19451 14.0108L8.69647 14.3951L8.31373 14.6976L8.81569 15.1575L8.50196 15.3843L9.22353 16.235L12.5051 15.2709L14.8267 13.2988L8.79059 8.80005L8 11.188Z" fill="#763D16"/>
<path d="M22.7697 16.2352L19.4881 15.2712L20.4858 16.7771L18.9987 19.6755L20.9564 19.6503H23.874L22.7697 16.2352ZM12.5046 15.2712L9.22302 16.2352L8.13126 19.6503H11.0426L12.994 19.6755L11.5132 16.7771L12.5046 15.2712ZM16.9595 16.9346L17.1666 13.2991L18.1203 10.7095H13.885L14.8262 13.2991L15.0458 16.9346L15.1211 18.0814L15.1273 20.9041H16.8654L16.8779 18.0814L16.9595 16.9346Z" fill="#F6851B"/>
</svg>
