<svg width="32" height="32" viewBox="0 0 32 32" fill="none" xmlns="http://www.w3.org/2000/svg">
<circle cx="16" cy="16" r="16" fill="#8247E5"/>
<path d="M20.8028 12.7861C20.4616 12.5899 20.023 12.5899 19.6331 12.7861L16.9038 14.4051L15.0517 15.4354L12.3711 17.0544C12.0299 17.2506 11.5913 17.2506 11.2014 17.0544L9.10566 15.7788C8.7645 15.5826 8.52081 15.1901 8.52081 14.7485V12.2955C8.52081 11.903 8.71576 11.5106 9.10566 11.2653L11.2014 10.0387C11.5426 9.8425 11.9812 9.8425 12.3711 10.0387L14.4668 11.3143C14.808 11.5106 15.0517 11.903 15.0517 12.3446V13.9636L16.9038 12.8842V11.2162C16.9038 10.8237 16.7088 10.4312 16.3189 10.1859L12.4199 7.88009C12.0787 7.68385 11.64 7.68385 11.2501 7.88009L7.25362 10.235C6.86371 10.4312 6.66876 10.8237 6.66876 11.2162V15.8279C6.66876 16.2203 6.86371 16.6128 7.25362 16.8581L11.2014 19.164C11.5426 19.3602 11.9812 19.3602 12.3711 19.164L15.0517 17.594L16.9038 16.5147L19.5843 14.9448C19.9255 14.7485 20.3642 14.7485 20.7541 14.9448L22.8498 16.1713C23.191 16.3675 23.4346 16.76 23.4346 17.2016V19.6546C23.4346 20.0471 23.2397 20.4395 22.8498 20.6848L20.8028 21.9113C20.4616 22.1076 20.023 22.1076 19.6331 21.9113L17.5373 20.6848C17.1962 20.4886 16.9525 20.0961 16.9525 19.6546V18.0846L15.1004 19.164V20.783C15.1004 21.1754 15.2954 21.5679 15.6853 21.8132L19.6331 24.1191C19.9742 24.3153 20.4129 24.3153 20.8028 24.1191L24.7506 21.8132C25.0917 21.617 25.3354 21.2245 25.3354 20.783V16.1222C25.3354 15.7297 25.1405 15.3373 24.7506 15.092L20.8028 12.7861Z" fill="white"/>
</svg>
