<svg width="32" height="32" viewBox="0 0 32 32" fill="none" xmlns="http://www.w3.org/2000/svg">
<rect width="32" height="32" rx="16" fill="#121315"/>
<path d="M23.25 16C23.25 20.0041 20.0041 23.25 16 23.25C11.9959 23.25 8.75 20.0041 8.75 16C8.75 11.9959 11.9959 8.75 16 8.75C20.0041 8.75 23.25 11.9959 23.25 16Z" stroke="white" stroke-width="1.5" stroke-linecap="round" stroke-linejoin="round"/>
<path d="M18.25 12.75H15.375C14.4775 12.75 13.75 13.4775 13.75 14.375C13.75 15.2725 14.4775 16 15.375 16H16.625C17.5225 16 18.25 16.7275 18.25 17.625C18.25 18.5225 17.5225 19.25 16.625 19.25H13.75" stroke="white" stroke-width="1.5" stroke-linecap="round" stroke-linejoin="round"/>
<path d="M16 11.75V12.25" stroke="white" stroke-width="1.5" stroke-linecap="round" stroke-linejoin="round"/>
<path d="M16 19.75V20.25" stroke="white" stroke-width="1.5" stroke-linecap="round" stroke-linejoin="round"/>
</svg>
